<svg id="OBJECTS" xmlns="http://www.w3.org/2000/svg" viewBox="0 0 538.27 424.66"><defs><style>.cls-1{fill:#cf3;}.cls-2{fill:#2fc3b0;}.cls-3{fill:#2bb6a4;}.cls-4{fill:#fba92d;}.cls-5{fill:#f3c6b1;}.cls-6{fill:#da8c67;}.cls-7{fill:#f6cfbe;}.cls-8{fill:#e38907;}.cls-9{fill:#021621;}.cls-10{fill:#04293e;}.cls-11{fill:#f68677;}.cls-12{fill:#206969;}.cls-13{fill:#ffbf6c;}.cls-14{fill:#cfe7e0;}.cls-15{fill:#fefefe;}.cls-16{fill:#e68d0c;}.cls-17{fill:#f58800;}.cls-18{fill:none;stroke:#89afae;stroke-linecap:round;stroke-miterlimit:10;stroke-width:1.9px;}.cls-19{fill:#c94e2b;}.cls-20{fill:#a54022;}.cls-21{fill:#db633c;}.cls-22{fill:#cb5c37;}.cls-23{fill:#239889;}.cls-24{fill:#34d9c4;}.cls-25{fill:#333;}</style></defs><ellipse class="cls-1" cx="269.13" cy="212.33" rx="269.13" ry="212.33"/><path class="cls-2" d="M137.41,255.05a.72.72,0,0,0,.23.67.34.34,0,0,0,0,.17,16.3,16.3,0,0,1-.7,3.87,16.84,16.84,0,0,1-1.78,3.74,20.22,20.22,0,0,1-3.06,3.6,25.37,25.37,0,0,1-5,3.5h0l-.07,0v0a28.41,28.41,0,0,1-6.79,2.5,54.43,54.43,0,0,1-11.36.9h-.94a69.31,69.31,0,0,0-11,.63,27,27,0,0,0-5.5,1.49,17.27,17.27,0,0,0-3.19,1.69,20.36,20.36,0,0,0-5.09,5,33.35,33.35,0,0,0-3.7,6.72,61.86,61.86,0,0,0-2.6,7.72c-1.25,4.61-2.12,9.39-3,14l-.31,1.7c-.43,2.35-.82,4.47-1.34,6.61s-1,4.15-1.55,6l-.2.76c-1.15,4.36-2.35,8.86-3.35,13.33a109.34,109.34,0,0,0-2.44,15.2,48.16,48.16,0,0,0,.71,14.35,26.64,26.64,0,0,0,2.17,6.26,24.3,24.3,0,0,0,1.66,2.82,23.21,23.21,0,0,0,2.09,2.53,21.6,21.6,0,0,0,5.5,4.09,31.64,31.64,0,0,0,8.66,2.93A63.75,63.75,0,0,0,97.34,389h1.28c3.45,0,6.95-.17,10.34-.34l.49,0,5.89-.26c2-.07,4-.22,6-.44a76.13,76.13,0,0,0,11.7-2.21,63.8,63.8,0,0,0,11.24-4.25,51.41,51.41,0,0,0,8.57-5.27,43.22,43.22,0,0,0,11.59-13.58,55.21,55.21,0,0,0,5.7-17,80.53,80.53,0,0,0,1.07-9.45c.22-3.77.35-7.71.4-12.05a199.66,199.66,0,0,0-1.18-24.93,133.31,133.31,0,0,0-4-21,65.16,65.16,0,0,0-2.88-8.3,35.19,35.19,0,0,0-4.33-7.61,18.27,18.27,0,0,0-6.13-5.28,16,16,0,0,0-4.6-1.43,49.72,49.72,0,0,0-5-.56L143,255c-1.45-.12-2.78-.25-4.08-.46l-.62,0-.34,0a.72.72,0,0,0-.5.56"/><path class="cls-3" d="M88.18,277.82a20.44,20.44,0,0,0-5.1,5,32.86,32.86,0,0,0-3.69,6.72,59.78,59.78,0,0,0-2.6,7.72c-1.26,4.61-2.12,9.36-3,13.95L73.52,313c-.44,2.37-.84,4.5-1.34,6.6s-1.09,4.26-1.55,6l-.2.76c-1.1,4.12-2.34,8.78-3.36,13.34a110.38,110.38,0,0,0-2.44,15.2,47.85,47.85,0,0,0,.71,14.35,27.49,27.49,0,0,0,2.17,6.27,24.16,24.16,0,0,0,1.66,2.81,23.79,23.79,0,0,0,2.09,2.54,21.86,21.86,0,0,0,5.51,4.1,31.72,31.72,0,0,0,8.67,2.93A63,63,0,0,0,97.33,389h1.29c2.91,0,5.87-.12,8.75-.26a53.68,53.68,0,0,1-5.07-5.48,50.06,50.06,0,0,1-3.14-4.39A43.42,43.42,0,0,1,96.49,374a42,42,0,0,1-2-5.06,38.81,38.81,0,0,1-1.3-5.52,41.72,41.72,0,0,1-.52-6.2,54.2,54.2,0,0,1,.33-6.38c.22-2.07.53-4.12.89-6.17s.81-4.23,1.25-6.34c.88-4.22,1.78-8.45,2.37-12.73,0,0,0,.05,0,.06.24-1.78.43-3.58.52-5.39,0-.86.07-1.71.07-2.58s0-1.79-.05-2.68a105.09,105.09,0,0,0-.92-10.92s0,0,0,.06c-.45-3.26-1-6.51-1.7-9.73-.17-.79-.35-1.59-.53-2.38l-.39-1.66c-.22-1-.43-2-.65-3-.48-2.26-1-4.53-1.57-6.77-.39-1.47-.82-2.93-1.32-4.37a17.86,17.86,0,0,0-2.83,1.54"/><path class="cls-4" d="M456.14,95.76a9.26,9.26,0,0,0-1.67.15,7.75,7.75,0,0,0-4.37,2.54,11.16,11.16,0,0,0-2.39,4.79,14.46,14.46,0,0,0-.23,5.55c0,.23.07.46.12.68a37.13,37.13,0,0,0-3-2.34,30.64,30.64,0,0,0-3.4-2,32.51,32.51,0,0,0-3.76-1.59,30.61,30.61,0,0,0-7.58-1.71c-.72-.07-1.44-.1-2.13-.1a23.32,23.32,0,0,0-5.21.59,21.88,21.88,0,0,0-6.92,3,24.5,24.5,0,0,0-5.25,4.45,28.3,28.3,0,0,0-5.73,10.14c-2.59,8-1.65,16.26,2.51,22.25.29.41.58.81.89,1.2a16.09,16.09,0,0,0-2.13,1.64,13.46,13.46,0,0,0-2,2.25,12.47,12.47,0,0,0-2.12,5A18.59,18.59,0,0,0,403.44,163a32.45,32.45,0,0,0,9.23,11.9.75.75,0,0,0,.34.18,163.55,163.55,0,0,0,26.35,16.8A143.9,143.9,0,0,0,468,202.66a149.87,149.87,0,0,0,31,4.56l.61,0a.77.77,0,0,0,.34.08.74.74,0,0,0,.51-.21A82,82,0,0,0,522,178.32a61,61,0,0,0,4.9-16.4,36.59,36.59,0,0,0-.85-15.21,29.61,29.61,0,0,0-3-6.9,31.07,31.07,0,0,0-4.92-6.22c-4.57-4.5-10.35-7.47-14.87-9.55-2.27-1-4.61-2-6.88-3-2-.82-4-1.66-5.95-2.55a63,63,0,0,1-12.17-6.91l-.11-.08a34.91,34.91,0,0,1-2.82-2.39c-.83-.77-1.62-1.57-2.49-2.46l-.56-.58c-1.6-1.63-3.25-3.31-5-4.85a25.52,25.52,0,0,0-6.22-4.3,11.92,11.92,0,0,0-5-1.18"/><path class="cls-5" d="M414.43,154.75a12.41,12.41,0,0,0-1.64.13,10.35,10.35,0,0,0-6.37,3.71A18.43,18.43,0,0,0,402.8,166a29,29,0,0,0-.78,9,24.54,24.54,0,0,0,2.11,8.59,13.14,13.14,0,0,0,6.24,6.67.86.86,0,0,0,.38.1.57.57,0,0,0,.18,0,.75.75,0,0,0,.43-.33.72.72,0,0,0,.08-.52,30,30,0,0,0,9.21-9.93,25.43,25.43,0,0,0,2.51-6.56,27.2,27.2,0,0,0,.63-5,21.68,21.68,0,0,0-.42-5.4,11.37,11.37,0,0,0-2-4.64,7.93,7.93,0,0,0-1.83-1.78,7.48,7.48,0,0,0-2.35-1.07,10.79,10.79,0,0,0-2.34-.33l-.43,0"/><path class="cls-6" d="M411.16,159.32a.38.38,0,0,0,.26.45l.56.21h0l0,0,.07,0-.06,0a7.25,7.25,0,0,1,1.49.89,6.73,6.73,0,0,1,1.1,1.1,10.57,10.57,0,0,1,1.17,2,19,19,0,0,1,1.17,4.75,2.89,2.89,0,0,0,0-.29,35.15,35.15,0,0,1,.27,4,1,1,0,0,0,1,1,1,1,0,0,0,1-1,23.38,23.38,0,0,0-.2-4.27,12.66,12.66,0,0,0-1.25-4.07,9.54,9.54,0,0,0-2.45-3.05,11.83,11.83,0,0,0-3.73-2l-.1,0a.39.39,0,0,0-.36.28m3.47,2.72,0,0,0,0M412,160h0"/><path class="cls-7" d="M439.67,123.66a.77.77,0,0,0-.52.21,51.44,51.44,0,0,0-10.1,12.64,100.47,100.47,0,0,0-6.79,14.77c-1,2.53-1.92,5.13-2.82,7.64-1.22,3.37-2.48,6.85-3.84,10.23l0-.07c-.51,1.22-1,2.44-1.55,3.65-.27.61-.55,1.22-.83,1.83s-.6,1.29-.89,1.94a52.71,52.71,0,0,0-2.74,7.91,41.38,41.38,0,0,0-1.24,7.94,32.73,32.73,0,0,0,.48,7.77,29.44,29.44,0,0,0,2.39,7.44,31.61,31.61,0,0,0,4.51,6.92,38,38,0,0,0,6,5.6,43.33,43.33,0,0,0,6.7,4.14c1.42.71,2.89,1.36,4.38,1.93a25,25,0,0,1-2,5.41,22.49,22.49,0,0,1-3.16,4.53l.13-.13a21.61,21.61,0,0,1-3.95,3.32l.17-.08a23.31,23.31,0,0,1-4.73,2.23l-.81.24a.59.59,0,0,0-.26-.07.77.77,0,0,0-.52.17.68.68,0,0,0-.25.5,8.73,8.73,0,0,0,.44,2.55,10.33,10.33,0,0,0,1.12,2.38,17.14,17.14,0,0,0,3.82,4.15,31.38,31.38,0,0,0,5,3.24,49.5,49.5,0,0,0,5.34,2.42,43.22,43.22,0,0,0,4.93,1.58,46.31,46.31,0,0,0,8.73,1.33c1.17.08,2.4.12,3.66.12,1.62,0,3.33-.06,5.21-.19,3.06-.2,6.11-.58,8.73-.93A45.52,45.52,0,0,0,476.57,256a.75.75,0,0,0,.36-.93.73.73,0,0,0-.16-.58,26.07,26.07,0,0,1-3.62-4.36,21.4,21.4,0,0,1-2.24-4.65h0a21.94,21.94,0,0,1-1-5.2,26.58,26.58,0,0,1,.52-6.62h0a41.74,41.74,0,0,1,3.82-10.35v0c.81-1.55,1.72-3.15,2.73-4.76a27.19,27.19,0,0,0,6.58.8,28.79,28.79,0,0,0,7.48-1,26.62,26.62,0,0,0,6.89-3,20.27,20.27,0,0,0,4.8-4,16.51,16.51,0,0,0,3.88-9,15.89,15.89,0,0,0-.21-4.67,13.9,13.9,0,0,0-1.53-4.13,11.27,11.27,0,0,0-6.16-5.16,12.08,12.08,0,0,0-3.91-.62h-.71a15.08,15.08,0,0,0-2.61.38,42.86,42.86,0,0,0,6.21-8.49,39.08,39.08,0,0,0,4.75-13.25,26.9,26.9,0,0,0,.19-6.76,21.09,21.09,0,0,0-1.66-6.38,27.29,27.29,0,0,0-1.53-2.9c-.53-.9-1.13-1.82-1.78-2.74a40.36,40.36,0,0,0-4.08-4.89c-5.48-5.61-12.91-10.11-22.07-13.39A93.6,93.6,0,0,0,458.7,126,116.33,116.33,0,0,0,446,124.13c-1.5-.13-2.75-.24-4.05-.24-.59,0-1.14,0-1.7.07a.31.31,0,0,0-.08-.1.68.68,0,0,0-.49-.2"/><path class="cls-5" d="M439.13,123.86a50.94,50.94,0,0,0-9.35,11.39l.5.28,0,0a28.5,28.5,0,0,0,3.66,1.65,34.48,34.48,0,0,0,3.72,1.1h.05a36.65,36.65,0,0,0,9.45.89h-.06a33.47,33.47,0,0,0,5.38-.63v0a.24.24,0,0,1,.16-.09h0a.24.24,0,0,1,.23.16.16.16,0,0,1,.05.11.26.26,0,0,1,0,.15c.06.69.16,1.39.29,2.08s.34,1.5.56,2.24a25.16,25.16,0,0,0,1.15,3,29.39,29.39,0,0,0,1.52,2.82l0-.05a32.82,32.82,0,0,0,2.33,3.27,35.77,35.77,0,0,0,2.78,3l0-.05a38,38,0,0,0,8.16,5.91l-.06,0a36.79,36.79,0,0,0,9,3.43h.05a28.68,28.68,0,0,0,7.39.74h-.06l1.05-.06a.24.24,0,0,1,.18,0,.24.24,0,0,1,.09.15v0l.06,0a.29.29,0,0,1,.05.18c0,.21,0,.42,0,.64h0a18.25,18.25,0,0,0,.24,2.32,15.36,15.36,0,0,0,.52,2.23h0a16.54,16.54,0,0,0,.76,2,19.17,19.17,0,0,0,1,1.9,19.54,19.54,0,0,0,3,3.7l0,0a22.67,22.67,0,0,0,4,3c.31-.51.61-1,.91-1.55a39.19,39.19,0,0,0,4.75-13.26,26.89,26.89,0,0,0,.19-6.76,20.94,20.94,0,0,0-1.67-6.39,26.42,26.42,0,0,0-1.53-2.9c-.51-.88-1.11-1.8-1.78-2.74a39.31,39.31,0,0,0-4.08-4.89c-5.48-5.61-12.91-10.12-22.08-13.39a95.09,95.09,0,0,0-12.81-3.52A120.86,120.86,0,0,0,446,124.11c-1.39-.12-2.7-.24-4.05-.24-.57,0-1.12,0-1.7.07a.3.3,0,0,0-.06-.09.73.73,0,0,0-.51-.21.78.78,0,0,0-.54.22"/><polyline class="cls-5" points="437.68 138.28 437.68 138.28 437.68 138.28"/><path class="cls-6" d="M459.29,226.76a35.38,35.38,0,0,1-8,1.64,41.21,41.21,0,0,1-8.16-.09,48.15,48.15,0,0,1-8.82-1.83q-.59-.14-1.14-.3l-.1,0-.09,0-.42-.09.33.12a26,26,0,0,1-2,5.39c-.28.52-.57,1-.88,1.52l.3.09-.07,0a32.36,32.36,0,0,0,8.41,1.2h0a41.13,41.13,0,0,0,10.54-1.24h0a36.26,36.26,0,0,0,8.47-3.31h0a26.38,26.38,0,0,0,5.26-3.82c.32-.31.65-.64.95-1-1.51.62-3,1.25-4.57,1.76m-1.59,3,0,0,0,0"/><path class="cls-6" d="M462.9,226h0Z"/><path class="cls-6" d="M462.87,226l0,0Z"/><path class="cls-6" d="M491,193.43a.8.8,0,0,0-.7.89,11,11,0,0,1,.1,1.62,13.32,13.32,0,0,1-.47,3.14.07.07,0,0,1,0-.05.31.31,0,0,0,0,.08l0,.09s0,0,0-.06a17.34,17.34,0,0,1-1.76,3.9,17.74,17.74,0,0,1-2.68,3.31,13.16,13.16,0,0,1-2.64,1.93c-.32.17-.65.33-1,.47a.29.29,0,0,0-.16.37.28.28,0,0,0,.37.16,16.48,16.48,0,0,0,7.2-6,15.87,15.87,0,0,0,2.08-4.33,12.29,12.29,0,0,0,.55-4.78.8.8,0,0,0-.79-.71H491m-1.09,5.71v-.06l0,.06"/><path class="cls-6" d="M492.68,192.87a8.85,8.85,0,0,0-1,.17l-.5.13a2.54,2.54,0,0,0-.38.16l-.08,0a.63.63,0,0,0-.06,1.16.69.69,0,0,0,.47,0,8.32,8.32,0,0,0,.85-.13c.32,0,.63-.08.95-.1a12.31,12.31,0,0,1,1.92,0,15.76,15.76,0,0,1,3.79.71l-.13,0a10.17,10.17,0,0,1,2.34,1.09,9.06,9.06,0,0,1,1.57,1.33h0a7,7,0,0,1,.93,1.34,6.72,6.72,0,0,1,.41,1.05.31.31,0,0,0,.39.19.32.32,0,0,0,.18-.39,7.46,7.46,0,0,0-.77-1.76,8.35,8.35,0,0,0-1.21-1.51,9.53,9.53,0,0,0-1.57-1.26,15.54,15.54,0,0,0-1.91-1.07,12.47,12.47,0,0,0-4.07-1.09c-.38,0-.75,0-1.13,0s-.64,0-.95,0m10.6,5.79,0,0,0,0"/><path class="cls-4" d="M443.35,118.08a53.88,53.88,0,0,0-6.74.41c-1.32.16-2.65.39-4,.68-1.51.34-3,.82-4.45,1.28-1.05.33-2.13.67-3.21,1h0l-.79.19-.23.08a.72.72,0,0,0-.82.06.77.77,0,0,0-.26.52.69.69,0,0,0,.17.5,30.66,30.66,0,0,0,5,4.47,35.25,35.25,0,0,0,6,3.4A39.16,39.16,0,0,0,447.6,134c.79.05,1.58.08,2.37.08a33.83,33.83,0,0,0,6.81-.69,33.1,33.1,0,0,0,1.76,5.67,34.17,34.17,0,0,0,3.18,5.87,35.71,35.71,0,0,0,9.32,9.35,35.11,35.11,0,0,0,10.29,4.87,34.11,34.11,0,0,0,5.64,1.11,30,30,0,0,0,3.45.19c.82,0,1.66,0,2.5-.09l.1,0a54.28,54.28,0,0,0-6.15,14.51,24.72,24.72,0,0,0-.69,8.15,14.46,14.46,0,0,0,.83,3.7,5.62,5.62,0,0,0,1.53,2.26,3.35,3.35,0,0,0,2,.75h.1a5.33,5.33,0,0,0,2.2-.52,12,12,0,0,0,2.28-1.42,24.41,24.41,0,0,0,2.21-2,37.09,37.09,0,0,0,3.53-4.11,42.65,42.65,0,0,0,3.29-5.09,32.55,32.55,0,0,0,3.72-10.31,26.75,26.75,0,0,0-.18-9.69,27.26,27.26,0,0,0-1.38-4.6,31.88,31.88,0,0,0-2.14-4.38,40.52,40.52,0,0,0-6.21-8,56.73,56.73,0,0,0-8.29-6.88,75.7,75.7,0,0,0-9.89-5.75,89.91,89.91,0,0,0-22-7.39,78.1,78.1,0,0,0-11-1.39c-1.18-.07-2.35-.1-3.49-.1"/><path class="cls-8" d="M424.53,124.81a.24.24,0,0,0,0,.35,27.66,27.66,0,0,0,5.11,4c1,.6,1.95,1.14,3,1.65s2.13,1,3.21,1.39a42.63,42.63,0,0,0,6.82,1.91c1.15.23,2.3.41,3.46.54s2.25.18,3.39.2a31.79,31.79,0,0,0,3.23-.11c.5,0,1-.11,1.5-.18s.7-.09,1.05-.16a5.11,5.11,0,0,0,.95-.25l.07,0a.88.88,0,0,0,.55-.35.83.83,0,0,0-.84-1.29c-.23,0-.47.06-.7.09s-.58.1-.86.15c-.47.09-.94.14-1.4.19-.77.08-1.53.13-2.3.17a41.21,41.21,0,0,1-5.21-.08,44.8,44.8,0,0,1-5.41-.74,39,39,0,0,1-9.15-3.14h0l0,0-.05,0h0a24.89,24.89,0,0,1-5.21-3.53h0c-.28-.25-.54-.5-.79-.76a.32.32,0,0,0-.2-.08.21.21,0,0,0-.15,0m1.16.81,0,0Zm5.22,3.53h0l-.06,0,0,0"/><path class="cls-8" d="M456.45,132.55a.8.8,0,0,0-.52.34.75.75,0,0,0-.12.58,41.89,41.89,0,0,0,2.49,6.41,41.19,41.19,0,0,0,3.56,5.91,38.36,38.36,0,0,0,9.8,9.47,32.13,32.13,0,0,0,21.82,5.29.84.84,0,0,0,.7-.77.86.86,0,0,0-.79-.92c-1.73,0-3.47,0-5.2-.12a32,32,0,0,1-4.47-.62,34.42,34.42,0,0,1-7.82-2.74l.05,0-.08,0-.15-.08.09.05A36.67,36.67,0,0,1,468,150a37.82,37.82,0,0,1-6.31-7.46l.12.19a38.28,38.28,0,0,1-4.38-9.2h0a3.38,3.38,0,0,1-.11-.34.83.83,0,0,0-.33-.51.8.8,0,0,0-.45-.14h-.13m1,1.07,0,.09Zm18.38,21.74,0,0-.09,0Z"/><path class="cls-8" d="M429.27,122a.23.23,0,0,0,.05.33,36.39,36.39,0,0,0,10,5.1,28.67,28.67,0,0,0,5.56,1.18,21.79,21.79,0,0,0,2.8.14,19.57,19.57,0,0,0,3-.23.75.75,0,0,0,.63-.83.75.75,0,0,0-.83-.62,28.16,28.16,0,0,1-3.55.29H447a29.06,29.06,0,0,1-7.19-.87l.14,0a34.31,34.31,0,0,1-8-3.06l.07,0a24.61,24.61,0,0,1-2.49-1.55.33.33,0,0,0-.14,0,.23.23,0,0,0-.19.1"/><path class="cls-8" d="M472.23,143.52a.23.23,0,0,0,0,.33c.68.65,1.39,1.29,2.1,1.9s1.52,1.23,2.31,1.8a33.29,33.29,0,0,0,5.09,3,26.37,26.37,0,0,0,5.57,2,19.55,19.55,0,0,0,2.86.44,16.81,16.81,0,0,0,3,0,.72.72,0,0,0,.61-.82.74.74,0,0,0-.29-.48.73.73,0,0,0-.52-.13c-.6,0-1.19.09-1.79.1h.18a21.56,21.56,0,0,1-5.12-.64h0l-.13,0h.06a30,30,0,0,1-3.62-1.19,32.14,32.14,0,0,1-3.55-1.7h0a32.16,32.16,0,0,1-6.49-4.68.21.21,0,0,0-.13-.05.25.25,0,0,0-.2.1m6.85,4.65.05,0-.05,0m7.2,2.88h0l-.08,0Z"/><path class="cls-8" d="M471.56,131.13a.49.49,0,0,0-.08.67,41.42,41.42,0,0,0,3.4,4.3A33.74,33.74,0,0,0,479,140a29.8,29.8,0,0,0,4.71,3.08,26.91,26.91,0,0,0,2.56,1.18,20.71,20.71,0,0,0,2.69.9.86.86,0,0,0,.57,0,.77.77,0,0,0,.4-1,.74.74,0,0,0-.42-.41,33.57,33.57,0,0,1-3.26-1.07,28,28,0,0,1-3-1.4,32.19,32.19,0,0,1-6.64-4.9,34.35,34.35,0,0,1-4.34-5.13.46.46,0,0,0-.37-.18.51.51,0,0,0-.3.1m5,5.24,0,0,0,0m6.64,4.89,0,0,0,0"/><path class="cls-9" d="M427,235.68a19.15,19.15,0,0,1-3.75,1.76,19.4,19.4,0,0,1-4.19.94l-.47.05-.29,0c-.42.07-.83.11-1.25.14l-.62,0-.47.05c-.74.08-1.51.14-2.33.18h.19c-1.07,0-2.24.06-3.67.06l-2.41,0h-4.38a49.37,49.37,0,0,0-5,.32,24.13,24.13,0,0,0-4.72,1.07,15.72,15.72,0,0,0-4.2,2.18,18.83,18.83,0,0,0-3.57,3.58,37.45,37.45,0,0,0-5.29,9.42,69.28,69.28,0,0,0-3.35,11c-.74,3.26-1.37,6.8-2,11.14-.43,3-.81,6-1.18,9l-.16,1.33c-.37,3-.86,7-1.29,11a227.33,227.33,0,0,0-1.46,23.12,116,116,0,0,0,1.89,23,68.69,68.69,0,0,0,7.46,21,54.75,54.75,0,0,0,6.49,9.12,39.26,39.26,0,0,0,8.58,7.19A57.73,57.73,0,0,0,416.92,390a86.5,86.5,0,0,0,11.45,1.07c.87,0,1.74,0,2.61,0s2,0,3-.05c2.07-.06,3.92-.19,5.64-.37a50.78,50.78,0,0,0,19.94-6.27,48.48,48.48,0,0,0,8.11-5.83,56.86,56.86,0,0,0,7-7.49,70,70,0,0,0,6-9.08,100.9,100.9,0,0,0,5.26-10.95,127,127,0,0,0,7.29-24.93,135.36,135.36,0,0,0,2.34-26.35,125.25,125.25,0,0,0-.81-12.88,95.56,95.56,0,0,0-2.22-12.49,54.72,54.72,0,0,0-5.23-13.69c-.54-1-1.15-2-1.87-3a26.85,26.85,0,0,0-2.23-2.75c-1.18-1.25-2.5-2.41-3.77-3.53-.52-.45-1.05-.91-1.56-1.38-.92-.85-1.7-1.63-2.39-2.4a13.29,13.29,0,0,1-1-1.19c-.63-.67-1.23-1.36-1.79-2.08l-.08-.11c-.1-.13-.21-.25-.3-.38s-.12-.13-.17-.2a31.26,31.26,0,0,1-1.89-2.56.69.69,0,0,0-.2.13,10.8,10.8,0,0,1-1.23,1.06,20.93,20.93,0,0,1-4.37,2.3,27.21,27.21,0,0,1-6.54,1.55,30.45,30.45,0,0,1-3.48.19,36.66,36.66,0,0,1-5.07-.36h-.08a38.42,38.42,0,0,1-9.58-2.75,32,32,0,0,1-7-4.17l-.1-.06h0a26.1,26.1,0,0,1-3.18-3.12c-.11-.11-.23-.22-.33-.34-.26-.26-.51-.54-.75-.81a14.84,14.84,0,0,1-1.32.92m-54.3,94.62h0v0l0-.08c0,.39,0,.77,0,1.16l-.06-1h0v0h0Zm63,59.26h-.08l.72,0-.62,0Z"/><path class="cls-10" d="M425.13,239.48a.24.24,0,0,0-.1.32,29.44,29.44,0,0,0,3.78,4.41,34.07,34.07,0,0,0,4.71,3.76,36.66,36.66,0,0,0,5.46,3,39,39,0,0,0,6,2.09,42.45,42.45,0,0,0,6.23,1.16,32.11,32.11,0,0,0,6.2.07,29.54,29.54,0,0,0,6-1.14,24.86,24.86,0,0,0,5.57-2.42c.21-.12.41-.25.61-.38l.3-.2.46-.34a.9.9,0,0,0,.31-.66,1,1,0,0,0-.24-.66.93.93,0,0,0-.66-.3l-.24,0a.85.85,0,0,0-.37.18,6.1,6.1,0,0,0-.54.34l-.71.44c-.44.26-.9.51-1.35.75a24.28,24.28,0,0,1-2.81,1.25,30.58,30.58,0,0,1-7.14,1.57h.09a36.4,36.4,0,0,1-9.44-.35h0a39.53,39.53,0,0,1-9.83-3.13l.11.05a38.22,38.22,0,0,1-3.93-2.14,31.6,31.6,0,0,1-3.59-2.61h0a26.45,26.45,0,0,1-4.54-4.91l0,0-.07-.09a.26.26,0,0,0-.21-.13.23.23,0,0,0-.11,0m38.8,11.62-.15.05.15-.05m-16.82,1.25.09,0-.09,0m9.37.4h0m-31-13.11v0"/><path class="cls-6" d="M448.6,163.63a.24.24,0,0,0-.21.11c-.5.93-1.08,1.83-1.65,2.71l-.15.22-1.39,2.09L444,170.59a78.63,78.63,0,0,0-5.45,9.25,24.38,24.38,0,0,0-1.75,4.56,13.47,13.47,0,0,0-.41,2.2,9.2,9.2,0,0,0,0,2,5.93,5.93,0,0,0,1.57,3.42,6.5,6.5,0,0,0,2.26,1.49,8.47,8.47,0,0,0,1.8.45,7.53,7.53,0,0,0,1.18.09c.28,0,.57,0,.86,0a7,7,0,0,0,1-.14,7.43,7.43,0,0,0,1.15-.37,1,1,0,0,0,.51-1.06,1,1,0,0,0-1-.75.55.55,0,0,0-.18,0c-.77.14-1.39.22-1.95.27l-.77,0a8.9,8.9,0,0,1-1.49-.12,6.23,6.23,0,0,1-1.2-.39,5.51,5.51,0,0,1-.94-.63,4.94,4.94,0,0,1-.76-.85,5.21,5.21,0,0,1-.44-.92,6.24,6.24,0,0,1-.29-1.49A10.63,10.63,0,0,1,438,185a24.22,24.22,0,0,1,1-3.3c.4-1.09.92-2.28,1.58-3.64l-.09.09c1.53-3,3.23-5.8,4.71-8.15l.58-.91.58-.91,1-1.56c.53-.84,1.08-1.7,1.55-2.6a.24.24,0,0,0-.07-.35.2.2,0,0,0-.14,0"/><path class="cls-9" d="M452.85,198.82h0a25.82,25.82,0,0,1-2.57.86,30.24,30.24,0,0,1-5.16.89c-1.09.1-2.25.14-3.41.14a48,48,0,0,1-5.88-.37.45.45,0,0,0-.06.2,11.27,11.27,0,0,0,.95,5,8.59,8.59,0,0,0,6.55,4.9,8.5,8.5,0,0,0,1.2.09,8.16,8.16,0,0,0,6.86-3.73,9.47,9.47,0,0,0,1.24-2.79,13.4,13.4,0,0,0,.49-3.88l-.06-.52,0-.38c0-.16-.05-.3-.08-.43l0,0"/><path class="cls-11" d="M452.21,203h.06a13.66,13.66,0,0,0-3.3.5H449a17.12,17.12,0,0,0-4,1.69l.05,0a15.83,15.83,0,0,0-3.16,2.43,10.9,10.9,0,0,0-1,1.15c-.2.26-.39.54-.57.82a9.27,9.27,0,0,0,2.86.95,8.16,8.16,0,0,0,4-.41,8.12,8.12,0,0,0,4-3.23,10.1,10.1,0,0,0,1.25-2.78c.09-.35.18-.71.24-1.07h-.6"/><path class="cls-9" d="M430.83,169.18c-1.23,0-2.69,1.57-3.49,3.74-.92,2.49-.64,4.88.62,5.34a1.12,1.12,0,0,0,.45.08c1.22,0,2.68-1.57,3.48-3.74a6.3,6.3,0,0,0,.23-4.48,1.5,1.5,0,0,0-.85-.86,1.32,1.32,0,0,0-.44-.08"/><path class="cls-9" d="M464.93,179.5c-1.25,0-2.74,1.61-3.56,3.82a6.47,6.47,0,0,0-.23,4.58,1.53,1.53,0,0,0,.86.87,1.17,1.17,0,0,0,.46.08c1.25,0,2.74-1.6,3.55-3.82a7.82,7.82,0,0,0,.52-3.49,2.15,2.15,0,0,0-1.15-1.95,1.13,1.13,0,0,0-.45-.09"/><path class="cls-8" d="M471.66,150.16c-1.8,0-3.12.57-3.69,1.61s-.35,2.64.78,4.31a15.18,15.18,0,0,0,5.17,4.49,15,15,0,0,0,6.92,2.05c1.81,0,3.12-.57,3.69-1.61,1.29-2.3-1.38-6.25-5.95-8.8a15,15,0,0,0-6.92-2.05"/><path class="cls-8" d="M435.34,140.15c-4.31,0-7.75,1.71-7.82,3.89,0,1.12.79,2.2,2.32,3a13.36,13.36,0,0,0,5.79,1.43h.58c4.31,0,7.75-1.71,7.83-3.9,0-1.12-.79-2.2-2.33-3a13.31,13.31,0,0,0-5.78-1.43h-.59Z"/><path class="cls-12" d="M426,148.9h-.28a13.61,13.61,0,0,0-1.48.11l-.13,0h-.13l-.32.05a14.92,14.92,0,0,0-2.62.64c-.38.13-.76.27-1.13.42l-.12,0-.19.08a18.88,18.88,0,0,0-6.83,5.1,21,21,0,0,0-2.54,3.64,23.12,23.12,0,0,0-1.13,2.39,23,23,0,0,0-1.66,9.49c0,.06,0,.12,0,.18,0,.22,0,.43,0,.64a20.45,20.45,0,0,0,2.45,8.21,16.9,16.9,0,0,0,5.83,6.16,15.11,15.11,0,0,0,8,2.24h.32a16.63,16.63,0,0,0,8.28-2.51,20.16,20.16,0,0,0,6.16-6,22.39,22.39,0,0,0,3.31-7.79c.1-.45.18-.91.25-1.36h.65l.81,0a10.18,10.18,0,0,1,2.21.53,9.34,9.34,0,0,1,1.79,1l.35.27a25.9,25.9,0,0,0-1.2,3.49,20.15,20.15,0,0,0-.62,4.85c0,.39,0,.78,0,1.17a19.75,19.75,0,0,0,1.86,7.41l.07.13c.11.24.22.47.34.69l.08.16.07.12a20,20,0,0,0,13.54,10,20,20,0,0,0,4,.4,19.92,19.92,0,0,0,9.14-2.19,20.28,20.28,0,0,0,3.61-2.39,19.6,19.6,0,0,0,5.21-6.61,20.19,20.19,0,0,0,2-8.66,19.77,19.77,0,0,0-.48-4.5,19.53,19.53,0,0,0-1.44-4.17,19.86,19.86,0,0,0-5.17-6.72A20.12,20.12,0,0,0,467,161l-1,0a21.19,21.19,0,0,0-2.19.13c-.35,0-.69.08-1,.14l-.26,0a19.36,19.36,0,0,0-4.31,1.27l-.12.05-.22.1c-.35.16-.68.32-1,.49l-.17.09-.13.07a20.34,20.34,0,0,0-2.2,1.37c-.42.3-.83.61-1.24,1l-.7.61a19.34,19.34,0,0,0-3,3.51,16.69,16.69,0,0,0-.88,1.43,7.18,7.18,0,0,0-1.32-.87,10.53,10.53,0,0,0-1.84-.73,9.11,9.11,0,0,0-2.66-.39h-.52a20.15,20.15,0,0,0-3.57-13.74,16.13,16.13,0,0,0-6.33-5.24,15.31,15.31,0,0,0-4.48-1.25l-.13,0a17.39,17.39,0,0,0-1.75-.09m-1.79,1.58h.19l.13,0h.11l.24,0h1.65c.42,0,.83,0,1.24.09a15.16,15.16,0,0,1,3.72,1,15.51,15.51,0,0,1,3,1.78,16.79,16.79,0,0,1,2.72,2.74,19.06,19.06,0,0,1,2.21,3.81,20.21,20.21,0,0,1,1.29,4.84l0-.1a24.16,24.16,0,0,1,0,5.24.7.7,0,0,0-.06.3l0,.11h0a23,23,0,0,1-1.44,5.25l-.06.16a21.47,21.47,0,0,1-2.59,4.44,19.89,19.89,0,0,1-3.42,3.44,18.27,18.27,0,0,1-3.82,2.24,16.07,16.07,0,0,1-3.79,1,13.87,13.87,0,0,1-1.84.12,15.07,15.07,0,0,1-1.88-.12,15.41,15.41,0,0,1-3.43-.92,15.68,15.68,0,0,1-3.18-1.86,16.17,16.17,0,0,1-2.7-2.72,18,18,0,0,1-2.17-3.71,20.18,20.18,0,0,1-1.33-4.85c-.09-.7-.14-1.43-.16-2.16a21.56,21.56,0,0,1,.15-3.2l0-.18c.09-.64.2-1.24.34-1.83l0-.1v-.11l0-.12,0-.1,0-.13,0-.11h0s0,0,.05-.15c.19-.72.42-1.43.66-2.08l0-.1.07-.18.15-.38a22,22,0,0,1,2.67-4.61c.25-.31.5-.62.76-.91l.14-.16a20.54,20.54,0,0,1,2.08-2l.35-.29a18,18,0,0,1,1.66-1.13,15.43,15.43,0,0,1,6-2.18h0M461,163.11h0a17.45,17.45,0,0,1,5-.67,19.14,19.14,0,0,1,2.54.16,18.28,18.28,0,0,1,8.81,3.69,18.75,18.75,0,0,1,5.77,7.52,18.7,18.7,0,0,1,1.25,9.6v.14a20.72,20.72,0,0,1-1.3,4.63l.11-.15a22.08,22.08,0,0,1-2.44,4.15,19.71,19.71,0,0,1-3.41,3.42,19.94,19.94,0,0,1-4.17,2.43,20.37,20.37,0,0,1-4.65,1.25,19.82,19.82,0,0,1-2.46.15,18.9,18.9,0,0,1-2.51-.16,19.49,19.49,0,0,1-4.63-1.25,18.55,18.55,0,0,1-9.88-9.77l-.06-.12c-.09-.23-.17-.42-.23-.6l0-.12c-.24-.68-.46-1.39-.64-2.12l0-.14,0-.1,0-.1,0-.1,0-.11,0-.12,0-.12,0-.11,0-.16a.52.52,0,0,0,0-.17l0-.11,0-.21,0-.31v-.11l0-.13,0-.12v-.15l0-.17v-.36a19.43,19.43,0,0,1,0-3.24V179c0-.22,0-.41.07-.61.1-.67.23-1.35.4-2l0-.1,0-.1.06-.17,0-.16a21.17,21.17,0,0,1,.72-2.08,19.7,19.7,0,0,1,2.38-4.12,20.45,20.45,0,0,1,3.39-3.38c.29-.22.59-.44.89-.64l.09-.07.14-.09.66-.41.12-.07.12-.07.09-.06c.67-.37,1.34-.71,2-1s1.32-.5,2-.69l.13,0,.12-.05h0"/><path class="cls-13" d="M111.1,10.65a.59.59,0,0,0-.23,0,.82.82,0,0,0-.6.81A118.78,118.78,0,0,1,109.4,30l0,.29,0,.24c-.27,2.74-.56,5.57-.7,8.36-.13,2.62-.16,5.21-.08,7.71a72.66,72.66,0,0,0,1.92,14.75,58.25,58.25,0,0,0,5.18,13.73,62.94,62.94,0,0,0,8.93,12.67A65.41,65.41,0,0,0,136.3,98a57.81,57.81,0,0,0,14,7.12,44.84,44.84,0,0,0,7,1.81,1,1,0,0,0-.15.54,1.19,1.19,0,0,0,.36.83,1.16,1.16,0,0,0,.8.31,1.13,1.13,0,0,0,.83-.35,6.82,6.82,0,0,0,.73-1,39.62,39.62,0,0,0,4.49.25l1.14,0H166a.29.29,0,0,0,.29-.29.29.29,0,0,0-.28-.28c-.45,0-.88,0-1.32,0a40.33,40.33,0,0,1-4.46-.26c.33-.57.61-1.14.89-1.71.58-1.17,1.1-2.35,1.54-3.34a54.74,54.74,0,0,0,2.57-7.12,60.88,60.88,0,0,0,.43-30,55.44,55.44,0,0,0-2.19-6.93,62.19,62.19,0,0,0-3.1-6.8,55.61,55.61,0,0,0-8.54-11.9,50.14,50.14,0,0,0-11.53-9.07c-1.69-1-3.47-1.83-5.19-2.66L133,26l-3.42-1.67a74.74,74.74,0,0,1-10.6-6.19,32.87,32.87,0,0,1-6.09-5.71l.1.14c-.38-.5-.77-1-1.13-1.54a.86.86,0,0,0-.71-.4"/><path class="cls-4" d="M159.62,94.35c-.69-1.36-1.46-2.69-2.23-4s-1.57-2.62-2.38-3.91c-1.19-1.91-2.41-3.81-3.64-5.69.4-.89.76-1.8,1.08-2.72.39-1.12.73-2.26,1-3.4s.56-2.24.78-3.36.39-2.21.55-3.32a52.83,52.83,0,0,0,.47-6.65c0-2.43-.11-4.85-.29-7.26a.25.25,0,0,0-.25-.2h0a.23.23,0,0,0-.19.27c0,.57.08,1.15.1,1.72v0a57.24,57.24,0,0,1-.09,6.68,43.7,43.7,0,0,1-.87,6.13h0a43.36,43.36,0,0,1-1.74,5.93c-.37,1-.77,2-1.18,3-.18.45-.37.9-.56,1.35-2.87-4.33-5.84-8.6-8.8-12.87.19-.68.36-1.36.5-2.05a30,30,0,0,0,.44-3.12,44.93,44.93,0,0,0,.12-6.46c-.1-2.11-.32-4.21-.58-6.31-.14-1.05-.27-2.09-.42-3.14s-.31-2.18-.44-3.28a.25.25,0,0,0-.24-.19h0a.24.24,0,0,0-.19.28c.37,3.13.63,6.28.78,9.43a63,63,0,0,1-.05,6.59c-.06,1.11-.17,2.21-.32,3.31s-.35,2.19-.59,3.27a.5.5,0,0,0,0,.13c-1.43-2.06-2.86-4.13-4.27-6.21q-2.35-3.49-4.66-7c-.58-.9-1.16-1.8-1.73-2.71a.35.35,0,0,0,.08-.13,26.78,26.78,0,0,0,.8-4.27,44.85,44.85,0,0,0,.23-4.49c0-1.48-.08-3-.17-4.43s-.24-3-.37-4.53a.24.24,0,0,0-.24-.2h0a.24.24,0,0,0-.19.28c.08.95.14,1.91.19,2.87s.08,2.15.08,3.23,0,2.15-.1,3.23a39.47,39.47,0,0,1-.9,6.31c-.06.27-.13.55-.19.82-2.14-3.42-4.19-6.88-6.13-10.41-.44-.79-.86-1.58-1.29-2.38a.38.38,0,0,0-.13-.25l-.25-.48a35.72,35.72,0,0,0,0-4.51,25.27,25.27,0,0,0-.87-5.18.27.27,0,0,0-.24-.2h0a.23.23,0,0,0-.19.27,20.84,20.84,0,0,1,.47,2.22c.11.79.17,1.59.21,2.39v.07h0a34.4,34.4,0,0,1-.09,3.52q-1.55-3-2.94-6.11h0c-1.15-2.58-2.23-5.21-3.2-7.87a.26.26,0,0,0-.23-.17h-.07a.25.25,0,0,0-.16.3c1.86,5.09,4,10.08,6.33,15-.66-.4-1.31-.81-1.94-1.25l0,0a21.08,21.08,0,0,1-3.88-3.61v0c-.28-.36-.56-.72-.82-1.08a.27.27,0,0,0-.2-.12.17.17,0,0,0-.12,0,.23.23,0,0,0-.08.33,25.79,25.79,0,0,0,3.48,4,24.06,24.06,0,0,0,2,1.64,17.47,17.47,0,0,0,2.16,1.37c1.08,2.2,2.21,4.39,3.36,6.56s2.37,4.37,3.61,6.53c-1.24-.57-2.48-1.14-3.69-1.77a38,38,0,0,1-4.7-2.86q-1-.69-1.86-1.44c-.63-.52-1.22-1.08-1.8-1.65a.24.24,0,0,0-.16-.07.27.27,0,0,0-.18.08.24.24,0,0,0,0,.33,35.17,35.17,0,0,0,6.14,5c1.11.73,2.24,1.4,3.39,2s2.46,1.32,3.72,1.89c1.28,2.2,2.57,4.39,3.9,6.57,1.47,2.4,3,4.79,4.45,7.18.55.91,1.13,1.8,1.69,2.69-.73-.21-1.47-.41-2.2-.63q-2.3-.69-4.53-1.54a46.44,46.44,0,0,1-4.61-2.08,38.13,38.13,0,0,1-4.35-2.67h0l0,0h0c-.59-.43-1.17-.88-1.73-1.35a.27.27,0,0,0-.17-.06.23.23,0,0,0-.17.07.25.25,0,0,0,0,.34,43.37,43.37,0,0,0,4.33,3.18,47.55,47.55,0,0,0,5,2.78A51.68,51.68,0,0,0,135.17,66a36.4,36.4,0,0,0,4.35,1.33c2.12,3.35,4.26,6.69,6.39,10,.84,1.33,1.69,2.65,2.54,4L147,81.2,144.54,81a45.15,45.15,0,0,1-4.77-.78c-.75-.17-1.5-.36-2.24-.58s-1.54-.51-2.29-.8l0,0a28.32,28.32,0,0,1-6.16-3.35l0,0-.27-.2a.27.27,0,0,0-.17-.06.21.21,0,0,0-.16.07.25.25,0,0,0,0,.34,38.26,38.26,0,0,0,4.81,3c.82.44,1.66.85,2.52,1.22s1.7.7,2.56,1,1.77.6,2.66.85,1.81.48,2.73.68,1.85.35,2.79.47a16.35,16.35,0,0,0,2.88.13c.64,1,1.28,2,1.91,3,1,1.6,2,3.23,2.93,4.86s1.88,3.29,2.85,4.92a1.42,1.42,0,0,0,2.57-.41A1.54,1.54,0,0,0,159.62,94.35Z"/><path class="cls-4" d="M122.87,58.91l0,0,0,0Z"/><path class="cls-4" d="M122.88,58.92h0Z"/><path class="cls-4" d="M120.39,28.72v0Z"/><path class="cls-2" d="M75.69,38.48c-.63,0-1.27,0-1.9.05a33.24,33.24,0,0,0-4.45.58A31,31,0,0,0,65,40.41a29.56,29.56,0,0,0-8,4.66,25.57,25.57,0,0,0-5.59,6.14,21.89,21.89,0,0,0-1.76,3.37,18.89,18.89,0,0,0-1.06,3.29,22.19,22.19,0,0,0-.49,7A25.77,25.77,0,0,0,49.74,72,32.8,32.8,0,0,0,53,78.49,41.06,41.06,0,0,0,63.79,89.67a58.92,58.92,0,0,0,17.19,8c4.43,1.35,9,2.42,13.35,3.45,1.66.39,3.32.78,5,1.19,3.64.89,6.8,1.78,9.66,2.71a98.58,98.58,0,0,1,9.32,3.68l-.06-.08a129.27,129.27,0,0,1,12.22,6.51c1.91,1.15,3.84,2.41,5.91,3.87,1.85,1.28,3.76,2.73,5.68,4.3a82.89,82.89,0,0,1,9.64,9.3l0,.88c.06.9.12,1.79.19,2.7l0,.15v.17a1.38,1.38,0,0,0,.32.61,1.34,1.34,0,0,0,.91.42,1.37,1.37,0,0,0,.94-.35,1.29,1.29,0,0,0,.42-.91V136l.12.22c.47.64.95,1.29,1.41,1.94l.06.08.14.21a.46.46,0,0,0,.36.22.41.41,0,0,0,.18-.05.46.46,0,0,0,.21-.28.33.33,0,0,0,0-.26c-.76-1.09-1.61-2.23-2.53-3.39-.08-1.28-.2-2.57-.32-3.86L154,130l0,.15v-.67c-.13-1.44-.25-2.8-.4-4.16s-.37-2.88-.62-4.43c-.46-2.85-1.06-5.73-1.78-8.56a95.88,95.88,0,0,0-5.65-16.07,107.3,107.3,0,0,0-18.83-28,149.63,149.63,0,0,0-12.78-12.31A91.38,91.38,0,0,0,99.48,45.66a67.23,67.23,0,0,0-8.36-4,47.65,47.65,0,0,0-8.53-2.5,37.31,37.31,0,0,0-6.9-.68"/><path class="cls-12" d="M157.16,118.23a162.49,162.49,0,0,0-11.63-12.7C142,102,138.2,98.64,134.35,95.41a45.6,45.6,0,0,0-2.1-6c-.85-2-1.8-3.9-2.83-5.79s-2.06-3.61-3.16-5.37-2.41-3.65-3.64-5.45a.25.25,0,0,0-.19-.09.27.27,0,0,0-.15,0,.24.24,0,0,0,0,.34c.54.79,1.07,1.6,1.57,2.42l0,0,.55.89,0-.06a79.41,79.41,0,0,1,4.91,9.36c.72,1.62,1.38,3.26,2,4.91.38,1,.74,2.06,1.1,3.1-4.32-3.54-8.77-6.9-13.32-10.14-1.61-1.15-3.25-2.27-4.88-3.38-.15-.42-.29-.85-.45-1.26-.21-.57-.43-1.13-.66-1.69-.49-1.16-1-2.31-1.57-3.44a68.34,68.34,0,0,0-3.69-6.58c-.67-1-1.36-2.1-2.1-3.11s-1.48-2-2.24-3-1.55-2-2.36-3c-.39-.47-.78-.92-1.18-1.37s-.87-1-1.31-1.49a.25.25,0,0,0-.19-.09.2.2,0,0,0-.14.06.24.24,0,0,0,0,.33c1.2,1.35,2.34,2.77,3.42,4.22s2.16,3,3.13,4.61c1.59,2.62,3.08,5.3,4.43,8.06.7,1.42,1.36,2.87,2,4.32.29.66.58,1.32.86,2-2.25-1.51-4.53-3-6.81-4.46-4.62-3-9.32-5.86-14.14-8.53l-1.63-.88a.11.11,0,0,1,0,0,31.13,31.13,0,0,0-3.09-5.67c-.59-.89-1.21-1.75-1.87-2.59S83.07,54.86,82.33,54c-1.41-1.61-2.93-3.13-4.45-4.63s-3.15-3-4.74-4.47a.17.17,0,0,0-.13-.05.25.25,0,0,0-.2.1.24.24,0,0,0,0,.33l.81.76,0,0c1.13,1.07,2.23,2.17,3.31,3.28s2.12,2.27,3.13,3.45c.48.57,1,1.15,1.42,1.74s1,1.26,1.45,1.91c.91,1.25,1.78,2.53,2.59,3.84.5.82,1,1.65,1.45,2.5.21.38.4.78.61,1.16-3.85-2-7.77-3.87-11.78-5.51a73,73,0,0,0-17.86-5h0a.46.46,0,0,0-.42.44.47.47,0,0,0,.44.46l.91.13-.11,0a71.26,71.26,0,0,1,17.4,5.29l-.13,0c3.4,1.47,6.71,3.15,9.95,4.93-.86-.22-1.73-.42-2.62-.58-1.21-.21-2.43-.36-3.67-.46s-2.52-.15-3.79-.16h-.3a64.11,64.11,0,0,0-7.33.46c-1.21.14-2.41.33-3.61.54s-2.33.45-3.49.72c-.74.18-1.49.37-2.23.57a.24.24,0,0,0,.14.46,53.08,53.08,0,0,1,5.7-1.23,57.26,57.26,0,0,1,14.85-.49,36.74,36.74,0,0,1,9.32,2.17l.69.28a.55.55,0,0,0,.38,0l0,0,1,.6c4.73,2.79,9.32,5.79,13.88,8.85q2.63,1.77,5.22,3.57c-.78-.22-1.57-.43-2.37-.61a48.86,48.86,0,0,0-7.53-1c-1.29-.08-2.58-.11-3.87-.12h-.5q-1.7,0-3.39.09c-1.29.06-2.58.17-3.87.3s-2.53.28-3.79.47a74.45,74.45,0,0,0-9.8,2.15.25.25,0,0,0-.16.3.24.24,0,0,0,.3.16A61.46,61.46,0,0,1,82.54,80a67.41,67.41,0,0,1,8.75-.79c1.51,0,3,0,4.52,0s3,.16,4.49.32h-.16a66.9,66.9,0,0,1,7.17,1.16c1.15.25,2.28.53,3.41.85s2.1.66,3.14,1c3.91,2.81,7.77,5.7,11.53,8.7,1.65,1.32,3.27,2.67,4.88,4l-.18-.06c-1.17-.31-2.35-.59-3.53-.84a63.4,63.4,0,0,0-7.5-1.12c-1.24-.11-2.47-.17-3.71-.19h-.67c-1,0-2,0-3,.1-1.21.08-2.42.22-3.61.39a35.38,35.38,0,0,0-3.55.71.23.23,0,0,0-.16.3.26.26,0,0,0,.29.16c.72-.18,1.44-.33,2.17-.45s1.71-.24,2.57-.32,1.87-.09,2.81-.1,1.9,0,2.84.1,1.87.14,2.8.24a72.52,72.52,0,0,1,7.75,1.33c1.29.29,2.58.61,3.86,1q1.63.43,3.27.9c1.87,1.63,3.71,3.28,5.52,5s3.51,3.35,5.22,5.07l-1-.2c-1.53-.28-3.08-.53-4.63-.7a36.09,36.09,0,0,0-3.89-.23h-.67a30.91,30.91,0,0,0-4.61.47.23.23,0,0,0-.16.29.24.24,0,0,0,.29.16l.37-.06h-.06q.92-.14,1.83-.21c.61,0,1.21-.06,1.81-.06a35.24,35.24,0,0,1,3.56.21c1.7.19,3.38.5,5,.84,1.15.24,2.3.51,3.44.77q2.82,2.88,5.51,5.88,2.47,2.78,4.83,5.64a1.39,1.39,0,0,0,1,.45,1.45,1.45,0,0,0,1-.4,1.5,1.5,0,0,0,.45-1A1.53,1.53,0,0,0,157.16,118.23Z"/><path class="cls-2" d="M426.59,75.07l-6-3.18c0-.23,0-.46,0-.68,0-.71-.06-1.4-.12-2.09V69l0-.13c0-.53-.12-1.06-.2-1.59l1.53-1.3L426,62.43a.4.4,0,0,0,.09-.4l-1.62-4.25-1.63-4.24a.41.41,0,0,0-.05-.09.4.4,0,0,0-.36-.21l-7.12.2c-.1-.16-.19-.34-.3-.5l-.27-.42c-.53-.81-1.11-1.6-1.7-2.37l.69-1.83,2-5.14a.4.4,0,0,0-.1-.4l-3.48-2.93-3.47-2.93a.16.16,0,0,0-.08-.06.4.4,0,0,0-.42,0l-6.33,3.71,0,0c-.83-.45-1.69-.88-2.56-1.27l-.13-.05-.09,0-.69-.29-.42-2.7L397,30.76a.42.42,0,0,0-.29-.29l-4.47-.83-4.47-.83h-.1a.43.43,0,0,0-.37.19l-3.92,6.82-.19.33a34.3,34.3,0,0,0-3.66.31l-1.63-2.07-3.42-4.31a.39.39,0,0,0-.39-.11l-4.3,1.48-4.3,1.47-.09,0a.39.39,0,0,0-.22.35l-.06,7.86v.52c-.84.52-1.65,1.09-2.45,1.68l-2.31-.91-5.12-2a.39.39,0,0,0-.39.1l-3,3.44-3,3.44a.24.24,0,0,0-.06.09.38.38,0,0,0,0,.41l3.91,6.82q-.84,1.51-1.53,3.09l-2.44.41-5.42.92a.39.39,0,0,0-.29.29L342.3,64l-.78,4.48a.34.34,0,0,0,0,.1.45.45,0,0,0,.21.37l6.48,3.62c0,.41,0,.83,0,1.24,0,1,.12,1.94.23,2.89L346.7,78l-4.32,3.39a.41.41,0,0,0-.12.39l1.46,4.31,1.45,4.31a.41.41,0,0,0,.05.09.39.39,0,0,0,.35.22l7.7.1c.36.6.73,1.2,1.13,1.77s.86,1.21,1.31,1.8L355,96.1l-2.07,5.09a.4.4,0,0,0,.09.4l3.4,3,3.4,3,.08.06a.42.42,0,0,0,.42,0l6.59-3.65a36.81,36.81,0,0,0,3.52,1.71l.23,1.64.76,5.44a.42.42,0,0,0,.29.3l4.45.9,4.46.89.1,0a.42.42,0,0,0,.37-.2l3.7-6.21a34.48,34.48,0,0,0,4.07-.26h.06l1.19,1.48,3.46,4.27a.39.39,0,0,0,.4.1l4.28-1.52,4.28-1.53.1,0a.4.4,0,0,0,.21-.36l0-7.15a36,36,0,0,0,3.62-2.46l1.9.79,5.08,2.11a.4.4,0,0,0,.4-.1l3-3.38,3-3.38L420,97a.4.4,0,0,0,0-.41l-3.77-6.9,0,0a36,36,0,0,0,1.68-3.49l1.86-.35,5.4-1a.39.39,0,0,0,.28-.3l.69-4.49.68-4.5a.31.31,0,0,0,0-.1A.42.42,0,0,0,426.59,75.07ZM381.73,54.65a18.27,18.27,0,0,1,2.34-.15,17.59,17.59,0,0,1,2.4.16,18.15,18.15,0,0,1,3.82,1l.1,0,.11,0,.37.15c.4.17.77.34,1.12.52l.06,0,.06,0,.07,0h0l.09.05.07,0,.06,0,.1,0,.06,0,.11.07c.52.29,1,.61,1.51,1l.06,0c.19.13.36.26.54.4.45.35.89.72,1.3,1.1l.05,0,.06.06.11.1,0,0,0,0h0l.05,0,.08.09.11.1.06.07.05,0h0l0,.06.08.08.05.06h0l0,.06h0l.05.06.05.06h0l0,.05.07.08.1.11c.23.27.47.54.69.83h0l0,.05a18.7,18.7,0,0,1,2.26,3.86l0,.05c.09.23.19.46.27.69a18.07,18.07,0,0,1,.79,2.84l0,.1a.9.9,0,0,1,0,.13c0,.21.07.42.11.66h0v.07c0,.09,0,.18,0,.29a18.66,18.66,0,0,1,0,4.42,19.15,19.15,0,0,1-1.21,4.43l0-.1a17.58,17.58,0,0,1-13.87,10.69h-.05a18.07,18.07,0,0,1-2.32.15,19.54,19.54,0,0,1-2.42-.16,18.28,18.28,0,0,1-4.48-1.24h0A18.35,18.35,0,0,1,373.34,86a18,18,0,0,1-5.51-7.17l.05.09a18.43,18.43,0,0,1-1.22-4.43,17.6,17.6,0,0,1,3.47-13.1,18.51,18.51,0,0,1,3.22-3.22,17.34,17.34,0,0,1,7.88-3.42C381.38,54.7,381.54,54.67,381.73,54.65Z"/><path class="cls-12" d="M385.6,46.62a25.37,25.37,0,0,1,7.55,1.63l.06,0,.85.34a26,26,0,0,1,4.67,2.59l0,0,.15.1.05,0,.12.09.09.06,0,0,.14.1,0,0,.09.06a26.6,26.6,0,0,1,2.88,2.53c.33.33.64.67.95,1h0l.12.14.05.06.09.11.08.09.07.08.1.12,0,.06.12.14,0,0a1.34,1.34,0,0,0,.11.14l0,.05.1.14.05.06.09.12.07.08.07.09a.83.83,0,0,0,.08.12l0,0,.23.31a25.47,25.47,0,0,1,4.75,14,25.59,25.59,0,0,1-15.12,24.18,25.92,25.92,0,0,1-3.7,1.33,27,27,0,0,1-3.77.73,25.92,25.92,0,0,1-7.91-.3,25.68,25.68,0,0,1-19.75-32,26.94,26.94,0,0,1,1.35-3.71,25.6,25.6,0,0,1,23.35-15c.5,0,1,0,1.5,0m-4.79,1.81a23.8,23.8,0,0,0-11.33,4.74A24,24,0,0,0,361.94,63l.06-.14s-.05.11-.07.17v0a25.24,25.24,0,0,0-1.61,5.91A24,24,0,0,0,362,81.52a25.81,25.81,0,0,0,3.09,5.27,25.45,25.45,0,0,0,4.37,4.37,23.88,23.88,0,0,0,11.37,4.76,25.25,25.25,0,0,0,6.5,0,25,25,0,0,0,6.11-1.68l-.14.06a25.55,25.55,0,0,0,5.4-3.14,23.91,23.91,0,0,0,9.14-15.87,25.86,25.86,0,0,0,0-6.34A23.88,23.88,0,0,0,403,57.45c-.44-.56-.91-1.1-1.4-1.62h0l-.1-.11,0,0,0,0a24.37,24.37,0,0,0-2-1.84l0,0-.1-.08-.07-.06-.06,0-.11-.09h0c-.12-.11-.26-.21-.39-.31l0,0-.07-.06-.08-.06-.09-.07-.06,0-.11-.08,0,0-.13-.09,0,0-.14-.1h0l-.15-.11h0a24.8,24.8,0,0,0-4.28-2.37,25.08,25.08,0,0,0-6.07-1.67,25.41,25.41,0,0,0-6.52,0m-15.7,9.09a.86.86,0,0,0-.07.1.86.86,0,0,1,.07-.1M407.82,69a1.36,1.36,0,0,0,0,.2c0-.07,0-.13,0-.2m0,6.46a.15.15,0,0,0,0,.07.15.15,0,0,1,0-.07m-27.07,20.5h0m.07,0,.15,0-.15,0M361.93,63h0v0"/><path class="cls-13" d="M479,78.6,477.79,76l.16-.24c.17-.24.33-.49.48-.74l0,0,0,0,.33-.59.84-.06,2.32-.16a.16.16,0,0,0,.13-.11l.51-1.84.51-1.85a.06.06,0,0,0,0,0,.16.16,0,0,0-.07-.16l-2.46-1.72a2.11,2.11,0,0,0,0-.25c0-.07,0-.14,0-.21,0-.41,0-.82,0-1.23l.7-.44,1.95-1.26a.14.14,0,0,0,.06-.16L482.93,63l-.44-1.87s0,0,0,0a.19.19,0,0,0-.14-.11l-3.08-.33h0c-.17-.36-.36-.73-.55-1.07l0-.05,0,0-.17-.27.54-1,1.07-2.06a.15.15,0,0,0,0-.17l-1.31-1.4-1.31-1.4,0,0a.17.17,0,0,0-.17,0l-3,1.33-.15.07c-.43-.3-.87-.57-1.31-.82l0-1.11-.08-2.32a.15.15,0,0,0-.1-.13l-1.83-.58L468.88,49h0a.16.16,0,0,0-.16.07l-2,2.65-.13.17c-.41,0-.83,0-1.25,0l-.55-.89-1.23-2a.17.17,0,0,0-.16-.07l-1.87.42-1.87.42-.05,0a.16.16,0,0,0-.11.13l-.38,3.29c-.44.21-.87.43-1.29.67l-.94-.48-2.06-1.05a.17.17,0,0,0-.17,0l-1.39,1.33L451.84,55l0,0a.19.19,0,0,0,0,.18l1.29,2.85c-.11.14-.21.28-.31.43-.23.34-.44.68-.64,1l-.94,0-2.31.06a.16.16,0,0,0-.14.11l-.59,1.82-.59,1.83a.06.06,0,0,1,0,0,.18.18,0,0,0,.07.16l2.58,2c0,.29-.05.59-.06.88s0,.63,0,.94l-.66.4-2,1.2a.17.17,0,0,0-.06.16l.39,1.88.39,1.87,0,.05a.16.16,0,0,0,.13.11l3.15.41a12.81,12.81,0,0,0,.77,1.47l-.34.61-1.1,2a.15.15,0,0,0,0,.17l1.28,1.42,1.29,1.42,0,0a.17.17,0,0,0,.17,0l2.81-1.17a17,17,0,0,0,1.45.93h0l0,.8.1,2.31a.16.16,0,0,0,.11.14l1.83.56,1.83.56h.05a.17.17,0,0,0,.16-.06l1.79-2.44a14.16,14.16,0,0,0,1.84.08l.45.75,1.19,2a.18.18,0,0,0,.16.06l1.88-.38,1.87-.38.05,0a.16.16,0,0,0,.11-.13l.45-3.29h0a15.36,15.36,0,0,0,1.45-.76l.72.34,2.08,1a.15.15,0,0,0,.17,0l1.36-1.35L479,78.81l0,0A.17.17,0,0,0,479,78.6ZM468.93,60.42a9.87,9.87,0,0,1,.83.54,6.88,6.88,0,0,1,.77.66,8.1,8.1,0,0,1,1.06,1.28l0,0,0,.05a.64.64,0,0,1,.08.14,4.23,4.23,0,0,1,.25.46l0,0v.06h0v0l0,0v0l0,0v0l0,.05c.1.23.2.47.28.7v0c0,.09.05.18.08.27s.12.47.16.7v.18h0V66h0v.11h0v0h0v.07h0v.13c0,.15,0,.3,0,.45h0v0a7.57,7.57,0,0,1-.2,1.88v0l-.09.3a7.45,7.45,0,0,1-.44,1.16l0,0,0,0c0,.08-.08.16-.12.25h0l0,0-.06.11a7.31,7.31,0,0,1-2.65,2.69l0,0a7.42,7.42,0,0,1-7.38.15l0,0a6,6,0,0,1-.82-.53,6.18,6.18,0,0,1-.78-.66A7.47,7.47,0,0,1,459,70.67h0a8.27,8.27,0,0,1-.74-1.73,7.89,7.89,0,0,1-.27-1.87,7.52,7.52,0,0,1,.21-1.95v0a7.8,7.8,0,0,1,.7-1.81A7.89,7.89,0,0,1,460,61.75a7.47,7.47,0,0,1,1.54-1.21,8,8,0,0,1,1.73-.75,7.66,7.66,0,0,1,1.9-.28,7.82,7.82,0,0,1,1.93.21,7.94,7.94,0,0,1,1.6.6Z"/><path class="cls-4" d="M472.25,58.68a10.69,10.69,0,0,1,2.16,2.44v0c.07.11.14.22.2.33a11.16,11.16,0,0,1,.94,2.05v0l0,.07v0l0,.06,0,0v0l0,.07v.06a12.39,12.39,0,0,1,.35,1.58l.06.58h0v1.08a11,11,0,0,1-.52,3.12,10.73,10.73,0,0,1-1.4,2.84A10.81,10.81,0,0,1,463,77.5a11.18,11.18,0,0,1-1.59-.48,12.25,12.25,0,0,1-1.46-.7,10.8,10.8,0,0,1-4.34-14.1,10.64,10.64,0,0,1,1.87-2.69,11.43,11.43,0,0,1,1.2-1.1,10.79,10.79,0,0,1,13.07-.14,6,6,0,0,1,.49.39m-2.07-.59a10.57,10.57,0,0,0-2.43-1,10.8,10.8,0,0,0-2.6-.29,11.07,11.07,0,0,0-2.56.37,10.44,10.44,0,0,0-2.45,1.06l.05,0-.06,0h0a10.84,10.84,0,0,0-2,1.6,11.08,11.08,0,0,0-1.64,2.22,10.7,10.7,0,0,0-1,2.48,10.52,10.52,0,0,0-.28,2.56,10.26,10.26,0,0,0,.39,2.58,10.42,10.42,0,0,0,1,2.38,10.25,10.25,0,0,0,1.63,2.08,10.05,10.05,0,0,0,4.7,2.6l-.06,0a10,10,0,0,0,2.62.29,10.38,10.38,0,0,0,2.53-.37,10.64,10.64,0,0,0,2.41-1A10.91,10.91,0,0,0,472.6,74a11.13,11.13,0,0,0,1.58-2.15,10.68,10.68,0,0,0,1-2.44,10.93,10.93,0,0,0,.29-2.67c0-.31,0-.61-.07-.91h0v-.11a8.63,8.63,0,0,0-.2-1.11h0v-.18h0a1.17,1.17,0,0,0,0-.2V64l0,0v0l0-.06h0l0-.07h0l0-.08h0a9.83,9.83,0,0,0-2.49-4,11.36,11.36,0,0,0-2.21-1.63m-7.6-.86h0m11.6,14.59,0,.07a.25.25,0,0,0,0-.07M472.56,74l0,0,0,0m-14.32.16h0m0,0,.05,0-.05,0m1.87-15.91h0"/><path class="cls-2" d="M172,24.46a13.11,13.11,0,0,0-2.5.27,12,12,0,0,0-2.84.95,10.67,10.67,0,0,0-4.05,3.44,12.88,12.88,0,0,0-2,4.79,25.43,25.43,0,0,0,.25,11,30.11,30.11,0,0,0,1.53,4.89,19.66,19.66,0,0,0-4.75-1.74,13.53,13.53,0,0,0-2.76-.3,9.07,9.07,0,0,0-3.24.56A7.8,7.8,0,0,0,149,50a8.8,8.8,0,0,0-1.76,2.43,7.06,7.06,0,0,0-.67,2.67,7.2,7.2,0,0,0,.35,2.56,13.27,13.27,0,0,0,2.91,4.84,29,29,0,0,0,4.45,4c.6.45,1.26.92,2,1.38a10.82,10.82,0,0,0-2.57,1,8.71,8.71,0,0,0-3.51,3.53,9.36,9.36,0,0,0-1,4.78,13.71,13.71,0,0,0,1.39,5.29,18.62,18.62,0,0,0,3.45,4.92A28.06,28.06,0,0,0,159,91.48a38.89,38.89,0,0,0,6.07,3.14,50.75,50.75,0,0,0,6.55,2.23,62.72,62.72,0,0,0,6.87,1.43,70.16,70.16,0,0,0,7,.69c.91,0,1.82.06,2.74.06,1.24,0,2.5,0,3.72-.12s2.29-.19,3.26-.34a24.56,24.56,0,0,0,3.16-.7A28.38,28.38,0,0,0,203.24,96,27.1,27.1,0,0,0,207.78,93a20.19,20.19,0,0,0,3.68-3.76,17.16,17.16,0,0,0,2.12-3.6c.45-.86.82-1.75,1.13-2.51a41.43,41.43,0,0,0,1.78-5.59,42,42,0,0,0,1-6.45,26.4,26.4,0,0,0-.23-6.51,13,13,0,0,0-2.14-5.46,10.22,10.22,0,0,0-2.39-2.34,8.35,8.35,0,0,0-2.8-1.23,9.11,9.11,0,0,0-2-.23,10.33,10.33,0,0,0-3.9.79,12.62,12.62,0,0,0-2,1.05,28.24,28.24,0,0,0,1.1-5.82,15.32,15.32,0,0,0-.76-6.41,11.19,11.19,0,0,0-3.92-5.22,8.4,8.4,0,0,0-4.94-1.63l-.46,0A10.54,10.54,0,0,0,187.79,40a15.79,15.79,0,0,0-3.54,3.29,40.39,40.39,0,0,0-1-6.91,24.54,24.54,0,0,0-2-5.61,15.19,15.19,0,0,0-1.57-2.44A10.26,10.26,0,0,0,178,26.54a11.7,11.7,0,0,0-1.15-.81,8.89,8.89,0,0,0-1.38-.65,9.3,9.3,0,0,0-2.78-.6l-.66,0"/><path class="cls-14" d="M207.08,61.83H207a.38.38,0,0,0-.36.27c-.23.68-.47,1.34-.75,2a41.75,41.75,0,0,1-2.35,4.62c-.48.81-1,1.59-1.54,2.36s-1.1,1.52-1.67,2.26-1.34,1.68-2,2.48-1.51,1.65-2.3,2.45-1.59,1.54-2.42,2.27-1.65,1.39-2.51,2.06-1.45,1.09-2.2,1.61l-.34.24q-3-5.11-5.54-10.49c-.81-1.73-1.57-3.49-2.32-5.25a1.67,1.67,0,0,1,.08.2,1.67,1.67,0,0,0-.08-.2h0c-.31-.74-.59-1.48-.88-2.22.62-.55,1.23-1.13,1.81-1.73.76-.8,1.49-1.63,2.17-2.49s1.36-1.78,2-2.7,1.26-1.87,1.84-2.84a45.16,45.16,0,0,0,3-5.95,36.21,36.21,0,0,0,1.91-6.18.27.27,0,0,0-.2-.33l-.07,0a.26.26,0,0,0-.26.2,30.63,30.63,0,0,1-1.65,5.21c-.33.77-.67,1.53-1.05,2.27s-.85,1.6-1.31,2.38a45.91,45.91,0,0,1-3.07,4.51,47.28,47.28,0,0,1-3.18,3.6c-.81.85-1.67,1.65-2.54,2.45-.43-1.13-.85-2.27-1.25-3.41s-.88-2.51-1.29-3.77-.8-2.53-1.17-3.8-.73-2.55-1.07-3.83-.63-2.57-.92-3.85l-.18-.8a.48.48,0,0,0,.16-.23c.34-.87.64-1.76.91-2.66s.53-1.91.75-2.88a35.54,35.54,0,0,0,.82-5.63.23.23,0,0,0-.23-.23.24.24,0,0,0-.24.23c0,.52-.09,1-.15,1.54a28.7,28.7,0,0,1-1.1,4.75c-.37,1.18-.82,2.33-1.27,3.48-.11-.47-.21-1-.31-1.43-.25-1.29-.49-2.58-.71-3.87-.17-1-.32-2-.45-2.95h0c-.24-1.78-.46-3.56-.6-5.36a.31.31,0,0,0-.31-.31.3.3,0,0,0-.3.31c.09,1.3.17,2.61.27,3.9s.22,2.61.36,3.91.27,2.61.44,3.91c.11.79.23,1.58.34,2.37l-.27-.21a25.11,25.11,0,0,1-2.13-1.84,22.49,22.49,0,0,1-1.84-2.07c-.38-.5-.75-1-1.09-1.54a17,17,0,0,1-1-1.77.21.21,0,0,0-.2-.11.24.24,0,0,0-.12,0,.24.24,0,0,0-.09.32,22.7,22.7,0,0,0,1.37,2.46,20.74,20.74,0,0,0,1.63,2.22,22.82,22.82,0,0,0,3.91,3.76c0,.1,0,.21,0,.31.2,1.31.47,2.61.72,3.91s.52,2.6.79,3.9.61,2.58.94,3.87.66,2.57,1,3.84.75,2.44,1.16,3.65l-1.77-.68c-1.27-.49-2.53-1-3.79-1.52-1-.44-2.06-.9-3.07-1.39s-2.08-1-3.1-1.58A43.61,43.61,0,0,1,159,56.08h0a32.43,32.43,0,0,1-2.74-2.38.27.27,0,0,0-.17-.06.23.23,0,0,0-.16.06.23.23,0,0,0,0,.34A42.76,42.76,0,0,0,160.58,58c.88.64,1.78,1.25,2.68,1.85s1.94,1.26,2.94,1.85,1.93,1.08,2.9,1.6,1.94,1,2.93,1.46,2,.89,3,1.28c.5.2,1,.39,1.51.57.19.07.39.12.58.18.24.7.47,1.41.73,2.1q1.41,3.83,3.08,7.55t3.5,7.14l-2.73-.27c-1.68-.16-3.36-.34-5-.56-1.17-.16-2.34-.33-3.49-.54s-2.44-.49-3.64-.79-2.27-.63-3.39-1-2.3-.79-3.42-1.26h0a39.08,39.08,0,0,1-4.79-2.42.19.19,0,0,0-.12,0,.24.24,0,0,0-.12.45,55.43,55.43,0,0,0,6.66,3.37c1.16.5,2.33,1,3.52,1.38s2.44.84,3.68,1.21a64.51,64.51,0,0,0,7.5,1.82,42.73,42.73,0,0,0,6.48.65l.47.85a1.11,1.11,0,0,0,.07.92,1.1,1.1,0,0,0,.78.51c.51.84,1,1.69,1.55,2.52q2,3.12,4.24,6.08c.78,1,1.58,2,2.41,3s1.65,1.88,2.52,2.79a1.32,1.32,0,0,0,2.22-.59,1.25,1.25,0,0,0-.13-1l-2.36-3.12c-.79-1-1.56-2.1-2.32-3.17q-2.29-3.21-4.41-6.54c-.29-.45-.56-.91-.84-1.37.31-.21.62-.41.92-.63a36.71,36.71,0,0,0,3-2.53c.95-.89,1.87-1.83,2.76-2.78s1.76-2,2.58-3,1.65-2.13,2.41-3.24c.35-.53.7-1.06,1-1.6s.69-1.17,1-1.77c.63-1.13,1.23-2.26,1.79-3.43s1-2.24,1.43-3.39c.21-.58.42-1.17.62-1.76A.38.38,0,0,0,207.08,61.83Z"/><polygon class="cls-12" points="144.69 82.32 144.69 381.82 178.31 381.82 372.8 381.82 393.63 381.82 393.63 82.32 144.69 82.32"/><polygon class="cls-15" points="381.95 99.6 156.32 99.6 156.3 371.07 186.8 371.09 363.07 371.09 381.95 371.09 381.97 99.61 381.95 99.6"/><path class="cls-16" d="M270.92,27.78a38.39,38.39,0,0,0-4.13.23,33.16,33.16,0,0,0-16.32,6.49,31.43,31.43,0,0,0-3.31,2.93,27.6,27.6,0,0,0-2.75,3.31,25.69,25.69,0,0,0-3.83,7.87,25,25,0,0,0-.87,9.19,25.35,25.35,0,0,0,1,5.1l-17.68,0h-3.93a.72.72,0,0,0-.62.35.34.34,0,0,0-.13.09,15,15,0,0,0-1.66,2.54,17,17,0,0,0-1.16,2.93,23.68,23.68,0,0,0-.93,6.54,28.75,28.75,0,0,0,.72,6.62,20.6,20.6,0,0,0,2.24,5.85,17,17,0,0,0,1.29,1.85.73.73,0,0,0,.53.22l.17,0H319.69a.8.8,0,0,0,.3-.06h0a.79.79,0,0,0,.71-.37,19.1,19.1,0,0,0,1.59-3.35,24.73,24.73,0,0,0,.9-3.06,31.25,31.25,0,0,0,.76-6.82,30.62,30.62,0,0,0-.76-6.91,20.55,20.55,0,0,0-2.35-6,.71.71,0,0,0-.64-.38H301a2.54,2.54,0,0,0,.19-.53,24.74,24.74,0,0,0,.12-13.24,25.27,25.27,0,0,0-3.62-7.86,28.7,28.7,0,0,0-5.93-6.36,30.93,30.93,0,0,0-3.68-2.52,33.2,33.2,0,0,0-4-2,34.33,34.33,0,0,0-13.2-2.6m13.84,35.08h-27c-.2-.38-.4-.79-.57-1.19a13,13,0,0,1-.81-3,12.37,12.37,0,0,1,0-3.1,13.11,13.11,0,0,1,.8-3,14.34,14.34,0,0,1,1.7-2.89,14.67,14.67,0,0,1,2.54-2.5,16.73,16.73,0,0,1,3.38-2A17.3,17.3,0,0,1,269,44.13a18.37,18.37,0,0,1,2.25-.14,19,19,0,0,1,2.25.14h.11a17.6,17.6,0,0,1,4.13,1.14,17.36,17.36,0,0,1,3.35,1.95,15.66,15.66,0,0,1,2.55,2.53,13.9,13.9,0,0,1,1.68,2.86,11.84,11.84,0,0,1,.8,6.06,13.2,13.2,0,0,1-.83,3q-.27.59-.57,1.14"/><path class="cls-4" d="M272,62.24h-8.1c-2.74,0-5.49,0-8.23,0l-3.68,0-3.68.07-8.34.13-3.94.08-3.42.1-2.9.07c-1.25,0-2.5,0-3.75,0a.24.24,0,0,0,0,.48c1.25,0,2.5,0,3.75,0q1.52,0,3,.06l3.66.11,4.09.08,8.33.13,7.26.11c2.79,0,5.57,0,8.36,0l8,0,8.16,0c2.49,0,5,0,7.48,0s5.15,0,7.73,0l7.45,0c2.17,0,4.33,0,6.49,0,.91,0,1.81,0,2.72,0s2.05,0,3.07,0l3.23,0h1.48a.72.72,0,0,0,.71-.71.69.69,0,0,0-.21-.5.67.67,0,0,0-.5-.21l-.28,0h-1.24l-3.51,0h-1.45c-.55,0-1.11,0-1.66,0-.91,0-1.82,0-2.73,0q-3.25,0-6.53,0-3.7,0-7.43,0c-2.6,0-5.2,0-7.79,0l-7.52,0H272"/><path class="cls-4" d="M279,32.31c.5.16,1,.33,1.48.53h0l.05,0h0A18.09,18.09,0,0,1,284.19,35h0a22,22,0,0,1,3.77,3.76,24.89,24.89,0,0,1,1.69,2.5,27.48,27.48,0,0,1,1.42,2.88A29.54,29.54,0,0,1,292.91,51a25.93,25.93,0,0,1,.23,3.41,28.45,28.45,0,0,1-.27,3.57.68.68,0,0,1,0,.14,1.26,1.26,0,0,0,.18.66,1.31,1.31,0,0,0,.79.61,1.33,1.33,0,0,0,1.62-.92,19.68,19.68,0,0,0,.27-6.45,23.85,23.85,0,0,0-.64-3.35,22.82,22.82,0,0,0-1.13-3.19,27.69,27.69,0,0,0-1.47-2.87,25.17,25.17,0,0,0-1.88-2.71,28.31,28.31,0,0,0-2.1-2.41,25,25,0,0,0-2.38-2.1,22,22,0,0,0-3.28-2.09,20.91,20.91,0,0,0-3.67-1.49h-.08a.28.28,0,0,0-.07.55M291,43.91l0,.09,0-.09m-10.42-11h-.05l.05,0"/><path class="cls-4" d="M297.68,48.46a.24.24,0,0,0-.17.29c.11.34.21.69.3,1s.16.83.21,1.24V51a19,19,0,0,1,.14,3,29.38,29.38,0,0,1-.3,3.23.62.62,0,0,0,.18.43.63.63,0,0,0,.43.17.6.6,0,0,0,.61-.6,22.07,22.07,0,0,0-.11-4.3,21,21,0,0,0-1-4.27.26.26,0,0,0-.23-.17h-.06"/><path class="cls-4" d="M314.88,66.74a.51.51,0,0,0-.19.69,11.5,11.5,0,0,1,1,1.82,15.22,15.22,0,0,1,1,3.63,22.41,22.41,0,0,1,0,5.55A27.83,27.83,0,0,1,315,84.56a1.1,1.1,0,0,0,.12.9,1.16,1.16,0,0,0,1.6.42l.24-.18a1.1,1.1,0,0,0,.3-.52,18.42,18.42,0,0,0,1.13-4.57,24.43,24.43,0,0,0,.15-4.76,17.88,17.88,0,0,0-3-8.93.54.54,0,0,0-.45-.25.44.44,0,0,0-.24.07"/><path class="cls-13" d="M198.21,131.8H175.38a5.58,5.58,0,0,0-5.5,5.5v22.84a5.58,5.58,0,0,0,5.5,5.5h22.83a5.58,5.58,0,0,0,5.51-5.5V137.3a5.58,5.58,0,0,0-5.51-5.5"/><path class="cls-13" d="M198.21,179.29H175.38a5.58,5.58,0,0,0-5.5,5.51v22.83a5.58,5.58,0,0,0,5.5,5.5h22.83a5.58,5.58,0,0,0,5.51-5.5V184.8a5.58,5.58,0,0,0-5.51-5.51"/><path class="cls-13" d="M198.21,226.79H175.38a5.58,5.58,0,0,0-5.5,5.5v22.83a5.58,5.58,0,0,0,5.5,5.5h22.83a5.58,5.58,0,0,0,5.51-5.5V232.29a5.58,5.58,0,0,0-5.51-5.5"/><path class="cls-13" d="M198.21,274.28H175.38a5.58,5.58,0,0,0-5.5,5.5v22.83a5.58,5.58,0,0,0,5.5,5.5h22.83a5.58,5.58,0,0,0,5.51-5.5V279.78a5.58,5.58,0,0,0-5.51-5.5"/><path class="cls-17" d="M205.07,172.81h0a1.37,1.37,0,0,0-.68.19,1.73,1.73,0,0,0-.74.73c-.12.22-.25.43-.37.64l-.25.45-.69,1.2-1.77,3.07L199.48,181l-3,5.15-.34.59-.35.61q-3.78,6.58-7.53,13.19c-.57,1-1.13,2-1.68,3l-.56,1-1.12,2-.43-.81-.06-.09-.33-.56-.92-1.49-.56-.92-.64-1-.45-.73-2.13-3.47-.71-1.15-.07-.1-.24-.4c-1.63-2.64-3.47-5.63-5.17-8.57a.54.54,0,0,0-.48-.28.5.5,0,0,0-.27.08.55.55,0,0,0-.2.75c1,1.79,2,3.54,2.91,5.2l.95,1.76.48.88c.47.88.94,1.76,1.42,2.63l1.6,3c.44.82.88,1.64,1.33,2.46l.9,1.66.44.83.25.45.12.22.13.22.31.56a.89.89,0,0,0,.17.65l.35.61.35.63a1.24,1.24,0,0,0,1.08.62,1.28,1.28,0,0,0,1.1-.62c.83-1.44,1.69-2.87,2.54-4.3l1.77-3,.14-.24.56-.95.18-.31q1.66-2.82,3.3-5.64l8.24-14.2c.62-1.08,1.25-2.16,1.88-3.24l.59-1,.35-.6.19-.33.19-.33.13-.21a1.59,1.59,0,0,0,.21-.92,1.38,1.38,0,0,0-1.37-1.37"/><path class="cls-17" d="M205.07,220.3h0a1.38,1.38,0,0,0-.68.2,1.65,1.65,0,0,0-.74.72l-.37.65-.25.44-.69,1.2-1.77,3.07-1.08,1.88-3,5.14-.34.59-.35.61q-3.78,6.58-7.53,13.19c-.57,1-1.13,2-1.68,3l-.56,1-1.12,2-.43-.81-.06-.09c-.15-.26-.24-.41-.33-.55l-.92-1.5-.56-.92-.64-1-.45-.73c-.71-1.17-1.42-2.32-2.13-3.47l-.71-1.15-.07-.11-.24-.4c-1.63-2.64-3.47-5.63-5.17-8.57a.54.54,0,0,0-.48-.28.5.5,0,0,0-.27.08.56.56,0,0,0-.2.76c1,1.78,2,3.53,2.91,5.19l.95,1.76.48.88c.47.88.94,1.76,1.42,2.64s1.07,2,1.6,2.94c.44.82.88,1.64,1.33,2.46l.9,1.66.44.83.25.45.12.22.13.22.31.57a.88.88,0,0,0,.17.64l.35.62.35.62a1.22,1.22,0,0,0,1.08.62,1.26,1.26,0,0,0,1.1-.62c.83-1.44,1.69-2.87,2.54-4.3l1.77-3,.14-.23.56-1,.18-.31c1.11-1.88,2.21-3.75,3.3-5.64l8.24-14.2c.62-1.08,1.25-2.16,1.88-3.24l.59-1,.35-.6.19-.33.19-.33.13-.21a1.59,1.59,0,0,0,.21-.92,1.41,1.41,0,0,0-.68-1.17,1.45,1.45,0,0,0-.69-.2"/><line class="cls-18" x1="217.94" y1="142.08" x2="282.05" y2="142.08"/><line class="cls-18" x1="217.94" y1="151.58" x2="358.47" y2="151.58"/><line class="cls-18" x1="217.94" y1="161.08" x2="358.47" y2="161.08"/><line class="cls-18" x1="217.94" y1="189.57" x2="282.05" y2="189.57"/><line class="cls-18" x1="217.94" y1="199.07" x2="358.47" y2="199.07"/><line class="cls-18" x1="217.94" y1="208.57" x2="358.47" y2="208.57"/><line class="cls-18" x1="217.94" y1="237.06" x2="282.05" y2="237.06"/><line class="cls-18" x1="217.94" y1="246.56" x2="358.47" y2="246.56"/><line class="cls-18" x1="217.94" y1="256.06" x2="358.47" y2="256.06"/><line class="cls-18" x1="217.94" y1="284.56" x2="282.05" y2="284.56"/><line class="cls-18" x1="217.94" y1="294.05" x2="358.47" y2="294.05"/><line class="cls-18" x1="217.94" y1="303.55" x2="358.47" y2="303.55"/><path class="cls-7" d="M363.14,341h-.33a4.61,4.61,0,0,0-1.71.49,8,8,0,0,0-2.89,2.69,20.63,20.63,0,0,0-2.12,4.16,38.62,38.62,0,0,0-1.46,4.76,42.65,42.65,0,0,0-.81,4.33,18.56,18.56,0,0,0-.21,3l-1.85-.31c-1.23-.2-2.46-.38-3.69-.53a32,32,0,0,0-4-.31,14.8,14.8,0,0,0-2.25.16,8.61,8.61,0,0,0-2.9.95,5.64,5.64,0,0,0-2.15,2.23,5.06,5.06,0,0,0-.53,1.46,5.19,5.19,0,0,0-.06,1.59,6,6,0,0,0,1.14,2.83,6.72,6.72,0,0,0,1.83,1.73l-.18.06a5.64,5.64,0,0,0-3,3.14,6.82,6.82,0,0,0-.47,2.19,6.6,6.6,0,0,0,1.12,4.08,6,6,0,0,0,1.63,1.61,4.76,4.76,0,0,0,.69.4,1,1,0,0,0-.26.23,3.1,3.1,0,0,0-.29.5c0,.08-.07.15-.1.22-.12.22-.25.43-.39.64l-.21.32c-.17.26-.35.52-.49.79a3,3,0,0,0-.33,1.21,3.51,3.51,0,0,0,.28,1.5,7.31,7.31,0,0,0,1.83,2.72,11.85,11.85,0,0,0,2.6,1.82,22.76,22.76,0,0,0,3,1.3,38.17,38.17,0,0,0,6.94,1.81,43.27,43.27,0,0,0,6.87.51,100.28,100.28,0,0,0,10.89-.75.73.73,0,0,0,0-1.45l-.28,0-.21,0a12,12,0,0,0,1.7-1.65,17.49,17.49,0,0,0,2.12-3.08,29,29,0,0,0,2.61-7c1.44-5.64,1.21-10.32-.71-13.9a13,13,0,0,0-1-1.58,14.06,14.06,0,0,0-1.37-1.57c-.28-.28-.57-.55-.86-.82l-.46-.43c-.36-.35-.72-.7-1.08-1.07a10.08,10.08,0,0,1-1.4-1.84,7.58,7.58,0,0,1-.66-1.73,13.17,13.17,0,0,1-.31-1.94,16.63,16.63,0,0,1-.09-1.87l0,.08c0-.7.12-1.42.19-2.1l.06-.6c.07-.68.14-1.36.19-2a28,28,0,0,0,.11-2.81,11.53,11.53,0,0,0-.27-2.5,5.81,5.81,0,0,0-.93-2.15,3.73,3.73,0,0,0-1.79-1.3,5.11,5.11,0,0,0-1.65-.28"/><path class="cls-6" d="M339.85,370.48a.24.24,0,0,0,.2.27c1.72.46,3.45.91,5.21,1.24a28.1,28.1,0,0,0,5.26.54.4.4,0,0,0,.3-.17.44.44,0,0,0,.11-.35.44.44,0,0,0-.17-.31.48.48,0,0,0-.35-.1h-1.55a35.63,35.63,0,0,1-4.38-.39,38.43,38.43,0,0,1-4.36-.93h-.05a.24.24,0,0,0-.22.2"/><path class="cls-6" d="M339.52,381.46a.23.23,0,0,0,.12.32c.74.26,1.49.49,2.25.71s1.57.4,2.37.56a16.32,16.32,0,0,0,4.83.34.6.6,0,0,0,.52-.66.59.59,0,0,0-.21-.4.69.69,0,0,0-.44-.13c-1.22,0-2.44.08-3.66.06h0a18,18,0,0,1-2.31-.18,18.21,18.21,0,0,1-2.52-.53l-.65-.21h-.1a.22.22,0,0,0-.21.13"/><path class="cls-9" d="M470.61,243a.77.77,0,0,0-.28.46.66.66,0,0,0,.14.55l.1.11h0a165,165,0,0,1,2.89,17.36v.1a97.68,97.68,0,0,1,.43,14.17c-.11,2.44-.34,4.94-.68,7.43-.31,2.31-.69,4.63-1,6.77l0-.08,0-.1A294.56,294.56,0,0,1,461.82,332a256.84,256.84,0,0,1-10.65,27.26c-.61,1.31-1.25,2.69-1.91,4.05-2.8-.6-5.77-1.08-8.83-1.44-2.82-.32-5.75-.53-8.94-.64-1.49-.05-3.07-.08-5-.08-1.41,0-2.82,0-4.23,0-12.25.14-24.7.89-36.74,1.61l-1.06.06c-4.5.27-8.91.54-13.33.77.1.74.17,1.48.24,2.23.14,1.73.22,3.47.23,5.21a69.42,69.42,0,0,1-.3,7.21,63.31,63.31,0,0,1-1.05,7.12,47.87,47.87,0,0,1-1.87,6.75c-.41,1.11-.86,2.21-1.36,3.27,1.13.5,2.27,1,3.43,1.42h0l1.68.65a177.65,177.65,0,0,0,25.95,6.43c4.68.83,9.67,1.57,15.73,2.33,4.26.54,8.77,1.06,13.78,1.59a199.91,199.91,0,0,0,20.28,1.24c1.52,0,3,0,4.48-.09,9.37-.35,17.22-1.92,24-4.79a43.12,43.12,0,0,0,10.3-6.17c1.34-1.1,2.7-2.35,4.41-4.06,1.34-1.35,2.67-2.81,4.07-4.47a87.76,87.76,0,0,0,12.74-21.06,120.12,120.12,0,0,0,7.5-24,133,133,0,0,0,2.69-24.2c.05-2.16,0-4.25-.06-6.22s-.26-4.24-.54-6.57a92.73,92.73,0,0,0-2.54-13.16,73.58,73.58,0,0,0-11.2-24.14c-1-1.38-2-2.69-3.11-3.9a44.1,44.1,0,0,0-3.49-3.48,77.14,77.14,0,0,0-8.16-6.23c-1-.71-2.07-1.4-3.11-2.1-1.78-1.19-3.62-2.43-5.4-3.7a58.15,58.15,0,0,1-7.85-6.58l.07.1-.78-.86a.71.71,0,0,0-.25-.27.76.76,0,0,0-.46-.28h-.11a.77.77,0,0,0-.44.14"/><path class="cls-9" d="M371,367.11h0v0"/><path class="cls-10" d="M415.36,360.77c-2.8.07-5.61.15-8.41.25l-4.47.16c-1.57.07-3.13.15-4.7.24-4.57.25-9.14.61-13.71.93q-3.48.24-7,.44l-3.39.17c-.56,0-1.12.05-1.68.05h-1c.07.51.13,1,.19,1.54h.13l1.12-.06,2.45-.06c1.56-.05,3.13-.12,4.7-.2q4.69-.23,9.39-.56c6.16-.42,12.32-.91,18.49-1.26,5.63-.32,11.26-.58,16.89-.6a133,133,0,0,1,16.81.91c2,.24,3.92.55,5.86.91h0l1.67.34c.45.08.9.18,1.35.29l.59.14a68.21,68.21,0,0,1,13.81,4.85.31.31,0,0,0,.39-.19.32.32,0,0,0-.19-.38,70.1,70.1,0,0,0-7.84-3.21,81,81,0,0,0-8.06-2.26A104.78,104.78,0,0,0,432.25,361c-3.54-.21-7.1-.3-10.65-.3q-3.12,0-6.24.08"/><path class="cls-10" d="M470.41,298.06c-.08,1.13-.2,2.25-.34,3.37v-.08a94.25,94.25,0,0,1-4.27,16.94c-.93,2.77-1.88,5.52-2.84,8.28s-1.88,5.56-2.84,8.34q-1.69,4.88-3.53,9.71c-1.25,3.28-2.57,6.52-3.94,9.75h0c-.64,1.51-1.29,3-2,4.49-.38.78-.77,1.54-1.15,2.32-.19.38-.37.78-.54,1.17a3.29,3.29,0,0,0-.4,1.53v.06c.52.1,1,.2,1.54.33h.05l.2-.24c.14-.21.26-.42.38-.63.27-.49.49-1,.72-1.5.46-1,.89-2.09,1.33-3.14l-.1.23c.61-1.43,1.24-2.85,1.84-4.29s1.15-2.84,1.69-4.28c1.1-2.87,2.13-5.76,3.12-8.67s1.91-5.83,2.82-8.76c.43-1.39.85-2.78,1.28-4.17s.87-2.73,1.3-4.09c1.42-4.42,2.82-8.85,4-13.34a74.35,74.35,0,0,0,2.3-13.33.3.3,0,0,0-.59,0"/><path class="cls-10" d="M452.69,354.3l.06-.16a1.66,1.66,0,0,0-.06.16"/><path class="cls-10" d="M452.66,354.37l0-.07a.21.21,0,0,0,0,.07"/><path class="cls-9" d="M46.86,98.2a29,29,0,0,0-7.54,1,37.29,37.29,0,0,0-12.08,5.91,42.7,42.7,0,0,0-9.6,9.61,38,38,0,0,0-3.38,5.63,33,33,0,0,0-2.23,6,35.3,35.3,0,0,0-.91,5.2,37.59,37.59,0,0,0-.18,5.41,29.24,29.24,0,0,0,2.27,10.7A19.75,19.75,0,0,0,15.13,151a15.5,15.5,0,0,0,2.66,2.87,13.36,13.36,0,0,0,2.35,1.57,11.2,11.2,0,0,0-.75,1.36,9.46,9.46,0,0,0-.75,2.68,10.44,10.44,0,0,0,0,2.74,11.4,11.4,0,0,0,.69,2.68,13.3,13.3,0,0,0,1.23,2.48,16.38,16.38,0,0,0,4,4.29,15.23,15.23,0,0,0,5.24,2.6c1,.28,2.09.47,3.09.64s2,.3,3.13.41c1.46.14,3,.21,4.5.21a56.84,56.84,0,0,0,8.64-.69,66,66,0,0,0,13.22-3.52,65.64,65.64,0,0,0,12.21-6.09A55.23,55.23,0,0,0,84.77,157a44.18,44.18,0,0,0,4-4.82,27.93,27.93,0,0,0,2.27-3.79,34.66,34.66,0,0,0,3.08-9.08,23.16,23.16,0,0,0,.13-9.25,13.45,13.45,0,0,0-1.36-3.68,10.13,10.13,0,0,0-6.32-4.88,15.43,15.43,0,0,0-4.14-.53,11.6,11.6,0,0,0,.58-4.06,9.27,9.27,0,0,0-1.17-4.17,10.92,10.92,0,0,0-6.58-4.86,13.42,13.42,0,0,0-9.83.91,16.89,16.89,0,0,0-2.14-3.52,16.66,16.66,0,0,0-4.71-4.07,21.41,21.41,0,0,0-6.27-2.38,24.74,24.74,0,0,0-5.48-.6"/><path class="cls-10" d="M37.55,104.4a28.33,28.33,0,0,0-7.85,5.53A44.08,44.08,0,0,0,26,114a47.6,47.6,0,0,0-3.36,4.73,40.74,40.74,0,0,0-2.64,5,33.5,33.5,0,0,0-1.85,5.23,25.29,25.29,0,0,0-.76,5.26,18.68,18.68,0,0,0,.5,5.05A15,15,0,0,0,22.7,147a14.38,14.38,0,0,0,1.46,1.11c.49.33,1,.61,1.51.91a1,1,0,0,0,1-1.68,13.72,13.72,0,0,1-1.49-1,18.26,18.26,0,0,1-3-2.95,14.35,14.35,0,0,1-1.79-3.05,15.64,15.64,0,0,1-1-3.75,20.16,20.16,0,0,1,0-5,31.91,31.91,0,0,1,2.24-7.95c0,.06-.05.11-.07.17a41.48,41.48,0,0,1,5.31-9,.83.83,0,0,1-.08.12,38.39,38.39,0,0,1,6.7-6.84,22.77,22.77,0,0,1,4.57-2.8.48.48,0,0,0,.17-.66.44.44,0,0,0-.4-.23.58.58,0,0,0-.26.06"/><path class="cls-10" d="M26.93,131.53a13.42,13.42,0,0,0-.35,4.19,13.11,13.11,0,0,0,1,4.09,12.63,12.63,0,0,0,1,1.78,9.51,9.51,0,0,0,1.41,1.69,8.45,8.45,0,0,0,3.91,2.13,1,1,0,0,0,.53-1.92,9.41,9.41,0,0,1-1.56-.49,10.19,10.19,0,0,1-1.93-1.09,10.86,10.86,0,0,1-1.6-1.58,10.16,10.16,0,0,1-1.19-2,11.5,11.5,0,0,1-.74-2.7h0s0-.06,0-.09a.11.11,0,0,0,0,.05,11,11,0,0,1,0-2.86v0a8.85,8.85,0,0,1,.2-1,.35.35,0,0,0-.24-.41h-.08a.35.35,0,0,0-.33.24m1.12,6.64a.14.14,0,0,1,0,.06.14.14,0,0,0,0-.06m1.14,2a.64.64,0,0,1,.1.13,1.47,1.47,0,0,0-.1-.13m-1.83-4.61h0v0"/><path class="cls-9" d="M124.2,133.08h-.62c-5.19.1-10.28,1.44-14.78,2.63l-.8.21a82.68,82.68,0,0,1-14.94,3h0c-1.13.07-2.29.11-3.54.11-1.73,0-3.58-.07-5.83-.22-1.22-.08-2.45-.17-3.67-.27-1.85-.14-3.77-.29-5.65-.38-1.23-.07-2.35-.1-3.43-.1a45.07,45.07,0,0,0-5.64.33,28.72,28.72,0,0,0-8.78,2.54,27.09,27.09,0,0,0-4.25,2.56,35.72,35.72,0,0,0-3.77,3.19,50.82,50.82,0,0,0-6,6.73,52.34,52.34,0,0,0-7.81,15.55,61.2,61.2,0,0,0-2.69,17.23,70.78,70.78,0,0,0,2,17.61,67.41,67.41,0,0,0,2.62,8.43,54.25,54.25,0,0,0,3.66,7.56,51.27,51.27,0,0,0,10.09,12.37,51.8,51.8,0,0,0,6.21,4.79,55.54,55.54,0,0,0,6.88,3.82,59.64,59.64,0,0,0,15.2,4.71,64.91,64.91,0,0,0,11.06.93,72.69,72.69,0,0,0,11.87-1,.72.72,0,0,0,.58-.76c2.34-1.34,4.82-2.51,7.23-3.65s5-2.35,7.34-3.73a51.22,51.22,0,0,0,12.11-10.08c5-5.51,9.26-11.78,13.35-17.85,1.6-2.38,3.27-4.84,5-7.22.57-.81,1.15-1.62,1.73-2.42a97.39,97.39,0,0,0,7.42-11.44,35.81,35.81,0,0,0,3-7.44,26.89,26.89,0,0,0,.91-6.86,23.36,23.36,0,0,0-3.5-12.31,25.69,25.69,0,0,0-9.67-8.86,12.28,12.28,0,0,0,.42-2.27,11.41,11.41,0,0,0-.46-4.21,13.47,13.47,0,0,0-1.86-3.8,16.58,16.58,0,0,0-2.94-3.23,21.53,21.53,0,0,0-4-2.64,32.93,32.93,0,0,0-5-2.15,29,29,0,0,0-9-1.38"/><path class="cls-10" d="M62.16,138.17a28.89,28.89,0,0,0-6.84,2.6,27.61,27.61,0,0,0-3.26,2.07A36,36,0,0,0,49,145.38a49.88,49.88,0,0,0-9.58,12q-1.17,2-2.14,4.17c-.74,1.62-1.41,3.27-2,4.94-.29.84-.55,1.68-.8,2.53s-.47,1.71-.68,2.57-.38,1.72-.54,2.59-.29,1.76-.42,2.64a.23.23,0,0,0,.23.25.24.24,0,0,0,.25-.23.59.59,0,0,1,0-.13v0a29.34,29.34,0,0,1,.68-3.06c.27-1,.59-2,.93-3s.71-2,1.11-3,.84-2,1.28-3l0,.07.06-.13v0h0c.55-1.2,1.13-2.39,1.73-3.57s1.2-2.29,1.84-3.41a52.2,52.2,0,0,1,4.3-6.33l-.1.14a40.76,40.76,0,0,1,7.6-7.36,30.12,30.12,0,0,1,3.14-2,27.14,27.14,0,0,1,3.33-1.54,33.17,33.17,0,0,1,8.41-1.88l-.17,0a49.24,49.24,0,0,1,6.87-.11c2.46.11,4.91.4,7.36.63,1.32.13,2.63.25,3.95.32s2.66.11,4,.11a32.26,32.26,0,0,0,7.64-.86.25.25,0,0,0,.18-.29.24.24,0,0,0-.29-.17,24.7,24.7,0,0,1-3.3.55h.06a41.24,41.24,0,0,1-8.6-.27L81,138.05c-1.36-.18-2.71-.35-4.06-.49a59.41,59.41,0,0,0-6.11-.34,37.27,37.27,0,0,0-8.69.95m-2.83,2.3-.14.06.14-.06m-26,36.25v0m4-12.13,0,.06,0-.07h0"/><path class="cls-19" d="M149.11,175a7,7,0,0,0-3.17.76,6.78,6.78,0,0,0-1.88,1.46,7.25,7.25,0,0,0-.85,1.16.63.63,0,0,0-.42-.49l-.23,0a.78.78,0,0,0-.71.51,22.65,22.65,0,0,0-1.3,5.14,37,37,0,0,0-.4,5,29.7,29.7,0,0,0,.37,5.36,15.5,15.5,0,0,0,1.54,4.72,7.78,7.78,0,0,0,3.1,3.24,7.4,7.4,0,0,0,2.46.78,4.9,4.9,0,0,0,.77.05,6.64,6.64,0,0,0,2.32-.43,10.21,10.21,0,0,0,4.68-4,16.64,16.64,0,0,0,2.48-5.64,21.35,21.35,0,0,0,.48-7,14.09,14.09,0,0,0-2.17-6.49,9.39,9.39,0,0,0-4.81-3.74,7.73,7.73,0,0,0-2.26-.36"/><path class="cls-20" d="M151.92,177.45h-.06a10.4,10.4,0,0,0-1.7.33,7.66,7.66,0,0,0-1.66.78,10,10,0,0,0-2.72,2.4,11.84,11.84,0,0,0-1.84,3.28,12.47,12.47,0,0,0-.55,1.78,9.42,9.42,0,0,0-.19,1.74,1,1,0,0,0,.18.66.91.91,0,0,0,.62.36h.11a.93.93,0,0,0,.91-.8c.1-.59.25-1.17.39-1.68a.93.93,0,0,1,0-.13,16.35,16.35,0,0,1,1.63-3.87l-.15.19c.3-.43.57-.85.85-1.22a9.38,9.38,0,0,1,.92-1.06,6.61,6.61,0,0,1,1.26-.95,6.91,6.91,0,0,1,1.38-.58,3.76,3.76,0,0,1,.67-.12.51.51,0,0,0,.36-.22.58.58,0,0,0,.13-.41.59.59,0,0,0-.58-.5"/><path class="cls-21" d="M121.08,146.39a34,34,0,0,0-4.32.3,47.72,47.72,0,0,0-12,3.44A70.64,70.64,0,0,0,94,155.81a56.59,56.59,0,0,0-5.14,3.65,45.2,45.2,0,0,0-5.3,5.12,39.26,39.26,0,0,0-7.46,12.51A34.17,34.17,0,0,0,74.39,184a30.66,30.66,0,0,0-.12,7.18,34.22,34.22,0,0,0,.57,3.58l.15.7.08.41c.2,1,.41,2,.63,2.92a35.18,35.18,0,0,0,2.59,7.85,1.16,1.16,0,0,0,.11.16,10.45,10.45,0,0,0-2.49-.27,13.63,13.63,0,0,0-1.5.08,12.37,12.37,0,0,0-3.09.73,10.49,10.49,0,0,0-1.4.64,11.38,11.38,0,0,0-1.39.94,9.42,9.42,0,0,0-2.14,2.46,8.4,8.4,0,0,0-1.13,3.17,11.41,11.41,0,0,0,1.28,6.57,17.86,17.86,0,0,0,1.9,3,18.94,18.94,0,0,0,2.35,2.51,17.46,17.46,0,0,0,2.62,1.95,20.34,20.34,0,0,0,3.2,1.51,22.42,22.42,0,0,0,7.2,1.41h.67A18.13,18.13,0,0,0,91,230.37l.26-.1c.66,1.24,1.28,2.54,1.84,3.84l0-.19a47.68,47.68,0,0,1,3,11.41l0-.19a41.65,41.65,0,0,1,0,10.17,29.56,29.56,0,0,1-2,7.29l.13-.14a32,32,0,0,1-2.34,4.2.66.66,0,0,0-.48.32.71.71,0,0,0-.09.57.66.66,0,0,0,.32.44,71.08,71.08,0,0,0,12.54,6.2,35.81,35.81,0,0,0,12.2,2.38l1.1,0a23.54,23.54,0,0,0,6.53-1.2,22.24,22.24,0,0,0,3.17-1.36,24.54,24.54,0,0,0,3-1.92,26.79,26.79,0,0,0,5-4.83,21.44,21.44,0,0,0,3.57-6,8.34,8.34,0,0,0,.56-3.59.9.9,0,0,0-.17-.49l0-.08,0-.11a30.3,30.3,0,0,1-3.36-3.63,34.72,34.72,0,0,1-4.24-7.42,57.61,57.61,0,0,1-2.87-9.42,39.52,39.52,0,0,0,10.37-5.19,34.36,34.36,0,0,0,5.11-4.35,29.5,29.5,0,0,0,3.84-5,29.15,29.15,0,0,0,4-11.57c1.32-9.91-2-19.66-5.51-28.79-.3-.79-.61-1.58-.92-2.36l-.27-.7-.36-.9,0-.1-.08-.21c-1.11-2.85-2.27-5.79-3.3-8.73a78.15,78.15,0,0,1-3.53-13.23.61.61,0,0,0,.1-.33.75.75,0,0,0-.18-.54,21.31,21.31,0,0,0-4.46-4.39,19.33,19.33,0,0,0-5.19-2.62,23.33,23.33,0,0,0-7.36-1.11"/><path class="cls-22" d="M121.08,146.36a35.16,35.16,0,0,0-4.32.3,47.25,47.25,0,0,0-12,3.46A69.8,69.8,0,0,0,94,155.8a55.74,55.74,0,0,0-5.15,3.65,44.32,44.32,0,0,0-5.29,5.12,39.26,39.26,0,0,0-7.46,12.51A34.45,34.45,0,0,0,74.37,184a30.65,30.65,0,0,0-.12,7.18,33.58,33.58,0,0,0,.57,3.58l.14.71.09.41,0,.13c.14.69.29,1.38.44,2.06.55-.13,1.08-.29,1.6-.44,2.51-.75,4.95-1.57,7.25-2.44a91.2,91.2,0,0,0,10-4.47,74,74,0,0,0,9.14-5.64,59.8,59.8,0,0,0,6.26-5.17c1-.94,1.94-1.9,2.82-2.85s1.61-1.81,2.5-2.9c1.48-1.81,2.69-3.42,3.72-4.92a39.69,39.69,0,0,0,3.2-5.55,21.82,21.82,0,0,0,1-2.55,17.4,17.4,0,0,0,.6-2.36,11.78,11.78,0,0,0,.16-1.4.23.23,0,0,1,.22-.21h.13a41.93,41.93,0,0,1,9.82,3.46,60,60,0,0,1,6.29,3.56,73.63,73.63,0,0,1-2.05-8.81.72.72,0,0,0,.11-.33.82.82,0,0,0-.2-.56,21.31,21.31,0,0,0-4.46-4.39,19.16,19.16,0,0,0-5.19-2.61,23.2,23.2,0,0,0-7.37-1.13"/><path class="cls-19" d="M103,235.4h0a35.38,35.38,0,0,0,4.28,3.41,40.48,40.48,0,0,0,9.4,4.69,34.44,34.44,0,0,0,4.17,1.15,31.39,31.39,0,0,0,4.11.56c.54,0,1.09.05,1.64.05s1,0,1.56-.05a23,23,0,0,0,3.07-.41l.09,0a61.86,61.86,0,0,1-2.37-8.22c-.93.25-1.83.47-2.68.64a39,39,0,0,1-7.64.76h-.32a46.62,46.62,0,0,1-8.08-.75A56.75,56.75,0,0,1,103,235.4Z"/><path class="cls-19" d="M75.77,211.15c-.37,0-.73,0-1.09,0a12.38,12.38,0,0,0-3,.55A8.48,8.48,0,0,0,69.15,213a4.91,4.91,0,0,0-1.63,2.12.28.28,0,0,0,0,.18.24.24,0,0,0,.16.14h0c.18,0,.26-.05.3-.16l.06-.13.06-.14a4.76,4.76,0,0,1,.54-.81,6,6,0,0,1,.92-.81,7.38,7.38,0,0,1,1.31-.67,9.18,9.18,0,0,1,2.12-.45c.32,0,.64,0,1,0a11.67,11.67,0,0,1,1.75.14l.71.15.33.09a13.34,13.34,0,0,0,5.13,10.56,14.31,14.31,0,0,0,3.71,2.09.45.45,0,0,0,.16,0,.41.41,0,0,0,.38-.24.44.44,0,0,0,0-.32.36.36,0,0,0-.21-.21,12.86,12.86,0,0,1-1.71-.84l.07.08a14.5,14.5,0,0,1-2.22-1.83,12.22,12.22,0,0,1-1.64-2.24,17.34,17.34,0,0,1-.82-1.75A15.57,15.57,0,0,1,79,216c-.12-.51-.23-1.06-.33-1.69s-.15-1.25-.2-1.88l0-.14a.84.84,0,0,0-.36-.61.7.7,0,0,0-.26-.3.79.79,0,0,0-.38-.13,8.38,8.38,0,0,0-1.32-.12h-.37"/><path class="cls-9" d="M117.36,142.17a38.83,38.83,0,0,0-7.87.82,57.46,57.46,0,0,0-7.2,2.09c-2.25.79-4.42,1.64-6.47,2.54-10,4.43-17.21,10.24-21.36,17.28a31.35,31.35,0,0,0-3.09,7.2,35.5,35.5,0,0,0-1.32,8.2,43.67,43.67,0,0,0,.44,8.33,55.54,55.54,0,0,0,1.84,8.18c.36,1.2.79,2.43,1.26,3.66a43.66,43.66,0,0,0,1.78,4.05,19.23,19.23,0,0,0,1.08,1.93,11.75,11.75,0,0,0,1.21,1.66,4.9,4.9,0,0,0,1.28,1.08,2.76,2.76,0,0,0,.7.28,2.31,2.31,0,0,0,.52.06l.36,0a2.46,2.46,0,0,0,1.28-.7A5.91,5.91,0,0,0,83,207a15.1,15.1,0,0,0,1.16-5.59,32.41,32.41,0,0,0-.42-6.65,26.45,26.45,0,0,0-1.26-5,42.58,42.58,0,0,0,5.45-1.95,63.25,63.25,0,0,0,11-6.21,72.18,72.18,0,0,0,10.15-8.51,56,56,0,0,0,8-10,32,32,0,0,0,4.32-10.56,82.46,82.46,0,0,1,11.26,4.29l.1,0h0a56.14,56.14,0,0,1,12.13,7.8l.34.3a.88.88,0,0,0,.55.28h0a.74.74,0,0,0,.51-.18.76.76,0,0,0,.24-.5.71.71,0,0,0-.18-.52l-.24-.2-.24-.21a.67.67,0,0,0,.2-.64,25.27,25.27,0,0,0-7.32-13,26.26,26.26,0,0,0-3.15-2.43,30.76,30.76,0,0,0-3.42-2,31.87,31.87,0,0,0-7.26-2.6,34.2,34.2,0,0,0-7.5-.82"/><path class="cls-10" d="M116.87,153.2a45.78,45.78,0,0,1-4.62,7.08l0-.07A65.17,65.17,0,0,1,100.18,172c-1.06.79-2.16,1.54-3.27,2.26s-2.36,1.52-3.58,2.23-2.3,1.31-3.5,1.89-2.43,1.12-3.68,1.62l.29-.11q-1.55.61-3.12,1.11c-1.06.33-2.14.6-3.22.83a1.3,1.3,0,0,0-.92,1.57,1.26,1.26,0,0,0,.59.78,1.32,1.32,0,0,0,1,.14,37.29,37.29,0,0,0,6.59-2.22,49.47,49.47,0,0,0,6.39-3.4,55.71,55.71,0,0,0,6.2-4.47c2-1.64,3.85-3.34,5.65-5.15a71.78,71.78,0,0,0,6.63-7.63,55.72,55.72,0,0,0,5.08-8,.24.24,0,0,0-.09-.33.27.27,0,0,0-.12,0,.22.22,0,0,0-.2.12"/><path class="cls-10" d="M110.84,156.17c-.17.25-.36.5-.55.74a27.19,27.19,0,0,1-2.88,3.1,41.35,41.35,0,0,1-3.46,2.86l0,0c-.64.47-1.3.91-2,1.33s-1.39.83-2.09,1.22a.62.62,0,0,0-.24.85.63.63,0,0,0,.85.24c1-.65,1.94-1.34,2.88-2.07s2-1.57,2.92-2.42,1.81-1.79,2.66-2.73a32.61,32.61,0,0,0,2.26-2.86.23.23,0,0,0-.08-.32.27.27,0,0,0-.12,0,.28.28,0,0,0-.21.11M104,162.85a.18.18,0,0,1,.07,0,.18.18,0,0,0-.07,0"/><path class="cls-2" d="M136.86,254.74c-.13.42-.28.83-.45,1.25a17.56,17.56,0,0,1-2.08,3.52,18.66,18.66,0,0,1-1.53,1.73,16.79,16.79,0,0,1-1.58,1.38,24.85,24.85,0,0,1-5.27,3h0a35.44,35.44,0,0,1-8.69,2.31,40.26,40.26,0,0,1-5.34.36,39,39,0,0,1-5-.32h-.11A31.65,31.65,0,0,1,99.51,266a21.35,21.35,0,0,1-4.45-2.53l-.81-.67a.74.74,0,0,0-.27-.16,32.88,32.88,0,0,1-2.66,2.62c-.56.48-1.12.94-1.72,1.36l-.49.33a19.14,19.14,0,0,1-1.72,1.16.73.73,0,0,0-.26,1,.66.66,0,0,0,.36.3,62.21,62.21,0,0,0,5.66,5.49,32.43,32.43,0,0,0,5.6,3.8,31.62,31.62,0,0,0,9.82,3.17,36.26,36.26,0,0,0,5.61.43,35.32,35.32,0,0,0,14.91-3.25,26.57,26.57,0,0,0,8.08-5.77,22,22,0,0,0,5-8.59,23.36,23.36,0,0,0,1-7.34.71.71,0,0,0-.32-.59.64.64,0,0,0-.2-.43.71.71,0,0,0-.51-.21l-.37,0a8.25,8.25,0,0,1-1.86-.51,9.13,9.13,0,0,1-1.73-1,.41.41,0,0,0-.07-.11l-1-.13a.75.75,0,0,0-.25.38"/><path class="cls-21" d="M175.43,350.66a7.1,7.1,0,0,0-1.55.19,13.14,13.14,0,0,0-5.24,2.5,32,32,0,0,0-4.42,4.28l-.78.88c-1.05,1.19-2.14,2.42-3.32,3.52l-.08.07a25.85,25.85,0,0,1-5.22,3.58l-.16.09.17-.07a39.65,39.65,0,0,1-9.58,3.29h0a53.91,53.91,0,0,1-6.28.91.72.72,0,0,0,.05,1.44,15.94,15.94,0,0,0-3.45,2.67,15.15,15.15,0,0,0-2.69,3.78,13.35,13.35,0,0,0-1.33,4.2,11.43,11.43,0,0,0,.23,4.33,9.64,9.64,0,0,0,1.94,3.79c2.79,3.35,7.26,4.37,10.52,4.63.54,0,1.07.06,1.6.07l-3.9.86c-2.06.46-4.12.89-6.18,1.32a.72.72,0,0,0-.09,1.33.63.63,0,0,0,.3.07l.25,0c7-1.44,12.72-2.77,18.08-4.18l.27-.07c1.13-.3,2.31-.61,3.45-1l1.74-.55c4.19-1.35,8.53-2.86,13.25-4.61,6.78-2.51,12.24-4.74,17.18-7,3-1.4,5.45-2.62,7.63-3.86a33.72,33.72,0,0,0,5.47-3.69A7.85,7.85,0,0,0,205.9,370a2.9,2.9,0,0,0,0-1.7,3.06,3.06,0,0,0-.78-1.26,7.66,7.66,0,0,0,.9-1.09,6.37,6.37,0,0,0,.94-2.05,5.08,5.08,0,0,0,.11-1,3.27,3.27,0,0,0-.1-.9,2.27,2.27,0,0,0-.78-1.23,2.93,2.93,0,0,0-1.41-.59,4.87,4.87,0,0,0-.87-.07,8.08,8.08,0,0,0-.85,0,14,14,0,0,0-2,.38,31.18,31.18,0,0,0-4,1.33,8.29,8.29,0,0,0,1.07-1.07,4.88,4.88,0,0,0,.87-1.47,3.24,3.24,0,0,0,.17-.77,2.75,2.75,0,0,0-.1-.95,3.05,3.05,0,0,0-1-1.46,4.12,4.12,0,0,0-.77-.53,4.85,4.85,0,0,0-.9-.37,7.06,7.06,0,0,0-1.93-.27h-.21a12.34,12.34,0,0,0-1.95.17,29.08,29.08,0,0,0-5.09,1.35c-3,1-5.84,2.31-8.61,3.55l-.22.1c-1,.46-2.06.92-3.09,1.36a21.85,21.85,0,0,0,2-3.46A15.9,15.9,0,0,0,178,356a8,8,0,0,0,.38-1.78,2.82,2.82,0,0,0-3-3.55"/><path class="cls-19" d="M204.48,367.45a22.71,22.71,0,0,1-2.25,1.91,29.88,29.88,0,0,1-2.86,1.87c-1,.58-2.06,1.12-3.11,1.63-2.13,1-4.31,1.92-6.5,2.78l.09,0c-1.76.69-3.54,1.35-5.29,2h0l-.1,0,.09,0-.09,0-.13.06a.64.64,0,0,0-.21.19.59.59,0,0,0-.06.41.56.56,0,0,0,.66.41l1.21-.37,1.37-.45c.9-.3,1.79-.63,2.68-1a57.69,57.69,0,0,0,5.44-2.46,44.68,44.68,0,0,0,5.08-3.09,33.12,33.12,0,0,0,4.32-3.6.24.24,0,0,0,0-.33.25.25,0,0,0-.17-.08.28.28,0,0,0-.17.07m-19.94,10.19h0"/><path class="cls-19" d="M196.5,362c-.92.6-1.86,1.16-2.81,1.68s-2,1.07-3.06,1.58c-2.06,1-4.18,1.89-6.31,2.72l.18-.07-2.43.94c-.8.32-1.61.62-2.4,1a.72.72,0,0,0-.25.24.64.64,0,0,0-.08.52.7.7,0,0,0,.83.51c.72-.2,1.43-.44,2.13-.7s1.52-.58,2.27-.91c1.41-.6,2.79-1.29,4.15-2s2.7-1.49,4-2.29c.69-.42,1.36-.86,2-1.3s1.36-.87,2-1.32a.32.32,0,0,0,.13-.43.37.37,0,0,0-.29-.16.23.23,0,0,0-.14,0"/><path class="cls-2" d="M93,263.76l-.36.36a21,21,0,0,1-2,1.8c-.32.26-.64.51-1,.74s-.83.55-1.26.8A68.36,68.36,0,0,1,81.46,271c-1.15.53-2.31,1.06-3.44,1.62-1.82.89-3.67,1.91-5.66,3.12-1.78,1.08-3.56,2.27-5.29,3.55a58.56,58.56,0,0,0-9.37,8.68c-1.55,1.77-3,3.7-4.14,5.35-1.31,1.83-2.61,3.76-4,5.91a148.6,148.6,0,0,0-12.95,25.51c-.84,2.13-1.66,4.38-2.44,6.69s-1.49,4.67-2.09,6.68c-1.51,5-2.68,9.56-3.6,13.88-2.29,10.8-2.78,20.07-1.5,28.33a44.2,44.2,0,0,0,2.8,10.18,33.92,33.92,0,0,0,16,17.31,52.07,52.07,0,0,0,15.51,5.06A84.46,84.46,0,0,0,76,414c.92,0,1.84,0,2.75,0a144.1,144.1,0,0,0,17.94-1.62c5.4-.8,10.87-1.87,16.74-3.26,2.42-.57,4.92-1.21,7.41-1.89,3.84-1,7.79-2.19,11.72-3.41a138.36,138.36,0,0,0,22-8.58.73.73,0,0,0,.41-.68.76.76,0,0,0,.12-.42,37.47,37.47,0,0,0-.9-6.77,44.17,44.17,0,0,0-1.82-6.15,40.39,40.39,0,0,0-2.84-6.08,26.38,26.38,0,0,0-3.81-5.14,16,16,0,0,0-3.75-2.91.72.72,0,0,0-.32-.08h-.15a.52.52,0,0,0-.21,0h-.1a53.2,53.2,0,0,1-9.05,1c-2.83.13-5.83.21-9.42.25-1.91,0-3.81,0-5.72,0H103.9c-3.12,0-6.28.08-9.34.14l-1.66,0-5.49.1-3.26,0H82.43l-1.6,0c-1.18,0-2.35-.06-3.52-.06l-1.46,0a338.47,338.47,0,0,0,15.88-30c2.77-6,5.27-11.94,7.44-17.77.83-2.24,1.69-4.65,2.39-7.07.57-2,1.06-4.06,1.45-6.16a58.91,58.91,0,0,0,1-13.05,39,39,0,0,0-2.43-12.49,29.09,29.09,0,0,0-2-4.17A25.91,25.91,0,0,0,96.9,274a24.86,24.86,0,0,0-7.16-5.73,20.56,20.56,0,0,0,4.07-3.35.78.78,0,0,0,.25-.51.75.75,0,0,0-.17-.51.74.74,0,0,0-.51-.25h0a.72.72,0,0,0-.39.11"/><path class="cls-23" d="M97.66,324.05a.28.28,0,0,0-.25.2c-.26.76-.55,1.52-.83,2.28a142.61,142.61,0,0,1-7.43,16c-1.36,2.55-2.77,5.13-4.31,7.89l-3.45,6.11-1,1.68q-1.32,2.31-2.59,4.64c-.42.77-.84,1.54-1.25,2.32s-.82,1.58-1.15,2.34a.93.93,0,0,0-.09.3c-1.23.06-2.53.16-3.85.3a51.66,51.66,0,0,0-8.81,1.73l-.2.06-.15,0a.25.25,0,0,0-.18.31.26.26,0,0,0,.24.2,44.19,44.19,0,0,1,8.18-1.59c1.8-.17,3.69-.25,5.77-.25,4.06,0,8,.32,12,.68,2.74.24,5.92.5,9,.65,1.26.06,2.53.09,3.8.11h1.09l3.87.07q3.42.06,6.86.06c3.94,0,7.54-.07,11-.21,2.94-.13,5.95-.35,8.94-.64,1.43-.14,2.85-.31,4.34-.52.68-.09,1.37-.2,2.05-.31l.47-.08.55-.09.56-.11.65-.14.35-.05a.79.79,0,0,0,.52-.38.8.8,0,0,0,.1-.64.76.76,0,0,0-.37-.52.8.8,0,0,0-.43-.12.86.86,0,0,0-.21,0c-.36.06-.74.1-1.11.15l-.81.1-.12,0-.52.06-1.41.19c-1.34.16-2.67.31-4,.44l.13,0h.12c-5.44.5-11.09.79-17.8.89-1.74,0-3.48,0-5.22,0l-3.68,0c-2.92,0-5.83-.06-8.75-.12-2.2-.05-4.44-.14-6.6-.22l-.56,0c-3.43-.14-7-.29-10.52-.29h-.32c-1.12,0-2.24,0-3.36.07.58-.86,1.1-1.79,1.62-2.69l.33-.59c.72-1.28,1.43-2.57,2.13-3.86,1.45-2.64,2.87-5.29,4.22-7.87,1.24-2.37,2.57-5,4-8,1.21-2.51,2.44-5.17,3.75-8.15,1.81-4.12,3.43-8.22,4.82-12.17a.18.18,0,0,0,0-.17.26.26,0,0,0-.17-.14h-.06"/><path class="cls-2" d="M103.9,368.24h-.76l4,0,3.68,0c1.74,0,3.48,0,5.22,0H103.9"/><path class="cls-24" d="M26.32,372.86h0a58.65,58.65,0,0,0,.66,7.41,44.37,44.37,0,0,0,2.81,10.19,34.41,34.41,0,0,0,4.09,7.25,34.88,34.88,0,0,0,11.89,10.06,47.39,47.39,0,0,0,10.58,4c-.09-1.19-.21-2.38-.37-3.56a.06.06,0,0,1,0,0,51,51,0,0,0-1.32-6.6,48.72,48.72,0,0,0-2.12-6.2.14.14,0,0,1,0,.06,47,47,0,0,0-3-5.92c-.51-.83-1-1.66-1.58-2.45-.41-.58-.83-1.15-1.26-1.72h0s0,0,0,0h0l0,0h0a49.55,49.55,0,0,0-3.56-4.1,43.16,43.16,0,0,0-4.39-3.94A26.73,26.73,0,0,0,33,374l.06,0a17.38,17.38,0,0,0-2-.7,14.33,14.33,0,0,0-1.84-.39h0a11.25,11.25,0,0,0-1.53-.11,11.64,11.64,0,0,0-1.45.09m2.91,0h0"/><polyline class="cls-24" points="46.72 385.43 46.72 385.43 46.72 385.43 46.72 385.43"/><polyline class="cls-24" points="46.72 385.43 46.73 385.44 46.73 385.44 46.73 385.44 46.72 385.43"/><path class="cls-24" d="M136.54,254c-.06.22-.12.43-.19.65a13.52,13.52,0,0,1-1.48,2.88l.1-.15a19.75,19.75,0,0,1-3.06,3.46l0,0,0,0-.09.08.06-.06a25,25,0,0,1-5.23,3.53h0a28.39,28.39,0,0,1-3.81,1.49,43.54,43.54,0,0,1-4.36,1.12l.19,0a38.59,38.59,0,0,1-10,.73h.15a28.92,28.92,0,0,1-7.37-1.45l.18.06a23,23,0,0,1-5-2.49A22.36,22.36,0,0,1,94.27,262a.7.7,0,0,0-1,.06.72.72,0,0,0,.07,1,22,22,0,0,0,5.75,3.76,26.26,26.26,0,0,0,6.59,1.94,37.44,37.44,0,0,0,13.95-.57,41.79,41.79,0,0,0,5.67-1.66,23.82,23.82,0,0,0,5.19-2.79,22.75,22.75,0,0,0,4.64-4.23,13.72,13.72,0,0,0,2.8-5.24.71.71,0,0,0-.55-.84l-.14,0a.73.73,0,0,0-.7.57m-9.74,10.33-.1.05.1-.05m5.06-3.45,0,0,0,0,0,0"/><path class="cls-9" d="M100.43,194.8a1.34,1.34,0,0,0-.46.08,2.17,2.17,0,0,0-1.15,2,8,8,0,0,0,.52,3.49c.81,2.22,2.31,3.82,3.56,3.82a1.33,1.33,0,0,0,.45-.08,1.59,1.59,0,0,0,.87-.88,6.45,6.45,0,0,0-.24-4.57c-.81-2.21-2.3-3.82-3.55-3.82"/><path class="cls-9" d="M134.52,184.47a1.32,1.32,0,0,0-.44.08c-1.26.46-1.53,2.86-.62,5.34.8,2.17,2.27,3.75,3.49,3.75a1.42,1.42,0,0,0,.45-.08c.6-.22,1-.9,1.12-1.92a7.53,7.53,0,0,0-.51-3.42c-.8-2.17-2.26-3.75-3.49-3.75"/><path class="cls-9" d="M128.37,163.28c-3.32,0-5.82,1.16-5.94,2.75a1.92,1.92,0,0,0,.55,1.43c1,1.21,3.39,2.12,6,2.32.38,0,.74,0,1.11,0,3.31,0,5.81-1.16,5.94-2.75.07-.86-.58-1.73-1.82-2.43a11.54,11.54,0,0,0-4.73-1.32c-.38,0-.75,0-1.11,0"/><path class="cls-19" d="M118.34,178a.43.43,0,0,0-.14,0,.29.29,0,0,0-.1.38c.36.66.75,1.32,1.13,2l0,.08.13.21c.58,1,1.16,2,1.72,3a70.09,70.09,0,0,1,3.7,7.32,27.44,27.44,0,0,1,2,6.93,10.76,10.76,0,0,1,0,2.83,6.58,6.58,0,0,1-.41,1.51,4.67,4.67,0,0,1-1.5,1.93,5.91,5.91,0,0,1-1.08.64,7,7,0,0,1-1.46.4l-.73.05a.83.83,0,0,0-.82.82.87.87,0,0,0,.24.59.83.83,0,0,0,.55.24,7.73,7.73,0,0,0,3.8-1.28,7.41,7.41,0,0,0,.87-.7,5.57,5.57,0,0,0,.73-.87,6,6,0,0,0,.87-1.85,8.18,8.18,0,0,0,.31-2.12,12.62,12.62,0,0,0-.18-2.32,17.33,17.33,0,0,0-.58-2.4,35.65,35.65,0,0,0-2-5c-1.21-2.53-2.61-5-3.82-7l-1.27-2.13-.5-.81c-.45-.75-.89-1.49-1.31-2.26a.29.29,0,0,0-.24-.14"/><path class="cls-9" d="M112.94,213h0a14.85,14.85,0,0,0,.26,5.48,9.62,9.62,0,0,0,2.46,4.68,6.26,6.26,0,0,0,2.25,1.4,6.16,6.16,0,0,0,2.16.36l.69,0a7.29,7.29,0,0,0,3.13-1,8,8,0,0,0,2.3-2.12,11.23,11.23,0,0,0,1.61-3.14,16.9,16.9,0,0,0,.76-3.65c-1,.08-2,.16-3,.2l-1.18,0a31,31,0,0,1-3.76-.22,25.9,25.9,0,0,1-7.69-2h0"/><path class="cls-11" d="M114.51,217.61a9.65,9.65,0,0,0-1.07.09h.06l-.45.08c0,.23.09.45.14.68a9.62,9.62,0,0,0,2.46,4.68,6.31,6.31,0,0,0,2.25,1.4,6.15,6.15,0,0,0,2.16.37l.69,0a7.45,7.45,0,0,0,3.13-1,7.21,7.21,0,0,0,1.49-1.18,24.58,24.58,0,0,0-2.23-1.85h0l0,0h0a19.42,19.42,0,0,0-4.35-2.4,12.5,12.5,0,0,0-1.58-.48,10.8,10.8,0,0,0-1.49-.26h.06a8.43,8.43,0,0,0-1-.06h-.21"/><path class="cls-25" d="M228.45,121.85v-11.2h4a4.12,4.12,0,0,1,2.7.8,2.73,2.73,0,0,1,1,2.24,2.27,2.27,0,0,1-.39,1.31,2.52,2.52,0,0,1-1.12.86v.22a2.31,2.31,0,0,1,1.28.94,2.92,2.92,0,0,1,.45,1.64,2.87,2.87,0,0,1-1,2.35,4.32,4.32,0,0,1-2.83.84Zm2.37-6.66h1.59a1.79,1.79,0,0,0,1.11-.31,1,1,0,0,0,.39-.86,1,1,0,0,0-.39-.86,1.73,1.73,0,0,0-1.11-.31h-1.59Zm0,4.46h1.63a1.79,1.79,0,0,0,1.15-.32,1.08,1.08,0,0,0,.39-.88,1.14,1.14,0,0,0-.39-.92,1.73,1.73,0,0,0-1.15-.33h-1.63Z"/><path class="cls-25" d="M238.71,113.24h4.8v6.59H246v2h-7.31v-2h2.54v-4.57h-2.54Zm3.56-1a1.5,1.5,0,0,1-1.06-.35,1.28,1.28,0,0,1-.37-1,1.31,1.31,0,0,1,.37-1,1.78,1.78,0,0,1,2.12,0,1.34,1.34,0,0,1,.37,1,1.32,1.32,0,0,1-.37,1A1.5,1.5,0,0,1,242.27,112.22Z"/><path class="cls-25" d="M251.63,111v2.23h3.76v2h-3.76v3.59a1.72,1.72,0,0,0,.21.94.76.76,0,0,0,.66.31.85.85,0,0,0,.73-.38,3.38,3.38,0,0,0,.45-1.23h2a4.26,4.26,0,0,1-.91,2.69,2.9,2.9,0,0,1-2.31.94,3,3,0,0,1-2.29-.85,3.39,3.39,0,0,1-.79-2.4v-3.61h-1.63v-2h1.63V111Z"/><path class="cls-25" d="M257.85,121.85v-11.2h4a4.12,4.12,0,0,1,2.7.8,2.73,2.73,0,0,1,1,2.24,2.27,2.27,0,0,1-.39,1.31,2.58,2.58,0,0,1-1.12.86v.22a2.31,2.31,0,0,1,1.28.94,2.92,2.92,0,0,1,.45,1.64,2.87,2.87,0,0,1-1,2.35,4.32,4.32,0,0,1-2.83.84Zm2.37-6.66h1.59a1.79,1.79,0,0,0,1.11-.31,1,1,0,0,0,.39-.86,1,1,0,0,0-.39-.86,1.73,1.73,0,0,0-1.11-.31h-1.59Zm0,4.46h1.63a1.79,1.79,0,0,0,1.15-.32,1.08,1.08,0,0,0,.39-.88,1.14,1.14,0,0,0-.39-.92,1.73,1.73,0,0,0-1.15-.33h-1.63Z"/><path class="cls-25" d="M267.48,113.24h3.68V114h.54a1.71,1.71,0,0,1,.7-.76,2.13,2.13,0,0,1,1.07-.27,1.73,1.73,0,0,1,1.54.77,4.13,4.13,0,0,1,.52,2.29v1.39h-2.31v-1.09c0-.79-.29-1.18-.87-1.18a.87.87,0,0,0-.82.51,3.3,3.3,0,0,0-.27,1.52v2.63h2.44v2h-6.06v-2h1.44v-4.57h-1.6Z"/><path class="cls-25" d="M282.63,116.4v1.7l-2.06.31a1.17,1.17,0,0,0-.68.31.82.82,0,0,0-.26.61.77.77,0,0,0,.27.62,1.08,1.08,0,0,0,.74.23,2,2,0,0,0,.93-.21,1.74,1.74,0,0,0,.66-.6,1.52,1.52,0,0,0,.25-.82v-2.16a1.47,1.47,0,0,0-.37-1.08,1.54,1.54,0,0,0-1.13-.38,2.29,2.29,0,0,0-.9.17,1.52,1.52,0,0,0-.63.48,1.62,1.62,0,0,0-.32.77H277a3.78,3.78,0,0,1,.6-1.81,3.4,3.4,0,0,1,1.4-1.16,4.78,4.78,0,0,1,2-.41,4,4,0,0,1,2.74.84,3,3,0,0,1,1,2.41v5.63h-2.21V121H282a1.75,1.75,0,0,1-.72.78,2.56,2.56,0,0,1-1.24.27,3,3,0,0,1-1.39-.32,2.28,2.28,0,0,1-.94-.88,2.6,2.6,0,0,1-.33-1.31,2.43,2.43,0,0,1,.71-1.82,3.63,3.63,0,0,1,2-.93Z"/><path class="cls-25" d="M287.71,113.24h4.8v6.59H295v2h-7.31v-2h2.54v-4.57h-2.54Zm3.56-1a1.5,1.5,0,0,1-1.06-.35,1.28,1.28,0,0,1-.37-1,1.31,1.31,0,0,1,.37-1,1.78,1.78,0,0,1,2.12,0,1.34,1.34,0,0,1,.37,1,1.32,1.32,0,0,1-.37,1A1.5,1.5,0,0,1,291.27,112.22Z"/><path class="cls-25" d="M297,121.85v-8.61h2.27V114h.52a2,2,0,0,1,.79-.77,2.33,2.33,0,0,1,1.15-.28,2.42,2.42,0,0,1,2.38,1.58,4.62,4.62,0,0,1,.33,1.84v5.46h-2.27v-4.91a2.16,2.16,0,0,0-.37-1.38,1.25,1.25,0,0,0-1.07-.47,1.29,1.29,0,0,0-1.09.47,2.16,2.16,0,0,0-.37,1.38v4.91Z"/><path class="cls-25" d="M309,119.18a1.44,1.44,0,0,0,.6.73,1.93,1.93,0,0,0,1,.26,2.25,2.25,0,0,0,1.05-.2.64.64,0,0,0,.36-.58.61.61,0,0,0-.24-.52,1.69,1.69,0,0,0-.81-.24l-1.24-.14a3.83,3.83,0,0,1-2.16-.81,2.37,2.37,0,0,1-.71-1.84,2.55,2.55,0,0,1,1-2.1,4.27,4.27,0,0,1,2.7-.77,4.47,4.47,0,0,1,2.82.79,3,3,0,0,1,1.07,2.34h-2.12a1.49,1.49,0,0,0-.61-.88,2,2,0,0,0-1.18-.3,2.31,2.31,0,0,0-1.1.21.66.66,0,0,0-.38.62.58.58,0,0,0,.25.48,1.6,1.6,0,0,0,.78.23l1.26.15a3.88,3.88,0,0,1,2.17.82,2.31,2.31,0,0,1,.72,1.82,2.58,2.58,0,0,1-1.66,2.52,4.89,4.89,0,0,1-1.93.35,4.32,4.32,0,0,1-2.71-.76,2.87,2.87,0,0,1-1.08-2.18Z"/></svg>