<svg id="Layer_1" data-name="Layer 1" xmlns="http://www.w3.org/2000/svg" viewBox="0 0 2695.04 2200"><defs><style>.cls-1,.cls-30{fill:#fff;}.cls-2{fill:#322a28;}.cls-3{fill:#e5f0f8;}.cls-4{fill:#40a87b;}.cls-14,.cls-20,.cls-21,.cls-23,.cls-24,.cls-37,.cls-38,.cls-39,.cls-40,.cls-42,.cls-43,.cls-5,.cls-7,.cls-9{fill:none;}.cls-5{stroke:#6adb6a;}.cls-14,.cls-21,.cls-23,.cls-24,.cls-38,.cls-43,.cls-5,.cls-7{stroke-miterlimit:10;}.cls-5,.cls-7{stroke-width:4.71px;}.cls-6{fill:#6adb6a;}.cls-7{stroke:#40a87b;}.cls-8{fill:#bbdbf3;}.cls-24,.cls-39,.cls-43,.cls-9{stroke:#fff;}.cls-20,.cls-37,.cls-39,.cls-40,.cls-42,.cls-9{stroke-linecap:round;stroke-linejoin:round;}.cls-9{stroke-width:10.57px;}.cls-10{fill:#98eb98;}.cls-11{fill:#f74242;}.cls-12{fill:#586773;}.cls-13{fill:#a06753;}.cls-14{stroke:#d1ddff;stroke-width:2.67px;}.cls-15{fill:#b86b76;}.cls-16{fill:#f9e181;}.cls-17{fill:#088cff;}.cls-18{fill:#e7888b;}.cls-19{fill:#824c3a;}.cls-20{stroke:#724638;stroke-width:0.67px;}.cls-21,.cls-23{stroke:#2c3447;}.cls-21{stroke-width:0.99px;}.cls-22{fill:#a14c53;}.cls-23{stroke-width:1.37px;}.cls-24{stroke-width:1.13px;}.cls-25{fill:#93acbf;}.cls-26{fill:#0775ef;}.cls-27{fill:#2ec6fc;}.cls-28{fill:#f9ecb8;}.cls-29{fill:#89a5c7;}.cls-30{isolation:isolate;opacity:0.4;}.cls-31{fill:#fdae97;}.cls-32{fill:#088cfc;}.cls-33{fill:#e89780;}.cls-34{fill:#d6eaff;}.cls-35{fill:#ea9d85;}.cls-36{fill:#332b27;}.cls-37{stroke:#ea9d85;stroke-width:1.4px;}.cls-38{stroke:#332b27;stroke-width:0.9px;}.cls-39,.cls-40{stroke-width:0.73px;}.cls-40{stroke:#322a28;}.cls-41{fill:#fff1f0;}.cls-42{stroke:#fff1f0;stroke-width:1.11px;}.cls-43{stroke-width:1.61px;}</style></defs><rect class="cls-1" width="2695.04" height="2200"/><path class="cls-2" d="M1056.56,335H1093a91,91,0,0,1,12.77.9,34.93,34.93,0,0,1,11.54,3.59,22.18,22.18,0,0,1,8.28,7.52q3.18,4.84,3.18,12.85a20.54,20.54,0,0,1-4.63,13.74,25.34,25.34,0,0,1-12.22,7.8v.28a28.4,28.4,0,0,1,8.72,2.69,23.48,23.48,0,0,1,6.76,5.11,21.91,21.91,0,0,1,4.36,7.25,25.64,25.64,0,0,1,1.51,8.84q0,7.74-3.31,12.91a26.2,26.2,0,0,1-8.56,8.36,37.42,37.42,0,0,1-11.81,4.55,63.08,63.08,0,0,1-13,1.38h-40ZM1078.1,374h15.56a21.85,21.85,0,0,0,4.9-.55,13.5,13.5,0,0,0,4.35-1.8,9.23,9.23,0,0,0,3.11-3.31,10,10,0,0,0,1.17-5,9,9,0,0,0-1.31-5,9.1,9.1,0,0,0-3.38-3.11,15.92,15.92,0,0,0-4.7-1.59,29.27,29.27,0,0,0-5.11-.48h-14.64Zm0,40.46h19.34a23.35,23.35,0,0,0,5-.55,13.29,13.29,0,0,0,4.63-1.93,11.05,11.05,0,0,0,3.38-3.59,10.35,10.35,0,0,0,1.31-5.39,8.65,8.65,0,0,0-1.73-5.59,11,11,0,0,0-4.35-3.25,22.13,22.13,0,0,0-5.66-1.51,41.22,41.22,0,0,0-5.66-.42h-16.3Z"/><path class="cls-2" d="M1185.5,424.33h-.28a19.42,19.42,0,0,1-9.18,7.73,32.07,32.07,0,0,1-21.13,1,22.73,22.73,0,0,1-7.67-3.94,18.8,18.8,0,0,1-5.25-6.49,19.86,19.86,0,0,1-1.93-9,20.56,20.56,0,0,1,2.14-9.81,19.17,19.17,0,0,1,5.8-6.63,28.7,28.7,0,0,1,8.36-4.07,61,61,0,0,1,9.73-2.14,91.93,91.93,0,0,1,10.08-.83c3.33-.09,6.44-.13,9.33-.14a10.81,10.81,0,0,0-3.94-8.68,14.2,14.2,0,0,0-9.32-3.24,20.23,20.23,0,0,0-9.32,2.14,25.17,25.17,0,0,0-7.53,5.87l-11-11.33a38,38,0,0,1,13.54-8.08,48.38,48.38,0,0,1,16-2.69q9.1,0,15,2.28a21.87,21.87,0,0,1,9.39,6.7,25.63,25.63,0,0,1,4.9,10.84,71.33,71.33,0,0,1,1.34,14.8v34.11h-19Zm-5.11-21q-2.36,0-5.87.21a29.91,29.91,0,0,0-6.77,1.17,15.1,15.1,0,0,0-5.52,2.9A6.68,6.68,0,0,0,1160,413a5.92,5.92,0,0,0,3.17,5.52,13.3,13.3,0,0,0,6.63,1.8,20.46,20.46,0,0,0,5.87-.83,17.74,17.74,0,0,0,5-2.35,11,11,0,0,0,4.84-9.39v-4.42Z"/><path class="cls-2" d="M1263,387.33a11.81,11.81,0,0,0-4.28-3.66,12.66,12.66,0,0,0-5.94-1.45q-7.87,0-12.22,4.69c-2.9,3.14-4.35,7.23-4.35,12.3s1.45,9.16,4.35,12.29,7,4.69,12.22,4.69a11.16,11.16,0,0,0,5.94-1.52,18.2,18.2,0,0,0,4.28-3.59l13.67,14.37a26.45,26.45,0,0,1-11.39,7,43.15,43.15,0,0,1-12.5,2,42.54,42.54,0,0,1-14.57-2.48,35.13,35.13,0,0,1-11.88-7.12,33.58,33.58,0,0,1-7.94-11.11,37.73,37.73,0,0,1,0-29,33.58,33.58,0,0,1,7.94-11.11,34.75,34.75,0,0,1,11.88-7.11,42.27,42.27,0,0,1,14.57-2.49,43.15,43.15,0,0,1,12.5,2,26.45,26.45,0,0,1,11.39,7Z"/><path class="cls-2" d="M1284.1,328.33h20.71v63.8l22.93-26.51h25.41l-26.66,30.24,27.35,36.87h-26.1l-22.65-34h-.28v34H1284.1Z"/><path class="cls-2" d="M1405.21,335h66.43v19.89h-44.89v18.22h42.4V393h-42.4v19.89h47.37v19.88h-68.91Z"/><path class="cls-2" d="M1488.76,365.62h19.89v9.11h.27a17.3,17.3,0,0,1,2.76-3.86,20.42,20.42,0,0,1,4.29-3.46,24.39,24.39,0,0,1,5.66-2.48,23.7,23.7,0,0,1,6.9-1q7.88,0,12.71,2.42a18.51,18.51,0,0,1,7.53,6.69,27.42,27.42,0,0,1,3.66,10.09,76.54,76.54,0,0,1,1,12.56v37h-20.71V399.87q0-2.91-.21-6a18.84,18.84,0,0,0-1.24-5.73,8.93,8.93,0,0,0-9.33-5.94,12.75,12.75,0,0,0-6.49,1.45,9.86,9.86,0,0,0-3.79,3.87,15.87,15.87,0,0,0-1.73,5.45,46.59,46.59,0,0,0-.41,6.35v33.41h-20.76Z"/><path class="cls-2" d="M1638.46,432.73H1619.4V423.9h-.27a23.58,23.58,0,0,1-3.25,3.66,24.41,24.41,0,0,1-4.69,3.38,28.37,28.37,0,0,1-5.94,2.48,23,23,0,0,1-6.7,1,34.44,34.44,0,0,1-13.53-2.55,30.13,30.13,0,0,1-10.46-7.21,32.25,32.25,0,0,1-6.7-11,39.82,39.82,0,0,1-2.3-13.93,42.23,42.23,0,0,1,2.14-13.47,37.14,37.14,0,0,1,6.08-11.39,29.59,29.59,0,0,1,9.6-7.94,27.16,27.16,0,0,1,12.84-3,35.75,35.75,0,0,1,12.09,2,19.43,19.43,0,0,1,9.18,6.84h.28V328.33h20.71Zm-19.06-33.55c0-5.07-1.45-9.16-4.35-12.3s-7-4.69-12.22-4.69-9.32,1.57-12.22,4.69-4.35,7.23-4.35,12.3,1.45,9.16,4.35,12.29,7,4.69,12.22,4.69,9.32-1.56,12.22-4.69S1619.4,404.24,1619.4,399.18Z"/><path class="cls-3" d="M1946.66,601.19v-5.81l33.54-18.15v8.87l-22.41,12.23,22.4,12.19v8.81Z"/><path class="cls-3" d="M2600.18,1083.41v-8.87l22.41-12.21-22.41-12.18v-8.82l33.55,18.15v5.81Z"/><rect class="cls-3" x="1992.64" y="591.43" width="133.39" height="13.7"/><rect class="cls-3" x="1946.66" y="644.39" width="133.39" height="13.7"/><rect class="cls-3" x="1975.07" y="681.28" width="133.39" height="13.7"/><rect class="cls-3" x="1975.07" y="782.81" width="133.39" height="13.7"/><rect class="cls-3" x="1975.07" y="814.22" width="133.39" height="13.7"/><rect class="cls-3" x="2020.91" y="716.42" width="402.26" height="13.7"/><rect class="cls-3" x="2020.91" y="847.59" width="537.39" height="13.7"/><rect class="cls-3" x="2020.91" y="952.65" width="537.39" height="13.7"/><rect class="cls-3" x="2071.45" y="1055.5" width="514.85" height="13.7"/><rect class="cls-3" x="2020.91" y="988.35" width="115.1" height="13.7"/><rect class="cls-3" x="2020.91" y="1022.31" width="115.1" height="13.7"/><rect class="cls-3" x="2020.91" y="881.13" width="537.39" height="13.7"/><rect class="cls-3" x="2020.91" y="914.67" width="290.75" height="13.7"/><rect class="cls-3" x="2020.91" y="748" width="123.35" height="13.7"/><path class="cls-3" d="M495.41,2023.49S-166.46,462.07,1048.14,567.76c520.22,45.27,423.1,319.9,652.86,576.86,148.93,166.56,435.36,30.31,542.69,175.85s-18.8,560.55-63.05,703Z"/><path class="cls-4" d="M2186.56,2015.91S2228.5,1848.62,2333,1797s216.12,19.06,187.75,93.34c-24.43,64.09-124.89-14.71-203.05,16.28s-90.48,109.26-90.48,109.26Z"/><path class="cls-5" d="M2500.62,1845.8s-112.2-63.94-195.45-4.83-109.59,174.94-109.59,174.94"/><line class="cls-5" x1="2482.52" y1="1815.9" x2="2456.41" y2="1827.28"/><line class="cls-5" x1="2444.82" y1="1791.51" x2="2392.82" y2="1815.9"/><line class="cls-5" x1="2366.7" y1="1791.51" x2="2339.65" y2="1823.46"/><line class="cls-5" x1="2315.43" y1="1812.92" x2="2303.27" y2="1842.35"/><line class="cls-5" x1="2469.47" y1="1886.52" x2="2429.39" y2="1820.22"/><line class="cls-5" x1="2398.67" y1="1877.02" x2="2361.92" y2="1817.99"/><line class="cls-5" x1="2336.24" y1="1867.97" x2="2280.98" y2="1861.1"/><line class="cls-5" x1="2271.91" y1="1901.45" x2="2240.24" y2="1911.85"/><path class="cls-6" d="M2150.59,2016.4s-29.59-560.75,238.24-488.49-208.92,374.48-208.52,488.49Z"/><path class="cls-7" d="M2161.42,2016.4s9.35-293,200.27-437.84"/><line class="cls-7" x1="2277.95" y1="1663.51" x2="2282.72" y2="1562.49"/><line class="cls-7" x1="2427.74" y1="1621.65" x2="2298.69" y2="1638.47"/><line class="cls-7" x1="2377.55" y1="1707.87" x2="2241.11" y2="1723.77"/><line class="cls-7" x1="2309.33" y1="1793.32" x2="2203.95" y2="1808.21"/><line class="cls-7" x1="2193.84" y1="1713.48" x2="2217.99" y2="1772.17"/><line class="cls-7" x1="2233.53" y1="1618.24" x2="2254.12" y2="1700.86"/><line class="cls-7" x1="2171.29" y1="1811.45" x2="2190.53" y2="1849.81"/><line class="cls-7" x1="2254.12" y1="1872.53" x2="2178.61" y2="1896.34"/><path class="cls-4" d="M488.57,2015.91S446.63,1848.62,342.09,1797,126,1816.05,154.3,1890.33c24.43,64.09,124.89-14.71,203.05,16.28s90.49,109.26,90.49,109.26Z"/><path class="cls-5" d="M174.51,1845.8S286.71,1781.86,370,1841s109.59,174.94,109.59,174.94"/><line class="cls-5" x1="192.61" y1="1815.9" x2="218.71" y2="1827.28"/><line class="cls-5" x1="230.31" y1="1791.51" x2="282.3" y2="1815.9"/><line class="cls-5" x1="308.43" y1="1791.51" x2="335.48" y2="1823.46"/><line class="cls-5" x1="359.7" y1="1812.92" x2="371.86" y2="1842.35"/><line class="cls-5" x1="205.66" y1="1886.52" x2="245.73" y2="1820.22"/><line class="cls-5" x1="276.46" y1="1877.02" x2="313.21" y2="1817.99"/><line class="cls-5" x1="338.89" y1="1867.97" x2="394.14" y2="1861.1"/><line class="cls-5" x1="403.22" y1="1901.45" x2="434.89" y2="1911.85"/><path class="cls-6" d="M524.53,2016.4s29.6-560.75-238.23-488.49,208.92,374.48,208.49,488.49Z"/><path class="cls-7" d="M513.71,2016.4s-9.35-293-200.27-437.84"/><line class="cls-7" x1="397.18" y1="1663.51" x2="392.41" y2="1562.49"/><line class="cls-7" x1="247.39" y1="1621.65" x2="376.43" y2="1638.47"/><line class="cls-7" x1="297.57" y1="1707.87" x2="434.01" y2="1723.77"/><line class="cls-7" x1="365.79" y1="1793.32" x2="471.18" y2="1808.21"/><line class="cls-7" x1="481.29" y1="1713.48" x2="457.13" y2="1772.17"/><line class="cls-7" x1="441.6" y1="1618.24" x2="421" y2="1700.86"/><line class="cls-7" x1="503.84" y1="1811.45" x2="484.59" y2="1849.81"/><line class="cls-7" x1="421" y1="1872.53" x2="496.52" y2="1896.34"/><rect class="cls-8" x="485.01" y="675.38" width="1705.01" height="1247.3"/><rect class="cls-1" x="500.83" y="691.2" width="1673.37" height="1215.66"/><rect class="cls-8" x="495.45" y="683.59" width="1684.12" height="122.18"/><line class="cls-9" x1="2068.42" y1="781.44" x2="2134.33" y2="715.53"/><line class="cls-9" x1="2134.33" y1="781.44" x2="2068.42" y2="715.53"/><rect class="cls-8" x="784.85" y="805.77" width="20.66" height="1101.09"/><rect class="cls-8" x="1531.03" y="805.77" width="20.66" height="1101.09"/><path class="cls-10" d="M832.41,864.4v-5.68L865.2,841v8.68l-21.9,11.91,21.9,11.91v8.68Z"/><path class="cls-10" d="M1471.35,1875.17v-8.67l21.9-11.91-21.9-11.92V1834l32.79,17.75v5.68Z"/><rect class="cls-10" x="877.36" y="854.86" width="130.41" height="13.4"/><rect class="cls-10" x="832.41" y="906.63" width="130.41" height="13.4"/><rect class="cls-10" x="860.19" y="942.7" width="130.41" height="13.4"/><rect class="cls-10" x="860.19" y="1041.97" width="130.41" height="13.4"/><rect class="cls-10" x="860.19" y="1072.68" width="130.41" height="13.4"/><rect class="cls-10" x="905" y="977.05" width="393.29" height="13.4"/><rect class="cls-10" x="905" y="1105.3" width="525.4" height="13.4"/><rect class="cls-10" x="905" y="1208.02" width="525.4" height="13.4"/><rect class="cls-10" x="954.41" y="1308.57" width="503.36" height="13.4"/><rect class="cls-10" x="905" y="1242.92" width="112.53" height="13.4"/><rect class="cls-10" x="905" y="1276.12" width="112.53" height="13.4"/><rect class="cls-10" x="905" y="1138.09" width="525.4" height="13.4"/><rect class="cls-10" x="905" y="1170.88" width="284.26" height="13.4"/><rect class="cls-10" x="860.19" y="1346.92" width="117.46" height="13.4"/><rect class="cls-10" x="860.19" y="1377.63" width="117.46" height="13.4"/><rect class="cls-10" x="900.55" y="1410.26" width="473.24" height="13.4"/><rect class="cls-10" x="900.55" y="1512.97" width="473.24" height="13.4"/><rect class="cls-10" x="945.06" y="1613.52" width="453.38" height="13.4"/><rect class="cls-10" x="900.55" y="1547.87" width="101.36" height="13.4"/><rect class="cls-10" x="900.55" y="1581.07" width="101.36" height="13.4"/><rect class="cls-10" x="900.55" y="1443.04" width="473.24" height="13.4"/><rect class="cls-10" x="900.55" y="1475.83" width="256.04" height="13.4"/><rect class="cls-10" x="945.33" y="1646.94" width="117.46" height="13.4"/><rect class="cls-10" x="945.33" y="1677.64" width="117.46" height="13.4"/><rect class="cls-10" x="985.69" y="1710.27" width="473.24" height="13.4"/><rect class="cls-10" x="985.69" y="1812.99" width="376.59" height="13.4"/><rect class="cls-10" x="985.69" y="1847.89" width="471.58" height="13.4"/><rect class="cls-10" x="985.69" y="1743.06" width="473.24" height="13.4"/><rect class="cls-10" x="985.69" y="1775.85" width="256.04" height="13.4"/><rect class="cls-10" x="905" y="1007.93" width="120.6" height="13.4"/><path class="cls-3" d="M1566.24,864.4v-5.68l29-17.75v8.68l-19.35,11.91,19.35,11.91v8.68Z"/><path class="cls-3" d="M2130.79,1875.17v-8.67l19.35-11.91-19.35-11.92V1834l29,17.75v5.68Z"/><rect class="cls-3" x="1605.96" y="854.86" width="115.23" height="13.4"/><rect class="cls-3" x="1566.24" y="906.63" width="115.23" height="13.4"/><rect class="cls-3" x="1590.78" y="942.7" width="115.23" height="13.4"/><rect class="cls-3" x="1590.78" y="1041.97" width="115.23" height="13.4"/><rect class="cls-3" x="1590.78" y="1072.68" width="115.23" height="13.4"/><rect class="cls-3" x="1630.38" y="977.05" width="347.51" height="13.4"/><rect class="cls-3" x="1630.38" y="1105.3" width="464.25" height="13.4"/><rect class="cls-3" x="1630.38" y="1208.02" width="464.25" height="13.4"/><rect class="cls-3" x="1674.04" y="1308.57" width="444.77" height="13.4"/><rect class="cls-3" x="1630.38" y="1242.92" width="99.44" height="13.4"/><rect class="cls-3" x="1630.38" y="1276.12" width="99.44" height="13.4"/><rect class="cls-3" x="1630.38" y="1138.09" width="464.25" height="13.4"/><rect class="cls-3" x="1630.38" y="1170.88" width="251.18" height="13.4"/><rect class="cls-3" x="1590.78" y="1346.92" width="103.79" height="13.4"/><rect class="cls-3" x="1590.78" y="1377.63" width="103.79" height="13.4"/><rect class="cls-3" x="1626.45" y="1410.26" width="418.16" height="13.4"/><rect class="cls-3" x="1626.45" y="1512.97" width="418.16" height="13.4"/><rect class="cls-3" x="1665.77" y="1613.52" width="400.61" height="13.4"/><rect class="cls-3" x="1626.45" y="1547.87" width="89.56" height="13.4"/><rect class="cls-3" x="1626.45" y="1581.07" width="89.56" height="13.4"/><rect class="cls-3" x="1626.45" y="1443.04" width="418.16" height="13.4"/><rect class="cls-3" x="1626.45" y="1475.83" width="226.24" height="13.4"/><rect class="cls-3" x="1666.01" y="1646.94" width="103.79" height="13.4"/><rect class="cls-3" x="1666.01" y="1677.64" width="103.79" height="13.4"/><rect class="cls-3" x="1701.68" y="1710.27" width="418.16" height="13.4"/><rect class="cls-3" x="1701.68" y="1812.99" width="332.76" height="13.4"/><rect class="cls-3" x="1701.68" y="1847.89" width="416.7" height="13.4"/><rect class="cls-3" x="1701.68" y="1743.06" width="418.16" height="13.4"/><rect class="cls-3" x="1701.68" y="1775.85" width="226.24" height="13.4"/><rect class="cls-3" x="1630.38" y="1007.93" width="106.56" height="13.4"/><rect class="cls-3" x="528.85" y="854.86" width="220.41" height="13.4"/><rect class="cls-3" x="528.85" y="886.28" width="220.41" height="13.4"/><rect class="cls-3" x="528.85" y="917.71" width="220.41" height="13.4"/><rect class="cls-3" x="528.85" y="949.14" width="220.41" height="13.4"/><rect class="cls-3" x="528.85" y="980.56" width="220.41" height="13.4"/><rect class="cls-3" x="528.85" y="1011.99" width="220.41" height="13.4"/><rect class="cls-3" x="528.85" y="1043.41" width="220.41" height="13.4"/><rect class="cls-3" x="528.85" y="1074.84" width="220.41" height="13.4"/><rect class="cls-3" x="528.85" y="1106.26" width="220.41" height="13.4"/><rect class="cls-3" x="528.85" y="1137.69" width="220.41" height="13.4"/><rect class="cls-3" x="528.85" y="1169.12" width="220.41" height="13.4"/><rect class="cls-3" x="528.85" y="1200.54" width="220.41" height="13.4"/><rect class="cls-3" x="528.85" y="1231.97" width="220.41" height="13.4"/><rect class="cls-3" x="528.85" y="1263.39" width="220.41" height="13.4"/><rect class="cls-3" x="528.85" y="1294.82" width="220.41" height="13.4"/><rect class="cls-3" x="528.85" y="1326.24" width="220.41" height="13.4"/><rect class="cls-3" x="528.85" y="1357.67" width="220.41" height="13.4"/><rect class="cls-3" x="528.85" y="1389.1" width="220.41" height="13.4"/><rect class="cls-3" x="528.85" y="1420.52" width="220.41" height="13.4"/><rect class="cls-3" x="528.85" y="1451.95" width="220.41" height="13.4"/><rect class="cls-3" x="528.85" y="1483.37" width="220.41" height="13.4"/><rect class="cls-3" x="528.85" y="1514.8" width="220.41" height="13.4"/><rect class="cls-3" x="528.85" y="1546.22" width="220.41" height="13.4"/><rect class="cls-3" x="528.85" y="1577.65" width="220.41" height="13.4"/><rect class="cls-3" x="528.85" y="1609.08" width="220.41" height="13.4"/><rect class="cls-3" x="528.85" y="1640.5" width="220.41" height="13.4"/><rect class="cls-3" x="528.85" y="1671.93" width="220.41" height="13.4"/><rect class="cls-3" x="528.85" y="1703.35" width="220.41" height="13.4"/><rect class="cls-3" x="528.85" y="1734.78" width="220.41" height="13.4"/><rect class="cls-3" x="528.85" y="1766.2" width="220.41" height="13.4"/><rect class="cls-3" x="528.85" y="1797.63" width="220.41" height="13.4"/><path class="cls-11" d="M523,1512.62c0,35,51.8,97,49.41,166.11s-14.88,116.39,19.06,118.18,184.85,0,184.85,0h67s12.8-67.13-31-72-91.4,1.42-99.5-25.49c-8.93-29.47-3.13-83.06-1.79-116.1s13.85-100.46-29-126.36-93.14-18.17-124.58-3.57C532.35,1465,523,1482,523,1512.62Z"/><path class="cls-8" d="M764.69,2012.79h0a4.8,4.8,0,0,1-4.8-4.8h0v-5.36a4.8,4.8,0,0,1,4.8-4.8h0a4.8,4.8,0,0,1,4.8,4.8h0V2008a4.8,4.8,0,0,1-4.8,4.8Z"/><polygon class="cls-12" points="712.89 1976.41 764.69 1997.83 712.89 1988.91 712.89 1976.41"/><rect class="cls-12" x="909.46" y="1667.96" width="13.16" height="346.44"/><polygon class="cls-13" points="920.4 1980.01 963.01 1980.49 954.33 1916.47 904.54 1933.67 920.4 1980.01"/><polygon class="cls-2" points="918.95 2012.79 939.06 2012.69 940.29 1999.71 951.3 2012.64 998.75 2012.41 963.01 1980.49 920.4 1980.01 918.95 2012.79"/><line class="cls-14" x1="951.09" y1="1988.75" x2="970.06" y2="1988.6"/><line class="cls-14" x1="955.71" y1="1995.27" x2="974.68" y2="1995.12"/><path class="cls-15" d="M865.43,1681.84a43.33,43.33,0,0,0-26.16,55.42h0l56.69,204,69.82-10.85-42.48-210.31h0a43.27,43.27,0,0,0-57.89-38.27Z"/><path class="cls-16" d="M823.89,1656.24h0a26.88,26.88,0,0,1-36.87-8.82L729,1553a26.9,26.9,0,0,1,8.82-36.87h0a26.9,26.9,0,0,1,36.88,8.82l58,94.46A26.87,26.87,0,0,1,823.89,1656.24Z"/><path class="cls-17" d="M646.51,1689.57s-7.82,8.88-10.92,16.12,34,3.25,34,3.25l-4-34.78Z"/><path class="cls-15" d="M924,1724.48h0a45.34,45.34,0,0,1-45.21,45.21H705.12a45.34,45.34,0,0,1-45.21-45.21h0a45.33,45.33,0,0,1,45.21-45.2H878.79A45.33,45.33,0,0,1,924,1724.48Z"/><path class="cls-2" d="M745.08,1440.92s11.47-23.36-3.57-22.68S745.08,1440.92,745.08,1440.92Z"/><path class="cls-18" d="M893.38,1746.72h0a45.35,45.35,0,0,1-49.29,40.73L671.2,1771a45.34,45.34,0,0,1-40.73-49.28h0A45.35,45.35,0,0,1,679.79,1681l172.89,16.44A45.35,45.35,0,0,1,893.38,1746.72Z"/><path class="cls-16" d="M684.88,1501.18,638,1523.27s10.43,119.93,11.51,133.14-3,33.16-3,33.16H758.94s-1.35-64.71,6.2-82.77c5.11-12.24,8.63-19.68,5.66-33.7s-12.94-35-9.44-59.32l-28.85-11.59Z"/><path class="cls-13" d="M732.52,1447.65v54.55c0,.58-.06,1.16-.13,1.73-.56,4.45-3.44,15.89-18.26,15.73-13.55-.16-23-10.1-27-15.33a31.11,31.11,0,0,1-2.21-3.14l6.83-53.54Z"/><polygon class="cls-13" points="761.86 1980.01 804.47 1980.49 813.51 1951.6 766.96 1948.06 761.86 1980.01"/><polygon class="cls-19" points="732.51 1502.19 708.26 1471.22 732.51 1466.55 732.51 1502.19"/><path class="cls-13" d="M733.64,1480.73c-9.66,3.14-23-.69-32.52-10.64s-30.76-47.2-2.35-64.54,45.23,11.37,46,15.81c0,0,.28,15.67.45,26.71.07,2.81.11,5.3.14,7.18v.86C745.49,1464.76,743.29,1477.61,733.64,1480.73Z"/><path class="cls-16" d="M571.14,1658.43h0a26.88,26.88,0,0,1-6.39-37.36l64-90.47a26.89,26.89,0,0,1,37.37-6.39h0a26.87,26.87,0,0,1,6.4,37.36l-64,90.47A26.88,26.88,0,0,1,571.14,1658.43Z"/><polygon class="cls-2" points="760.4 2012.79 780.52 2012.69 781.74 1999.71 792.76 2012.64 840.21 2012.41 804.47 1980.49 761.86 1980.01 760.4 2012.79"/><path class="cls-2" d="M746.88,1416.38c.41,6.11-3,14.67-21.42,14s-21.59,8.26-19.74,15.69c0,0-3.88-4.16-2.86-9.33,0,0-6.58,7.55-3.88,15.27,0,0-4.7-7.41-7.58-2s1,9.78-2.82,22.12c0,0,1.85-12.23-4.59-18.75s-13.1-68.58,34.21-53.39C718.2,1400,745.16,1391.17,746.88,1416.38Z"/><path class="cls-18" d="M858.63,1700.13a43.35,43.35,0,0,0-50.21,35.16v0l-53.63,217.59,66.91,12.92,68.23-203.75h0a43.28,43.28,0,0,0-31.28-62Z"/><line class="cls-14" x1="792.55" y1="1988.75" x2="811.52" y2="1988.6"/><line class="cls-14" x1="797.16" y1="1995.27" x2="816.14" y2="1995.12"/><path class="cls-13" d="M696.55,1451c1.68,5.1,1.63,8.37-2.37,9.69a9.19,9.19,0,0,1-11.22-5.94c-1.68-5.1.21-10.3,4.21-11.61S694.87,1445.93,696.55,1451Z"/><path class="cls-20" d="M686.4,1448.33s6.42-.31,7,5.12a6.57,6.57,0,0,0-5.31-1.36"/><path class="cls-2" d="M720.27,1443.66c0,2.08,1.06,3.76,2.4,3.77s2.44-1.66,2.46-3.74-1.07-3.76-2.41-3.77S720.28,1441.59,720.27,1443.66Z"/><path class="cls-2" d="M738,1442.16c0,2.07,1.07,3.76,2.41,3.77s2.44-1.67,2.45-3.74-1.06-3.76-2.4-3.77S738,1440.09,738,1442.16Z"/><path class="cls-1" d="M726.79,1467.74a4.68,4.68,0,0,0,6-2.85l0,0-8.86-3.08A4.68,4.68,0,0,0,726.79,1467.74Z"/><path class="cls-21" d="M715.57,1439.47s4.19-5.14,9-3.25"/><path class="cls-21" d="M738.4,1435.38s3-.55,6.22,2.75"/><path class="cls-21" d="M731.73,1442.42s.17,10.27,6.2,11.57a12.86,12.86,0,0,1-4.34,2.44"/><path class="cls-22" d="M723.55,1455c-.51,2-3.88,2.82-7.54,1.88s-6.22-3.29-5.71-5.27,3.88-2.81,7.54-1.88S724.05,1453,723.55,1455Z"/><path class="cls-22" d="M745.33,1455.25c-2.2.09-4-.6-4.41-1.94-.57-1.75,1.28-3.93,4.27-5.24C745.26,1450.88,745.3,1453.33,745.33,1455.25Z"/><path class="cls-13" d="M784.58,1640.51c-6.43-14.82-1-31.59,12.09-37.27L916,1569.33a88.16,88.16,0,0,0,11.13-6.91c7.48-5.71,29.62-18.82,31.48-15.61s-11.48,15.26-9.6,16,13.75-5.86,18.58-9,14.09-11.72,17.28-10.56,2.73,6.13,2.73,6.13,3.14-3.68,5.06-1.28-1.57,9.33-1.57,9.33,1.54-2.23,3,.94-7.27,11.69-7.27,11.69a2.18,2.18,0,0,1,2.86,1.15,2.35,2.35,0,0,1,.14.45c.78,2.56-11.93,12.48-23,16.47-9.88,3.57-34.29,9.43-39.42,10.64l-107.29,58.36C807,1662.81,791,1655.33,784.58,1640.51Z"/><line class="cls-23" x1="647.28" y1="1615.82" x2="663.2" y2="1582.51"/><path class="cls-24" d="M695.34,1462.42a4,4,0,1,1-3.91-4,4,4,0,0,1,3.91,4Z"/><path class="cls-13" d="M559,1633.1c-.65,16.14,10.48,29.82,24.73,30.4l123.48-11.44c4.2.52,27.16-1.73,33.16-5.8a14,14,0,0,1,14.2-.31c5.82,3,10.86,5.12,12.76,3.28,2.43-2.35-12-8.6-11.58-9.74s7.91,2.86,11.55,4.72c4.06,2.08,8.66,2.37,9.43.93,1.92-3.59-6.43-8.62-6.43-8.62s11.51,6.33,12.84,3.1c.77-1.87-4.54-5.92-8.9-8.24-3-1.58-14-5.66-13.49-7.13.34-.94,10.6,3.87,12.74,4.54,4.1,1.29,10.39,1.22,10.26-.49-.2-2.67-23.25-14.11-37-11.2-13.3,2.81-34.06,4.17-39.28,4.89l-121.34-17.2C571.84,1604.21,559.65,1617,559,1633.1Z"/><path class="cls-23" d="M764.79,1607.84s8.45-17.78,7.08-27S763,1546.66,762,1539"/><ellipse class="cls-2" cx="680.76" cy="1385.57" rx="16.97" ry="23.28" transform="translate(-344.31 231.24) rotate(-15.44)"/><rect class="cls-12" x="670.02" y="1800.18" width="14.29" height="188.73"/><rect class="cls-12" x="641.45" y="1976.41" width="71.44" height="12.5"/><rect class="cls-12" x="656.48" y="1797.46" width="41.38" height="12.2"/><path class="cls-12" d="M589.64,2012.79h0a4.8,4.8,0,0,0,4.8-4.8h0v-5.36a4.8,4.8,0,0,0-4.8-4.8h0a4.8,4.8,0,0,0-4.8,4.8h0V2008a4.8,4.8,0,0,0,4.8,4.8Z"/><polygon class="cls-12" points="641.45 1976.41 589.64 1997.83 641.45 1988.91 641.45 1976.41"/><rect class="cls-8" x="532.74" y="1667.96" width="13.16" height="346.44"/><path class="cls-11" d="M569.85,1722.22s166.34-21,200.19,9.33c29.8,26.71,6.25,65.36,6.25,65.36l-164.31.55Z"/><rect class="cls-8" x="689.09" y="1667.96" width="13.16" height="346.44"/><rect class="cls-12" x="1065.81" y="1667.96" width="13.16" height="346.44"/><path class="cls-25" d="M842.94,1622h183.34a6.94,6.94,0,0,0,6.91-6.47l7.6-113.19a6.93,6.93,0,0,0-6.46-7.37l-.46,0H850.54a6.93,6.93,0,0,0-6.92,6.47L836,1614.57a6.93,6.93,0,0,0,6.44,7.4A3.85,3.85,0,0,0,842.94,1622Z"/><polygon class="cls-25" points="837.37 1619.16 842.49 1624.1 851.38 1610.42 838.6 1609.33 837.37 1619.16"/><polygon class="cls-25" points="1038.18 1496.46 1042.71 1500.67 1033.19 1507.25 1026.93 1500.56 1034.03 1496.46 1038.18 1496.46"/><path class="cls-12" d="M847.06,1625.84h183.33a6.94,6.94,0,0,0,6.92-6.47l7.59-113.17a6.92,6.92,0,0,0-6.44-7.37l-.47,0H854.65a6.92,6.92,0,0,0-6.92,6.46l-7.59,113.17a6.93,6.93,0,0,0,6.44,7.39Z"/><polygon class="cls-12" points="921.53 1598.54 927.02 1651.82 971.12 1651.82 962.59 1569.02 924.23 1569.02 921.53 1598.54"/><polygon class="cls-25" points="932.74 1651.83 976.87 1651.83 968.34 1569.01 924.22 1569.01 932.74 1651.83"/><path class="cls-12" d="M991.41,1662.6H893.63v-5.89a4.89,4.89,0,0,1,4.89-4.89h88a4.89,4.89,0,0,1,4.89,4.89h0v5.89Z"/><path class="cls-25" d="M1008.71,1662.6H910.93v-5.89a4.89,4.89,0,0,1,4.89-4.89h88a4.89,4.89,0,0,1,4.89,4.89h0v5.89Z"/><rect class="cls-12" x="633.2" y="1662.61" width="463.38" height="14.24"/><rect class="cls-8" x="514.66" y="1662.61" width="192.12" height="14.24"/><path class="cls-1" d="M740.32,1654.8H869.6a3.42,3.42,0,0,1,3.42,3.42h0v4.39H736.9v-4.39a3.42,3.42,0,0,1,3.42-3.42Z"/><rect class="cls-26" x="376.43" y="2012.92" width="1892.22" height="43.06" rx="20.34"/><rect class="cls-1" x="1637.54" y="1623.64" width="534.53" height="363.44" rx="8.83"/><rect class="cls-25" x="1658.77" y="1644.86" width="492.09" height="157.79"/><rect class="cls-8" x="1671.79" y="1676.94" width="85.1" height="89.38" rx="10.15"/><rect class="cls-25" x="1683.45" y="1690.74" width="19.24" height="11.07"/><rect class="cls-25" x="1683.45" y="1707.64" width="19.24" height="11.07"/><rect class="cls-25" x="1683.45" y="1724.55" width="19.24" height="11.08"/><rect class="cls-25" x="1683.45" y="1741.45" width="19.24" height="11.07"/><rect class="cls-27" x="1710.26" y="1696.28" width="37.5" height="16.9"/><rect class="cls-27" x="1710.26" y="1730.08" width="37.5" height="16.9"/><path class="cls-11" d="M1684.23,1781.41a6.22,6.22,0,1,1-6.22-6.22h0A6.24,6.24,0,0,1,1684.23,1781.41Z"/><path class="cls-16" d="M1708.45,1781.41a6.22,6.22,0,1,1-6.22-6.22h0A6.24,6.24,0,0,1,1708.45,1781.41Z"/><path class="cls-6" d="M1732.67,1781.41a6.22,6.22,0,1,1-6.22-6.22h0A6.23,6.23,0,0,1,1732.67,1781.41Z"/><path class="cls-8" d="M1756.89,1781.41a6.22,6.22,0,1,1-6.22-6.22h0A6.22,6.22,0,0,1,1756.89,1781.41Z"/><circle class="cls-11" cx="1678.01" cy="1665.42" r="6.22"/><circle class="cls-16" cx="1702.23" cy="1665.42" r="6.22"/><circle class="cls-6" cx="1726.45" cy="1665.42" r="6.22"/><circle class="cls-8" cx="1750.68" cy="1665.42" r="6.22"/><rect class="cls-8" x="1798.77" y="1676.94" width="85.1" height="89.38" rx="10.15"/><rect class="cls-25" x="1810.43" y="1690.74" width="19.24" height="11.07"/><rect class="cls-25" x="1810.43" y="1707.64" width="19.24" height="11.07"/><rect class="cls-25" x="1810.43" y="1724.55" width="19.24" height="11.08"/><rect class="cls-25" x="1810.43" y="1741.45" width="19.24" height="11.07"/><rect class="cls-27" x="1837.24" y="1696.28" width="37.5" height="16.9"/><rect class="cls-27" x="1837.24" y="1730.08" width="37.5" height="16.9"/><path class="cls-11" d="M1811.21,1781.41a6.22,6.22,0,1,1-6.22-6.22h0A6.24,6.24,0,0,1,1811.21,1781.41Z"/><path class="cls-16" d="M1835.43,1781.41a6.22,6.22,0,1,1-6.22-6.22h0A6.24,6.24,0,0,1,1835.43,1781.41Z"/><path class="cls-6" d="M1859.65,1781.41a6.22,6.22,0,1,1-6.22-6.22h0A6.23,6.23,0,0,1,1859.65,1781.41Z"/><path class="cls-8" d="M1883.87,1781.41a6.22,6.22,0,1,1-6.22-6.22h0A6.23,6.23,0,0,1,1883.87,1781.41Z"/><circle class="cls-11" cx="1804.99" cy="1665.42" r="6.22"/><circle class="cls-16" cx="1829.21" cy="1665.42" r="6.22"/><circle class="cls-6" cx="1853.43" cy="1665.42" r="6.22"/><circle class="cls-8" cx="1877.65" cy="1665.42" r="6.22"/><rect class="cls-8" x="1925.75" y="1676.94" width="85.1" height="89.38" rx="10.15"/><rect class="cls-25" x="1937.41" y="1690.74" width="19.24" height="11.07"/><rect class="cls-25" x="1937.41" y="1707.64" width="19.24" height="11.07"/><rect class="cls-25" x="1937.41" y="1724.55" width="19.24" height="11.08"/><rect class="cls-25" x="1937.41" y="1741.45" width="19.24" height="11.07"/><rect class="cls-27" x="1964.22" y="1696.28" width="37.5" height="16.9"/><rect class="cls-27" x="1964.22" y="1730.08" width="37.5" height="16.9"/><path class="cls-11" d="M1938.18,1781.41a6.22,6.22,0,1,1-6.22-6.22h0A6.22,6.22,0,0,1,1938.18,1781.41Z"/><path class="cls-16" d="M1962.41,1781.41a6.22,6.22,0,1,1-6.22-6.22h0A6.24,6.24,0,0,1,1962.41,1781.41Z"/><path class="cls-6" d="M1986.63,1781.41a6.22,6.22,0,1,1-6.22-6.22h0A6.23,6.23,0,0,1,1986.63,1781.41Z"/><path class="cls-8" d="M2010.85,1781.41a6.22,6.22,0,1,1-6.22-6.22h0A6.23,6.23,0,0,1,2010.85,1781.41Z"/><circle class="cls-11" cx="1931.97" cy="1665.42" r="6.22"/><circle class="cls-16" cx="1956.19" cy="1665.42" r="6.22"/><circle class="cls-6" cx="1980.41" cy="1665.42" r="6.22"/><circle class="cls-8" cx="2004.63" cy="1665.42" r="6.22"/><rect class="cls-8" x="2052.73" y="1676.94" width="85.1" height="89.38" rx="10.15"/><rect class="cls-25" x="2064.39" y="1690.74" width="19.24" height="11.07"/><rect class="cls-25" x="2064.39" y="1707.64" width="19.24" height="11.07"/><rect class="cls-25" x="2064.39" y="1724.55" width="19.24" height="11.08"/><rect class="cls-25" x="2064.39" y="1741.45" width="19.24" height="11.07"/><rect class="cls-27" x="2091.2" y="1696.28" width="37.5" height="16.9"/><rect class="cls-27" x="2091.2" y="1730.08" width="37.5" height="16.9"/><path class="cls-11" d="M2065.16,1781.41a6.22,6.22,0,1,1-6.22-6.22h0A6.22,6.22,0,0,1,2065.16,1781.41Z"/><path class="cls-16" d="M2089.39,1781.41a6.22,6.22,0,1,1-6.22-6.22h0A6.24,6.24,0,0,1,2089.39,1781.41Z"/><path class="cls-6" d="M2113.61,1781.41a6.22,6.22,0,1,1-6.22-6.22h0A6.24,6.24,0,0,1,2113.61,1781.41Z"/><path class="cls-8" d="M2137.79,1781.41a6.22,6.22,0,1,1-6.22-6.22h0A6.23,6.23,0,0,1,2137.79,1781.41Z"/><circle class="cls-11" cx="2058.95" cy="1665.42" r="6.22"/><circle class="cls-16" cx="2083.17" cy="1665.42" r="6.22"/><circle class="cls-6" cx="2107.39" cy="1665.42" r="6.22"/><circle class="cls-8" cx="2131.61" cy="1665.42" r="6.22"/><rect class="cls-12" x="1658.77" y="1801.97" width="492.09" height="163.89"/><rect class="cls-11" x="1671.79" y="1819.6" width="139.41" height="13.99"/><rect class="cls-16" x="1671.79" y="1842.53" width="139.41" height="13.99"/><rect class="cls-28" x="1671.79" y="1865.46" width="139.41" height="13.99"/><rect class="cls-6" x="1671.79" y="1888.38" width="139.41" height="13.99"/><rect class="cls-4" x="1671.79" y="1911.31" width="139.41" height="13.99"/><rect class="cls-27" x="1671.79" y="1934.24" width="139.41" height="13.99"/><path class="cls-11" d="M1849.26,1825.82a6.22,6.22,0,1,1-6.22-6.22h0A6.24,6.24,0,0,1,1849.26,1825.82Z"/><path class="cls-11" d="M1873.48,1825.82a6.22,6.22,0,1,1-6.22-6.22h0A6.24,6.24,0,0,1,1873.48,1825.82Z"/><path class="cls-11" d="M1897.7,1825.82a6.22,6.22,0,1,1-6.22-6.22h0A6.23,6.23,0,0,1,1897.7,1825.82Z"/><path class="cls-16" d="M1921.92,1825.82a6.22,6.22,0,1,1-6.22-6.22h0A6.23,6.23,0,0,1,1921.92,1825.82Z"/><path class="cls-16" d="M1945.79,1825.82a6.22,6.22,0,1,1-6.22-6.22h0A6.22,6.22,0,0,1,1945.79,1825.82Z"/><path class="cls-16" d="M1970,1825.82a6.22,6.22,0,1,1-6.22-6.22h0A6.24,6.24,0,0,1,1970,1825.82Z"/><path class="cls-6" d="M1994.24,1825.82a6.22,6.22,0,1,1-6.22-6.22h0A6.23,6.23,0,0,1,1994.24,1825.82Z"/><path class="cls-6" d="M2018.46,1825.82a6.22,6.22,0,1,1-6.22-6.22h0A6.23,6.23,0,0,1,2018.46,1825.82Z"/><path class="cls-11" d="M1849.26,1845.79a6.22,6.22,0,1,1-6.22-6.22h0A6.23,6.23,0,0,1,1849.26,1845.79Z"/><path class="cls-11" d="M1873.48,1845.79a6.22,6.22,0,1,1-6.22-6.22h0A6.23,6.23,0,0,1,1873.48,1845.79Z"/><path class="cls-11" d="M1897.7,1845.79a6.22,6.22,0,1,1-6.22-6.22h0a6.22,6.22,0,0,1,6.22,6.2Z"/><path class="cls-16" d="M1921.92,1845.79a6.22,6.22,0,1,1-6.22-6.22h0a6.22,6.22,0,0,1,6.22,6.2Z"/><path class="cls-16" d="M1945.79,1845.79a6.22,6.22,0,1,1-6.22-6.22h0a6.21,6.21,0,0,1,6.21,6.21Z"/><path class="cls-16" d="M1970,1845.79a6.22,6.22,0,1,1-6.22-6.22h0A6.23,6.23,0,0,1,1970,1845.79Z"/><path class="cls-6" d="M1994.24,1845.79a6.22,6.22,0,1,1-6.22-6.22h0a6.22,6.22,0,0,1,6.22,6.2Z"/><path class="cls-6" d="M2018.46,1845.79a6.22,6.22,0,1,1-6.22-6.22h0a6.22,6.22,0,0,1,6.22,6.2Z"/><circle class="cls-11" cx="1843.04" cy="1873.93" r="6.22"/><circle class="cls-11" cx="1867.26" cy="1873.93" r="6.22"/><circle class="cls-16" cx="1891.48" cy="1873.93" r="6.22"/><circle class="cls-16" cx="1915.7" cy="1873.93" r="6.22"/><circle class="cls-6" cx="1939.58" cy="1873.93" r="6.22"/><circle class="cls-6" cx="1963.8" cy="1873.93" r="6.22"/><circle class="cls-6" cx="1988.02" cy="1873.93" r="6.22"/><circle class="cls-6" cx="2012.24" cy="1873.93" r="6.22"/><circle class="cls-11" cx="1843.04" cy="1893.9" r="6.22"/><circle class="cls-16" cx="1867.26" cy="1893.9" r="6.22"/><circle class="cls-16" cx="1891.48" cy="1893.9" r="6.22"/><circle class="cls-16" cx="1915.7" cy="1893.9" r="6.22"/><circle class="cls-16" cx="1939.58" cy="1893.9" r="6.22"/><circle class="cls-16" cx="1963.8" cy="1893.9" r="6.22"/><circle class="cls-6" cx="1988.02" cy="1893.9" r="6.22"/><circle class="cls-6" cx="2012.24" cy="1893.9" r="6.22"/><circle class="cls-6" cx="1843.04" cy="1922.05" r="6.22"/><circle class="cls-6" cx="1867.26" cy="1922.05" r="6.22"/><circle class="cls-16" cx="1891.48" cy="1922.05" r="6.22"/><circle class="cls-16" cx="1915.7" cy="1922.05" r="6.22"/><circle class="cls-16" cx="1939.58" cy="1922.05" r="6.22"/><circle class="cls-8" cx="1963.8" cy="1922.05" r="6.22"/><circle class="cls-8" cx="1988.02" cy="1922.05" r="6.22"/><circle class="cls-8" cx="2012.24" cy="1922.05" r="6.22"/><circle class="cls-6" cx="1843.04" cy="1942.01" r="6.22"/><circle class="cls-6" cx="1867.26" cy="1942.01" r="6.22"/><circle class="cls-16" cx="1891.48" cy="1942.01" r="6.22"/><circle class="cls-16" cx="1915.7" cy="1942.01" r="6.22"/><circle class="cls-8" cx="1939.58" cy="1942.01" r="6.22"/><circle class="cls-8" cx="1963.8" cy="1942.01" r="6.22"/><circle class="cls-8" cx="1988.02" cy="1942.01" r="6.22"/><circle class="cls-8" cx="2012.24" cy="1942.01" r="6.22"/><rect class="cls-8" x="2052.73" y="1837.14" width="85.1" height="89.38" rx="10.15"/><rect class="cls-29" x="2064.39" y="1850.94" width="19.24" height="11.07"/><rect class="cls-29" x="2064.39" y="1867.84" width="19.24" height="11.07"/><rect class="cls-29" x="2064.39" y="1884.75" width="19.24" height="11.07"/><rect class="cls-29" x="2064.39" y="1901.65" width="19.24" height="11.07"/><rect class="cls-27" x="2091.2" y="1856.48" width="37.5" height="16.9"/><rect class="cls-27" x="2091.2" y="1890.28" width="37.5" height="16.9"/><path class="cls-11" d="M2065.16,1941.61a6.22,6.22,0,1,1-6.22-6.22h0a6.21,6.21,0,0,1,6.21,6.21Z"/><path class="cls-16" d="M2089.39,1941.61a6.22,6.22,0,1,1-6.22-6.22h0A6.23,6.23,0,0,1,2089.39,1941.61Z"/><path class="cls-6" d="M2113.61,1941.61a6.22,6.22,0,1,1-6.22-6.22h0A6.23,6.23,0,0,1,2113.61,1941.61Z"/><path class="cls-8" d="M2137.79,1941.61a6.22,6.22,0,1,1-6.22-6.22h0a6.22,6.22,0,0,1,6.22,6.2Z"/><circle class="cls-11" cx="2058.95" cy="1825.62" r="6.22"/><circle class="cls-16" cx="2083.17" cy="1825.62" r="6.22"/><circle class="cls-6" cx="2107.39" cy="1825.62" r="6.22"/><circle class="cls-8" cx="2131.61" cy="1825.62" r="6.22"/><rect class="cls-1" x="1664.6" y="1987.08" width="49.74" height="25.84"/><rect class="cls-1" x="2095.28" y="1987.08" width="49.74" height="25.84"/><polygon class="cls-30" points="1840.41 1655.48 1736.96 1955.24 1672.21 1955.24 1775.66 1655.48 1840.41 1655.48"/><polygon class="cls-30" points="1892.92 1655.48 1789.51 1955.24 1757.13 1955.24 1860.58 1655.48 1892.92 1655.48"/><polygon class="cls-30" points="2140.25 1655.48 2140.25 1711.03 2055.96 1955.24 1967.1 1955.24 2070.56 1655.48 2140.25 1655.48"/><polygon class="cls-30" points="2046.04 1655.48 1942.59 1955.24 1898.16 1955.24 2001.61 1655.48 2046.04 1655.48"/><polygon class="cls-31" points="1873.23 1018.34 1926.91 1017.43 1924.1 961.06 1922.76 934.11 1922.68 932.76 1880.68 915.11 1879.31 934.16 1878.3 948.04 1873.23 1018.34"/><path class="cls-32" d="M1978.22,1192.82l22.57,186.87a42.93,42.93,0,0,1-50.74,48.62c-23.33-4.53-32.26-22.55-36.45-49.34-8-51.43-36.14-205.74-36.14-205.74Z"/><polygon class="cls-32" points="1831.84 1183.41 1914.77 1188.98 1914.35 1280.85 1904.51 1295.4 1895.39 1383.97 1811.45 1377.26 1831.84 1183.41"/><path class="cls-11" d="M2046.43,1141.69l-.28.19a27.1,27.1,0,0,1-37.46-7.55l-67.07-100.79a27.09,27.09,0,0,1,7.53-37.46l.28-.18a27.1,27.1,0,0,1,37.46,7.52L2054,1104.21A27.09,27.09,0,0,1,2046.43,1141.69Z"/><polygon class="cls-33" points="1682.69 1015.12 1711.16 1042.99 1739.94 1025.47 1721.42 996.65 1683.91 997.86 1682.69 1015.12"/><path class="cls-11" d="M1793.27,1147.2c-13.41,7.8-30.08,4.48-36.93-7.37l-33.87-61.91-12-21.94L1698,1033.14l20.8-14.37,14.76-10.2,1.43-1,15.17,22.52,13.94,20.62,41,60.73C1812,1123.33,1806.67,1139.41,1793.27,1147.2Z"/><path class="cls-31" d="M1899.38,994.77c-19.7.43-28.09-9.36-30.62-13.21l7.37-3.32,48.7-2.45,5.86,1.87C1928.22,982.26,1919.5,994.33,1899.38,994.77Z"/><path class="cls-11" d="M1829.48,1117.33l-1.17,80.55h151.63l-1.8-203.07-52-18.8c-.59,1.07-1.22,2.18-2,3.35l-.2.24c-2.82,3.6-8.21,7-23.32,7.34-12.58.29-18.75-1.46-22.25-3.74v-.05a13.2,13.2,0,0,1-3.88-4.13l-49.12,10.83,3.3,102.51Z"/><path class="cls-32" d="M2016.51,1569.33l-78-.06L1915,1387.76a43,43,0,1,1,85.78-2.91l13.58,159.32,2.15,25.17Z"/><path class="cls-11" d="M1766.09,1148.39h0a27.52,27.52,0,0,0,36.9-12l55.07-108a27.51,27.51,0,0,0-12-36.9h0a27.52,27.52,0,0,0-36.9,12l-55.07,108A27.53,27.53,0,0,0,1766.09,1148.39Z"/><path class="cls-34" d="M1878.35,983.18l22.25,35.15,23.32-38.77c-2.82,3.6-8.21,7-23.32,7.34C1888,987.21,1881.85,985.46,1878.35,983.18Z"/><path class="cls-25" d="M2136.23,1382.61c-11.55-6.64-38.64-18.67-53.12-25.77-21-10.29-33.6-49.9,1.57-81,28.55-25.25,72.92,9.61,89.21,21.47a3.58,3.58,0,0,0,5-.8,3.65,3.65,0,0,0,.64-2.62c-1.24-9-6.54-26.11-22.68-43.09-29.58-31.1-56.61-36.88-77.67-34.31a62.91,62.91,0,0,1-13.58.07c-17.59-1.66-34.14-9.14-47.71-20.46l-321-268c-43-39.83-19.63-78.83-55.46-114.64-26.58-26.58-76.68-24.68-97.74-22.69a3.3,3.3,0,0,0-1.36,6.14c11.55,6.64,31.53,13.6,46,20.7,21,10.29,30.59,55.28-4.57,86.38-28.55,25.25-66.85-5.36-83.14-17.22a3.57,3.57,0,0,0-5.64,3.41c1.24,9,6.23,24.22,22.38,41.2,29.57,31.09,61,34.23,82,31.66,8.93-1.1,18.55,1,26.88,4a99.6,99.6,0,0,1,30.56,17.7l331.13,276.42a57.87,57.87,0,0,1,16.19,21.6c12.33,28.89,2.09,56.34,28.47,82.72,26.58,26.58,81.24,25.31,102.3,23.32a3.29,3.29,0,0,0,1.34-6.14Z"/><path class="cls-12" d="M2010.61,1247.84,1653.1,949.41a12.16,12.16,0,0,1-1.54-17.06h0a12.15,12.15,0,0,1,17.06-1.53l357.51,298.43a12.16,12.16,0,0,1,1.53,17.06h0A12.14,12.14,0,0,1,2010.61,1247.84Z"/><path class="cls-31" d="M1857.62,1154.77c.33,2.36,14.46,5.4,25,4.28,8.9-.93,29.17-5.3,35.13-6.63l-2.23-28.36a73.61,73.61,0,0,1-10.88-1.2c-8.26-1.66-31.23-3.6-31.48-.26s15.21,7.8,14,9.11-13.37.64-18.5,0-16-3.93-18-1.76.19,6,.19,6-4-1.72-4.6,1,4.91,6.91,4.91,6.91-2.09-1.2-2,1.92,10.44,6.6,10.44,6.6a1.93,1.93,0,0,0-2,1.82A1.85,1.85,0,0,0,1857.62,1154.77Z"/><path class="cls-32" d="M1895.69,1380.7l-20,188.66h-76.63l12.29-189.69c-.11-2,.46-4.23.63-6.3,2.1-23.69,20.92-41.39,44.62-39.32A43.1,43.1,0,0,1,1895.69,1380.7Z"/><path class="cls-11" d="M1910.79,1114.93l27.12-5.46,24.56-4.91,65.52-13.18c13.57-1.8,26.36,9.26,28.45,24.64s-7.37,29.45-20.94,31.29l-68.4,5-24.85,1.86-25.69,1.9Z"/><polygon class="cls-35" points="1876.82 968.58 1906.99 946.58 1878.3 948.04 1876.82 968.58"/><path class="cls-31" d="M1881.3,883.85l-8.17,29.73-2.8,10.2c-2.22,8.06-3.24,20.64,5.07,25.89s21.77,4.9,33-2.14,42.25-44.35,19.78-67.45S1883.07,879.86,1881.3,883.85Z"/><path class="cls-2" d="M1923.31,945.22s-14.57-22.41-6.63-35.17,0-16-5.57-15-15.27.7-19.2-.83c0,0,11.81.27,16.83-2.65,0,0-23.29,1.91-28.37-4.34l-1.25,4.54s-8.39-19.76,4.23-24.36,17.86.61,17.86.61-4-8.08,1.76-9.62S1914,868.58,1914,868.58s8.08-10,16.45-.14,4.87,19,4.87,19,9.76,8.08,5,20.76S1924.37,932.82,1923.31,945.22Z"/><path class="cls-31" d="M1916.47,929c-4.5,4.06-6.3,7.3-3.11,10.83a10.41,10.41,0,0,0,14.34.46c4.5-4.06,5.56-10.22,2.37-13.75S1921,924.91,1916.47,929Z"/><path class="cls-36" d="M1899.17,913.1c-.51,1.87-1.91,3.11-3.12,2.78s-1.77-2.12-1.26-4,1.91-3.12,3.12-2.79S1899.69,911.23,1899.17,913.1Z"/><path class="cls-36" d="M1876.56,906.89c-.51,1.86,0,3.65,1.26,4s2.61-.91,3.12-2.78,0-3.66-1.26-4S1877.08,905,1876.56,906.89Z"/><path class="cls-33" d="M1892.3,924.48c.1,1.88,3.21,3.23,6.94,3s6.67-1.89,6.56-3.77-3.21-3.23-6.93-3S1892.2,922.61,1892.3,924.48Z"/><path class="cls-33" d="M1873.13,913.58l-1.82,6.64c2.7,1.09,5.2,1,6-.4C1878.19,918.21,1876.33,915.42,1873.13,913.58Z"/><path class="cls-37" d="M1924.3,935.55a15.68,15.68,0,0,0-5.56-1.53c4.12-4.34,7.93-2.65,7.93-2.65"/><path class="cls-38" d="M1891.93,933.94s-5,5.44-12.81,1.69"/><path class="cls-38" d="M1889.52,911.84l-7.41,10.8a2.89,2.89,0,0,0,.22,3.55l1.37,1.54,1.4,1.57"/><path class="cls-38" d="M1903,910.05s-2.92-5-7.94-5.06"/><path class="cls-38" d="M1876.13,900.52a7.22,7.22,0,0,1,7.86,1.09"/><polygon class="cls-1" points="1876.25 976.52 1900.6 986.94 1887.8 1002.48 1873.23 979.51 1876.25 976.52"/><polygon class="cls-1" points="1924.76 974.21 1900.6 986.94 1912.12 1001.82 1926.91 976.3 1924.76 974.21"/><polygon class="cls-31" points="1864.6 1598.84 1866.65 1569.36 1809.24 1569.36 1807 1598.84 1864.6 1598.84"/><polygon class="cls-35" points="1808.23 1582.71 1866.65 1569.36 1809.24 1569.36 1808.23 1582.71"/><polygon class="cls-31" points="1949.82 1598.84 1947.62 1569.31 2006.42 1569.36 2007.42 1598.84 1949.82 1598.84"/><path class="cls-31" d="M1684.32,992.76l8.34.21a5.28,5.28,0,0,1,4.87,3.91l5.24,17.54c1.1,3.67-1.42,7.52-5,7.64l-9.06.31a5.27,5.27,0,0,1-5.23-4.17l-4.53-18.06C1678,996.4,1680.71,992.67,1684.32,992.76Z"/><polygon class="cls-35" points="1948.84 1585.78 2006.42 1569.36 1947.62 1569.31 1948.84 1585.78"/><path class="cls-2" d="M1933.54,886.56a12.66,12.66,0,0,1,13.66,2.09s-11.71-3.34-13.66,1.12S1933.54,886.56,1933.54,886.56Z"/><polyline class="cls-39" points="1929.76 982.25 1900.6 1029.17 1871.82 985.28"/><line class="cls-40" x1="1985.63" y1="1099.69" x2="1996.74" y2="1097.66"/><line class="cls-40" x1="1978.98" y1="1089.7" x2="1972.19" y2="1079.49"/><path class="cls-2" d="M1778.71,1623.64h84.77l.15-3.45,1-22.85h-57.69c-7.14,0-13.75,4.2-18.8,8.57a28.72,28.72,0,0,0-8.74,14.28A20.27,20.27,0,0,0,1778.71,1623.64Z"/><path class="cls-41" d="M1778.71,1623.64h84.77l.15-3.45h-84.19A19.43,19.43,0,0,0,1778.71,1623.64Z"/><path class="cls-42" d="M1805.25,1602s7.32-12.86,12.26-7.77-12.26,7.77-12.26,7.77"/><path class="cls-42" d="M1807.79,1604.6l-2.58-2.56s-7.33-12.86-12.27-7.77,12.27,7.77,12.27,7.77"/><line class="cls-42" x1="1803.28" y1="1604.6" x2="1805.25" y2="1602.04"/><path class="cls-2" d="M2035.27,1623.64h-84.78l-.14-3.45-1-22.85H2007c7.15,0,13.75,4.2,18.81,8.57a29.09,29.09,0,0,1,8.74,14.28A22.42,22.42,0,0,1,2035.27,1623.64Z"/><path class="cls-41" d="M2035.27,1623.64h-84.78l-.14-3.45h84.19A22.52,22.52,0,0,1,2035.27,1623.64Z"/><path class="cls-42" d="M2008.73,1602.82s-7.33-12.86-12.26-7.77,12.26,7.77,12.26,7.77"/><path class="cls-42" d="M2006.15,1605.38l2.58-2.56s7.33-12.86,12.26-7.77-12.26,7.77-12.26,7.77"/><line class="cls-42" x1="2010.7" y1="1605.38" x2="2008.73" y2="1602.82"/><polyline class="cls-43" points="1902.41 1315.84 1899.65 1293.25 1885.78 1283.69 1874.52 1237.8"/><line class="cls-43" x1="1807" y1="1546.24" x2="1861.53" y2="1546.24"/><line class="cls-43" x1="1952.89" y1="1546.24" x2="2007.42" y2="1546.24"/><path class="cls-3" d="M2333.18,1224.09a51.09,51.09,0,0,0-44.88-21.76l-1.69.12a51.1,51.1,0,0,0-32.4,86.13h0a51.94,51.94,0,0,0,7.76,6.67A29.11,29.11,0,0,1,2274,1315.7h-2.36a2.5,2.5,0,0,0-1.75.75l-.23.27a2.5,2.5,0,0,0-.46,1.49,1.78,1.78,0,0,1,2.06,2.9,1.75,1.75,0,0,1-1.29.31l-.13.14a2.42,2.42,0,0,1,.2,4.84,2.2,2.2,0,0,0-.2.23,2.64,2.64,0,0,0-.5,1.53,2.48,2.48,0,0,0,2.52,2.44,2.44,2.44,0,0,0-1.74.77.18.18,0,0,0-.08.09,2.36,2.36,0,0,0-.62,1.67,2.47,2.47,0,0,0,2.51,2.44h2.56a12.06,12.06,0,0,0,.18,1.81,16.39,16.39,0,0,0,2.09,5.74h0l.61,1,.33.46.46.6.35.42c.2.22.39.44.6.65l.28.3c.29.29.6.57.91.84l.33.27c.24.19.47.37.72.55l.37.26c.29.2.58.39.88.57l.23.14c.37.21.75.41,1.14.59l.36.17.89.37.4.15q.54.19,1.14.36h.13c.43.12.87.21,1.31.29l.4.06,1,.13h4.6a16.74,16.74,0,0,0,16.33-14.47c0-.31.07-.63.09-.95s0-.57,0-.85H2313a2.52,2.52,0,0,0,1.75-.75,2.5,2.5,0,0,1-.08-5,2.49,2.49,0,0,0,.71-1.77,2.46,2.46,0,0,0-.55-1.51,1.13,1.13,0,1,1-.23-1.7,2.47,2.47,0,0,0,.08-3.37,2.56,2.56,0,0,0-1.9-.84,2.47,2.47,0,0,0,1.93-4,2.51,2.51,0,0,0-2-1h-2.35a29.14,29.14,0,0,1,11.46-20.76,51.11,51.11,0,0,0,11.36-70.28Z"/><path class="cls-26" d="M386.7,872.71a48.66,48.66,0,0,1-43.91,47.62,209.35,209.35,0,0,0,25.52,65.34,48.66,48.66,0,0,1,67.18,69.59,213,213,0,0,0,40.74,20.65c6.41,2.39,12.94,4.5,19.51,6.26,1.29.41,2.65.72,3.92,1a48.68,48.68,0,0,1,96.7,1.66,208,208,0,0,0,65.15-25.5,48.68,48.68,0,0,1,69.69-67.1A210.29,210.29,0,0,0,759.06,928a48.67,48.67,0,0,1,1.85-96.65,209.13,209.13,0,0,0-25.51-65.26,48.48,48.48,0,0,1-59,.14,35.7,35.7,0,0,1-5.68-5,48.56,48.56,0,0,1-2.46-64.79,212.06,212.06,0,0,0-38.33-19.81c-6.41-2.39-12.88-4.6-19.46-6.45-2.19-.61-4.39-1.23-6.57-1.76a48.46,48.46,0,0,1-49.08,42.18,50,50,0,0,1-13-2,48.68,48.68,0,0,1-34.49-41.91,208.52,208.52,0,0,0-65.17,25.5,48.69,48.69,0,0,1-69.67,67.06,211.72,211.72,0,0,0-27.94,64.26A48.57,48.57,0,0,1,386.7,872.71ZM480,801.33a101.93,101.93,0,0,1,39-23.63,103.46,103.46,0,0,1,56.75-2.5,94.7,94.7,0,0,1,19.41,6.72,103.31,103.31,0,0,1,28.42,168.32,94.47,94.47,0,0,1-11,9.17A102.76,102.76,0,0,1,511,970.74a101.31,101.31,0,0,1-33.54-23.18A106.82,106.82,0,0,1,467,934.8,103.4,103.4,0,0,1,480,801.33Z"/><polygon class="cls-26" points="603.95 668.45 627.89 647.51 621.65 702.37 603.95 668.45"/><polygon class="cls-26" points="466.09 671.33 442.15 692.27 477.55 708.84 488.11 675.09 466.09 671.33"/><polygon class="cls-26" points="366.69 899.33 342.75 920.28 361.73 935.55 383.29 917.93 366.69 899.33"/><polygon class="cls-26" points="396.4 738.43 372.46 759.37 381.43 783.2 387.64 757.31 396.4 738.43"/><polygon class="cls-26" points="523.56 1062.22 499.62 1083.16 485.27 1066.13 499.16 1048.72 523.56 1062.22"/><polygon class="cls-26" points="784.85 810.38 760.91 831.33 736.53 811.29 749.59 793.26 784.85 810.38"/><polygon class="cls-26" points="685.45 1038.39 661.51 1059.33 626.42 1053.49 651.11 1032.97 685.45 1038.39"/><polygon class="cls-26" points="755.14 971.29 731.2 992.23 725.34 952.29 746.79 956.64 755.14 971.29"/><path class="cls-32" d="M410.63,851.77a48.61,48.61,0,0,1-43.94,47.56,209.11,209.11,0,0,0,25.52,65.34,48.67,48.67,0,0,1,67.18,69.6,213,213,0,0,0,40.74,20.64c6.41,2.4,12.94,4.51,19.51,6.27,1.29.41,2.65.72,3.92,1a48.7,48.7,0,0,1,96.72,1.67,208.13,208.13,0,0,0,65.17-25.5,48.69,48.69,0,0,1,69.69-67A210,210,0,0,0,783,907.09a48.67,48.67,0,0,1,1.85-96.67,209.08,209.08,0,0,0-25.51-65.25,48.48,48.48,0,0,1-59,.14,35.57,35.57,0,0,1-5.68-5,48.54,48.54,0,0,1-2.46-64.79,212.1,212.1,0,0,0-38.34-19.8c-6.4-2.4-12.87-4.61-19.45-6.45-2.19-.61-4.39-1.23-6.57-1.76a48.48,48.48,0,0,1-49.1,42.18,49.73,49.73,0,0,1-13.06-2,48.67,48.67,0,0,1-34.49-41.9,208.16,208.16,0,0,0-65.15,25.54,48.69,48.69,0,0,1-69.69,67.1,211.72,211.72,0,0,0-27.94,64.26A48.55,48.55,0,0,1,410.63,851.77Zm93.31-71.36a101.93,101.93,0,0,1,39-23.63,103.46,103.46,0,0,1,56.75-2.5A94.7,94.7,0,0,1,619.1,761a103.31,103.31,0,0,1,28.41,168.33,94.47,94.47,0,0,1-11,9.17,102.61,102.61,0,0,1-82,17.58,104,104,0,0,1-53.14-29.43,106.82,106.82,0,0,1-10.49-12.76,103.41,103.41,0,0,1,13.06-133.48Z"/><path class="cls-26" d="M832,709.56a26.69,26.69,0,0,1-17.75,30.77,114.85,114.85,0,0,0,21.59,31.89,26.7,26.7,0,0,1,44.37,29.11,117,117,0,0,0,24.31,6.11c3.72.51,7.47.84,11.2,1,.74.06,1.5.06,2.23.08a26.72,26.72,0,0,1,52-10.83,114.29,114.29,0,0,0,31.78-21.54,26.72,26.72,0,0,1,29.11-44.38A115.12,115.12,0,0,0,1037.9,694a26.7,26.7,0,0,1-10.72-52,114.67,114.67,0,0,0-21.56-31.83,26.62,26.62,0,0,1-31.53,7.22,19.53,19.53,0,0,1-3.64-2,26.61,26.61,0,0,1-9.17-34.37,116.36,116.36,0,0,0-22.92-6c-3.72-.51-7.45-.91-11.19-1.1-1.25-.06-2.5-.12-3.73-.14a26.6,26.6,0,0,1-21.15,28.52,27.45,27.45,0,0,1-7.23.54,26.72,26.72,0,0,1-23.54-18.25,113.76,113.76,0,0,0-31.73,21.63,26.71,26.71,0,0,1-29.2,44.3,116.13,116.13,0,0,0-7.16,37.78A26.64,26.64,0,0,1,832,709.56Zm41.29-49.49a55.77,55.77,0,0,1,18-17.38,56.73,56.73,0,0,1,30.06-8.21,51.53,51.53,0,0,1,11.2,1.24,56.62,56.62,0,0,1,35.62,86.61,52.88,52.88,0,0,1-4.8,6.25,56.25,56.25,0,0,1-41.74,19.34,57,57,0,0,1-32-9.31,58.28,58.28,0,0,1-7.16-5.55,56.72,56.72,0,0,1-9.18-73Z"/><polygon class="cls-26" points="923.46 573.92 933.73 559.81 937.04 589.92 923.46 573.92"/><polygon class="cls-26" points="850.03 592.17 839.76 606.28 860.71 610.86 862.27 591.51 850.03 592.17"/><polygon class="cls-26" points="824.47 726.24 814.2 740.35 826.21 746.22 835.61 734.18 824.47 726.24"/><polygon class="cls-26" points="820.87 636.52 810.59 650.63 818.28 662.3 818.47 647.69 820.87 636.52"/><polygon class="cls-26" points="928.17 794.39 917.9 808.5 908.15 801.13 913.47 790.12 928.17 794.39"/><polygon class="cls-26" points="1037.47 627.95 1027.2 642.06 1011.72 634.29 1016.53 623.05 1037.47 627.95"/><polygon class="cls-26" points="1011.92 762.02 1001.64 776.13 982.16 777.25 992.88 763.27 1011.92 762.02"/><polygon class="cls-26" points="1041.08 717.66 1030.8 731.77 1022.83 711.1 1034.83 710.83 1041.08 717.66"/><path class="cls-32" d="M842.22,695.45a26.7,26.7,0,0,1-17.75,30.79,114.72,114.72,0,0,0,21.58,31.87,26.7,26.7,0,0,1,44.39,29.1,116.63,116.63,0,0,0,24.35,6.12c3.72.51,7.48.84,11.2,1,.74.06,1.51.06,2.23.08a26.71,26.71,0,0,1,52-10.83A114.56,114.56,0,0,0,1012,762a26.71,26.71,0,0,1,29.16-44.36,115.65,115.65,0,0,0,7.12-37.76A26.7,26.7,0,0,1,1037.52,628,114.67,114.67,0,0,0,1016,596.14a26.59,26.59,0,0,1-31.58,7.19,20.12,20.12,0,0,1-3.64-2A26.61,26.61,0,0,1,971.57,567a115.67,115.67,0,0,0-22.92-6c-3.72-.51-7.44-.91-11.19-1.1-1.25-.06-2.5-.12-3.73-.14a26.61,26.61,0,0,1-21.15,28.56,27.45,27.45,0,0,1-7.23.54,26.74,26.74,0,0,1-23.56-18.25A114.25,114.25,0,0,0,850,592.17a26.71,26.71,0,0,1-29.16,44.35,116.56,116.56,0,0,0-7.15,37.81A26.64,26.64,0,0,1,842.22,695.45ZM883.51,646a55.87,55.87,0,0,1,18-17.38,56.74,56.74,0,0,1,30.06-8.25,51.07,51.07,0,0,1,11.22,1.28,56.69,56.69,0,0,1,35.61,86.63,50.3,50.3,0,0,1-4.8,6.25,56.32,56.32,0,0,1-53,18.37,55.42,55.42,0,0,1-20.76-8.34,58.28,58.28,0,0,1-7.16-5.55A56.73,56.73,0,0,1,883.51,646Z"/><path class="cls-26" d="M1107.05,828.72a32.85,32.85,0,0,1-28.59,33.09,140.92,140.92,0,0,0,18.69,43.52A32.86,32.86,0,0,1,1144,950.79a143,143,0,0,0,28,13c4.38,1.48,8.84,2.75,13.31,3.79.88.25,1.8.43,2.67.62a32.88,32.88,0,0,1,65.31-1,140.52,140.52,0,0,0,43.41-18.67,32.88,32.88,0,0,1,45.53-46.85,141.67,141.67,0,0,0,17.36-44,32.86,32.86,0,0,1-.91-65.28A141.45,141.45,0,0,0,1340,748.89a32.77,32.77,0,0,1-39.79,1.42,24.31,24.31,0,0,1-3.94-3.22,32.78,32.78,0,0,1-3.11-43.67,144.19,144.19,0,0,0-26.32-12.51c-4.38-1.47-8.79-2.82-13.27-3.91-1.5-.37-3-.74-4.48-1a32.84,32.84,0,0,1-65.25,1.06,140.52,140.52,0,0,0-43.41,18.67,32.87,32.87,0,0,1-45.53,46.84,143,143,0,0,0-17.42,44A32.8,32.8,0,0,1,1107.05,828.72Zm61.37-50.25a69,69,0,0,1,25.78-16.83,69.81,69.81,0,0,1,38.24-3,63.53,63.53,0,0,1,13.25,4.1,69.77,69.77,0,0,1,23,113,63.12,63.12,0,0,1-7.25,6.43,69.75,69.75,0,0,1-91.45-5,71.34,71.34,0,0,1-7.36-8.37A69.81,69.81,0,0,1,1168.42,778.47Z"/><polygon class="cls-26" points="1249.09 686 1264.78 671.33 1261.8 708.49 1249.09 686"/><polygon class="cls-26" points="1156.12 691.02 1140.43 705.7 1164.69 716.09 1171.06 693.07 1156.12 691.02"/><polygon class="cls-26" points="1094.14 847.13 1078.46 861.81 1091.61 871.69 1105.76 859.31 1094.14 847.13"/><polygon class="cls-26" points="1110.58 737.87 1094.9 752.54 1101.48 768.43 1105.1 750.81 1110.58 737.87"/><polygon class="cls-26" points="1203.67 953.55 1187.98 968.22 1177.91 957.05 1186.89 944.98 1203.67 953.55"/><polygon class="cls-26" points="1374.36 777.73 1358.68 792.4 1341.77 779.42 1350.18 766.96 1374.36 777.73"/><polygon class="cls-26" points="1312.39 933.84 1296.7 948.51 1272.89 945.35 1289.09 930.95 1312.39 933.84"/><polygon class="cls-26" points="1357.92 886.99 1342.23 901.66 1337.38 874.83 1351.96 877.29 1357.92 886.99"/><path class="cls-32" d="M1122.73,814.05a32.83,32.83,0,0,1-28.59,33.08,141.47,141.47,0,0,0,18.65,43.53,32.86,32.86,0,0,1,46.9,45.46,143,143,0,0,0,28,13c4.38,1.47,8.83,2.75,13.31,3.79.88.25,1.8.43,2.67.62a32.88,32.88,0,0,1,65.31-1,140.62,140.62,0,0,0,43.41-18.67A32.88,32.88,0,0,1,1357.92,887a142.16,142.16,0,0,0,17.36-44,32.86,32.86,0,0,1-.92-65.27,140.87,140.87,0,0,0-18.68-43.47,32.76,32.76,0,0,1-39.78,1.42,23.48,23.48,0,0,1-3.94-3.22,32.77,32.77,0,0,1-3.12-43.67,143.93,143.93,0,0,0-26.31-12.47c-4.38-1.47-8.79-2.82-13.28-3.92-1.49-.36-3-.73-4.47-1A32.74,32.74,0,0,1,1232.6,701a33.43,33.43,0,0,1-8.86-1,32.85,32.85,0,0,1-24.21-27.5,140.73,140.73,0,0,0-43.41,18.66A32.88,32.88,0,0,1,1110.59,738a143,143,0,0,0-17.42,44A32.77,32.77,0,0,1,1122.73,814.05Zm61.38-50.25A68.8,68.8,0,0,1,1209.89,747a69.81,69.81,0,0,1,38.24-3,63.53,63.53,0,0,1,13.25,4.1,69.77,69.77,0,0,1,23,113,66,66,0,0,1-7.25,6.43,69.75,69.75,0,0,1-91.45-5,72.35,72.35,0,0,1-7.37-8.37A69.82,69.82,0,0,1,1184.11,763.8Z"/><rect class="cls-32" x="1275.47" y="1590.51" width="308.11" height="189.63" rx="14.78"/><path class="cls-1" d="M1384.88,1661.07c-3.35-3.62-6.6-6-9.74-7.23a26.61,26.61,0,0,0-9.49-1.81,31.77,31.77,0,0,0-12.84,2.52,29.53,29.53,0,0,0-9.87,7,31.5,31.5,0,0,0-6.38,10.39,35.24,35.24,0,0,0-2.26,12.77,39.07,39.07,0,0,0,2.26,13.55,31.45,31.45,0,0,0,6.38,10.71,29.71,29.71,0,0,0,9.87,7.1,30.78,30.78,0,0,0,12.84,2.58,23.53,23.53,0,0,0,10.78-2.65,29.42,29.42,0,0,0,9.74-8.45l13.42,9.55a36.52,36.52,0,0,1-15.1,12.39,46.88,46.88,0,0,1-19,3.87,53.25,53.25,0,0,1-19.43-3.42,43.55,43.55,0,0,1-25.22-24.71,50.59,50.59,0,0,1-3.62-19.49,52.89,52.89,0,0,1,3.62-19.94,44.7,44.7,0,0,1,10-15.29,43.83,43.83,0,0,1,15.22-9.74,53.67,53.67,0,0,1,19.43-3.42,44.78,44.78,0,0,1,17.22,3.29,40.29,40.29,0,0,1,14.78,11.17Z"/><path class="cls-1" d="M1455.34,1659.26a15,15,0,0,0-6.91-5.49,24.21,24.21,0,0,0-9.09-1.74,23.55,23.55,0,0,0-5.49.65,15,15,0,0,0-4.77,2.06,10.67,10.67,0,0,0-3.42,3.68,10.55,10.55,0,0,0-1.29,5.36,8.35,8.35,0,0,0,3.22,7.09,31.08,31.08,0,0,0,8,4.26q4.76,1.81,10.45,3.49a42.69,42.69,0,0,1,10.45,4.64,25.9,25.9,0,0,1,8,7.87q3.21,4.9,3.23,13A28.78,28.78,0,0,1,1465,1717a26.29,26.29,0,0,1-7.29,9.09,31.59,31.59,0,0,1-10.65,5.42,44.61,44.61,0,0,1-12.78,1.81,47.61,47.61,0,0,1-16.38-2.84,31.5,31.5,0,0,1-13.56-9.55l12.26-11.87a20.49,20.49,0,0,0,7.81,7,21.85,21.85,0,0,0,15.94,1.75,17.65,17.65,0,0,0,5.16-2.33,12,12,0,0,0,3.74-3.93,10.54,10.54,0,0,0,1.42-5.49,9.64,9.64,0,0,0-3.22-7.74,28.42,28.42,0,0,0-8-4.58q-4.77-1.87-10.45-3.55a44.24,44.24,0,0,1-10.45-4.58,25.41,25.41,0,0,1-8-7.75q-3.24-4.83-3.23-13a24.5,24.5,0,0,1,2.91-12.26,26.42,26.42,0,0,1,7.61-8.58,33.34,33.34,0,0,1,10.77-5.1,46.27,46.27,0,0,1,12.39-1.68,45.31,45.31,0,0,1,14,2.19,32.83,32.83,0,0,1,12.2,7.23Z"/><path class="cls-1" d="M1529.4,1659.26a15.07,15.07,0,0,0-6.9-5.49,24.21,24.21,0,0,0-9.09-1.74,23.55,23.55,0,0,0-5.49.65,15.16,15.16,0,0,0-4.78,2.06,11,11,0,0,0-3.42,3.68,10.55,10.55,0,0,0-1.29,5.36,8.36,8.36,0,0,0,3.23,7.09,31.08,31.08,0,0,0,8,4.26q4.77,1.81,10.46,3.49a42.69,42.69,0,0,1,10.45,4.64,26.23,26.23,0,0,1,8,7.87q3.23,4.9,3.22,13a28.75,28.75,0,0,1-2.71,12.85,26.2,26.2,0,0,1-7.29,9.09,31.45,31.45,0,0,1-10.64,5.42,44.61,44.61,0,0,1-12.78,1.81,47.91,47.91,0,0,1-16.39-2.84,31.47,31.47,0,0,1-13.55-9.55l12.26-11.87a20.49,20.49,0,0,0,7.81,7,21.85,21.85,0,0,0,15.94,1.75,17.65,17.65,0,0,0,5.16-2.33,12.22,12.22,0,0,0,3.74-3.93,10.66,10.66,0,0,0,1.42-5.49,9.58,9.58,0,0,0-3.23-7.74,28.42,28.42,0,0,0-8-4.58q-4.77-1.87-10.45-3.55a44.24,44.24,0,0,1-10.45-4.58,25.41,25.41,0,0,1-8-7.75q-3.23-4.83-3.23-13a24.7,24.7,0,0,1,2.9-12.26,26.45,26.45,0,0,1,7.62-8.58,33.34,33.34,0,0,1,10.77-5.1,46.27,46.27,0,0,1,12.39-1.68,45.31,45.31,0,0,1,14,2.19,32.83,32.83,0,0,1,12.2,7.23Z"/><rect class="cls-16" x="1560.39" y="563.72" width="261.01" height="194.33" rx="13.77"/><path class="cls-1" d="M1674.79,690a45.77,45.77,0,0,1-2.49,14.9,36.88,36.88,0,0,1-7.37,12.62,35,35,0,0,1-12.24,8.64,42.45,42.45,0,0,1-17.12,3.22q-15.46,0-25.31-7.17c-6.58-4.8-10.89-12.39-13-22.84l21.73-5.15a17.63,17.63,0,0,0,5.25,10.31,14.35,14.35,0,0,0,10.22,3.86q9.93,0,13.53-6.71c2.4-4.48,3.58-10.65,3.58-18.5V595.71h23.22Z"/><path class="cls-1" d="M1766.84,623.7a21.34,21.34,0,0,0-9.85-7.82,34.47,34.47,0,0,0-13-2.49,32.66,32.66,0,0,0-7.82.92,21.24,21.24,0,0,0-6.82,3,15.4,15.4,0,0,0-4.88,5.24,15,15,0,0,0-1.83,7.64q0,6.63,4.6,10.13a44.12,44.12,0,0,0,11.42,6.07q6.81,2.58,14.9,5a61.83,61.83,0,0,1,14.91,6.63,37.08,37.08,0,0,1,11.42,11.23q4.6,7,4.6,18.6a40.91,40.91,0,0,1-3.87,18.32,37.14,37.14,0,0,1-10.39,13,45,45,0,0,1-15.2,7.73,63.22,63.22,0,0,1-18.24,2.48,68.22,68.22,0,0,1-23.38-4,44.82,44.82,0,0,1-19.33-13.62l17.48-17a29.26,29.26,0,0,0,11.15,10,31.22,31.22,0,0,0,14.64,3.58,30.75,30.75,0,0,0,8.09-1.09,25,25,0,0,0,7.37-3.33,17.19,17.19,0,0,0,5.33-5.6,15.05,15.05,0,0,0,2-7.84c0-4.77-1.53-8.46-4.6-11a41,41,0,0,0-11.42-6.53q-6.81-2.67-14.91-5.06a62.34,62.34,0,0,1-14.91-6.54,35.89,35.89,0,0,1-11.41-11q-4.62-6.9-4.6-18.49a35.21,35.21,0,0,1,4.13-17.5,38,38,0,0,1,10.87-12.24,47.42,47.42,0,0,1,15.37-7.27,65.55,65.55,0,0,1,17.68-2.4,64.66,64.66,0,0,1,20,3.13,46.38,46.38,0,0,1,17.45,10.26Z"/><rect class="cls-32" x="2100.16" y="982.3" width="281.91" height="194.14" rx="14.3"/><path class="cls-1" d="M2115.24,1096.65v-14.13l81.6-44.17v21.59l-54.51,29.64,54.51,29.65v21.59Z"/><path class="cls-1" d="M2221.68,1158.48l-13.39-5.88,50.32-152.33,13.39,6.28Z"/><path class="cls-1" d="M2367,1082.52v14.13l-81.61,44.17v-21.59l54.51-29.65-54.51-29.64v-21.61Z"/><rect class="cls-16" x="287.11" y="1154.2" width="402.91" height="190.84" rx="16.95"/><path class="cls-1" d="M320.48,1205h15.87v35.54h41.71V1205h15.88v89.21H378.06v-39.31H336.35v39.31H320.48Z"/><path class="cls-1" d="M432.12,1219.38H404.79V1205h70.56v14.37H448v74.84H432.12Z"/><path class="cls-1" d="M486.56,1205h24.23l23.81,62.5,24.06-62.5h24v89.21H567.45v-74.09h-.25l-27.1,74.09H529l-27.09-74.09h-.26v74.09H486.56Z"/><path class="cls-1" d="M602.85,1205h15.88v74.85h37.93v14.36H602.85Z"/></svg>