<svg id="Layer_1" data-name="Layer 1" xmlns="http://www.w3.org/2000/svg" viewBox="0 0 198.3 49.57"><defs><style>.cls-1{fill:#f6f6f6;}.cls-2{fill:#e0aaff;}.cls-3{fill:#333;}.cls-4{font-size:11px;fill:#707070;font-family:Roboto-Light, Roboto;font-weight:300;letter-spacing:-0.05em;}</style></defs><rect class="cls-1" width="198.3" height="49.57" rx="12.68"/><path class="cls-2" d="M54.69,0h-42A12.72,12.72,0,0,0,0,12.68V36.89A12.72,12.72,0,0,0,12.68,49.57h42Z"/><circle class="cls-1" cx="27.34" cy="24.79" r="15.26"/><path class="cls-2" d="M26.51,33h0a1.07,1.07,0,0,0,.81.37h.13a1,1,0,0,0,.73-.36l5.75-6.64a1.15,1.15,0,0,0-.13-1.63,1.07,1.07,0,0,0-1.54.11l-3.79,4.37V17.34a1.13,1.13,0,0,0-2.26,0V29.19l-3.79-4.37a1.07,1.07,0,0,0-1-.37,1.18,1.18,0,0,0-.87.78,1.08,1.08,0,0,0,.22,1.11Z"/><path class="cls-3" d="M68.17,22.5V11.3h3.77a4.07,4.07,0,0,1,2.69.81,2.74,2.74,0,0,1,1,2.23,2.26,2.26,0,0,1-.4,1.34,2.38,2.38,0,0,1-1.14.86v.22a2.43,2.43,0,0,1,1.3.95,2.94,2.94,0,0,1,.45,1.64,2.85,2.85,0,0,1-1,2.31A4.31,4.31,0,0,1,72,22.5Zm2.1-6.56h1.64a2,2,0,0,0,1.27-.35,1.18,1.18,0,0,0,.45-1,1.2,1.2,0,0,0-.45-1,2,2,0,0,0-1.27-.35H70.27Zm0,4.62h1.67a2.13,2.13,0,0,0,1.33-.37,1.39,1.39,0,0,0,0-2.07,2.13,2.13,0,0,0-1.33-.36H70.27Z"/><path class="cls-3" d="M77,14h3.56v.73h.49a1.6,1.6,0,0,1,.69-.72,2.18,2.18,0,0,1,1-.25,1.84,1.84,0,0,1,1.58.76,3.7,3.7,0,0,1,.55,2.17V18H82.86v-1c0-.84-.33-1.26-1-1.26a.94.94,0,0,0-.9.55,3.79,3.79,0,0,0-.29,1.67V20.7h2.5v1.8h-6V20.7h1.51V15.77H77Z"/><path class="cls-3" d="M91.52,17.13v1.56L89.3,19a1.25,1.25,0,0,0-.75.34,1,1,0,0,0-.26.69.86.86,0,0,0,.29.67,1.22,1.22,0,0,0,.82.25,2.07,2.07,0,0,0,1-.24,2,2,0,0,0,.72-.67,1.68,1.68,0,0,0,.27-.92V17A1.5,1.5,0,0,0,91,15.89a1.67,1.67,0,0,0-1.21-.4,2.61,2.61,0,0,0-1,.17,1.58,1.58,0,0,0-.67.52,1.86,1.86,0,0,0-.36.82H85.83a3.27,3.27,0,0,1,2-2.89,4.62,4.62,0,0,1,2-.4,3.86,3.86,0,0,1,2.65.83,3,3,0,0,1,.92,2.36v5.6h-2v-.82h-.49a1.89,1.89,0,0,1-.79.77,2.62,2.62,0,0,1-1.26.26,2.9,2.9,0,0,1-1.38-.31,2.22,2.22,0,0,1-.91-.86,2.55,2.55,0,0,1-.33-1.31,2.4,2.4,0,0,1,.7-1.79,3.49,3.49,0,0,1,2-.91Z"/><path class="cls-3" d="M95.39,22.5V14h2v.73h.49a2.11,2.11,0,0,1,.82-.72,2.46,2.46,0,0,1,1.14-.26,2.61,2.61,0,0,1,1.47.41,2.7,2.7,0,0,1,1,1.14,4.45,4.45,0,0,1,.33,1.8V22.5h-2V17.56a2.29,2.29,0,0,0-.4-1.46A1.45,1.45,0,0,0,99,15.61a1.51,1.51,0,0,0-1.21.49,2.17,2.17,0,0,0-.42,1.46V22.5Z"/><path class="cls-3" d="M107.22,22.73a3,3,0,0,1-1.81-.55,3.49,3.49,0,0,1-1.19-1.55,6.05,6.05,0,0,1-.43-2.4,6,6,0,0,1,.43-2.38,3.55,3.55,0,0,1,1.19-1.57,3.09,3.09,0,0,1,1.81-.54,2.6,2.6,0,0,1,1.19.27,1.88,1.88,0,0,1,.8.75h.49V10.63h2V22.5h-2v-.8h-.49a1.85,1.85,0,0,1-.79.75A2.59,2.59,0,0,1,107.22,22.73Zm.56-1.81a1.73,1.73,0,0,0,1.49-.71,3.26,3.26,0,0,0,.53-2,3.26,3.26,0,0,0-.53-2,1.76,1.76,0,0,0-1.49-.71,1.74,1.74,0,0,0-1.48.71,3.26,3.26,0,0,0-.52,2,3.26,3.26,0,0,0,.52,2A1.71,1.71,0,0,0,107.78,20.92Z"/><path class="cls-3" d="M125.8,22.73a3,3,0,0,1-2.71-1.49,8.07,8.07,0,0,1-1-4.34,7.27,7.27,0,0,1,1.1-4.37,3.77,3.77,0,0,1,3.24-1.48,4.12,4.12,0,0,1,2,.47,3.36,3.36,0,0,1,1.36,1.36,4.85,4.85,0,0,1,.58,2.16h-2a2.87,2.87,0,0,0-.69-1.53,1.72,1.72,0,0,0-1.3-.53,1.82,1.82,0,0,0-1.7,1,6.24,6.24,0,0,0-.54,2.95,6.71,6.71,0,0,0,.54,3.08,1.85,1.85,0,0,0,1.73,1,1.54,1.54,0,0,0,1-.32,2.29,2.29,0,0,0,.67-.85,2.88,2.88,0,0,0,.24-1.19h-2.15V16.71h4V22.5h-1.82v-.91h-.49a1.59,1.59,0,0,1-.76.84A2.74,2.74,0,0,1,125.8,22.73Z"/><path class="cls-3" d="M138.9,14V22.5h-2v-.72h-.49a2.34,2.34,0,0,1-.81.72,2.5,2.5,0,0,1-1.15.25,2.67,2.67,0,0,1-1.48-.4,2.71,2.71,0,0,1-1-1.15,4.37,4.37,0,0,1-.33-1.79V14h2V18.9a2.3,2.3,0,0,0,.4,1.47,1.42,1.42,0,0,0,1.17.49,1.48,1.48,0,0,0,1.21-.49,2.19,2.19,0,0,0,.42-1.47V14Z"/><path class="cls-3" d="M141.38,14h4.55V20.7h2.53v1.8h-7.08V20.7h2.53V15.77h-2.53Zm3.43-1.09a1.38,1.38,0,0,1-1-.34,1.23,1.23,0,0,1-.35-.93,1.25,1.25,0,0,1,.35-.94,1.38,1.38,0,0,1,1-.34,1.34,1.34,0,0,1,1,.34,1.22,1.22,0,0,1,.35.94,1.19,1.19,0,0,1-.35.93A1.34,1.34,0,0,1,144.81,12.87Z"/><path class="cls-3" d="M152.72,22.73a3,3,0,0,1-1.81-.55,3.49,3.49,0,0,1-1.19-1.55,6.05,6.05,0,0,1-.43-2.4,6,6,0,0,1,.43-2.38,3.55,3.55,0,0,1,1.19-1.57,3.09,3.09,0,0,1,1.81-.54,2.6,2.6,0,0,1,1.19.27,1.88,1.88,0,0,1,.8.75h.49V10.63h2V22.5h-2v-.8h-.49a1.85,1.85,0,0,1-.79.75A2.59,2.59,0,0,1,152.72,22.73Zm.56-1.81a1.73,1.73,0,0,0,1.49-.71,3.26,3.26,0,0,0,.53-2,3.26,3.26,0,0,0-.53-2,1.76,1.76,0,0,0-1.49-.71,1.74,1.74,0,0,0-1.48.71,3.26,3.26,0,0,0-.52,2,3.26,3.26,0,0,0,.52,2A1.71,1.71,0,0,0,153.28,20.92Z"/><path class="cls-3" d="M160.45,17.35h4.85l-.65.8a3.65,3.65,0,0,0-.46-2,1.59,1.59,0,0,0-1.39-.68,1.69,1.69,0,0,0-1.47.72,3.29,3.29,0,0,0-.52,2,3.66,3.66,0,0,0,.51,2.1,1.75,1.75,0,0,0,1.52.72,2,2,0,0,0,1.08-.3,2.69,2.69,0,0,0,.8-.84h1.93a4.35,4.35,0,0,1-.8,1.56,3.45,3.45,0,0,1-1.3,1,4.35,4.35,0,0,1-1.74.33,4,4,0,0,1-2.11-.54,3.61,3.61,0,0,1-1.36-1.57,5.74,5.74,0,0,1-.48-2.46,5.46,5.46,0,0,1,.49-2.38,3.6,3.6,0,0,1,1.37-1.54,3.85,3.85,0,0,1,2.08-.55,3.54,3.54,0,0,1,2,.53A3.27,3.27,0,0,1,166,15.75a6,6,0,0,1,.44,2.4c0,.13,0,.26,0,.38s0,.24,0,.36h-6Z"/><text class="cls-4" transform="translate(67.18 36.69)">Download PDF file</text></svg>