<svg id="Layer_1" data-name="Layer 1" xmlns="http://www.w3.org/2000/svg" viewBox="0 0 476.39 354.63"><defs><style>.cls-1{fill:#fff;}</style></defs><path class="cls-1" d="M473.9,39.88a11.16,11.16,0,0,0-8.68-4.14H123.82L113.49,7.35A11.19,11.19,0,0,0,103,0H11.18a11.18,11.18,0,1,0,0,22.35h84l76.26,209.47-20.28,78.79a11.18,11.18,0,0,0,10.83,14h25.9a41.23,41.23,0,0,0,79.38,0h71.92a41.25,41.25,0,1,0,0-22.35H267.25a41.23,41.23,0,0,0-79.38,0H176.38l15.39-59.79h234.5a11.17,11.17,0,0,0,10.93-8.87L476.15,49.22A11.15,11.15,0,0,0,473.9,39.88Zm-95,254.62A18.89,18.89,0,1,1,360,313.39,18.92,18.92,0,0,1,378.86,294.5Zm-151.3,0a18.89,18.89,0,1,1-18.82,20.26,10.4,10.4,0,0,0,0-2.73A18.9,18.9,0,0,1,227.56,294.5Zm105.6-74.42-27.84-70h50.26l27.84,70Zm-74.32,0-27.83-70h50.26l27.84,70Zm-93.39-70H207l27.84,70H190.93Zm79.22-92,27.71,69.65H222.12L194.41,58.09Zm51.76,69.65-27.7-69.65H319l27.7,69.65ZM343,58.09H393.3L421,127.74H370.75Zm96.57,56L417.36,58.09h34.07ZM170.36,58.09l27.7,69.65H157.32L132,58.09Zm246.85,162h-9.74l-27.83-70H429.9l1.37,3.44Z"/></svg>