<svg id="Layer_1" data-name="Layer 1" xmlns="http://www.w3.org/2000/svg" viewBox="0 0 98.34 98.34"><defs><style>.cls-1{fill:#4361ee;}.cls-2{fill:#fff;}</style></defs><circle class="cls-1" cx="49.17" cy="49.17" r="49.17"/><path class="cls-2" d="M21.25,24.63l22.8,25.86a6.81,6.81,0,0,0,10.24,0L76.7,25.07a2.32,2.32,0,0,1,.63-.5,7.82,7.82,0,0,0-3.1-.65H24.11a7.77,7.77,0,0,0-3,.6S21.22,24.58,21.25,24.63Z"/><path class="cls-2" d="M80.78,27.55a2.34,2.34,0,0,1-.44.74L57.94,53.71a11.69,11.69,0,0,1-17.54,0L17.6,27.84l-.12-.16a7.68,7.68,0,0,0-1.11,4v35a7.74,7.74,0,0,0,7.74,7.74H74.23A7.74,7.74,0,0,0,82,66.68v-35A7.69,7.69,0,0,0,80.78,27.55Z"/></svg>