<svg xmlns="http://www.w3.org/2000/svg" viewBox="0 0 438.63 329.78"><defs><style>.cls-1{isolation:isolate;}.cls-2,.cls-4{fill:#e0aaff;fill-opacity:0.45;}.cls-3,.cls-5{fill:#ddecff;}.cls-12,.cls-22,.cls-4,.cls-5{mix-blend-mode:multiply;}.cls-6{fill:#60a8ff;}.cls-7{fill:#223a7a;}.cls-27,.cls-8{fill:#fff;}.cls-9{fill:#1c83ff;}.cls-10{fill:#ff9d8c;}.cls-11{fill:#8593b6;}.cls-13{fill:#8e9bbb;}.cls-14{fill:#dee1eb;}.cls-15{fill:#818fb3;}.cls-16{fill:#6baeff;}.cls-17{fill:#43588e;}.cls-18{fill:#f6f7fa;}.cls-19{fill:#d9dee8;}.cls-20{fill:#596b9b;}.cls-21{fill:#7a89af;}.cls-22{fill:#bdc4d7;}.cls-23{fill:#6f7fa9;}.cls-24{fill:#9ca6c3;}.cls-25{fill:#d2e6ff;}.cls-26{fill:#ff5f42;}.cls-27{font-size:12px;font-family:Roboto-Bold, Roboto;font-weight:700;}.cls-28{fill:#67acff;}</style></defs><g class="cls-1"><g id="BACKGROUND"><path class="cls-2" d="M433.81,207.3c-.27,1.12-.54,2.23-.84,3.33-9.71-30.29-31.07-56.29-33.92-72.84-4.14-24,5-53.8-33.11-77S260,45.92,234.36,40.13a50.59,50.59,0,0,1-11.89-4.62C261.35,4.27,337-18.08,380,20.27,425.53,60.82,449.53,141.1,433.81,207.3Z"/><path class="cls-2" d="M21.67,193.23C10.08,212.87,2.8,228.83.93,245.78-.54,231-.47,215.6,2.63,201.51c4.12-18.71,12.62-39.37,24.11-57.65C30.21,164,34.23,171.92,21.67,193.23Z"/><path class="cls-3" d="M433,210.63c-16.72,64.18-69.51,101.78-69.51,101.78L22.12,314.86l-4.59,0s-1.78-4.47-4.2-12C9.2,290.2,3.21,268.73.93,245.78c1.87-16.95,9.15-32.91,20.74-52.55,12.56-21.31,8.54-29.27,5.07-49.37,18.47-29.4,44.65-52.61,72.72-51.59,45.52,1.65,80.28-17.38,80.28-17.38L216.15,41q3-2.76,6.32-5.45a50.59,50.59,0,0,0,11.89,4.62c25.65,5.79,93.52-2.48,131.58,20.69s29,53,33.11,77C401.9,154.34,423.26,180.34,433,210.63Z"/><path class="cls-4" d="M436.29,253.65c-9.93,48-48,68.69-48,68.69l-355.86.83s-4.57-2.19-10.31-8.31l341.34-2.45s52.79-37.6,69.51-101.78C437.35,224.26,439.37,238.76,436.29,253.65Z"/><path class="cls-2" d="M222.47,35.51q-3.34,2.68-6.32,5.45L179.74,74.89S145,93.92,99.46,92.27c-28.07-1-54.25,22.19-72.72,51.59C25,133.52,23.31,120,24.15,99.72c2.48-59.59,52.14-86.9,103.45-96C171.21-4,199.28,23.52,222.47,35.51Z"/><path class="cls-5" d="M433,210.63c-16.72,64.18-69.51,101.78-69.51,101.78L22.12,314.86a67.13,67.13,0,0,1-8.79-11.93,91.08,91.08,0,0,1-9-22C.73,268-.3,256.69.93,245.78c1.87-16.95,9.15-32.91,20.74-52.55,12.56-21.31,8.54-29.27,5.07-49.37,18.47-29.4,44.65-52.61,72.72-51.59,45.52,1.65,80.28-17.38,80.28-17.38L216.15,41q3-2.76,6.32-5.45a50.59,50.59,0,0,0,11.89,4.62c25.65,5.79,93.52-2.48,131.58,20.69s29,53,33.11,77C401.9,154.34,423.26,180.34,433,210.63Z"/><path class="cls-5" d="M308.8,311.58c2.37-2.48,37.1-72-1.58-135.73s-135.77-56.27-174.45-31.44-57.62,57.1-61.57,91,22.1,86.9,22.1,86.9Z"/></g><g id="OBJECTS"><rect class="cls-6" x="31.46" y="162.27" width="54.62" height="32.28" rx="5" transform="translate(117.54 356.81) rotate(-180)"/><polygon class="cls-6" points="58.77 207.16 51.7 190.41 65.84 190.41 58.77 207.16"/><polygon class="cls-7" points="58.94 172.86 46.17 172.86 46.17 174.73 39.91 171.12 46.17 167.51 46.17 169.38 58.94 169.38 58.94 172.86"/><polygon class="cls-8" points="39.91 180.21 52.68 180.21 52.68 178.34 58.94 181.95 52.68 185.56 52.68 183.69 39.91 183.69 39.91 180.21"/><path class="cls-7" d="M66.78,183.49l.61.22a19.45,19.45,0,0,0,2.88-4.52,16.33,16.33,0,0,0,1-5.23l-.45-.19,2.7-6.46a5.33,5.33,0,0,1,1.31,1.49c1.53,2.58,1.38,6.54-.16,10.42s-3.18,7.32-6.18,9.5A6,6,0,0,1,64.05,190Z"/><path class="cls-7" d="M64.84,182.73l.84.31-2.76,6.62a4.7,4.7,0,0,1-.84-.37,1.61,1.61,0,0,1-.73-2l1.45-3.64A1.61,1.61,0,0,1,64.84,182.73Z"/><path class="cls-7" d="M71.43,166.18a6,6,0,0,1,1.08.5l-2.75,6.61-.93-.39a1.61,1.61,0,0,1-.88-2.07l1.45-3.72A1.59,1.59,0,0,1,71.43,166.18Z"/><path class="cls-9" d="M321.7,300.41V225.92s.83-20.07-9.72-25.86-55-2.69-55-2.69v103Z"/><path class="cls-10" d="M243.05,127.65s2.69,22.55,3.72,24.41l1,1.86,5.17,3.52s-9.93,14.07-22.14,16.34-11.17-5-11.17-5l1.86-3.93-2.48-21.52S241.19,133.23,243.05,127.65Z"/><path class="cls-8" d="M259.39,159.3l-8.07-3.52s-5.17,8.49-17.17,13.45-12.21,2.07-12.83,0a7.84,7.84,0,0,1,.21-4.34l-.89-7.25-4.8,1.6L199.19,294,242,296.06Z"/><path class="cls-7" d="M219.88,157.78s-2.9,6.69-5.59,22.42-5.17,42.21-5.79,60.41-1,59.8-1,59.8h-54c-.62,0-4.34-20.49-4.34-20.49s23.58-20.2,24.82-23.51c.83-2.21.42-43.11,3.94-61.94s8.06-22.62,17.58-27.31C205.3,162.32,219.88,157.78,219.88,157.78Z"/><path class="cls-11" d="M191.74,276.7a.51.51,0,0,0,.5-.5c0-1.48.26-22.5.51-42.82s.52-41.35.52-42.84a.5.5,0,0,0-.5-.5.51.51,0,0,0-.5.5c0,1.48-.26,22.5-.51,42.82s-.52,41.35-.52,42.84A.5.5,0,0,0,191.74,276.7Z"/><path class="cls-7" d="M299.32,271.65l.42,28.76h-62.9s-2.69-24.42-1.65-26.69S299.32,271.65,299.32,271.65Z"/><g class="cls-12"><path class="cls-13" d="M229.32,151.44a33,33,0,0,1-8.8,4.73l-1.47-12.8s16.63-7.62,22.27-13.28C240.14,136.53,237.24,145.06,229.32,151.44Z"/></g><path class="cls-10" d="M199.6,85.65a44.65,44.65,0,0,0-5.17,16.55c-.83,9.1,0,32.48,7.45,42.41s23,7,30,1c6.45-5.51,12.82-11.59,14.48-23.59s-3.52-34.76-18.21-39.52S199.6,85.65,199.6,85.65Z"/><path class="cls-10" d="M180.93,287.4s.73,0,1.84,0h.85l3.68-.1.88,0c1.3,0,2.41.13,3.45.07h0c.22,0,.54,0,.8,0a1.94,1.94,0,0,0,.33,0,4.86,4.86,0,0,0,1.37-.54,93,93,0,0,1,21.46-2.86c9.24,0,17.53.67,18.88-.46s2.18-12.76-5.71-13.52l-9.7,3.68S196.94,271,188.82,277,180.93,287.4,180.93,287.4Z"/><path class="cls-7" d="M191.66,287.3c.22,0,.54,0,.8,0a9.39,9.39,0,0,1,.85-1.14c2.5-2.55,8.54-4.2,10.73-4.73a.38.38,0,0,0,.28-.45.38.38,0,0,0-.46-.28c-3.19.77-10,2.74-11.88,6C191.92,286.79,191.76,287.1,191.66,287.3Z"/><path class="cls-7" d="M187.3,287.26l.88,0c2.73-5,7.2-6.41,12.72-8.19l.32-.1a.38.38,0,0,0,.24-.48.38.38,0,0,0-.47-.24l-.32.11C194.83,280.2,190.14,281.71,187.3,287.26Z"/><path class="cls-7" d="M182.77,287.37h.85A21.85,21.85,0,0,1,198,276.69a.37.37,0,0,0,.31-.43.39.39,0,0,0-.44-.3C190.41,277.36,184.39,283.46,182.77,287.37Z"/><path class="cls-7" d="M241.39,111.82a19.36,19.36,0,0,1-7.76-8.28A23.59,23.59,0,0,1,230.84,92s-5.79-.93-14.48,1.65-19,6.11-27.73,1.14-8.69-12.93-4.44-16.24c4.75-3.71,14.17-1.45,14.17-1.45s-3.62-3.52-1.66-5.59,9.11.63,9.11.63,8.69-6.94,25.13-6.11,24.31,12.31,25.25,25.14-3.73,25.65-3.73,25.65Z"/><g class="cls-12"><path class="cls-13" d="M208,114.93c.93,2.3.91,5,1.15,7.4.18,1.9.53,4.11-1.21,5.39-.83.62-4.76,2.27-2.74,3.6a5.32,5.32,0,0,0,2.94.33c.6,0,1.21-.05,1.82-.1s1.28-.24,1.93-.24a.38.38,0,0,1,.19.7,8.28,8.28,0,0,1-3.8.9,5.67,5.67,0,0,1-3.14-.56,2.24,2.24,0,0,1-1.43-1.6,2.58,2.58,0,0,1,1.23-2.22c.79-.58,1.75-.85,2.54-1.42,1.09-.78,1-2.1.93-3.32-.19-2.94-.87-5.84-1.13-8.76,0-.45.58-.45.72-.1Z"/></g><path class="cls-7" d="M199.57,121.81c.3,1.74,1.57,3,2.83,2.75s2-1.81,1.72-3.56-1.58-3-2.84-2.75S199.26,120.06,199.57,121.81Z"/><path class="cls-7" d="M215.4,120.43c.28,1.88,1.6,3.24,3,3s2.23-1.89,1.95-3.77-1.61-3.25-3-3S215.12,118.55,215.4,120.43Z"/><path class="cls-7" d="M203.25,114.62a28.4,28.4,0,0,1-2.92.06l-.7.08c-.16,0,.31-.05.08,0l-.15,0-.36.08c-.21.05-.41.13-.62.17a2.39,2.39,0,0,1-.59.08l-.32,0,.2,0a1.4,1.4,0,0,1-.39,0,1.07,1.07,0,0,1-.74-1.31,1.19,1.19,0,0,1,.21-.42l.12-.16-.11.13.13-.17a.58.58,0,0,1,.22-.22l.23-.18a3.09,3.09,0,0,1,.9-.36,7.54,7.54,0,0,1,1.78-.22,11.6,11.6,0,0,1,1.76.14,3.32,3.32,0,0,1,1.5.55,1,1,0,0,1,.47,1,1,1,0,0,1-.7.81Z"/><path class="cls-7" d="M214.29,111.85c.13-.08.26-.14.4-.21s.44-.22.2-.09l.26-.14a6.22,6.22,0,0,1,1.25-.45,8.39,8.39,0,0,1,2.91-.2,6.8,6.8,0,0,1,2.87.9,2.18,2.18,0,0,1,.36.26l.21.27-.06-.09a1,1,0,0,1,.43.84.85.85,0,0,1-.44.75,1.27,1.27,0,0,1-1,0h.52a2,2,0,0,1-.77,0l-.11,0-.33,0s-.37,0,0,0l-.18,0-.47,0c-.68-.06-1.36-.09-2-.11s-1.29,0-1.92,0l-.82,0c-.15,0-.08,0,0,0l-.17,0-.33.11a1,1,0,0,1-1.14-.56,1,1,0,0,1,.4-1.2Z"/><path class="cls-7" d="M209.37,140.61a9.3,9.3,0,0,0-4.67-4.21c1.73-.17,9.92-.93,12,.24,2.32,1.32-.42,6.59-5.21,6.86a7.71,7.71,0,0,1-1.39-.08A6.79,6.79,0,0,0,209.37,140.61Z"/><path class="cls-14" d="M247.19,129.51s-.83,3.21-5.59,6.93a55.44,55.44,0,0,1-11.66,6.45l-.55-2.42s7.14-3.1,10.45-6.51,3.72-5.28,3.72-5.28Z"/><path class="cls-7" d="M228.56,138.69a6,6,0,0,0-6.23,4.81c-.27,2,1.57,4.15,5.88,2.22C233.56,143.33,232.39,138.87,228.56,138.69Z"/><path class="cls-14" d="M244.19,105.82s-1.66-11.89-9.63-20c-15.2-15.41-28.13-14.48-28.13-14.48s.1-2.17,5-3.83C216,66,218,66.82,218,66.82s12.52,1,23.07,12.72,11.69,26.59,11.69,26.59Z"/><path class="cls-8" d="M245.32,104.37c10-1.69,15.52,6.1,15.93,14s-5.29,13.84-12.93,13.24C231.15,130.23,233.12,106.44,245.32,104.37Z"/><path class="cls-15" d="M250.28,123.94a6.79,6.79,0,0,0,6.13-3.65,7.59,7.59,0,0,0-.29-7.82.39.39,0,0,0-.53-.1.37.37,0,0,0-.09.52,6.81,6.81,0,0,1,.25,7,6,6,0,0,1-5.66,3.25,6.57,6.57,0,0,1-5.43-2.93,8.28,8.28,0,0,1-.82-7.34,5.58,5.58,0,0,1,5.58-3.67.38.38,0,0,0,.42-.33.37.37,0,0,0-.32-.42,6.27,6.27,0,0,0-6.38,4.15,9,9,0,0,0,.9,8,7.26,7.26,0,0,0,6,3.26Z"/><path class="cls-7" d="M257.53,156.41s30.21,7.44,40.76,19.44S313.81,247,314,258s-7.45,15.52-12,18.62-24.62,8.69-40.76,9.52-31.44,0-31.44,0a21.54,21.54,0,0,0-2.43-8.69c-2.31-4.8-5.23-5.79-5.23-5.79l13.86-5s2.43-43.49,6.21-64.55C246.56,177.92,257.53,156.41,257.53,156.41Z"/><path class="cls-11" d="M207.46,259.73a.45.45,0,0,0,.2,0,.5.5,0,0,0,.26-.66c-2.83-6.39-5.76-18.92-7.42-27.72l-.13-.71c-.5-2.58-1.12-5.8.12-8,.63-1.14,2.06-3.59,3.44-6s2.77-4.77,3.14-5.46c.73-1.35-1.56-5-4.88-9.91-.9-1.33-1.67-2.49-2.13-3.27-1.18-2-.39-3.93.52-6.1l.31-.75c.83-2,1.77-4.06,2.68-6l1.11-2.41,1.46-3.26A192,192,0,0,1,216,159.66a.5.5,0,0,0-.86-.51A193,193,0,0,0,205.23,179l-1.46,3.25-1.11,2.41c-.92,2-1.86,4-2.7,6.08l-.3.74c-.93,2.21-1.89,4.5-.46,7,.47.81,1.25,2,2.16,3.33,1.73,2.58,5.33,7.95,4.83,8.88-.36.67-1.71,3-3.13,5.43s-2.81,4.83-3.45,6c-1.42,2.54-.75,6-.22,8.7l.13.71c.6,3.2,3.79,19.6,7.48,27.93A.51.51,0,0,0,207.46,259.73Z"/><path class="cls-11" d="M236.94,261.49a.51.51,0,0,0,.36-.15c2.35-2.37,13.69-22,14.53-25.69.46-2-.7-7.15-1.82-12.1-.87-3.84-1.77-7.82-1.51-8.89.38-1.61,3.28-4,6.08-6.27,3.39-2.76,6.89-5.63,7.57-8.2.77-2.93.11-21.27-.32-33.4-.16-4.36-.28-7.81-.28-9a.5.5,0,0,0-.5-.5h0a.5.5,0,0,0-.5.5c0,1.25.12,4.7.28,9.07.41,11.35,1.09,30.33.35,33.11-.59,2.27-4.12,5.15-7.23,7.69s-6,4.87-6.42,6.81c-.31,1.3.53,5,1.51,9.34,1,4.62,2.23,9.86,1.82,11.66-.83,3.62-12,22.88-14.27,25.21a.5.5,0,0,0,0,.71A.54.54,0,0,0,236.94,261.49Z"/><path class="cls-11" d="M277.6,252.91h.07a.5.5,0,0,0,.42-.56c-.36-2.61-6.1-54.41-6.37-58.37a.48.48,0,0,0-.53-.47.5.5,0,0,0-.46.53c.26,4,6,55.84,6.37,58.45A.51.51,0,0,0,277.6,252.91Z"/><path class="cls-11" d="M236.43,267l.19,0c1.27-.52,6.89-2.41,14-4.81,14.36-4.84,34-11.48,37.76-13.42a.5.5,0,1,0-.46-.89c-3.67,1.91-24.1,8.8-37.62,13.36-7.13,2.41-12.76,4.3-14.06,4.83a.5.5,0,0,0,.19,1Z"/><path class="cls-11" d="M243.33,287.6c12.64,0,37.14-2.28,55.75-8.86a.5.5,0,0,0,.3-.64.49.49,0,0,0-.64-.3c-23.51,8.31-56.39,9.73-62.51,8.36a.5.5,0,1,0-.22,1A40.59,40.59,0,0,0,243.33,287.6Z"/><path class="cls-16" d="M393.74,151.63c0-2.87-.53-5.7-.51-8.58s.31-5.6.36-8.41-.36-7-3.95-7.45c-4.3-.51-8.84,3.32-10.89,6.76a8,8,0,0,0-1.31,5.47,15.31,15.31,0,0,0,2.15,4.55c.88,1.55,1.49,3.14,0,4.53s-3.79,2.27-5.51,3.59c-3.53,2.7-4.87,6.87-5.14,11.18-.19,3,0,6.12-.11,9.18s-.35,6.13-.69,9.18c0,0,0,.05,0,.08-.18.67-.22,1.57,0,.9.39-1.5,2.84-3.49,3.75-4.69,1.26-1.65,2.48-3.32,3.83-4.89,3.44-4,8.41-6.2,12.34-9.65C391.55,160.23,393.81,156.51,393.74,151.63Z"/><path class="cls-16" d="M354.54,216.34a23.69,23.69,0,0,1,1.33,4.7c0,.47,5.15.14,6.82-.6a7.42,7.42,0,0,0,2.86-2.13c1.61-2,2.06-4.68,2.92-7.05a10.1,10.1,0,0,1,6.62-6.52,32.28,32.28,0,0,1,9.1-1.5c4.29-.13,9.82.57,11.59-4.44a11.89,11.89,0,0,0,.3-5.07,8.34,8.34,0,0,1,.91-5c1.53-2.75,3.68-5.15,5.35-7.83a17.35,17.35,0,0,0,3-8.29c.1-2.4-.44-5.53-2.42-7.16-3.72-3-8.77,1.73-10.91,4.53-2.85,3.76-4,9.08-7.89,12.05a3.93,3.93,0,0,1-3.74.65,14.4,14.4,0,0,0-3.48-.74,7.52,7.52,0,0,0-5.06,2c-2.36,2.07-3.89,5.05-5.15,7.87a92.23,92.23,0,0,0-3.34,9.27c-1.23,3.78-2.73,7.47-4,11.23-.72,2.12-1,4.53-1.9,6.64.06-.48.11-1,.17-1.42.28-2.26.47-4.54.64-6.82.18-2.47.27-4.93.26-7.42a36.18,36.18,0,0,0-1.26-11.35c-1-3.84-3.11-7.45-3-11.52.12-4.22,1.72-8.3,3.07-12.25,1.63-4.79,2.83-9.61,2.23-14.69-.2-1.66-.57-3.67-1.89-4.84s-3.13-.7-4.53.08c-5.39,3-5.82,9.57-5.59,15.08.16,3.8,1.3,7.23,2.06,10.92.15.74,1.08,4.89.06,5.14-.6.15-1.23-.93-1.43-1.38-.34-.76-.6-1.56-.87-2.35a50.91,50.91,0,0,0-2.28-6c-.53-1.1-1.36-2.82-2.75-3-1.79-.23-2.59,2-2.7,3.39-.23,2.88.63,5.75.73,8.62.14,3.92-.07,7.89,1.38,11.61s3.77,6.8,5.88,10.06a46.58,46.58,0,0,1,3.89,7.4C352.64,210.85,353.67,213.56,354.54,216.34Z"/><path class="cls-16" d="M327,217a10.52,10.52,0,0,0,2.72,6.41c1.76,1.92,4.27,2.52,6.42,3.86a5,5,0,0,1,2.52,3.06c.28,1.45-.54,2.72-1.24,3.91-1.26,2.17-2.48,4.26-2.77,6.8-.22,1.93,0,4.1,1.46,5.52,1.94,1.87,5,2.12,7.37,3.31,5.17,2.63,9,6.93,12.06,11.71.26.41,1,.14.82-.35-.07-.17-.15-.33-.22-.49a94.24,94.24,0,0,0-2.09-9.68c-.78-3.21-1.29-6.47-1.92-9.71-.93-4.81-1.89-9.85-3.9-14.36a11.45,11.45,0,0,0-3.19-4.4,15.5,15.5,0,0,0-5.45-2.4,9,9,0,0,1-6.22-5.61,35.86,35.86,0,0,1-2-8.31c-.2-1.59-.1-3.19-.23-4.79-.08-1-.12-2.53-1.09-3.07a.39.39,0,0,0-.53.14c-1.36,2.63-1.27,5.79-1.71,8.65A43.65,43.65,0,0,0,327,217Z"/><path class="cls-16" d="M360.25,240.66a49.29,49.29,0,0,0-4.15,19.89c0,.26.48.49.63.36.27.2.1.61.12.16.29-4.67,3.64-9.51,7.21-12.38s7.67-4.55,11.78-6.26c1.9-.8,3.79-1.61,5.64-2.51a14.87,14.87,0,0,0,4.1-2.51c2.35-2.31,1.29-6-1.09-7.85-2-1.59-4.41-1.74-6.72-2.47,1.87-2.48,4.42-4.33,6.63-6.48,1.47-1.43,3.7-3.68,3.14-6-.94-3.89-5.63-1.29-7.61,0a41.28,41.28,0,0,0-9.78,9A83.17,83.17,0,0,0,360.25,240.66Z"/><path class="cls-17" d="M379.62,159.18c-1.51,3.14-3.09,6.21-4.77,9.27a73.81,73.81,0,0,0-4.44,9c-1.49,3.87-3.05,7.69-4.63,11.52a116.87,116.87,0,0,0-4.27,12.21A144.29,144.29,0,0,0,356.68,226a99.73,99.73,0,0,0-.5,12.82c.09,3.34.46,6.65.78,10a58.75,58.75,0,0,1,.27,10.44c-.24,2.9-.7,6.35-3,8.43a.52.52,0,0,1-.81-.63c2.68-5.49,2.53-11.48,2-17.43-.28-3.29-.67-6.56-.79-9.86a99.83,99.83,0,0,1,.42-12.59,148.76,148.76,0,0,1,4.55-24.31,110.93,110.93,0,0,1,4-12c1.56-3.94,3.36-7.77,4.87-11.74,2.73-7.16,6.89-13.52,10.57-20.2.2-.34.7,0,.53.31Z"/><path class="cls-17" d="M356.56,217.78c-.44-5.21-.9-10.24-2.66-15.22-.82-2.32-1.81-4.58-2.6-6.91-.66-1.93-1.64-4.57-1.13-6.62a.24.24,0,0,1,.45,0c.34,1.17.3,2.45.54,3.65a31.29,31.29,0,0,0,.92,3.45c.77,2.41,1.78,4.73,2.65,7.1a35.08,35.08,0,0,1,2.19,14.55.18.18,0,1,1-.36,0Z"/><path class="cls-17" d="M386.8,187.79c-2.07,5-8.3,5.29-12.83,6.41a12.09,12.09,0,0,0-7.35,5.77,44.26,44.26,0,0,0-4.2,10.1s-.07,0-.06,0c1.27-6,3.09-13.22,9.27-16,5-2.24,11.49-1.11,14.66-6.47.15-.26.64-.08.51.22Z"/><path class="cls-17" d="M359.83,217c-.24.34-.47.68-.72,1a2.92,2.92,0,0,1-.42.44.94.94,0,0,1-.57.3.13.13,0,0,1-.11-.19,2,2,0,0,1,.43-.4c.15-.13.3-.25.44-.39.29-.27.56-.57.84-.85.06-.06.16,0,.11.08Z"/><path class="cls-17" d="M372.79,232.87a50,50,0,0,0-9.49,10.21,61.88,61.88,0,0,0-3.46,5.68,64.74,64.74,0,0,0-2.79,6.59c-.07.17-.38.17-.35,0,.49-4.7,3.47-8.74,5.86-12.66a30.41,30.41,0,0,1,4.44-5.37,39.82,39.82,0,0,1,5.47-4.82c.24-.17.55.23.32.42Z"/><path class="cls-17" d="M344.33,227.33c1.72,1,1.78,3.69,1.81,5.43.07,3.33-.76,6.47.71,9.64,1.32,2.87,3.43,5.27,5.09,7.94C353.49,252.83,355,256,355,259a.19.19,0,0,1-.35.09,35.54,35.54,0,0,1-1.29-4.34,18.4,18.4,0,0,0-2.12-4.48c-1.6-2.48-3.56-4.73-4.86-7.39-1.37-2.81-1.17-5.59-1.08-8.63.06-1.94.26-5.06-1.31-6.5-.24-.22.07-.61.35-.45Z"/><path class="cls-8" d="M355.84,259.34c6.93-.1,20.14-.18,20.14-.18l-3.27,24.27a11,11,0,0,1-10.9,9.53H349.87a11,11,0,0,1-10.9-9.53l-3.27-24.27S348.91,259.24,355.84,259.34Z"/><polygon class="cls-18" points="20.74 214.75 60.29 293.1 175.6 293.92 140.01 213.65 20.74 214.75"/><path class="cls-19" d="M252.13,293.44l0-6.28H177.46l-34.34-75.31H23.74l-3,2.9H137.36l35.69,78.62S252.13,293.23,252.13,293.44Z"/><path class="cls-19" d="M80.61,258c1.31,3.91,8.38,6.93,15.8,6.74s12.37-3.5,11.07-7.41-8.37-6.92-15.79-6.74S79.31,254.07,80.61,258Z"/><path class="cls-8" d="M173.05,293.87a.45.45,0,0,0,.2,0,.5.5,0,0,0,.25-.67l-35.82-78.91H20.74a.5.5,0,0,0,0,1H137l35.55,78.33A.52.52,0,0,0,173.05,293.87Z"/><rect class="cls-20" x="257.32" y="299.37" width="137.17" height="30.41" transform="translate(651.82 629.16) rotate(-180)"/><rect class="cls-21" x="11.31" y="299.37" width="246.8" height="30.41" transform="translate(269.42 629.16) rotate(-180)"/><polygon class="cls-22" points="257.32 299.37 258.11 299.37 394.5 299.37 394.5 304.96 258.11 304.96 257.32 304.96 11.31 304.96 11.31 299.37 257.32 299.37"/><rect class="cls-23" x="251.32" y="293.37" width="149.79" height="7.45" transform="translate(652.44 594.19) rotate(-180)"/><rect class="cls-24" x="5.31" y="293.37" width="246.8" height="7.45" transform="translate(257.42 594.19) rotate(-180)"/><rect class="cls-8" x="286.53" y="98.77" width="59.28" height="35.03" rx="5.43" transform="translate(632.34 232.57) rotate(-180)"/><polygon class="cls-8" points="272.73 116.29 290.92 108.61 290.92 123.96 272.73 116.29"/><circle class="cls-7" cx="327.66" cy="116.29" r="3.35"/><circle class="cls-7" cx="316.17" cy="116.29" r="3.35"/><circle class="cls-7" cx="304.68" cy="116.29" r="3.35"/><path class="cls-6" d="M45.43,24.41H157.22a13,13,0,0,1,13,13v53a13,13,0,0,1-13,13h-10c-.28,4.81.41,12,4.42,21.1a56.19,56.19,0,0,1-24.24-21.1H45.43a13,13,0,0,1-13-13v-53A13,13,0,0,1,45.43,24.41Z"/><path class="cls-8" d="M93.12,49.68h55.44a2.75,2.75,0,0,0,2.76-2.76h0a2.76,2.76,0,0,0-2.76-2.76H93.12a2.76,2.76,0,0,0-2.76,2.76h0A2.75,2.75,0,0,0,93.12,49.68Z"/><path class="cls-25" d="M53.36,65.75h96.27a1.69,1.69,0,0,0,1.69-1.69h0a1.69,1.69,0,0,0-1.69-1.69H53.36a1.69,1.69,0,0,0-1.69,1.69h0A1.69,1.69,0,0,0,53.36,65.75Z"/><path class="cls-25" d="M53.36,75.13h96.27a1.69,1.69,0,0,0,1.69-1.69h0a1.69,1.69,0,0,0-1.69-1.69H53.36a1.69,1.69,0,0,0-1.69,1.69h0A1.69,1.69,0,0,0,53.36,75.13Z"/><path class="cls-25" d="M74.36,85.13h75.27a1.69,1.69,0,0,0,1.69-1.69h0a1.69,1.69,0,0,0-1.69-1.69H74.36a1.69,1.69,0,0,0-1.69,1.69h0A1.69,1.69,0,0,0,74.36,85.13Z"/><path class="cls-8" d="M54.11,49.68H80.56a2.75,2.75,0,0,0,2.76-2.76h0a2.76,2.76,0,0,0-2.76-2.76H54.11a2.76,2.76,0,0,0-2.75,2.76h0A2.75,2.75,0,0,0,54.11,49.68Z"/><rect class="cls-8" x="118.78" y="147.13" width="34.03" height="24.52" rx="2" transform="translate(271.6 318.78) rotate(-180)"/><path class="cls-23" d="M135.59,163.05a.78.78,0,0,0,.48-.17l16.34-13.5a.75.75,0,0,0-.95-1.16l-15.86,13.1-15.45-13.45a.76.76,0,0,0-1.06.08.75.75,0,0,0,.08,1.06l15.93,13.86A.74.74,0,0,0,135.59,163.05Z"/><path class="cls-23" d="M151.94,171.09a.73.73,0,0,0,.51-.21.75.75,0,0,0,0-1.06l-11.43-12a.75.75,0,0,0-1.06,0,.75.75,0,0,0,0,1.06l11.43,12A.75.75,0,0,0,151.94,171.09Z"/><path class="cls-23" d="M119.66,170.65a.79.79,0,0,0,.53-.22L131.58,159a.75.75,0,0,0,0-1.06.75.75,0,0,0-1.06,0l-11.38,11.42a.75.75,0,0,0,0,1.06A.74.74,0,0,0,119.66,170.65Z"/><circle class="cls-26" cx="117.22" cy="146.37" r="10.03"/><text class="cls-27" transform="translate(110.29 150.61)">85</text><rect class="cls-7" x="12.44" y="125.51" width="66.62" height="17.17" rx="4" transform="translate(91.5 268.18) rotate(-180)"/><path class="cls-8" d="M70.14,138.31a.79.79,0,0,1-.21-.7l.25-2.22q0-.09,0-.12a.16.16,0,0,0-.14,0l-1.83,1.35a1,1,0,0,1-.72.16.79.79,0,0,1-.57-.44.8.8,0,0,1-.1-.73.88.88,0,0,1,.52-.53l2-.93q.09,0,.09-.09s0-.06-.09-.08l-2-.93a.88.88,0,0,1-.52-.48.83.83,0,0,1,.1-.79.78.78,0,0,1,.57-.43.86.86,0,0,1,.72.18L70,132.88c.06,0,.1.05.14,0s0-.06,0-.11l-.25-2.23a.82.82,0,0,1,.19-.7.83.83,0,0,1,.65-.28.87.87,0,0,1,.68.28.94.94,0,0,1,.22.7l-.25,2.23s0,.09,0,.11.08,0,.14,0l1.83-1.35a.89.89,0,0,1,.7-.15.87.87,0,0,1,.59.43.9.9,0,0,1,.08.73.81.81,0,0,1-.5.54l-2.06.93s-.08,0-.08.08,0,.07.08.09l2.06.93a.9.9,0,0,1,.52.47.86.86,0,0,1-.1.79.83.83,0,0,1-1.29.25l-1.83-1.32a.16.16,0,0,0-.14,0s0,.06,0,.12l.25,2.22a.92.92,0,0,1-.21.7.78.78,0,0,1-.63.28A.9.9,0,0,1,70.14,138.31Z"/><path class="cls-8" d="M58,138.31a.79.79,0,0,1-.21-.7l.25-2.22c0-.06,0-.1,0-.12a.18.18,0,0,0-.15,0l-1.82,1.35a1,1,0,0,1-.72.16.8.8,0,0,1-.58-.44.84.84,0,0,1-.1-.73.9.9,0,0,1,.52-.53l2.06-.93s.08-.05.08-.09,0-.06-.08-.08l-2.06-.93a.94.94,0,0,1-.52-.48.86.86,0,0,1,.1-.79.79.79,0,0,1,.58-.43.88.88,0,0,1,.72.18l1.82,1.32a.15.15,0,0,0,.15,0,.09.09,0,0,0,0-.11l-.25-2.23a.84.84,0,0,1,.84-1,.85.85,0,0,1,.68.28.91.91,0,0,1,.23.7l-.26,2.23s0,.09,0,.11.08,0,.14,0l1.83-1.35a.9.9,0,0,1,.7-.15.86.86,0,0,1,.6.43,1,1,0,0,1,.08.73.81.81,0,0,1-.51.54l-2,.93c-.06,0-.09,0-.09.08s0,.07.09.09l2,.93a.87.87,0,0,1,.52.47.85.85,0,0,1-.09.79.88.88,0,0,1-.6.44.89.89,0,0,1-.7-.19l-1.83-1.32a.16.16,0,0,0-.14,0s0,.06,0,.12l.26,2.22a.93.93,0,0,1-.22.7.77.77,0,0,1-.63.28A.9.9,0,0,1,58,138.31Z"/><path class="cls-8" d="M45.89,138.31a.79.79,0,0,1-.21-.7l.25-2.22q0-.09,0-.12a.16.16,0,0,0-.14,0l-1.83,1.35a1,1,0,0,1-.72.16.79.79,0,0,1-.57-.44.8.8,0,0,1-.1-.73.88.88,0,0,1,.52-.53l2-.93q.09,0,.09-.09s0-.06-.09-.08l-2-.93a.91.91,0,0,1-.52-.48.83.83,0,0,1,.1-.79.78.78,0,0,1,.57-.43.86.86,0,0,1,.72.18l1.83,1.32c.06,0,.1.05.14,0s.05-.06,0-.11l-.25-2.23a.82.82,0,0,1,.19-.7.83.83,0,0,1,.65-.28.87.87,0,0,1,.68.28.94.94,0,0,1,.22.7l-.25,2.23s0,.09,0,.11.08,0,.14,0l1.83-1.35a.89.89,0,0,1,.7-.15.87.87,0,0,1,.59.43,1,1,0,0,1,.09.73.85.85,0,0,1-.51.54L48,134s-.08,0-.08.08,0,.07.08.09l2.06.93a.9.9,0,0,1,.52.47.86.86,0,0,1-.1.79.83.83,0,0,1-1.29.25l-1.83-1.32a.16.16,0,0,0-.14,0s-.05.06,0,.12l.25,2.22a.92.92,0,0,1-.21.7.78.78,0,0,1-.63.28A.9.9,0,0,1,45.89,138.31Z"/><path class="cls-8" d="M33.76,138.31a.79.79,0,0,1-.21-.7l.25-2.22c0-.06,0-.1,0-.12a.15.15,0,0,0-.14,0l-1.83,1.35a1,1,0,0,1-.72.16.8.8,0,0,1-.58-.44.84.84,0,0,1-.1-.73.9.9,0,0,1,.52-.53l2.06-.93s.08-.05.08-.09S33,134,33,134l-2.06-.93a.94.94,0,0,1-.52-.48.86.86,0,0,1,.1-.79.79.79,0,0,1,.58-.43.88.88,0,0,1,.72.18l1.83,1.32a.13.13,0,0,0,.14,0,.09.09,0,0,0,0-.11l-.25-2.23a.84.84,0,0,1,.85-1,.85.85,0,0,1,.67.28.91.91,0,0,1,.23.7L35,132.8s0,.09,0,.11a.13.13,0,0,0,.14,0L37,131.53a.9.9,0,0,1,.7-.15.86.86,0,0,1,.6.43.9.9,0,0,1,.08.73.81.81,0,0,1-.51.54l-2,.93c-.06,0-.09,0-.09.08s0,.07.09.09l2,.93a.87.87,0,0,1,.52.47.82.82,0,0,1-.09.79.88.88,0,0,1-.6.44.89.89,0,0,1-.7-.19l-1.83-1.32a.15.15,0,0,0-.14,0s0,.06,0,.12l.26,2.22a.92.92,0,0,1-.21.7.8.8,0,0,1-.64.28A.9.9,0,0,1,33.76,138.31Z"/><path class="cls-28" d="M21.64,138.31a.79.79,0,0,1-.21-.7l.25-2.22q0-.09,0-.12a.16.16,0,0,0-.14,0l-1.83,1.35a1,1,0,0,1-.72.16.79.79,0,0,1-.57-.44.8.8,0,0,1-.1-.73.88.88,0,0,1,.52-.53l2.05-.93q.09,0,.09-.09s0-.06-.09-.08l-2.05-.93a.91.91,0,0,1-.52-.48.86.86,0,0,1,.1-.79.78.78,0,0,1,.57-.43.86.86,0,0,1,.72.18l1.83,1.32c.06,0,.1.05.14,0s.05-.06,0-.11l-.25-2.23a.82.82,0,0,1,.19-.7.83.83,0,0,1,.65-.28.87.87,0,0,1,.68.28.9.9,0,0,1,.22.7l-.25,2.23s0,.09,0,.11.08,0,.14,0l1.83-1.35a.89.89,0,0,1,.7-.15.87.87,0,0,1,.59.43,1,1,0,0,1,.09.73.85.85,0,0,1-.51.54l-2.06.93c-.05,0-.08,0-.08.08s0,.07.08.09l2.06.93a.9.9,0,0,1,.52.47.86.86,0,0,1-.1.79.83.83,0,0,1-1.29.25l-1.83-1.32a.16.16,0,0,0-.14,0s-.05.06,0,.12l.25,2.22a.92.92,0,0,1-.21.7.78.78,0,0,1-.63.28A.9.9,0,0,1,21.64,138.31Z"/></g></g></svg>