<svg id="Layer_1" data-name="Layer 1" xmlns="http://www.w3.org/2000/svg" viewBox="0 0 98.34 98.34"><defs><style>.cls-1{fill:#4361ee;}.cls-2{fill:#fff;}</style></defs><circle class="cls-1" cx="49.17" cy="49.17" r="49.17"/><path class="cls-2" d="M71.4,64.1V24.39a8,8,0,0,0-8-8H35a8,8,0,0,0-8,8V64.1ZM49.17,21.36a2.41,2.41,0,1,1-2.4,2.41A2.4,2.4,0,0,1,49.17,21.36Z"/><path class="cls-2" d="M26.94,68.91v5a8,8,0,0,0,8,8H63.38a8,8,0,0,0,8-8v-5Zm22.23,8.6a2.41,2.41,0,1,1,2.4-2.4A2.39,2.39,0,0,1,49.17,77.51Z"/></svg>