<svg xmlns="http://www.w3.org/2000/svg" xmlns:xlink="http://www.w3.org/1999/xlink" viewBox="0 0 422.83 303.75"><defs><style>.cls-1,.cls-5{fill:#fff;}.cls-1,.cls-11,.cls-2,.cls-23,.cls-6{stroke:#263238;stroke-linecap:round;stroke-linejoin:round;}.cls-17,.cls-2{fill:#263238;}.cls-3,.cls-4{fill:#4895ef;}.cls-4{opacity:0.7;}.cls-6,.cls-7{fill:#03045e;}.cls-8{clip-path:url(#clip-path);}.cls-9{fill:#00b4d8;}.cls-10{fill:#abc4ff;}.cls-10,.cls-16,.cls-22{opacity:0.5;}.cls-11{fill:none;}.cls-12{clip-path:url(#clip-path-2);}.cls-13{clip-path:url(#clip-path-3);}.cls-14,.cls-22{fill:#90e0ef;}.cls-15{clip-path:url(#clip-path-4);}.cls-16{fill:#caf0f8;}.cls-18{clip-path:url(#clip-path-5);}.cls-19{opacity:0.2;}.cls-20,.cls-23{fill:#0077b6;}.cls-21{clip-path:url(#clip-path-6);}</style><clipPath id="clip-path"><path class="cls-1" d="M258.67,162.52s28.51,6,52.27,19.43,42.33,24.19,42.33,29.38,9.5,87.26,9.5,87.26h-216s21.16-45.36,24.62-64.8,7.34-32,18.58-44.49S234.05,160.79,258.67,162.52Z"/></clipPath><clipPath id="clip-path-2"><path class="cls-1" d="M268.17,165.54A28.44,28.44,0,0,1,281.56,188c.87,15.55,0,31.54.87,40.17s6.91,15.56,2.16,15.12S269,225.58,265.15,225.58s-5.19,8.21-6.91,10.8-7.8,3.68-7.8,3.68-5.59-6.7-5.59-8.86,1.72-9.5-3-8.64-15.12,17.28-15.55,12.09,4.75-13,4.75-25.48,6-27.22,14.69-36.29S259.32,164.87,268.17,165.54Z"/></clipPath><clipPath id="clip-path-3"><path class="cls-1" d="M264.57,165.65a66.73,66.73,0,0,1,5.18,25c0,13.66-7.06,27.79-9.89,34.38s-9.42,15.07-9.42,15.07.47-17.42-3.77-25.9-8-14.6-8-14.6,5.18-5.18,12.71-16.95S264.57,165.65,264.57,165.65Z"/></clipPath><clipPath id="clip-path-4"><path class="cls-1" d="M193.07,132.47s1.31,19.35,3.4,26.15,5,27.73,11.25,36.88,14.38,17,23.53,17.53,21.45-15.7,28.51-26.16S267.61,166,270,155.75s2.88-22-.78-31.13-22-20.4-37.4-19.09S197,115,193.07,121A10.51,10.51,0,0,0,193.07,132.47Z"/></clipPath><clipPath id="clip-path-5"><path class="cls-2" d="M263.42,94.29s17,5.49,18.31,12.29-7.32,30.6-7.06,33.48,2.88,5.23,0,9.41-8.11,10.46-10.2,7.06.79-8.37-2.61-10.46-8.11-5.49-5.5-9.94,1.31-11-4.18-11.77-10.2-4.44-7.33-.26,11.25,14.39,6.8,15.17-22-11-22-11,6,12,2.87,12.81-27.72-15.43-27.72-15.43-11.77,15.43-14.12,14.39-.79-9.68-.79-9.68-1.83,11.51-5.49,12-8.63-5.76-7.06-9.68,4.18-9.41,4.18-9.41-5.23-1.31-7.32-3.67-1.83-2.61,2.61-3.4,7.85-5.75,12-10.2,11-10.46,11-10.46-7.85,3.4-3.66-.52,26.41-12.82,38.44-12.82,16.48,6.28,16.48,6.28-2.09-7.85.26-6.8,5,7.32,5,7.32,5.5-1.57,8.37.27S268.39,93,266,93a13.66,13.66,0,0,0-3.92.52Z"/></clipPath><clipPath id="clip-path-6"><path class="cls-1" d="M263.42,162s6.28-14.64,11.77-14.64,5.23,12.29,1.83,18.83-10.72,9.15-12.81,5.23"/></clipPath></defs><g id="Background_Simple" data-name="Background Simple"><path class="cls-3" d="M31.39,299.23c-2.94-11-12.51-47.91-19-85.31C4.61,169.28-2.18,107.79,28.86,82s71.78,5,93.12-5,22.31-59.52,79.54-74.4S290.76,39.34,316,67.12,369.33,76,406.19,105.8c36.45,29.44,5.53,162.69-21.43,193.43Z"/><path class="cls-4" d="M31.39,299.23c-2.94-11-12.51-47.91-19-85.31C4.61,169.28-2.18,107.79,28.86,82s71.78,5,93.12-5,22.31-59.52,79.54-74.4S290.76,39.34,316,67.12,369.33,76,406.19,105.8c36.45,29.44,5.53,162.69-21.43,193.43Z"/></g><g id="Codes"><path class="cls-5" d="M159.84,95a.8.8,0,0,1,.8-.8h3.23a.8.8,0,0,1,0,1.6h-3.23A.8.8,0,0,1,159.84,95Zm.8,4.5h3.23a.8.8,0,1,0,0-1.6h-3.23a.8.8,0,1,0,0,1.6Zm0,3.7h3.23a.8.8,0,0,0,0-1.6h-3.23a.8.8,0,0,0,0,1.6Zm0,3.7h3.23a.8.8,0,0,0,0-1.6h-3.23a.8.8,0,1,0,0,1.6Zm0,3.69h3.23a.8.8,0,1,0,0-1.59h-3.23a.8.8,0,1,0,0,1.59Zm0,3.7h3.23a.8.8,0,1,0,0-1.59h-3.23a.8.8,0,1,0,0,1.59Zm0,3.7h3.23a.8.8,0,0,0,.8-.8.79.79,0,0,0-.8-.79h-3.23a.79.79,0,0,0-.8.79A.8.8,0,0,0,160.64,117.94Zm0,3.7h3.23a.8.8,0,0,0,0-1.6h-3.23a.8.8,0,1,0,0,1.6ZM148.53,95.75H157a.8.8,0,0,0,0-1.6h-8.5a.8.8,0,1,0,0,1.6Zm0,3.7H157a.8.8,0,0,0,0-1.6h-8.5a.8.8,0,1,0,0,1.6Zm0,3.7H157a.8.8,0,0,0,0-1.6h-8.5a.8.8,0,0,0,0,1.6Zm0,3.7H157a.8.8,0,0,0,0-1.6h-8.5a.8.8,0,1,0,0,1.6Zm0,3.69H157a.8.8,0,0,0,0-1.59h-8.5a.8.8,0,1,0,0,1.59Zm-10.17,3.7h8.49a.8.8,0,1,0,0-1.59h-8.49a.8.8,0,1,0,0,1.59Zm0,3.7h8.49a.8.8,0,0,0,.8-.8.79.79,0,0,0-.8-.79h-8.49a.79.79,0,0,0-.8.79A.8.8,0,0,0,138.36,117.94Zm0,3.7h8.49a.8.8,0,1,0,0-1.6h-8.49a.8.8,0,0,0,0,1.6Zm6.56-25.76A.93.93,0,1,0,144,95,.93.93,0,0,0,144.92,95.88Zm-2.78,0a.93.93,0,1,0,0-1.85.93.93,0,0,0,0,1.85Zm-2.77,0a.93.93,0,1,0,0-1.85.93.93,0,0,0,0,1.85Zm-2.77,0a.93.93,0,1,0-.93-.93A.93.93,0,0,0,136.6,95.88Zm-2.78,0a.93.93,0,1,0,0-1.85.93.93,0,0,0,0,1.85Zm-2.77,0a.93.93,0,1,0-.93-.93A.93.93,0,0,0,131.05,95.88Zm13.87,7.39a.93.93,0,0,0,0-1.85.93.93,0,1,0,0,1.85Zm-2.78,0a.93.93,0,1,0-.92-.92A.92.92,0,0,0,142.14,103.27Zm-2.77,0a.93.93,0,1,0-.92-.92A.93.93,0,0,0,139.37,103.27Zm-2.77,0a.93.93,0,0,0,0-1.85.93.93,0,1,0,0,1.85Zm-2.78,0a.93.93,0,1,0-.92-.92A.93.93,0,0,0,133.82,103.27Zm-2.77,0a.93.93,0,0,0,0-1.85.93.93,0,1,0,0,1.85Zm4.39,10.64a.93.93,0,1,0,0-1.85.93.93,0,0,0,0,1.85Zm-2.77,0a.93.93,0,1,0-.93-.93A.93.93,0,0,0,132.67,113.91Zm-2.78,0a.93.93,0,1,0,0-1.85.93.93,0,0,0,0,1.85Zm-2.77,0a.93.93,0,1,0-.92-.93A.93.93,0,0,0,127.12,113.91Zm-2.77,0a.93.93,0,1,0-.93-.93A.93.93,0,0,0,124.35,113.91Zm-2.78,0a.93.93,0,1,0,0-1.85.93.93,0,0,0,0,1.85Zm13.87,7.63a.93.93,0,1,0,0-1.85.93.93,0,0,0,0,1.85Zm-2.77,0a.93.93,0,1,0-.93-.93A.93.93,0,0,0,132.67,121.54Zm-2.78,0a.93.93,0,1,0,0-1.85.93.93,0,0,0,0,1.85Zm-2.77,0a.93.93,0,1,0-.92-.93A.93.93,0,0,0,127.12,121.54Zm-2.77,0a.93.93,0,1,0-.93-.93A.93.93,0,0,0,124.35,121.54Zm-2.78,0a.93.93,0,1,0,0-1.85.93.93,0,0,0,0,1.85Z"/><path class="cls-5" d="M159.84,124.55a.8.8,0,0,1,.8-.8h3.23a.8.8,0,0,1,0,1.6h-3.23A.8.8,0,0,1,159.84,124.55Zm.8,4.49h3.23a.79.79,0,0,0,.8-.79.8.8,0,0,0-.8-.8h-3.23a.8.8,0,0,0-.8.8A.79.79,0,0,0,160.64,129Zm0,3.7h3.23a.8.8,0,1,0,0-1.59h-3.23a.8.8,0,1,0,0,1.59Zm0,3.7h3.23a.8.8,0,0,0,0-1.6h-3.23a.8.8,0,0,0,0,1.6Zm0,3.7h3.23a.8.8,0,1,0,0-1.6h-3.23a.8.8,0,0,0,0,1.6Zm0,3.7h3.23a.8.8,0,0,0,0-1.6h-3.23a.8.8,0,0,0,0,1.6Zm0,3.7h3.23a.8.8,0,1,0,0-1.6h-3.23a.8.8,0,0,0,0,1.6Zm0,3.7h3.23a.8.8,0,1,0,0-1.6h-3.23a.8.8,0,0,0,0,1.6Zm-12.11-25.89H157a.8.8,0,0,0,0-1.6h-8.5a.8.8,0,0,0,0,1.6Zm0,3.69H157a.79.79,0,0,0,.79-.79.79.79,0,0,0-.79-.8h-8.5a.8.8,0,0,0-.8.8A.79.79,0,0,0,148.53,129Zm0,3.7H157a.8.8,0,0,0,0-1.59h-8.5a.8.8,0,1,0,0,1.59Zm0,3.7H157a.8.8,0,0,0,0-1.6h-8.5a.8.8,0,1,0,0,1.6Zm0,3.7H157a.8.8,0,0,0,0-1.6h-8.5a.8.8,0,1,0,0,1.6Zm-10.17,3.7h8.49a.8.8,0,0,0,0-1.6h-8.49a.8.8,0,0,0,0,1.6Zm0,3.7h8.49a.8.8,0,1,0,0-1.6h-8.49a.8.8,0,1,0,0,1.6Zm0,3.7h8.49a.8.8,0,0,0,0-1.6h-8.49a.8.8,0,0,0,0,1.6Zm6.56-25.77a.93.93,0,0,0,0-1.85.93.93,0,1,0,0,1.85Zm-2.78,0a.93.93,0,1,0-.92-.92A.92.92,0,0,0,142.14,125.47Zm-2.77,0a.93.93,0,1,0-.92-.92A.93.93,0,0,0,139.37,125.47Zm-2.77,0a.93.93,0,0,0,0-1.85.93.93,0,1,0,0,1.85Zm-2.78,0a.93.93,0,1,0-.92-.92A.93.93,0,0,0,133.82,125.47Zm-2.77,0a.93.93,0,0,0,0-1.85.93.93,0,1,0,0,1.85Zm13.87,7.4a.93.93,0,1,0-.93-.93A.92.92,0,0,0,144.92,132.87Zm-2.78,0a.93.93,0,1,0-.92-.93A.92.92,0,0,0,142.14,132.87Zm-2.77,0a.93.93,0,1,0,0-1.85.93.93,0,0,0,0,1.85Zm-2.77,0a.93.93,0,1,0-.93-.93A.92.92,0,0,0,136.6,132.87Zm-2.78,0a.93.93,0,1,0,0-1.85.93.93,0,0,0,0,1.85Zm-2.77,0a.93.93,0,1,0-.93-.93A.92.92,0,0,0,131.05,132.87Zm4.39,10.63a.93.93,0,1,0-.92-.92A.93.93,0,0,0,135.44,143.5Zm-2.77,0a.93.93,0,0,0,0-1.85.93.93,0,1,0,0,1.85Zm-2.78,0a.93.93,0,1,0-.92-.92A.93.93,0,0,0,129.89,143.5Zm-2.77,0a.93.93,0,1,0-.92-.92A.92.92,0,0,0,127.12,143.5Zm-2.77,0a.93.93,0,0,0,0-1.85.93.93,0,1,0,0,1.85Zm-2.78,0a.93.93,0,1,0-.92-.92A.93.93,0,0,0,121.57,143.5Zm13.87,7.63a.93.93,0,1,0-.92-.92A.93.93,0,0,0,135.44,151.13Zm-2.77,0a.93.93,0,0,0,0-1.85.93.93,0,1,0,0,1.85Zm-2.78,0a.93.93,0,1,0-.92-.92A.93.93,0,0,0,129.89,151.13Zm-2.77,0a.93.93,0,1,0-.92-.92A.92.92,0,0,0,127.12,151.13Zm-2.77,0a.93.93,0,0,0,0-1.85.93.93,0,1,0,0,1.85Zm-2.78,0a.93.93,0,1,0-.92-.92A.93.93,0,0,0,121.57,151.13Z"/><path class="cls-5" d="M159.84,154.86a.8.8,0,0,1,.8-.8h3.23a.8.8,0,1,1,0,1.6h-3.23A.8.8,0,0,1,159.84,154.86Zm.8,4.49h3.23a.79.79,0,0,0,.8-.79.8.8,0,0,0-.8-.8h-3.23a.8.8,0,0,0-.8.8A.79.79,0,0,0,160.64,159.35Zm0,3.7h3.23a.8.8,0,1,0,0-1.59h-3.23a.8.8,0,1,0,0,1.59Zm0,3.7h3.23a.8.8,0,0,0,0-1.6h-3.23a.8.8,0,0,0,0,1.6Zm0,3.7h3.23a.8.8,0,1,0,0-1.6h-3.23a.8.8,0,0,0,0,1.6Zm0,3.7h3.23a.8.8,0,0,0,0-1.6h-3.23a.8.8,0,0,0,0,1.6Zm0,3.7h3.23a.8.8,0,1,0,0-1.6h-3.23a.8.8,0,0,0,0,1.6Zm0,3.7h3.23a.8.8,0,1,0,0-1.6h-3.23a.8.8,0,0,0,0,1.6Zm-12.11-25.89H157a.8.8,0,0,0,0-1.6h-8.5a.8.8,0,1,0,0,1.6Zm0,3.69H157a.79.79,0,0,0,.79-.79.79.79,0,0,0-.79-.8h-8.5a.8.8,0,0,0-.8.8A.79.79,0,0,0,148.53,159.35Zm0,3.7H157a.8.8,0,0,0,0-1.59h-8.5a.8.8,0,1,0,0,1.59Zm0,3.7H157a.8.8,0,0,0,0-1.6h-8.5a.8.8,0,0,0,0,1.6Zm0,3.7H157a.8.8,0,0,0,0-1.6h-8.5a.8.8,0,1,0,0,1.6Zm-10.17,3.7h8.49a.8.8,0,0,0,0-1.6h-8.49a.8.8,0,0,0,0,1.6Zm0,3.7h8.49a.8.8,0,0,0,0-1.6h-8.49a.8.8,0,1,0,0,1.6Zm0,3.7h8.49a.8.8,0,1,0,0-1.6h-8.49a.8.8,0,0,0,0,1.6Zm6.56-25.77a.93.93,0,0,0,0-1.85.93.93,0,1,0,0,1.85Zm-2.78,0a.93.93,0,1,0-.92-.92A.92.92,0,0,0,142.14,155.78Zm-2.77,0a.93.93,0,1,0-.92-.92A.93.93,0,0,0,139.37,155.78Zm-2.77,0a.93.93,0,0,0,0-1.85.93.93,0,1,0,0,1.85Zm-2.78,0a.93.93,0,1,0-.92-.92A.93.93,0,0,0,133.82,155.78Zm-2.77,0a.93.93,0,0,0,0-1.85.93.93,0,1,0,0,1.85Zm13.87,7.4a.93.93,0,1,0-.93-.93A.92.92,0,0,0,144.92,163.18Zm-2.78,0a.93.93,0,1,0-.92-.93A.92.92,0,0,0,142.14,163.18Zm-2.77,0a.93.93,0,1,0,0-1.85.93.93,0,0,0,0,1.85Zm-2.77,0a.93.93,0,1,0-.93-.93A.92.92,0,0,0,136.6,163.18Zm-2.78,0a.93.93,0,1,0,0-1.85.93.93,0,0,0,0,1.85Zm-2.77,0a.93.93,0,1,0-.93-.93A.92.92,0,0,0,131.05,163.18Zm4.39,10.63a.93.93,0,1,0-.92-.92A.93.93,0,0,0,135.44,173.81Zm-2.77,0a.93.93,0,0,0,0-1.85.93.93,0,1,0,0,1.85Zm-2.78,0a.93.93,0,1,0-.92-.92A.93.93,0,0,0,129.89,173.81Zm-2.77,0a.93.93,0,1,0-.92-.92A.92.92,0,0,0,127.12,173.81Zm-2.77,0a.93.93,0,0,0,0-1.85.93.93,0,1,0,0,1.85Zm-2.78,0a.93.93,0,1,0-.92-.92A.93.93,0,0,0,121.57,173.81Zm13.87,7.63a.93.93,0,1,0-.92-.92A.93.93,0,0,0,135.44,181.44Zm-2.77,0a.93.93,0,0,0,0-1.85.93.93,0,1,0,0,1.85Zm-2.78,0a.93.93,0,1,0-.92-.92A.93.93,0,0,0,129.89,181.44Zm-2.77,0a.93.93,0,1,0-.92-.92A.92.92,0,0,0,127.12,181.44Zm-2.77,0a.93.93,0,0,0,0-1.85.93.93,0,1,0,0,1.85Zm-2.78,0a.93.93,0,1,0-.92-.92A.93.93,0,0,0,121.57,181.44Z"/><path class="cls-5" d="M110.15,95a.8.8,0,0,1,.8-.8h3.24a.8.8,0,1,1,0,1.6H111A.8.8,0,0,1,110.15,95Zm.8,4.5h3.24a.8.8,0,1,0,0-1.6H111a.8.8,0,0,0,0,1.6Zm0,3.7h3.24a.8.8,0,0,0,0-1.6H111a.8.8,0,0,0,0,1.6Zm0,3.7h3.24a.8.8,0,1,0,0-1.6H111a.8.8,0,0,0,0,1.6Zm0,3.69h3.24a.8.8,0,1,0,0-1.59H111a.8.8,0,1,0,0,1.59Zm0,3.7h3.24a.8.8,0,1,0,0-1.59H111a.8.8,0,1,0,0,1.59Zm0,3.7h3.24a.8.8,0,0,0,.8-.8.79.79,0,0,0-.8-.79H111a.79.79,0,0,0-.8.79A.8.8,0,0,0,111,117.94Zm0,3.7h3.24a.8.8,0,0,0,0-1.6H111a.8.8,0,0,0,0,1.6ZM98.85,95.75h8.49a.8.8,0,1,0,0-1.6H98.85a.8.8,0,1,0,0,1.6Zm0,3.7h8.49a.8.8,0,1,0,0-1.6H98.85a.8.8,0,0,0,0,1.6Zm0,3.7h8.49a.8.8,0,0,0,0-1.6H98.85a.8.8,0,0,0,0,1.6Zm0,3.7h8.49a.8.8,0,1,0,0-1.6H98.85a.8.8,0,1,0,0,1.6Zm0,3.69h8.49a.8.8,0,1,0,0-1.59H98.85a.8.8,0,1,0,0,1.59Zm-10.17,3.7h8.49a.8.8,0,1,0,0-1.59H88.68a.8.8,0,1,0,0,1.59Zm0,3.7h8.49a.8.8,0,0,0,.8-.8.79.79,0,0,0-.8-.79H88.68a.79.79,0,0,0-.8.79A.8.8,0,0,0,88.68,117.94Zm0,3.7h8.49a.8.8,0,0,0,0-1.6H88.68a.8.8,0,1,0,0,1.6Zm6.55-25.76a.93.93,0,1,0,0-1.85.93.93,0,0,0,0,1.85Zm-2.77,0a.93.93,0,1,0-.92-.93A.93.93,0,0,0,92.46,95.88Zm-2.77,0a.93.93,0,1,0-.93-.93A.93.93,0,0,0,89.69,95.88Zm-2.78,0a.93.93,0,1,0,0-1.85.93.93,0,0,0,0,1.85Zm-2.77,0a.93.93,0,1,0-.93-.93A.93.93,0,0,0,84.14,95.88Zm-2.78,0a.93.93,0,1,0,0-1.85.93.93,0,0,0,0,1.85Zm13.87,7.39a.93.93,0,1,0-.92-.92A.93.93,0,0,0,95.23,103.27Zm-2.77,0a.93.93,0,1,0-.92-.92A.92.92,0,0,0,92.46,103.27Zm-2.77,0a.93.93,0,0,0,0-1.85.93.93,0,1,0,0,1.85Zm-2.78,0a.93.93,0,1,0-.92-.92A.93.93,0,0,0,86.91,103.27Zm-2.77,0a.93.93,0,0,0,0-1.85.93.93,0,1,0,0,1.85Zm-2.78,0a.93.93,0,1,0-.92-.92A.92.92,0,0,0,81.36,103.27Zm4.4,10.64a.93.93,0,1,0-.93-.93A.93.93,0,0,0,85.76,113.91Zm-2.78,0a.93.93,0,1,0,0-1.85.93.93,0,0,0,0,1.85Zm-2.77,0a.93.93,0,1,0-.93-.93A.93.93,0,0,0,80.21,113.91Zm-2.77,0a.93.93,0,1,0-.93-.93A.93.93,0,0,0,77.44,113.91Zm-2.78,0a.93.93,0,1,0,0-1.85.93.93,0,0,0,0,1.85Zm-2.77,0A.93.93,0,1,0,71,113,.93.93,0,0,0,71.89,113.91Zm13.87,7.63a.93.93,0,1,0-.93-.93A.93.93,0,0,0,85.76,121.54Zm-2.78,0a.93.93,0,1,0,0-1.85.93.93,0,0,0,0,1.85Zm-2.77,0a.93.93,0,1,0-.93-.93A.93.93,0,0,0,80.21,121.54Zm-2.77,0a.93.93,0,1,0-.93-.93A.93.93,0,0,0,77.44,121.54Zm-2.78,0a.93.93,0,1,0,0-1.85.93.93,0,0,0,0,1.85Zm-2.77,0a.93.93,0,1,0-.93-.93A.93.93,0,0,0,71.89,121.54Z"/><path class="cls-5" d="M110.15,125.26a.8.8,0,0,1,.8-.8h3.24a.8.8,0,1,1,0,1.6H111A.8.8,0,0,1,110.15,125.26Zm.8,4.5h3.24a.8.8,0,1,0,0-1.6H111a.8.8,0,1,0,0,1.6Zm0,3.7h3.24a.8.8,0,0,0,0-1.6H111a.8.8,0,0,0,0,1.6Zm0,3.7h3.24a.8.8,0,1,0,0-1.6H111a.8.8,0,1,0,0,1.6Zm0,3.69h3.24a.8.8,0,1,0,0-1.59H111a.8.8,0,1,0,0,1.59Zm0,3.7h3.24a.8.8,0,1,0,0-1.59H111a.8.8,0,1,0,0,1.59Zm0,3.7h3.24a.8.8,0,0,0,.8-.8.79.79,0,0,0-.8-.79H111a.79.79,0,0,0-.8.79A.8.8,0,0,0,111,148.25Zm0,3.7h3.24a.8.8,0,0,0,0-1.6H111a.8.8,0,0,0,0,1.6Zm-12.1-25.89h8.49a.8.8,0,1,0,0-1.6H98.85a.8.8,0,0,0,0,1.6Zm0,3.7h8.49a.8.8,0,1,0,0-1.6H98.85a.8.8,0,1,0,0,1.6Zm0,3.7h8.49a.8.8,0,0,0,0-1.6H98.85a.8.8,0,0,0,0,1.6Zm0,3.7h8.49a.8.8,0,1,0,0-1.6H98.85a.8.8,0,1,0,0,1.6Zm0,3.69h8.49a.8.8,0,1,0,0-1.59H98.85a.8.8,0,1,0,0,1.59Zm-10.17,3.7h8.49a.8.8,0,1,0,0-1.59H88.68a.8.8,0,1,0,0,1.59Zm0,3.7h8.49a.8.8,0,0,0,.8-.8.79.79,0,0,0-.8-.79H88.68a.79.79,0,0,0-.8.79A.8.8,0,0,0,88.68,148.25Zm0,3.7h8.49a.8.8,0,1,0,0-1.6H88.68a.8.8,0,0,0,0,1.6Zm6.55-25.76a.93.93,0,1,0,0-1.85.93.93,0,0,0,0,1.85Zm-2.77,0a.93.93,0,1,0-.92-.93A.93.93,0,0,0,92.46,126.19Zm-2.77,0a.93.93,0,1,0-.93-.93A.93.93,0,0,0,89.69,126.19Zm-2.78,0a.93.93,0,1,0,0-1.85.93.93,0,0,0,0,1.85Zm-2.77,0a.93.93,0,1,0-.93-.93A.93.93,0,0,0,84.14,126.19Zm-2.78,0a.93.93,0,1,0,0-1.85.93.93,0,0,0,0,1.85Zm13.87,7.39a.93.93,0,1,0-.92-.92A.93.93,0,0,0,95.23,133.58Zm-2.77,0a.93.93,0,1,0-.92-.92A.92.92,0,0,0,92.46,133.58Zm-2.77,0a.93.93,0,0,0,0-1.85.93.93,0,1,0,0,1.85Zm-2.78,0a.93.93,0,1,0-.92-.92A.93.93,0,0,0,86.91,133.58Zm-2.77,0a.93.93,0,0,0,0-1.85.93.93,0,1,0,0,1.85Zm-2.78,0a.93.93,0,1,0-.92-.92A.92.92,0,0,0,81.36,133.58Zm4.4,10.64a.93.93,0,1,0-.93-.93A.93.93,0,0,0,85.76,144.22Zm-2.78,0a.93.93,0,1,0,0-1.85.93.93,0,0,0,0,1.85Zm-2.77,0a.93.93,0,1,0-.93-.93A.93.93,0,0,0,80.21,144.22Zm-2.77,0a.93.93,0,1,0-.93-.93A.93.93,0,0,0,77.44,144.22Zm-2.78,0a.93.93,0,1,0,0-1.85.93.93,0,0,0,0,1.85Zm-2.77,0a.93.93,0,1,0-.93-.93A.93.93,0,0,0,71.89,144.22Zm13.87,7.63a.93.93,0,1,0-.93-.93A.93.93,0,0,0,85.76,151.85Zm-2.78,0A.93.93,0,1,0,83,150a.93.93,0,0,0,0,1.85Zm-2.77,0a.93.93,0,1,0-.93-.93A.93.93,0,0,0,80.21,151.85Zm-2.77,0a.93.93,0,1,0-.93-.93A.93.93,0,0,0,77.44,151.85Zm-2.78,0a.93.93,0,1,0,0-1.85.93.93,0,0,0,0,1.85Zm-2.77,0a.93.93,0,1,0-.93-.93A.93.93,0,0,0,71.89,151.85Z"/><path class="cls-5" d="M268.78,27.72a.8.8,0,0,1,.8-.8h3.23a.8.8,0,1,1,0,1.6h-3.23A.8.8,0,0,1,268.78,27.72Zm.8,4.5h3.23a.8.8,0,1,0,0-1.6h-3.23a.8.8,0,0,0,0,1.6Zm0,3.7h3.23a.8.8,0,1,0,0-1.6h-3.23a.8.8,0,1,0,0,1.6Zm0,3.69h3.23a.79.79,0,0,0,.8-.79.8.8,0,0,0-.8-.8h-3.23a.8.8,0,0,0-.8.8A.79.79,0,0,0,269.58,39.61Zm0,3.7h3.23a.8.8,0,1,0,0-1.59h-3.23a.8.8,0,1,0,0,1.59Zm0,3.7h3.23a.8.8,0,1,0,0-1.59h-3.23a.8.8,0,1,0,0,1.59Zm0,3.7h3.23a.8.8,0,1,0,0-1.6h-3.23a.8.8,0,1,0,0,1.6Zm0,3.7h3.23a.8.8,0,1,0,0-1.6h-3.23a.8.8,0,0,0,0,1.6ZM257.47,28.52H266a.8.8,0,1,0,0-1.6h-8.49a.8.8,0,0,0,0,1.6Zm0,3.7H266a.8.8,0,1,0,0-1.6h-8.49a.8.8,0,0,0,0,1.6Zm0,3.7H266a.8.8,0,1,0,0-1.6h-8.49a.8.8,0,1,0,0,1.6Zm0,3.69H266a.79.79,0,0,0,.8-.79.8.8,0,0,0-.8-.8h-8.49a.8.8,0,0,0-.8.8A.79.79,0,0,0,257.47,39.61Zm0,3.7H266a.8.8,0,1,0,0-1.59h-8.49a.8.8,0,1,0,0,1.59ZM247.3,47h8.49a.8.8,0,1,0,0-1.59H247.3a.8.8,0,1,0,0,1.59Zm0,3.7h8.49a.8.8,0,0,0,0-1.6H247.3a.8.8,0,1,0,0,1.6Zm0,3.7h8.49a.8.8,0,0,0,0-1.6H247.3a.8.8,0,0,0,0,1.6Zm6.56-25.76a.93.93,0,1,0-.93-.93A.93.93,0,0,0,253.86,28.65Zm-2.78,0a.93.93,0,1,0,0-1.85.93.93,0,0,0,0,1.85Zm-2.77,0a.93.93,0,1,0-.92-.93A.93.93,0,0,0,248.31,28.65Zm-2.77,0a.93.93,0,1,0-.93-.93A.93.93,0,0,0,245.54,28.65Zm-2.78,0a.93.93,0,1,0,0-1.85.93.93,0,0,0,0,1.85Zm-2.77,0a.93.93,0,1,0-.93-.93A.93.93,0,0,0,240,28.65ZM253.86,36a.93.93,0,0,0,0-1.85.93.93,0,1,0,0,1.85Zm-2.78,0a.93.93,0,1,0-.92-.92A.93.93,0,0,0,251.08,36Zm-2.77,0a.93.93,0,1,0-.92-.92A.92.92,0,0,0,248.31,36Zm-2.77,0a.93.93,0,0,0,0-1.85.93.93,0,1,0,0,1.85Zm-2.78,0a.93.93,0,1,0-.92-.92A.93.93,0,0,0,242.76,36ZM240,36a.93.93,0,0,0,0-1.85A.93.93,0,1,0,240,36Zm4.39,10.64a.93.93,0,1,0,0-1.85.93.93,0,0,0,0,1.85Zm-2.77,0a.93.93,0,1,0-.93-.93A.93.93,0,0,0,241.61,46.68Zm-2.78,0a.93.93,0,1,0,0-1.85.93.93,0,0,0,0,1.85Zm-2.77,0a.93.93,0,1,0-.93-.93A.93.93,0,0,0,236.06,46.68Zm-2.77,0a.93.93,0,1,0-.93-.93A.93.93,0,0,0,233.29,46.68Zm-2.78,0a.93.93,0,1,0,0-1.85.93.93,0,0,0,0,1.85Zm13.87,7.62a.93.93,0,1,0-.92-.92A.93.93,0,0,0,244.38,54.3Zm-2.77,0a.93.93,0,0,0,0-1.85.93.93,0,1,0,0,1.85Zm-2.78,0a.93.93,0,1,0-.92-.92A.93.93,0,0,0,238.83,54.3Zm-2.77,0a.93.93,0,0,0,0-1.85.93.93,0,1,0,0,1.85Zm-2.77,0a.93.93,0,0,0,0-1.85.93.93,0,1,0,0,1.85Zm-2.78,0a.93.93,0,1,0-.92-.92A.93.93,0,0,0,230.51,54.3Z"/><path class="cls-5" d="M268.78,57.32a.8.8,0,0,1,.8-.8h3.23a.8.8,0,1,1,0,1.6h-3.23A.8.8,0,0,1,268.78,57.32Zm.8,4.49h3.23a.8.8,0,1,0,0-1.59h-3.23a.8.8,0,1,0,0,1.59Zm0,3.7h3.23a.8.8,0,0,0,.8-.8.79.79,0,0,0-.8-.79h-3.23a.79.79,0,0,0-.8.79A.8.8,0,0,0,269.58,65.51Zm0,3.7h3.23a.8.8,0,1,0,0-1.6h-3.23a.8.8,0,0,0,0,1.6Zm0,3.7h3.23a.8.8,0,1,0,0-1.6h-3.23a.8.8,0,0,0,0,1.6Zm0,3.7h3.23a.8.8,0,1,0,0-1.6h-3.23a.8.8,0,0,0,0,1.6Zm0,3.7h3.23a.8.8,0,0,0,0-1.6h-3.23a.8.8,0,0,0,0,1.6Zm0,3.69h3.23a.79.79,0,0,0,.8-.79.8.8,0,0,0-.8-.8h-3.23a.8.8,0,0,0-.8.8A.79.79,0,0,0,269.58,84ZM257.47,58.12H266a.8.8,0,1,0,0-1.6h-8.49a.8.8,0,0,0,0,1.6Zm0,3.69H266a.8.8,0,1,0,0-1.59h-8.49a.8.8,0,1,0,0,1.59Zm0,3.7H266a.8.8,0,0,0,.8-.8.79.79,0,0,0-.8-.79h-8.49a.79.79,0,0,0-.8.79A.8.8,0,0,0,257.47,65.51Zm0,3.7H266a.8.8,0,1,0,0-1.6h-8.49a.8.8,0,0,0,0,1.6Zm0,3.7H266a.8.8,0,1,0,0-1.6h-8.49a.8.8,0,0,0,0,1.6Zm-10.17,3.7h8.49a.8.8,0,0,0,0-1.6H247.3a.8.8,0,0,0,0,1.6Zm0,3.7h8.49a.8.8,0,1,0,0-1.6H247.3a.8.8,0,0,0,0,1.6Zm0,3.69h8.49a.79.79,0,0,0,.8-.79.8.8,0,0,0-.8-.8H247.3a.8.8,0,0,0-.8.8A.79.79,0,0,0,247.3,84Zm6.56-25.76a.93.93,0,0,0,0-1.85.93.93,0,1,0,0,1.85Zm-2.78,0a.93.93,0,1,0-.92-.92A.93.93,0,0,0,251.08,58.24Zm-2.77,0a.93.93,0,1,0-.92-.92A.92.92,0,0,0,248.31,58.24Zm-2.77,0a.93.93,0,0,0,0-1.85.93.93,0,1,0,0,1.85Zm-2.78,0a.93.93,0,1,0-.92-.92A.93.93,0,0,0,242.76,58.24Zm-2.77,0a.93.93,0,0,0,0-1.85.93.93,0,1,0,0,1.85Zm13.87,7.4a.93.93,0,1,0-.93-.93A.93.93,0,0,0,253.86,65.64Zm-2.78,0a.93.93,0,1,0,0-1.85.93.93,0,0,0,0,1.85Zm-2.77,0a.93.93,0,1,0-.92-.93A.93.93,0,0,0,248.31,65.64Zm-2.77,0a.93.93,0,1,0-.93-.93A.93.93,0,0,0,245.54,65.64Zm-2.78,0a.93.93,0,1,0,0-1.85.93.93,0,0,0,0,1.85Zm-2.77,0a.93.93,0,1,0-.93-.93A.93.93,0,0,0,240,65.64Zm4.39,10.63a.93.93,0,1,0-.92-.92A.93.93,0,0,0,244.38,76.27Zm-2.77,0a.93.93,0,0,0,0-1.85.93.93,0,1,0,0,1.85Zm-2.78,0a.93.93,0,1,0-.92-.92A.93.93,0,0,0,238.83,76.27Zm-2.77,0a.93.93,0,0,0,0-1.85.93.93,0,1,0,0,1.85Zm-2.77,0a.93.93,0,0,0,0-1.85.93.93,0,1,0,0,1.85Zm-2.78,0a.93.93,0,1,0-.92-.92A.93.93,0,0,0,230.51,76.27Zm13.87,7.63a.93.93,0,1,0,0-1.85.93.93,0,0,0,0,1.85Zm-2.77,0a.93.93,0,1,0-.93-.93A.92.92,0,0,0,241.61,83.9Zm-2.78,0a.93.93,0,1,0,0-1.85.93.93,0,0,0,0,1.85Zm-2.77,0a.93.93,0,1,0-.93-.93A.92.92,0,0,0,236.06,83.9Zm-2.77,0a.93.93,0,1,0-.93-.93A.92.92,0,0,0,233.29,83.9Zm-2.78,0a.93.93,0,1,0,0-1.85.93.93,0,0,0,0,1.85Z"/><path class="cls-5" d="M268.78,87.63a.8.8,0,0,1,.8-.8h3.23a.8.8,0,0,1,.8.8.79.79,0,0,1-.8.79h-3.23A.79.79,0,0,1,268.78,87.63Zm.8,4.49h3.23a.8.8,0,1,0,0-1.59h-3.23a.8.8,0,1,0,0,1.59Zm0,3.7h3.23a.8.8,0,0,0,.8-.8.79.79,0,0,0-.8-.79h-3.23a.79.79,0,0,0-.8.79A.8.8,0,0,0,269.58,95.82Zm0,3.7h3.23a.8.8,0,1,0,0-1.6h-3.23a.8.8,0,0,0,0,1.6Zm0,3.7h3.23a.8.8,0,1,0,0-1.6h-3.23a.8.8,0,0,0,0,1.6Zm0,3.7h3.23a.8.8,0,0,0,0-1.6h-3.23a.8.8,0,0,0,0,1.6Zm0,3.7h3.23a.8.8,0,1,0,0-1.6h-3.23a.8.8,0,1,0,0,1.6Zm0,3.69h3.23a.8.8,0,1,0,0-1.59h-3.23a.8.8,0,1,0,0,1.59ZM257.47,88.42H266a.79.79,0,0,0,.8-.79.8.8,0,0,0-.8-.8h-8.49a.8.8,0,0,0-.8.8A.79.79,0,0,0,257.47,88.42Zm0,3.7H266a.8.8,0,1,0,0-1.59h-8.49a.8.8,0,1,0,0,1.59Zm0,3.7H266a.8.8,0,0,0,.8-.8.79.79,0,0,0-.8-.79h-8.49a.79.79,0,0,0-.8.79A.8.8,0,0,0,257.47,95.82Zm0,3.7H266a.8.8,0,1,0,0-1.6h-8.49a.8.8,0,0,0,0,1.6Zm0,3.7H266a.8.8,0,1,0,0-1.6h-8.49a.8.8,0,0,0,0,1.6Zm-10.17,3.7h8.49a.8.8,0,1,0,0-1.6H247.3a.8.8,0,0,0,0,1.6Zm0,3.7h8.49a.8.8,0,0,0,0-1.6H247.3a.8.8,0,1,0,0,1.6Zm0,3.69h8.49a.8.8,0,1,0,0-1.59H247.3a.8.8,0,1,0,0,1.59Zm6.56-25.76a.93.93,0,0,0,0-1.85.93.93,0,1,0,0,1.85Zm-2.78,0a.93.93,0,1,0-.92-.92A.93.93,0,0,0,251.08,88.55Zm-2.77,0a.93.93,0,1,0-.92-.92A.92.92,0,0,0,248.31,88.55Zm-2.77,0a.93.93,0,0,0,0-1.85.93.93,0,1,0,0,1.85Zm-2.78,0a.93.93,0,1,0-.92-.92A.93.93,0,0,0,242.76,88.55Zm-2.77,0a.93.93,0,0,0,0-1.85.93.93,0,1,0,0,1.85ZM253.86,96a.93.93,0,1,0-.93-.93A.93.93,0,0,0,253.86,96Zm-2.78,0a.93.93,0,1,0,0-1.85.93.93,0,0,0,0,1.85Zm-2.77,0a.93.93,0,1,0-.92-.93A.93.93,0,0,0,248.31,96Zm-2.77,0a.93.93,0,1,0-.93-.93A.93.93,0,0,0,245.54,96Zm-2.78,0a.93.93,0,1,0,0-1.85.93.93,0,0,0,0,1.85ZM240,96a.93.93,0,1,0-.93-.93A.93.93,0,0,0,240,96Zm4.39,10.63a.93.93,0,1,0-.92-.92A.93.93,0,0,0,244.38,106.58Zm-2.77,0a.93.93,0,0,0,0-1.85.93.93,0,1,0,0,1.85Zm-2.78,0a.93.93,0,1,0-.92-.92A.93.93,0,0,0,238.83,106.58Zm-2.77,0a.93.93,0,0,0,0-1.85.93.93,0,1,0,0,1.85Zm-2.77,0a.93.93,0,0,0,0-1.85.93.93,0,1,0,0,1.85Zm-2.78,0a.93.93,0,1,0-.92-.92A.93.93,0,0,0,230.51,106.58Zm13.87,7.63a.93.93,0,1,0,0-1.85.93.93,0,0,0,0,1.85Zm-2.77,0a.93.93,0,1,0-.93-.93A.92.92,0,0,0,241.61,114.21Zm-2.78,0a.93.93,0,1,0,0-1.85.93.93,0,0,0,0,1.85Zm-2.77,0a.93.93,0,1,0-.93-.93A.92.92,0,0,0,236.06,114.21Zm-2.77,0a.93.93,0,1,0-.93-.93A.92.92,0,0,0,233.29,114.21Zm-2.78,0a.93.93,0,1,0,0-1.85.93.93,0,0,0,0,1.85Z"/><path class="cls-5" d="M219.09,27.72a.8.8,0,0,1,.8-.8h3.24a.8.8,0,1,1,0,1.6h-3.24A.8.8,0,0,1,219.09,27.72Zm.8,4.5h3.24a.8.8,0,1,0,0-1.6h-3.24a.8.8,0,0,0,0,1.6Zm0,3.7h3.24a.8.8,0,1,0,0-1.6h-3.24a.8.8,0,0,0,0,1.6Zm0,3.69h3.24a.79.79,0,0,0,.8-.79.8.8,0,0,0-.8-.8h-3.24a.8.8,0,0,0-.8.8A.79.79,0,0,0,219.89,39.61Zm0,3.7h3.24a.8.8,0,1,0,0-1.59h-3.24a.8.8,0,1,0,0,1.59Zm0,3.7h3.24a.8.8,0,1,0,0-1.59h-3.24a.8.8,0,1,0,0,1.59Zm0,3.7h3.24a.8.8,0,1,0,0-1.6h-3.24a.8.8,0,1,0,0,1.6Zm0,3.7h3.24a.8.8,0,1,0,0-1.6h-3.24a.8.8,0,1,0,0,1.6Zm-12.1-25.89h8.49a.8.8,0,1,0,0-1.6h-8.49a.8.8,0,0,0,0,1.6Zm0,3.7h8.49a.8.8,0,1,0,0-1.6h-8.49a.8.8,0,0,0,0,1.6Zm0,3.7h8.49a.8.8,0,0,0,0-1.6h-8.49a.8.8,0,0,0,0,1.6Zm0,3.69h8.49a.79.79,0,0,0,.8-.79.8.8,0,0,0-.8-.8h-8.49a.8.8,0,0,0-.8.8A.79.79,0,0,0,207.79,39.61Zm0,3.7h8.49a.8.8,0,1,0,0-1.59h-8.49a.8.8,0,1,0,0,1.59ZM197.61,47h8.5a.8.8,0,1,0,0-1.59h-8.5a.8.8,0,0,0,0,1.59Zm0,3.7h8.5a.8.8,0,1,0,0-1.6h-8.5a.8.8,0,0,0,0,1.6Zm0,3.7h8.5a.8.8,0,0,0,0-1.6h-8.5a.8.8,0,0,0,0,1.6Zm6.56-25.76a.93.93,0,1,0,0-1.85.93.93,0,0,0,0,1.85Zm-2.77,0a.93.93,0,1,0-.93-.93A.93.93,0,0,0,201.4,28.65Zm-2.77,0a.93.93,0,1,0-.93-.93A.93.93,0,0,0,198.63,28.65Zm-2.78,0a.93.93,0,1,0,0-1.85.93.93,0,0,0,0,1.85Zm-2.77,0a.93.93,0,1,0-.93-.93A.93.93,0,0,0,193.08,28.65Zm-2.78,0a.93.93,0,1,0,0-1.85.93.93,0,0,0,0,1.85ZM204.17,36a.93.93,0,1,0-.92-.92A.93.93,0,0,0,204.17,36Zm-2.77,0a.93.93,0,0,0,0-1.85.93.93,0,1,0,0,1.85Zm-2.77,0a.93.93,0,0,0,0-1.85.93.93,0,1,0,0,1.85Zm-2.78,0a.93.93,0,1,0-.92-.92A.93.93,0,0,0,195.85,36Zm-2.77,0a.93.93,0,0,0,0-1.85.93.93,0,1,0,0,1.85Zm-2.78,0a.93.93,0,1,0-.92-.92A.93.93,0,0,0,190.3,36Zm4.4,10.64a.93.93,0,1,0-.93-.93A.93.93,0,0,0,194.7,46.68Zm-2.78,0a.93.93,0,1,0,0-1.85.93.93,0,0,0,0,1.85Zm-2.77,0a.93.93,0,1,0-.93-.93A.93.93,0,0,0,189.15,46.68Zm-2.78,0a.93.93,0,1,0,0-1.85.93.93,0,0,0,0,1.85Zm-2.77,0a.93.93,0,1,0,0-1.85.93.93,0,0,0,0,1.85Zm-2.77,0a.93.93,0,1,0-.93-.93A.93.93,0,0,0,180.83,46.68ZM194.7,54.3a.93.93,0,0,0,0-1.85.93.93,0,1,0,0,1.85Zm-2.78,0a.93.93,0,1,0-.92-.92A.93.93,0,0,0,191.92,54.3Zm-2.77,0a.93.93,0,0,0,0-1.85.93.93,0,1,0,0,1.85Zm-2.78,0a.93.93,0,1,0-.92-.92A.92.92,0,0,0,186.37,54.3Zm-2.77,0a.93.93,0,1,0-.92-.92A.93.93,0,0,0,183.6,54.3Zm-2.77,0a.93.93,0,0,0,0-1.85.93.93,0,1,0,0,1.85Z"/><path class="cls-5" d="M219.09,58a.8.8,0,0,1,.8-.8h3.24a.8.8,0,0,1,0,1.6h-3.24A.8.8,0,0,1,219.09,58Zm.8,4.5h3.24a.8.8,0,1,0,0-1.6h-3.24a.8.8,0,1,0,0,1.6Zm0,3.7h3.24a.8.8,0,0,0,0-1.6h-3.24a.8.8,0,1,0,0,1.6Zm0,3.69h3.24a.79.79,0,0,0,.8-.79.8.8,0,0,0-.8-.8h-3.24a.8.8,0,0,0-.8.8A.79.79,0,0,0,219.89,69.92Zm0,3.7h3.24a.8.8,0,1,0,0-1.59h-3.24a.8.8,0,1,0,0,1.59Zm0,3.7h3.24a.8.8,0,1,0,0-1.59h-3.24a.8.8,0,1,0,0,1.59Zm0,3.7h3.24a.8.8,0,1,0,0-1.6h-3.24a.8.8,0,1,0,0,1.6Zm0,3.7h3.24a.8.8,0,1,0,0-1.6h-3.24a.8.8,0,1,0,0,1.6Zm-12.1-25.89h8.49a.8.8,0,0,0,0-1.6h-8.49a.8.8,0,1,0,0,1.6Zm0,3.7h8.49a.8.8,0,1,0,0-1.6h-8.49a.8.8,0,1,0,0,1.6Zm0,3.7h8.49a.8.8,0,0,0,0-1.6h-8.49a.8.8,0,1,0,0,1.6Zm0,3.69h8.49a.79.79,0,0,0,.8-.79.8.8,0,0,0-.8-.8h-8.49a.8.8,0,0,0-.8.8A.79.79,0,0,0,207.79,69.92Zm0,3.7h8.49a.8.8,0,1,0,0-1.59h-8.49a.8.8,0,1,0,0,1.59Zm-10.18,3.7h8.5a.8.8,0,1,0,0-1.59h-8.5a.8.8,0,0,0,0,1.59Zm0,3.7h8.5a.8.8,0,0,0,0-1.6h-8.5a.8.8,0,0,0,0,1.6Zm0,3.7h8.5a.8.8,0,0,0,0-1.6h-8.5a.8.8,0,0,0,0,1.6ZM204.17,59a.93.93,0,1,0,0-1.85.93.93,0,0,0,0,1.85Zm-2.77,0a.93.93,0,1,0-.93-.93A.93.93,0,0,0,201.4,59Zm-2.77,0a.93.93,0,1,0-.93-.93A.93.93,0,0,0,198.63,59Zm-2.78,0a.93.93,0,1,0,0-1.85.93.93,0,0,0,0,1.85Zm-2.77,0a.93.93,0,1,0-.93-.93A.93.93,0,0,0,193.08,59Zm-2.78,0a.93.93,0,1,0,0-1.85.93.93,0,0,0,0,1.85Zm13.87,7.39a.93.93,0,1,0-.92-.92A.93.93,0,0,0,204.17,66.35Zm-2.77,0a.93.93,0,0,0,0-1.85.93.93,0,1,0,0,1.85Zm-2.77,0a.93.93,0,0,0,0-1.85.93.93,0,1,0,0,1.85Zm-2.78,0a.93.93,0,1,0-.92-.92A.93.93,0,0,0,195.85,66.35Zm-2.77,0a.93.93,0,0,0,0-1.85.93.93,0,1,0,0,1.85Zm-2.78,0a.93.93,0,1,0-.92-.92A.93.93,0,0,0,190.3,66.35ZM194.7,77a.93.93,0,1,0-.93-.93A.93.93,0,0,0,194.7,77Zm-2.78,0a.93.93,0,1,0,0-1.85.93.93,0,0,0,0,1.85Zm-2.77,0a.93.93,0,1,0-.93-.93A.93.93,0,0,0,189.15,77Zm-2.78,0a.93.93,0,1,0,0-1.85.93.93,0,0,0,0,1.85Zm-2.77,0a.93.93,0,1,0,0-1.85.93.93,0,0,0,0,1.85Zm-2.77,0a.93.93,0,1,0-.93-.93A.93.93,0,0,0,180.83,77Zm13.87,7.62a.93.93,0,0,0,0-1.85.93.93,0,1,0,0,1.85Zm-2.78,0a.93.93,0,1,0-.92-.92A.93.93,0,0,0,191.92,84.61Zm-2.77,0a.93.93,0,0,0,0-1.85.93.93,0,1,0,0,1.85Zm-2.78,0a.93.93,0,1,0-.92-.92A.92.92,0,0,0,186.37,84.61Zm-2.77,0a.93.93,0,1,0-.92-.92A.93.93,0,0,0,183.6,84.61Zm-2.77,0a.93.93,0,0,0,0-1.85.93.93,0,1,0,0,1.85Z"/><path class="cls-5" d="M378.18,95a.8.8,0,0,1,.8-.8h3.24a.8.8,0,0,1,0,1.6H379A.8.8,0,0,1,378.18,95Zm.8,4.5h3.24a.8.8,0,0,0,0-1.6H379a.8.8,0,0,0,0,1.6Zm0,3.7h3.24a.8.8,0,0,0,0-1.6H379a.8.8,0,0,0,0,1.6Zm0,3.7h3.24a.8.8,0,0,0,0-1.6H379a.8.8,0,0,0,0,1.6Zm0,3.69h3.24a.8.8,0,0,0,0-1.59H379a.8.8,0,1,0,0,1.59Zm0,3.7h3.24a.8.8,0,0,0,0-1.59H379a.8.8,0,1,0,0,1.59Zm0,3.7h3.24a.79.79,0,0,0,.79-.8.79.79,0,0,0-.79-.79H379a.79.79,0,0,0-.8.79A.8.8,0,0,0,379,117.94Zm0,3.7h3.24a.8.8,0,0,0,0-1.6H379a.8.8,0,0,0,0,1.6ZM366.87,95.75h8.5a.8.8,0,1,0,0-1.6h-8.5a.8.8,0,0,0,0,1.6Zm0,3.7h8.5a.8.8,0,1,0,0-1.6h-8.5a.8.8,0,0,0,0,1.6Zm0,3.7h8.5a.8.8,0,1,0,0-1.6h-8.5a.8.8,0,0,0,0,1.6Zm0,3.7h8.5a.8.8,0,1,0,0-1.6h-8.5a.8.8,0,0,0,0,1.6Zm0,3.69h8.5a.8.8,0,1,0,0-1.59h-8.5a.8.8,0,0,0,0,1.59Zm-10.17,3.7h8.5a.8.8,0,1,0,0-1.59h-8.5a.8.8,0,1,0,0,1.59Zm0,3.7h8.5a.8.8,0,0,0,.8-.8.79.79,0,0,0-.8-.79h-8.5a.79.79,0,0,0-.8.79A.8.8,0,0,0,356.7,117.94Zm0,3.7h8.5a.8.8,0,1,0,0-1.6h-8.5a.8.8,0,0,0,0,1.6Zm6.56-25.76a.93.93,0,1,0,0-1.85.93.93,0,0,0,0,1.85Zm-2.77,0a.93.93,0,1,0-.93-.93A.93.93,0,0,0,360.49,95.88Zm-2.78,0a.93.93,0,1,0,0-1.85.93.93,0,0,0,0,1.85Zm-2.77,0A.93.93,0,1,0,354,95,.93.93,0,0,0,354.94,95.88Zm-2.77,0a.93.93,0,1,0-.93-.93A.93.93,0,0,0,352.17,95.88Zm-2.78,0a.93.93,0,1,0,0-1.85.93.93,0,0,0,0,1.85Zm13.87,7.39a.93.93,0,1,0-.92-.92A.93.93,0,0,0,363.26,103.27Zm-2.77,0a.93.93,0,0,0,0-1.85.93.93,0,1,0,0,1.85Zm-2.78,0a.93.93,0,1,0-.92-.92A.93.93,0,0,0,357.71,103.27Zm-2.77,0a.93.93,0,1,0-.92-.92A.92.92,0,0,0,354.94,103.27Zm-2.77,0a.93.93,0,0,0,0-1.85.93.93,0,1,0,0,1.85Zm-2.78,0a.93.93,0,1,0-.92-.92A.93.93,0,0,0,349.39,103.27Zm4.39,10.64a.93.93,0,1,0,0-1.85.93.93,0,0,0,0,1.85Zm-2.77,0a.93.93,0,1,0,0-1.85.93.93,0,0,0,0,1.85Zm-2.77,0a.93.93,0,1,0-.93-.93A.93.93,0,0,0,348.24,113.91Zm-2.78,0a.93.93,0,1,0,0-1.85.93.93,0,0,0,0,1.85Zm-2.77,0a.93.93,0,1,0-.93-.93A.93.93,0,0,0,342.69,113.91Zm-2.77,0A.93.93,0,1,0,339,113,.93.93,0,0,0,339.92,113.91Zm13.86,7.63a.93.93,0,1,0,0-1.85.93.93,0,0,0,0,1.85Zm-2.77,0a.93.93,0,1,0,0-1.85.93.93,0,0,0,0,1.85Zm-2.77,0a.93.93,0,1,0-.93-.93A.93.93,0,0,0,348.24,121.54Zm-2.78,0a.93.93,0,1,0,0-1.85.93.93,0,0,0,0,1.85Zm-2.77,0a.93.93,0,1,0-.93-.93A.93.93,0,0,0,342.69,121.54Zm-2.77,0a.93.93,0,1,0-.93-.93A.93.93,0,0,0,339.92,121.54Z"/><path class="cls-5" d="M378.18,124.55a.8.8,0,0,1,.8-.8h3.24a.8.8,0,0,1,0,1.6H379A.8.8,0,0,1,378.18,124.55ZM379,129h3.24a.79.79,0,0,0,.79-.79.79.79,0,0,0-.79-.8H379a.8.8,0,0,0-.8.8A.79.79,0,0,0,379,129Zm0,3.7h3.24a.8.8,0,0,0,0-1.59H379a.8.8,0,1,0,0,1.59Zm0,3.7h3.24a.8.8,0,0,0,0-1.6H379a.8.8,0,0,0,0,1.6Zm0,3.7h3.24a.8.8,0,0,0,0-1.6H379a.8.8,0,0,0,0,1.6Zm0,3.7h3.24a.8.8,0,0,0,0-1.6H379a.8.8,0,0,0,0,1.6Zm0,3.7h3.24a.8.8,0,0,0,0-1.6H379a.8.8,0,0,0,0,1.6Zm0,3.7h3.24a.8.8,0,0,0,0-1.6H379a.8.8,0,0,0,0,1.6Zm-12.11-25.89h8.5a.8.8,0,1,0,0-1.6h-8.5a.8.8,0,0,0,0,1.6Zm0,3.69h8.5a.79.79,0,0,0,.8-.79.8.8,0,0,0-.8-.8h-8.5a.79.79,0,0,0-.79.8A.79.79,0,0,0,366.87,129Zm0,3.7h8.5a.8.8,0,1,0,0-1.59h-8.5a.8.8,0,0,0,0,1.59Zm0,3.7h8.5a.8.8,0,0,0,0-1.6h-8.5a.8.8,0,0,0,0,1.6Zm0,3.7h8.5a.8.8,0,1,0,0-1.6h-8.5a.8.8,0,0,0,0,1.6Zm-10.17,3.7h8.5a.8.8,0,0,0,0-1.6h-8.5a.8.8,0,0,0,0,1.6Zm0,3.7h8.5a.8.8,0,1,0,0-1.6h-8.5a.8.8,0,1,0,0,1.6Zm0,3.7h8.5a.8.8,0,0,0,0-1.6h-8.5a.8.8,0,0,0,0,1.6Zm6.56-25.77a.93.93,0,1,0-.92-.92A.93.93,0,0,0,363.26,125.47Zm-2.77,0a.93.93,0,0,0,0-1.85.93.93,0,1,0,0,1.85Zm-2.78,0a.93.93,0,1,0-.92-.92A.93.93,0,0,0,357.71,125.47Zm-2.77,0a.93.93,0,1,0-.92-.92A.92.92,0,0,0,354.94,125.47Zm-2.77,0a.93.93,0,0,0,0-1.85.93.93,0,1,0,0,1.85Zm-2.78,0a.93.93,0,1,0-.92-.92A.93.93,0,0,0,349.39,125.47Zm13.87,7.4a.93.93,0,1,0,0-1.85.93.93,0,0,0,0,1.85Zm-2.77,0a.93.93,0,1,0-.93-.93A.92.92,0,0,0,360.49,132.87Zm-2.78,0a.93.93,0,1,0,0-1.85.93.93,0,0,0,0,1.85Zm-2.77,0a.93.93,0,1,0-.92-.93A.92.92,0,0,0,354.94,132.87Zm-2.77,0a.93.93,0,1,0-.93-.93A.92.92,0,0,0,352.17,132.87Zm-2.78,0a.93.93,0,1,0,0-1.85.93.93,0,0,0,0,1.85Zm4.39,10.63a.93.93,0,1,0-.92-.92A.92.92,0,0,0,353.78,143.5Zm-2.77,0a.93.93,0,1,0-.92-.92A.93.93,0,0,0,351,143.5Zm-2.77,0a.93.93,0,0,0,0-1.85.93.93,0,1,0,0,1.85Zm-2.78,0a.93.93,0,1,0-.92-.92A.93.93,0,0,0,345.46,143.5Zm-2.77,0a.93.93,0,0,0,0-1.85.93.93,0,1,0,0,1.85Zm-2.77,0a.93.93,0,0,0,0-1.85.93.93,0,1,0,0,1.85Zm13.86,7.63a.93.93,0,1,0-.92-.92A.92.92,0,0,0,353.78,151.13Zm-2.77,0a.93.93,0,1,0-.92-.92A.93.93,0,0,0,351,151.13Zm-2.77,0a.93.93,0,0,0,0-1.85.93.93,0,1,0,0,1.85Zm-2.78,0a.93.93,0,1,0-.92-.92A.93.93,0,0,0,345.46,151.13Zm-2.77,0a.93.93,0,0,0,0-1.85.93.93,0,1,0,0,1.85Zm-2.77,0a.93.93,0,0,0,0-1.85.93.93,0,1,0,0,1.85Z"/><path class="cls-5" d="M378.18,154.86a.8.8,0,0,1,.8-.8h3.24a.8.8,0,0,1,0,1.6H379A.8.8,0,0,1,378.18,154.86Zm.8,4.49h3.24a.79.79,0,0,0,.79-.79.79.79,0,0,0-.79-.8H379a.8.8,0,0,0-.8.8A.79.79,0,0,0,379,159.35Zm0,3.7h3.24a.8.8,0,0,0,0-1.59H379a.8.8,0,1,0,0,1.59Zm0,3.7h3.24a.8.8,0,0,0,0-1.6H379a.8.8,0,0,0,0,1.6Zm0,3.7h3.24a.8.8,0,0,0,0-1.6H379a.8.8,0,0,0,0,1.6Zm0,3.7h3.24a.8.8,0,0,0,0-1.6H379a.8.8,0,0,0,0,1.6Zm0,3.7h3.24a.8.8,0,0,0,0-1.6H379a.8.8,0,0,0,0,1.6Zm0,3.7h3.24a.8.8,0,0,0,0-1.6H379a.8.8,0,0,0,0,1.6Zm-12.11-25.89h8.5a.8.8,0,1,0,0-1.6h-8.5a.8.8,0,0,0,0,1.6Zm0,3.69h8.5a.79.79,0,0,0,.8-.79.8.8,0,0,0-.8-.8h-8.5a.79.79,0,0,0-.79.8A.79.79,0,0,0,366.87,159.35Zm0,3.7h8.5a.8.8,0,1,0,0-1.59h-8.5a.8.8,0,0,0,0,1.59Zm0,3.7h8.5a.8.8,0,1,0,0-1.6h-8.5a.8.8,0,0,0,0,1.6Zm0,3.7h8.5a.8.8,0,1,0,0-1.6h-8.5a.8.8,0,0,0,0,1.6Zm-10.17,3.7h8.5a.8.8,0,1,0,0-1.6h-8.5a.8.8,0,0,0,0,1.6Zm0,3.7h8.5a.8.8,0,1,0,0-1.6h-8.5a.8.8,0,0,0,0,1.6Zm0,3.7h8.5a.8.8,0,1,0,0-1.6h-8.5a.8.8,0,1,0,0,1.6Zm6.56-25.77a.93.93,0,1,0-.92-.92A.93.93,0,0,0,363.26,155.78Zm-2.77,0a.93.93,0,0,0,0-1.85.93.93,0,1,0,0,1.85Zm-2.78,0a.93.93,0,1,0-.92-.92A.93.93,0,0,0,357.71,155.78Zm-2.77,0a.93.93,0,1,0-.92-.92A.92.92,0,0,0,354.94,155.78Zm-2.77,0a.93.93,0,0,0,0-1.85.93.93,0,1,0,0,1.85Zm-2.78,0a.93.93,0,1,0-.92-.92A.93.93,0,0,0,349.39,155.78Zm13.87,7.4a.93.93,0,1,0,0-1.85.93.93,0,0,0,0,1.85Zm-2.77,0a.93.93,0,1,0-.93-.93A.92.92,0,0,0,360.49,163.18Zm-2.78,0a.93.93,0,1,0,0-1.85.93.93,0,0,0,0,1.85Zm-2.77,0a.93.93,0,1,0-.92-.93A.92.92,0,0,0,354.94,163.18Zm-2.77,0a.93.93,0,1,0-.93-.93A.92.92,0,0,0,352.17,163.18Zm-2.78,0a.93.93,0,1,0,0-1.85.93.93,0,0,0,0,1.85Zm4.39,10.63a.93.93,0,1,0-.92-.92A.92.92,0,0,0,353.78,173.81Zm-2.77,0a.93.93,0,1,0-.92-.92A.93.93,0,0,0,351,173.81Zm-2.77,0a.93.93,0,0,0,0-1.85.93.93,0,1,0,0,1.85Zm-2.78,0a.93.93,0,1,0-.92-.92A.93.93,0,0,0,345.46,173.81Zm-2.77,0a.93.93,0,0,0,0-1.85.93.93,0,1,0,0,1.85Zm-2.77,0a.93.93,0,0,0,0-1.85.93.93,0,1,0,0,1.85Zm13.86,7.63a.93.93,0,1,0-.92-.92A.92.92,0,0,0,353.78,181.44Zm-2.77,0a.93.93,0,1,0-.92-.92A.93.93,0,0,0,351,181.44Zm-2.77,0a.93.93,0,0,0,0-1.85.93.93,0,1,0,0,1.85Zm-2.78,0a.93.93,0,1,0-.92-.92A.93.93,0,0,0,345.46,181.44Zm-2.77,0a.93.93,0,0,0,0-1.85.93.93,0,1,0,0,1.85Zm-2.77,0a.93.93,0,0,0,0-1.85.93.93,0,1,0,0,1.85Z"/><path class="cls-5" d="M328.5,95a.8.8,0,0,1,.8-.8h3.23a.8.8,0,1,1,0,1.6H329.3A.8.8,0,0,1,328.5,95Zm.8,4.5h3.23a.8.8,0,0,0,0-1.6H329.3a.8.8,0,0,0,0,1.6Zm0,3.7h3.23a.8.8,0,1,0,0-1.6H329.3a.8.8,0,1,0,0,1.6Zm0,3.7h3.23a.8.8,0,1,0,0-1.6H329.3a.8.8,0,0,0,0,1.6Zm0,3.69h3.23a.8.8,0,1,0,0-1.59H329.3a.8.8,0,1,0,0,1.59Zm0,3.7h3.23a.8.8,0,1,0,0-1.59H329.3a.8.8,0,1,0,0,1.59Zm0,3.7h3.23a.8.8,0,0,0,.8-.8.79.79,0,0,0-.8-.79H329.3a.79.79,0,0,0-.8.79A.8.8,0,0,0,329.3,117.94Zm0,3.7h3.23a.8.8,0,1,0,0-1.6H329.3a.8.8,0,0,0,0,1.6ZM317.19,95.75h8.49a.8.8,0,1,0,0-1.6h-8.49a.8.8,0,0,0,0,1.6Zm0,3.7h8.49a.8.8,0,0,0,0-1.6h-8.49a.8.8,0,0,0,0,1.6Zm0,3.7h8.49a.8.8,0,1,0,0-1.6h-8.49a.8.8,0,1,0,0,1.6Zm0,3.7h8.49a.8.8,0,1,0,0-1.6h-8.49a.8.8,0,0,0,0,1.6Zm0,3.69h8.49a.8.8,0,1,0,0-1.59h-8.49a.8.8,0,1,0,0,1.59ZM307,114.24h8.49a.8.8,0,1,0,0-1.59H307a.8.8,0,1,0,0,1.59Zm0,3.7h8.49a.8.8,0,0,0,.8-.8.79.79,0,0,0-.8-.79H307a.79.79,0,0,0-.8.79A.8.8,0,0,0,307,117.94Zm0,3.7h8.49a.8.8,0,1,0,0-1.6H307a.8.8,0,0,0,0,1.6Zm6.56-25.76a.93.93,0,1,0-.93-.93A.93.93,0,0,0,313.58,95.88Zm-2.78,0a.93.93,0,1,0,0-1.85.93.93,0,0,0,0,1.85Zm-2.77,0a.93.93,0,1,0-.93-.93A.93.93,0,0,0,308,95.88Zm-2.77,0a.93.93,0,1,0-.93-.93A.93.93,0,0,0,305.26,95.88Zm-2.78,0a.93.93,0,1,0,0-1.85.93.93,0,0,0,0,1.85Zm-2.77,0a.93.93,0,1,0-.93-.93A.93.93,0,0,0,299.71,95.88Zm13.87,7.39a.93.93,0,0,0,0-1.85.93.93,0,1,0,0,1.85Zm-2.78,0a.93.93,0,1,0-.92-.92A.93.93,0,0,0,310.8,103.27Zm-2.77,0a.93.93,0,0,0,0-1.85.93.93,0,1,0,0,1.85Zm-2.77,0a.93.93,0,0,0,0-1.85.93.93,0,1,0,0,1.85Zm-2.78,0a.93.93,0,1,0-.92-.92A.93.93,0,0,0,302.48,103.27Zm-2.77,0a.93.93,0,0,0,0-1.85.93.93,0,1,0,0,1.85Zm4.39,10.64a.93.93,0,1,0-.92-.93A.93.93,0,0,0,304.1,113.91Zm-2.77,0a.93.93,0,1,0-.93-.93A.93.93,0,0,0,301.33,113.91Zm-2.78,0a.93.93,0,1,0,0-1.85.93.93,0,0,0,0,1.85Zm-2.77,0a.93.93,0,1,0-.93-.93A.93.93,0,0,0,295.78,113.91Zm-2.78,0a.93.93,0,1,0,0-1.85.93.93,0,0,0,0,1.85Zm-2.77,0a.93.93,0,1,0,0-1.85.93.93,0,0,0,0,1.85Zm13.87,7.63a.93.93,0,1,0-.92-.93A.93.93,0,0,0,304.1,121.54Zm-2.77,0a.93.93,0,1,0-.93-.93A.93.93,0,0,0,301.33,121.54Zm-2.78,0a.93.93,0,1,0,0-1.85.93.93,0,0,0,0,1.85Zm-2.77,0a.93.93,0,1,0-.93-.93A.93.93,0,0,0,295.78,121.54Zm-2.78,0a.93.93,0,1,0,0-1.85.93.93,0,0,0,0,1.85Zm-2.77,0a.93.93,0,1,0,0-1.85.93.93,0,0,0,0,1.85Z"/><path class="cls-5" d="M328.5,125.26a.8.8,0,0,1,.8-.8h3.23a.8.8,0,0,1,0,1.6H329.3A.8.8,0,0,1,328.5,125.26Zm.8,4.5h3.23a.8.8,0,1,0,0-1.6H329.3a.8.8,0,1,0,0,1.6Zm0,3.7h3.23a.8.8,0,0,0,0-1.6H329.3a.8.8,0,0,0,0,1.6Zm0,3.7h3.23a.8.8,0,1,0,0-1.6H329.3a.8.8,0,1,0,0,1.6Zm0,3.69h3.23a.8.8,0,1,0,0-1.59H329.3a.8.8,0,1,0,0,1.59Zm0,3.7h3.23a.8.8,0,1,0,0-1.59H329.3a.8.8,0,1,0,0,1.59Zm0,3.7h3.23a.8.8,0,0,0,.8-.8.79.79,0,0,0-.8-.79H329.3a.79.79,0,0,0-.8.79A.8.8,0,0,0,329.3,148.25Zm0,3.7h3.23a.8.8,0,1,0,0-1.6H329.3a.8.8,0,1,0,0,1.6Zm-12.11-25.89h8.49a.8.8,0,0,0,0-1.6h-8.49a.8.8,0,0,0,0,1.6Zm0,3.7h8.49a.8.8,0,1,0,0-1.6h-8.49a.8.8,0,1,0,0,1.6Zm0,3.7h8.49a.8.8,0,0,0,0-1.6h-8.49a.8.8,0,0,0,0,1.6Zm0,3.7h8.49a.8.8,0,1,0,0-1.6h-8.49a.8.8,0,1,0,0,1.6Zm0,3.69h8.49a.8.8,0,1,0,0-1.59h-8.49a.8.8,0,1,0,0,1.59ZM307,144.55h8.49a.8.8,0,1,0,0-1.59H307a.8.8,0,1,0,0,1.59Zm0,3.7h8.49a.8.8,0,0,0,.8-.8.79.79,0,0,0-.8-.79H307a.79.79,0,0,0-.8.79A.8.8,0,0,0,307,148.25Zm0,3.7h8.49a.8.8,0,1,0,0-1.6H307a.8.8,0,0,0,0,1.6Zm6.56-25.76a.93.93,0,1,0-.93-.93A.93.93,0,0,0,313.58,126.19Zm-2.78,0a.93.93,0,1,0,0-1.85.93.93,0,0,0,0,1.85Zm-2.77,0a.93.93,0,1,0-.93-.93A.93.93,0,0,0,308,126.19Zm-2.77,0a.93.93,0,1,0-.93-.93A.93.93,0,0,0,305.26,126.19Zm-2.78,0a.93.93,0,1,0,0-1.85.93.93,0,0,0,0,1.85Zm-2.77,0a.93.93,0,1,0-.93-.93A.93.93,0,0,0,299.71,126.19Zm13.87,7.39a.93.93,0,0,0,0-1.85.93.93,0,1,0,0,1.85Zm-2.78,0a.93.93,0,1,0-.92-.92A.93.93,0,0,0,310.8,133.58Zm-2.77,0a.93.93,0,0,0,0-1.85.93.93,0,1,0,0,1.85Zm-2.77,0a.93.93,0,0,0,0-1.85.93.93,0,1,0,0,1.85Zm-2.78,0a.93.93,0,1,0-.92-.92A.93.93,0,0,0,302.48,133.58Zm-2.77,0a.93.93,0,0,0,0-1.85.93.93,0,1,0,0,1.85Zm4.39,10.64a.93.93,0,1,0-.92-.93A.93.93,0,0,0,304.1,144.22Zm-2.77,0a.93.93,0,1,0-.93-.93A.93.93,0,0,0,301.33,144.22Zm-2.78,0a.93.93,0,1,0,0-1.85.93.93,0,0,0,0,1.85Zm-2.77,0a.93.93,0,1,0-.93-.93A.93.93,0,0,0,295.78,144.22Zm-2.78,0a.93.93,0,1,0,0-1.85.93.93,0,0,0,0,1.85Zm-2.77,0a.93.93,0,1,0,0-1.85.93.93,0,0,0,0,1.85Zm13.87,7.63a.93.93,0,1,0-.92-.93A.93.93,0,0,0,304.1,151.85Zm-2.77,0a.93.93,0,1,0-.93-.93A.93.93,0,0,0,301.33,151.85Zm-2.78,0a.93.93,0,1,0,0-1.85.93.93,0,0,0,0,1.85Zm-2.77,0a.93.93,0,1,0-.93-.93A.93.93,0,0,0,295.78,151.85Zm-2.78,0a.93.93,0,1,0,0-1.85.93.93,0,0,0,0,1.85Zm-2.77,0a.93.93,0,1,0,0-1.85.93.93,0,0,0,0,1.85Z"/></g><g id="Chair"><path class="cls-6" d="M379.66,298.59s7-95,12.5-118.5-21.5-28.5-60.5-31.5-57-.5-65.5,5-12.28,70.43-18,93.5-10,53-10,53Z"/></g><g id="Plants"><path class="cls-7" d="M0,204.13s7.37,16.22,15.72,21.62c6.56,4.24,20.67,6.37,26.44,7.08-5.8-2-20.94-8-32.23-19.58l.72-.69c14,14.39,34,20,34.2,20.08l-.27,1-.33-.1a76,76,0,0,1,1.08,10.42H27v53.56H59V243.93H47.35c-.14-6.13-1.44-17.72-7.6-34.25-.19-.53-.37-1.06-.55-1.59,2.65.17,18.82.77,27.38-9.41,9.33-11.12,10.89-44.93,10.89-44.93S58,182.39,48.23,191.35c-7.71,7.09-9.11,13.43-9.36,15.76-3.85-12-3.6-24.42-1.32-36.32,3.34.1,13-.23,18.36-7,6.61-8.27,4.14-18.77,4.14-18.77s-5.38,7.61-11.32,12c-4.09,3-8.41,8.37-10.71,11.42a168.39,168.39,0,0,1,10.07-30.24c.42-1,.81-2,1.17-3.11,3.18-.85,12.37-4,15.6-12,3.93-9.83-1.48-19.16-1.48-19.16s-2.94,8.84-7.37,14.74a55.1,55.1,0,0,0-6.14,11.93,41.36,41.36,0,0,0-1.7-9.85c-2-7-9.51-18-9.51-18s-4.18,7.92-1.36,16.71c1.9,5.92,6.93,9.73,10,11.59-1.86-3.2-8.62-15.08-8.62-19.1h1c0,4.29,8.86,19.23,8.95,19.38l-.43.26h0a41.4,41.4,0,0,1-2,5.85,197,197,0,0,0-7.94,21.75,58,58,0,0,0-1-10.06c-2.45-13.26-16.21-25.55-20.63-33.41a119.5,119.5,0,0,1-6.88-14.25s-3.44,23.59-1,37.34c2.13,11.88,21.44,27.77,26.69,31.9A86.74,86.74,0,0,0,34,191a60.07,60.07,0,0,0-7.45-12.41c-6.38-8.35-22.11-19.16-22.11-19.16S3,172.2,11.3,182.51c7,8.59,18.62,10.37,22.37,10.72-3.94-2.17-18.34-10.52-23-18.76l.87-.5c5.16,9.13,23.4,18.82,23.58,18.91l-.47.89-.5-.27a64.05,64.05,0,0,0,3.73,16.88A127.61,127.61,0,0,1,44,232c-1.12-1.69-3.74-5.42-9.09-12.11C27,210,0,204.13,0,204.13Zm49.67-72.2a24,24,0,0,0,12.25-16.45l1,.2a25.05,25.05,0,0,1-12.82,17.16ZM19.59,141l.94-.34c3.7,10.36,14.33,26.84,16,29.44,2.21-.95,13.46-6,18.12-12.86l.83.57c-5.32,7.77-18.4,13.15-19,13.37l-.38.16-.23-.34C35.82,170.81,23.64,152.32,19.59,141Zm20.66,65.74c.15-.06,15.37-5.79,22.12-18.9l.89.45c-6.93,13.46-22.51,19.33-22.66,19.38Z"/></g><g id="Character"><path class="cls-5" d="M258.67,162.52s28.51,6,52.27,19.43,42.33,24.19,42.33,29.38,9.5,87.26,9.5,87.26h-216s21.16-45.36,24.62-64.8,7.34-32,18.58-44.49S234.05,160.79,258.67,162.52Z"/><g class="cls-8"><path class="cls-9" d="M342.41,241.66c-3.2-2.28-9.6,15.08-11.43,11s11.43-24.67,12.34-32-7.77-8.23-17.82-15.08-19.19-12.34-19.19-3.2-4.11,26-7.31,19.19S289,206,288.49,217.91s0,23.75-1.37,23.75-13.7-12.79-16.9-19.19,3.65-22.84,3.65-30.15S267.48,175,267.48,175l-.41-10.35c10.22,2.8,28.09,8.45,43.87,17.34,23.76,13.4,42.33,24.19,42.33,29.38s9.5,87.26,9.5,87.26H351C348.76,278.24,344.67,243.28,342.41,241.66Z"/><path class="cls-10" d="M342.41,241.66c-3.2-2.28-9.6,15.08-11.43,11s11.43-24.67,12.34-32-7.77-8.23-17.82-15.08-19.19-12.34-19.19-3.2-4.11,26-7.31,19.19S289,206,288.49,217.91s0,23.75-1.37,23.75-13.7-12.79-16.9-19.19,3.65-22.84,3.65-30.15S267.48,175,267.48,175l-.41-10.35c10.22,2.8,28.09,8.45,43.87,17.34,23.76,13.4,42.33,24.19,42.33,29.38s9.5,87.26,9.5,87.26H351C348.76,278.24,344.67,243.28,342.41,241.66Z"/><path class="cls-2" d="M204.73,182.68s-15,7.33-20.67,14.67a44.39,44.39,0,0,1,19.67-18Z"/></g><path class="cls-11" d="M258.67,162.52s28.51,6,52.27,19.43,42.33,24.19,42.33,29.38,9.5,87.26,9.5,87.26h-216s21.16-45.36,24.62-64.8,7.34-32,18.58-44.49S234.05,160.79,258.67,162.52Z"/><path class="cls-5" d="M268.17,165.54A28.44,28.44,0,0,1,281.56,188c.87,15.55,0,31.54.87,40.17s6.91,15.56,2.16,15.12S269,225.58,265.15,225.58s-5.19,8.21-6.91,10.8-7.8,3.68-7.8,3.68-5.59-6.7-5.59-8.86,1.72-9.5-3-8.64-15.12,17.28-15.55,12.09,4.75-13,4.75-25.48,6-27.22,14.69-36.29S259.32,164.87,268.17,165.54Z"/><g class="cls-12"><path class="cls-9" d="M267.1,165.46l1.07.08A28.44,28.44,0,0,1,281.56,188c.87,15.55,0,31.54.87,40.17.55,5.56,3.25,10.4,3.84,13-3.17-2.33-13.21-13-16-18.73-3.2-6.39,3.65-22.84,3.65-30.15S267.48,175,267.48,175Z"/><path class="cls-10" d="M267.1,165.46l1.07.08A28.44,28.44,0,0,1,281.56,188c.87,15.55,0,31.54.87,40.17.55,5.56,3.25,10.4,3.84,13-3.17-2.33-13.21-13-16-18.73-3.2-6.39,3.65-22.84,3.65-30.15S267.48,175,267.48,175Z"/></g><path class="cls-11" d="M268.17,165.54A28.44,28.44,0,0,1,281.56,188c.87,15.55,0,31.54.87,40.17s6.91,15.56,2.16,15.12S269,225.58,265.15,225.58s-5.19,8.21-6.91,10.8-7.8,3.68-7.8,3.68-5.59-6.7-5.59-8.86,1.72-9.5-3-8.64-15.12,17.28-15.55,12.09,4.75-13,4.75-25.48,6-27.22,14.69-36.29S259.32,164.87,268.17,165.54Z"/><path class="cls-5" d="M264.57,165.65a66.73,66.73,0,0,1,5.18,25c0,13.66-7.06,27.79-9.89,34.38s-9.42,15.07-9.42,15.07.47-17.42-3.77-25.9-8-14.6-8-14.6,5.18-5.18,12.71-16.95S264.57,165.65,264.57,165.65Z"/><g class="cls-13"><path class="cls-14" d="M241.94,205.21l1.78-11.64c2.07-2.68,4.68-6.3,7.66-11,7.54-11.78,13.19-17,13.19-17a66.73,66.73,0,0,1,5.18,25,56.09,56.09,0,0,1-2.58,15.77l-25-.8Z"/><path class="cls-10" d="M241.94,205.21l1.78-11.64c2.07-2.68,4.68-6.3,7.66-11,7.54-11.78,13.19-17,13.19-17a66.73,66.73,0,0,1,5.18,25,56.09,56.09,0,0,1-2.58,15.77l-25-.8Z"/><path class="cls-2" d="M251.38,182.61c7.54-11.78,13.19-17,13.19-17a66.73,66.73,0,0,1,5.18,25,47.52,47.52,0,0,1-.81,8.4l-21.07.65-5.15-4.81A147.23,147.23,0,0,0,251.38,182.61Z"/></g><path class="cls-11" d="M264.57,165.65a66.73,66.73,0,0,1,5.18,25c0,13.66-7.06,27.79-9.89,34.38s-9.42,15.07-9.42,15.07.47-17.42-3.77-25.9-8-14.6-8-14.6,5.18-5.18,12.71-16.95S264.57,165.65,264.57,165.65Z"/><path class="cls-11" d="M296.25,195.78s-9.5-22.9-25.05-28.51"/><path class="cls-11" d="M337.29,214.78s-13,21.17-14.69,39.31"/><path class="cls-11" d="M321.3,234.22s-4.32,27.22-4.32,41a116.63,116.63,0,0,1-2.15,23.33"/><path class="cls-11" d="M317.42,269.21a136.59,136.59,0,0,1-3.46-32.4"/><path class="cls-11" d="M199.06,234.65s-1.3,15.56-4.32,34.56S190,297.72,190,297.72"/><path class="cls-1" d="M269.52,271.5s9.14,18.63,10.5,21.34,3.38,7.45,3.38,7.45H267.15s-9.14-6.1-10.16-6.44-6.77,0-10.83-1.69S238,286.07,234,285.05s-9.49-2.71-11.18-2.71S215.34,284,211.62,284s-8.47-3.72-5.42-5.41,5.42-.68,9.48-2.71,5.42-2.71,9.48-2,7.45-1.69,17.27-3.72S263.42,267.44,269.52,271.5Z"/><path class="cls-1" d="M241.16,261.1s-5.33-4.54-9.71-2.35S229.1,275,228,280.68s-2.35,8.61.47,8.93,3.92-1.88,6.11-6.89S241.16,261.1,241.16,261.1Z"/><path class="cls-1" d="M254.16,263.92s-7-6.27-10.18-6.27-5.64,11.13-8,16-5.8,10.65-4.39,12.22,4.39,2.19,6.89-.47,8-14.41,9.56-16.29A47.5,47.5,0,0,1,254.16,263.92Z"/><path class="cls-1" d="M261.36,266.11s-.47-2.19-7.2-2.19-12.53,9.4-16.61,11.59-2.82,3.13.16,4.54,4.86-.15,10.81-3.44S261.36,266.11,261.36,266.11Z"/><path class="cls-1" d="M268.84,281.66l-4.74-7.79a15,15,0,0,0-6.09,2.71c-2.37,2-6.78,6.1-12.19,6.1s-7.11-1.69-5.08-3.39,8.12-4.74,12.53-7.79,7.78-8.12,11.17-7.11,5.76,7.45,9.48,15.92"/><path class="cls-5" d="M193.07,132.47s1.31,19.35,3.4,26.15,5,27.73,11.25,36.88,14.38,17,23.53,17.53,21.45-15.7,28.51-26.16S267.61,166,270,155.75s2.88-22-.78-31.13-22-20.4-37.4-19.09S197,115,193.07,121A10.51,10.51,0,0,0,193.07,132.47Z"/><g class="cls-15"><path class="cls-9" d="M269.18,124.62c3.66,9.16,3.14,20.93.78,31.13s-3.14,20.66-10.2,31.12S240.41,213.55,231.25,213a21.2,21.2,0,0,1-10.46-3.8l4.65.45c9.6.91,14.17-5.48,20.1-17.82s2.29-19.64,4.57-21.93,2.29-18.73,2.29-18.73-1.83-7.31-2.74-10-10.51-6.4-10.51-6.4,0,6.85-6.59,6.35-11.23-7.72-11.23-7.72l.92-26.33a72.41,72.41,0,0,1,9.53-1.52C247.21,104.22,265.52,115.47,269.18,124.62Z"/><path class="cls-16" d="M269.18,124.62c3.66,9.16,3.14,20.93.78,31.13s-3.14,20.66-10.2,31.12S240.41,213.55,231.25,213a21.2,21.2,0,0,1-10.46-3.8l4.65.45c9.6.91,14.17-5.48,20.1-17.82s2.29-19.64,4.57-21.93,2.29-18.73,2.29-18.73-1.83-7.31-2.74-10-10.51-6.4-10.51-6.4,0,6.85-6.59,6.35-11.23-7.72-11.23-7.72l.92-26.33a72.41,72.41,0,0,1,9.53-1.52C247.21,104.22,265.52,115.47,269.18,124.62Z"/></g><path class="cls-11" d="M193.07,132.47s1.31,19.35,3.4,26.15,5,27.73,11.25,36.88,14.38,17,23.53,17.53,21.45-15.7,28.51-26.16S267.61,166,270,155.75s2.88-22-.78-31.13-22-20.4-37.4-19.09S197,115,193.07,121A10.51,10.51,0,0,0,193.07,132.47Z"/><path class="cls-11" d="M219.49,158.36s-.27,13.34-7.07,16.74c0,0-1.57.52-.78,2.36s6.8,2.87,11-.27"/><path class="cls-17" d="M213.71,147a1.48,1.48,0,0,0,1.15-.55,1.5,1.5,0,0,0-.2-2.11c-.24-.2-6-4.84-15.16-1.63a1.51,1.51,0,0,0-.92,1.92,1.49,1.49,0,0,0,1.91.91c7.58-2.66,12.22,1.08,12.26,1.12A1.5,1.5,0,0,0,213.71,147Z"/><path class="cls-17" d="M229.47,145.2a1.49,1.49,0,0,0,1.3-.74c.16-.27,3.76-6.19,10.84-5.21a1.5,1.5,0,0,0,.41-3c-9.12-1.25-13.66,6.35-13.84,6.68a1.49,1.49,0,0,0,1.29,2.25Z"/><line class="cls-11" x1="225.01" y1="191.56" x2="220.77" y2="191.56"/><path class="cls-17" d="M263.42,94.29s17,5.49,18.31,12.29-7.32,30.6-7.06,33.48,2.88,5.23,0,9.41-8.11,10.46-10.2,7.06.79-8.37-2.61-10.46-8.11-5.49-5.5-9.94,1.31-11-4.18-11.77-10.2-4.44-7.33-.26,11.25,14.39,6.8,15.17-22-11-22-11,6,12,2.87,12.81-27.72-15.43-27.72-15.43-11.77,15.43-14.12,14.39-.79-9.68-.79-9.68-1.83,11.51-5.49,12-8.63-5.76-7.06-9.68,4.18-9.41,4.18-9.41-5.23-1.31-7.32-3.67-1.83-2.61,2.61-3.4,7.85-5.75,12-10.2,11-10.46,11-10.46-7.85,3.4-3.66-.52,26.41-12.82,38.44-12.82,16.48,6.28,16.48,6.28-2.09-7.85.26-6.8,5,7.32,5,7.32,5.5-1.57,8.37.27S268.39,93,266,93a13.66,13.66,0,0,0-3.92.52Z"/><g class="cls-18"><g class="cls-19"><path class="cls-5" d="M264.47,156.53c-2.09-3.4.79-8.37-2.61-10.46s-8.11-5.49-5.5-9.94,1.31-11-4.18-11.77c-4.14-.59-7.82-2.81-8.17-2.08-1.78-2.44-2.53-4.3,0-3.55,4.86,1.46,19.92,3.89,18.46,8.75s-2.43,7.29,1.46,8.74,3.89,4.86,3.89,8.75c0,3.32,1.57,8.83,2,10.36C267.71,157.34,265.62,158.4,264.47,156.53Z"/><path class="cls-5" d="M189.93,130.38l-.35,4.87-.16.77a35.51,35.51,0,0,1,.46-5.37c-.3,1.74-2.11,11.28-5.44,11.76-3.66.52-8.63-5.76-7.06-9.68.34-.84.72-1.76,1.12-2.68,1.21,1.89,2.87,3.74,4.77,3.74C187.16,133.79,189.93,130.38,189.93,130.38Z"/><path class="cls-5" d="M195.1,137.12c3.22-7.24,6.75-16.63,8.57-19.36,2.92-4.37,13.12,11.66,21.87,17,3.56,2.17,6.14,3.12,7.77,3.14.31,1.67.21,3-.75,3.19-3.14.79-27.72-15.43-27.72-15.43A142.79,142.79,0,0,1,195.1,137.12Z"/><path class="cls-5" d="M252.69,136.44c.47,1.51.3,2.6-1,2.83-3.36.59-14.16-6-19.26-9.22-2.89-3.55-6.47-5.74-6.86-8.89-.49-3.89,18,11.66,24.29,14.58A5.4,5.4,0,0,0,252.69,136.44Z"/></g></g><path class="cls-11" d="M263.42,94.29s17,5.49,18.31,12.29-7.32,30.6-7.06,33.48,2.88,5.23,0,9.41-8.11,10.46-10.2,7.06.79-8.37-2.61-10.46-8.11-5.49-5.5-9.94,1.31-11-4.18-11.77-10.2-4.44-7.33-.26,11.25,14.39,6.8,15.17-22-11-22-11,6,12,2.87,12.81-27.72-15.43-27.72-15.43-11.77,15.43-14.12,14.39-.79-9.68-.79-9.68-1.83,11.51-5.49,12-8.63-5.76-7.06-9.68,4.18-9.41,4.18-9.41-5.23-1.31-7.32-3.67-1.83-2.61,2.61-3.4,7.85-5.75,12-10.2,11-10.46,11-10.46-7.85,3.4-3.66-.52,26.41-12.82,38.44-12.82,16.48,6.28,16.48,6.28-2.09-7.85.26-6.8,5,7.32,5,7.32,5.5-1.57,8.37.27S268.39,93,266,93a13.66,13.66,0,0,0-3.92.52Z"/><path class="cls-17" d="M224.77,148s3.82-4.11,14.1-3.82,17.62,2.06,19.68,3.24.88,2.64.29,4.7-2,11.75-4.4,15.56-8.52,7-12.63,7-6.47-.88-10.87-4.11-7.34-15-7.64-15.86,0-2.64-2.94-1.76-3.23,13.8-4.11,16.45-6.75,6.17-11.45,6.17-9.11-2.35-12.93-9.11a21.43,21.43,0,0,1-2.64-13.22s-4.12-3.23-.88-4.41,14.34-4.26,21.44-2C218.31,149.5,222.71,148.91,224.77,148Z"/><path class="cls-17" d="M257.08,147.74l19.68,2.64v2.35l-19.38-1.17S259.14,148.62,257.08,147.74Z"/><path class="cls-20" d="M194.36,165.13a18.82,18.82,0,0,1-2.31-11.3l.29-1.69L191,151.06A48.66,48.66,0,0,1,203.86,149a17.7,17.7,0,0,1,5.08.64,45.08,45.08,0,0,0,8.66,1.9c-2,2.13-2.69,6.56-3.45,12.92-.64,5.31-3.58,8.36-9.35,8.37C202.17,172.78,198.24,172,194.36,165.13Zm38.27,3.21c-.95-.7-3.48-3.44-6.4-13.75-.1-.36-.17-.6-.19-.65l0-.19a5.13,5.13,0,0,0-1.27-2.67,10.06,10.06,0,0,0,1.17-.41l.56-.24.41-.45s3.06-2.91,11-2.91h1c9,.26,15.54,1.69,17.86,2.64l-.1.25c-.15.44-.32.9-.46,1.39s-.37,1.58-.65,2.92c-.67,3.31-1.94,9.49-3.44,11.93-1.89,3.06-7.18,5.69-10.19,5.69C238.56,171.9,236.78,171.38,232.63,168.34Z"/><path class="cls-17" d="M248.36,151.49a.36.36,0,0,1,.37-.37h1.5a.37.37,0,0,1,.38.37.38.38,0,0,1-.38.37h-1.5A.37.37,0,0,1,248.36,151.49Zm.37,2.09h1.5a.37.37,0,1,0,0-.74h-1.5a.37.37,0,1,0,0,.74Zm0,1.72h1.5a.37.37,0,0,0,.38-.37.38.38,0,0,0-.38-.37h-1.5a.37.37,0,0,0-.37.37A.36.36,0,0,0,248.73,155.3Zm0,1.72h1.5a.37.37,0,0,0,.38-.37.38.38,0,0,0-.38-.37h-1.5a.37.37,0,0,0-.37.37A.36.36,0,0,0,248.73,157Zm0,1.72h1.5a.37.37,0,0,0,.38-.37.38.38,0,0,0-.38-.37h-1.5a.37.37,0,0,0-.37.37A.36.36,0,0,0,248.73,158.74Zm0,1.73h1.5a.38.38,0,1,0,0-.75h-1.5a.38.38,0,0,0,0,.75Zm0,1.72h1.5a.38.38,0,1,0,0-.75h-1.5a.38.38,0,0,0,0,.75Zm0,1.72h1.5a.38.38,0,1,0,0-.75h-1.5a.38.38,0,0,0,0,.75Zm-5.64-12h4a.38.38,0,0,0,.37-.37.37.37,0,0,0-.37-.37h-4a.37.37,0,0,0-.37.37A.38.38,0,0,0,243.09,151.86Zm0,1.72h4a.37.37,0,0,0,0-.74h-4a.37.37,0,0,0,0,.74Zm0,1.72h4a.37.37,0,0,0,.37-.37.38.38,0,0,0-.37-.37h-4a.38.38,0,0,0-.37.37A.37.37,0,0,0,243.09,155.3Zm0,1.72h4a.37.37,0,0,0,.37-.37.38.38,0,0,0-.37-.37h-4a.38.38,0,0,0-.37.37A.37.37,0,0,0,243.09,157Zm0,1.72h4a.37.37,0,0,0,.37-.37.38.38,0,0,0-.37-.37h-4a.38.38,0,0,0-.37.37A.37.37,0,0,0,243.09,158.74Zm-4.73,1.73h4a.38.38,0,0,0,0-.75h-4a.38.38,0,0,0,0,.75Zm0,1.72h4a.38.38,0,0,0,0-.75h-4a.38.38,0,0,0,0,.75Zm0,1.72h4a.38.38,0,0,0,0-.75h-4a.38.38,0,0,0,0,.75Zm3-12a.43.43,0,0,0,0-.86.43.43,0,0,0,0,.86Zm-1.29,0a.43.43,0,0,0,0-.86.43.43,0,0,0,0,.86Zm-1.29,0a.43.43,0,0,0,0-.86.43.43,0,0,0,0,.86Zm-1.29,0a.43.43,0,1,0-.43-.43A.43.43,0,0,0,237.54,151.92Zm-1.29,0a.43.43,0,1,0-.43-.43A.43.43,0,0,0,236.25,151.92Zm-1.29,0a.43.43,0,1,0-.43-.43A.43.43,0,0,0,235,151.92Zm6.45,3.44a.43.43,0,1,0,0-.86.43.43,0,0,0,0,.86Zm-1.29,0a.43.43,0,0,0,0-.86.43.43,0,0,0,0,.86Zm-1.29,0a.43.43,0,0,0,0-.86.43.43,0,1,0,0,.86Zm-1.29,0a.43.43,0,1,0-.43-.43A.43.43,0,0,0,237.54,155.36Zm-1.29,0a.43.43,0,1,0-.43-.43A.43.43,0,0,0,236.25,155.36Zm-1.29,0a.43.43,0,1,0-.43-.43A.43.43,0,0,0,235,155.36Zm2,4.95a.43.43,0,0,0,0-.86.43.43,0,0,0,0,.86Zm-1.29,0a.43.43,0,0,0,0-.86.43.43,0,0,0,0,.86Zm-1.29,0a.43.43,0,0,0,0-.86.43.43,0,1,0,0,.86Zm-1.29,0a.43.43,0,0,0,0-.86.43.43,0,0,0,0,.86Zm-1.29,0a.43.43,0,1,0-.43-.43A.43.43,0,0,0,231.84,160.31Zm-1.29,0a.43.43,0,1,0-.43-.43A.43.43,0,0,0,230.55,160.31Zm6.45,3.55a.43.43,0,0,0,0-.86.43.43,0,0,0,0,.86Zm-1.29,0a.43.43,0,0,0,0-.86.43.43,0,1,0,0,.86Zm-1.29,0a.43.43,0,1,0,0-.86.43.43,0,1,0,0,.86Zm-1.29,0a.43.43,0,0,0,0-.86.43.43,0,0,0,0,.86Zm-1.29,0a.43.43,0,1,0-.43-.43A.43.43,0,0,0,231.84,163.86Zm-1.29,0a.43.43,0,1,0-.43-.43A.43.43,0,0,0,230.55,163.86Z"/><path class="cls-17" d="M211.57,151.49a.37.37,0,0,1,.38-.37h1.5a.36.36,0,0,1,.37.37.37.37,0,0,1-.37.37H212A.38.38,0,0,1,211.57,151.49Zm.38,2.09h1.5a.37.37,0,0,0,0-.74H212a.37.37,0,1,0,0,.74Zm0,1.72h1.5a.36.36,0,0,0,.37-.37.37.37,0,0,0-.37-.37H212a.38.38,0,0,0-.38.37A.37.37,0,0,0,212,155.3Zm0,1.72h1.5a.36.36,0,0,0,.37-.37.37.37,0,0,0-.37-.37H212a.38.38,0,0,0-.38.37A.37.37,0,0,0,212,157Zm0,1.72h1.5a.36.36,0,0,0,.37-.37.37.37,0,0,0-.37-.37H212a.38.38,0,0,0-.38.37A.37.37,0,0,0,212,158.74Zm0,1.73h1.5a.38.38,0,0,0,0-.75H212a.38.38,0,1,0,0,.75Zm0,1.72h1.5a.38.38,0,0,0,0-.75H212a.38.38,0,1,0,0,.75Zm0,1.72h1.5a.38.38,0,0,0,0-.75H212a.38.38,0,1,0,0,.75Zm-5.64-12h4a.38.38,0,0,0,.37-.37.37.37,0,0,0-.37-.37h-4a.37.37,0,0,0-.37.37A.38.38,0,0,0,206.31,151.86Zm0,1.72h4a.37.37,0,0,0,0-.74h-4a.37.37,0,0,0,0,.74Zm0,1.72h4a.37.37,0,0,0,.37-.37.38.38,0,0,0-.37-.37h-4a.38.38,0,0,0-.37.37A.37.37,0,0,0,206.31,155.3Zm0,1.72h4a.37.37,0,0,0,.37-.37.38.38,0,0,0-.37-.37h-4a.38.38,0,0,0-.37.37A.37.37,0,0,0,206.31,157Zm0,1.72h4a.37.37,0,0,0,.37-.37.38.38,0,0,0-.37-.37h-4a.38.38,0,0,0-.37.37A.37.37,0,0,0,206.31,158.74Zm-4.73,1.73h3.95a.38.38,0,0,0,0-.75h-3.95a.38.38,0,0,0,0,.75Zm0,1.72h3.95a.38.38,0,0,0,0-.75h-3.95a.38.38,0,0,0,0,.75Zm0,1.72h3.95a.38.38,0,0,0,0-.75h-3.95a.38.38,0,0,0,0,.75Zm3-12a.43.43,0,1,0-.43-.43A.43.43,0,0,0,204.63,151.92Zm-1.29,0a.43.43,0,1,0-.43-.43A.43.43,0,0,0,203.34,151.92Zm-1.29,0a.43.43,0,1,0-.43-.43A.43.43,0,0,0,202.05,151.92Zm-1.29,0a.43.43,0,1,0-.43-.43A.43.43,0,0,0,200.76,151.92Zm-1.29,0a.43.43,0,1,0-.43-.43A.43.43,0,0,0,199.47,151.92Zm-1.29,0a.43.43,0,1,0-.43-.43A.43.43,0,0,0,198.18,151.92Zm6.45,3.44a.43.43,0,1,0-.43-.43A.43.43,0,0,0,204.63,155.36Zm-1.29,0a.43.43,0,1,0-.43-.43A.43.43,0,0,0,203.34,155.36Zm-1.29,0a.43.43,0,1,0-.43-.43A.43.43,0,0,0,202.05,155.36Zm-1.29,0a.43.43,0,1,0-.43-.43A.43.43,0,0,0,200.76,155.36Zm-1.29,0a.43.43,0,1,0-.43-.43A.43.43,0,0,0,199.47,155.36Zm-1.29,0a.43.43,0,1,0-.43-.43A.43.43,0,0,0,198.18,155.36Zm2,4.95a.43.43,0,1,0,0-.86.43.43,0,0,0,0,.86Zm-1.29,0a.43.43,0,1,0-.43-.43A.43.43,0,0,0,198.93,160.31Zm-1.29,0a.43.43,0,1,0-.43-.43A.43.43,0,0,0,197.64,160.31Zm-1.29,0a.43.43,0,1,0-.43-.43A.43.43,0,0,0,196.35,160.31Zm-1.29,0a.43.43,0,1,0-.43-.43A.43.43,0,0,0,195.06,160.31Zm-1.29,0a.43.43,0,1,0-.43-.43A.43.43,0,0,0,193.77,160.31Zm6.45,3.55a.43.43,0,0,0,0-.86.43.43,0,1,0,0,.86Zm-1.29,0a.43.43,0,1,0-.43-.43A.43.43,0,0,0,198.93,163.86Zm-1.29,0a.43.43,0,1,0-.43-.43A.43.43,0,0,0,197.64,163.86Zm-1.29,0a.43.43,0,1,0-.43-.43A.43.43,0,0,0,196.35,163.86Zm-1.29,0a.43.43,0,1,0-.43-.43A.43.43,0,0,0,195.06,163.86Zm-1.29,0a.43.43,0,1,0-.43-.43A.43.43,0,0,0,193.77,163.86Z"/><path class="cls-5" d="M263.42,162s6.28-14.64,11.77-14.64,5.23,12.29,1.83,18.83-10.72,9.15-12.81,5.23"/><g class="cls-21"><path class="cls-20" d="M263.42,162s6.28-14.64,11.77-14.64,5.23,12.29,1.83,18.83-10.72,9.15-12.81,5.23"/><path class="cls-22" d="M263.42,162s6.28-14.64,11.77-14.64,5.23,12.29,1.83,18.83-10.72,9.15-12.81,5.23"/></g><path class="cls-11" d="M263.42,162s6.28-14.64,11.77-14.64,5.23,12.29,1.83,18.83-10.72,9.15-12.81,5.23"/><path class="cls-11" d="M277,156.35s.79-6.37-2.23-5.25-6.53,11.15-6.53,11.15,2.55-2.71,2.23-.16a2.9,2.9,0,0,1-2.55,2.71"/></g><g id="Device"><polygon class="cls-2" points="53.64 207.44 177.62 207.44 198.78 292.54 74.81 292.54 53.64 207.44"/><rect class="cls-2" x="76.1" y="292.54" width="184.88" height="6.05" transform="translate(337.09 591.13) rotate(-180)"/><rect class="cls-23" x="74.81" y="292.54" width="123.98" height="6.05" transform="translate(273.59 591.13) rotate(-180)"/><polygon class="cls-23" points="52.27 207.44 176.25 207.44 197.41 292.54 73.44 292.54 52.27 207.44"/><ellipse class="cls-17" cx="125.55" cy="251.61" rx="17.68" ry="17.51"/><path class="cls-5" d="M132.14,257.53c-.24.1-.49,0-.73-.33a1.87,1.87,0,0,1-.36-1,.92.92,0,0,1,.4-.82l6.29-2.53-6.27-2.44a.94.94,0,0,1-.51-.87,1.65,1.65,0,0,1,.43-1q.41-.5.78-.33l7.5,3a1.78,1.78,0,0,1,1,1,1.72,1.72,0,0,1,0,1.28,1.47,1.47,0,0,1-.8.87Z"/><path class="cls-5" d="M127.52,258.75a.89.89,0,0,1-.91-.68l-4.36-12.7a3.31,3.31,0,0,1-.22-1,1,1,0,0,1,.29-.75,1.07,1.07,0,0,1,.71-.26c.49,0,.86.45,1.12,1.35l4.15,12a5.05,5.05,0,0,1,.25,1.06.85.85,0,0,1-.32.69A1.1,1.1,0,0,1,127.52,258.75Z"/><path class="cls-5" d="M119.33,257.53l-7.78-3.23a1.37,1.37,0,0,1-.66-.6,1.9,1.9,0,0,1-.25-.89,1.63,1.63,0,0,1,.28-.94,2,2,0,0,1,.89-.72l7.49-3q.38-.16.78.33a1.6,1.6,0,0,1,.43,1,.91.91,0,0,1-.5.87l-6.28,2.44,6.29,2.53a.92.92,0,0,1,.4.82,1.73,1.73,0,0,1-.36,1C119.82,257.52,119.58,257.63,119.33,257.53Z"/></g><g id="Table"><rect class="cls-1" x="6.16" y="297.25" width="401.33" height="6" transform="translate(413.65 600.51) rotate(-180)"/></g></svg>