<svg id="Ñëîé_1" data-name="Ñëîé 1" xmlns="http://www.w3.org/2000/svg" viewBox="0 0 2695.04 2200"><defs><style>.cls-1,.cls-22,.cls-23{fill:#fff;}.cls-2{fill:#322a28;}.cls-3{fill:#e5f0f8;}.cls-4{fill:#40a87b;}.cls-12,.cls-13,.cls-14,.cls-16,.cls-26,.cls-28,.cls-30,.cls-35,.cls-36,.cls-38,.cls-39,.cls-42,.cls-43,.cls-44,.cls-45,.cls-47,.cls-49,.cls-5,.cls-50,.cls-7,.cls-8,.cls-9{fill:none;}.cls-5,.cls-8{stroke:#6adb6a;}.cls-14,.cls-15,.cls-16,.cls-22,.cls-23,.cls-24,.cls-26,.cls-28,.cls-30,.cls-36,.cls-38,.cls-39,.cls-42,.cls-43,.cls-44,.cls-45,.cls-5,.cls-7,.cls-8,.cls-9{stroke-miterlimit:10;}.cls-5,.cls-7{stroke-width:4.92px;}.cls-6{fill:#6adb6a;}.cls-50,.cls-7,.cls-9{stroke:#40a87b;}.cls-8,.cls-9{stroke-width:3.59px;}.cls-10,.cls-15,.cls-24{fill:#bbdbf3;}.cls-11{fill:#93acbf;}.cls-12,.cls-16,.cls-39,.cls-47{stroke:#fff;}.cls-12,.cls-13,.cls-35,.cls-47,.cls-49,.cls-50{stroke-linecap:round;stroke-linejoin:round;}.cls-12{stroke-width:7.7px;}.cls-13,.cls-14,.cls-15,.cls-24,.cls-49{stroke:#bbdbf3;}.cls-13{stroke-width:3.61px;stroke-dasharray:14.44;}.cls-14{stroke-width:3.62px;}.cls-15{stroke-width:2.53px;}.cls-16{stroke-width:3.05px;}.cls-17{fill:#0775ef;}.cls-18{fill:#f9e181;}.cls-19{fill:#2ec6fc;}.cls-20{fill:#586773;}.cls-21{fill:#f9ecb8;}.cls-22,.cls-23{stroke:#586773;}.cls-22{stroke-width:1.85px;}.cls-23{stroke-width:1.52px;}.cls-24{stroke-width:2.46px;}.cls-25{fill:#088cfc;}.cls-26,.cls-28{stroke:#000;}.cls-26{stroke-width:0.39px;}.cls-27{fill:#f74242;}.cls-28{stroke-width:0.32px;}.cls-29{fill:#a06753;}.cls-30{stroke:#d1ddff;stroke-width:2.21px;}.cls-31{fill:#b86b76;}.cls-32{fill:#088cff;}.cls-33{fill:#e7888b;}.cls-34{fill:#824c3a;}.cls-35{stroke:#724638;stroke-width:0.55px;}.cls-36,.cls-38{stroke:#2c3447;}.cls-36{stroke-width:0.82px;}.cls-37{fill:#a14c53;}.cls-38{stroke-width:1.13px;}.cls-39{stroke-width:0.93px;}.cls-40{fill:#fdae97;}.cls-41{fill:#e89780;}.cls-42{stroke:#e89780;stroke-width:0.57px;}.cls-43,.cls-44{stroke:#332b27;}.cls-43{stroke-width:0.72px;}.cls-44{stroke-width:0.98px;}.cls-45{stroke:#f7e7dc;stroke-width:0.81px;}.cls-46{fill:#332b27;}.cls-47{stroke-width:0.39px;}.cls-48{fill:#f9d6af;}.cls-49{stroke-width:1.26px;}.cls-50{stroke-width:1.68px;}</style></defs><rect class="cls-1" width="2695.04" height="2200"/><path class="cls-2" d="M1033,312.6h65.55v19.87h-44v19.88h40.72v19.87h-40.72v38.09H1033Z"/><path class="cls-2" d="M1111.4,343.24h20.7V354h.28a25.39,25.39,0,0,1,7.86-9.31,19.91,19.91,0,0,1,11.46-3.11c1.19,0,2.39.05,3.59.14a18.29,18.29,0,0,1,3.31.55v18.91a31.82,31.82,0,0,0-4.35-1,28.17,28.17,0,0,0-4.48-.34,21.91,21.91,0,0,0-9.39,1.66,12.39,12.39,0,0,0-5.31,4.62,17.66,17.66,0,0,0-2.42,7.1,68.93,68.93,0,0,0-.55,9.11v28h-20.7Z"/><path class="cls-2" d="M1162.6,376.77a35.21,35.21,0,0,1,2.9-14.49,33.41,33.41,0,0,1,7.93-11.11,35,35,0,0,1,11.87-7.1,43.81,43.81,0,0,1,29.12,0,34.93,34.93,0,0,1,11.87,7.1,33.41,33.41,0,0,1,7.93,11.11,37.65,37.65,0,0,1,0,29,33.21,33.21,0,0,1-7.93,11.11,35,35,0,0,1-11.87,7.11,44,44,0,0,1-29.12,0,35.05,35.05,0,0,1-11.87-7.11,33.21,33.21,0,0,1-7.93-11.11A35.14,35.14,0,0,1,1162.6,376.77Zm20.7,0q0,7.59,4.35,12.28t12.21,4.7q7.88,0,12.21-4.7t4.35-12.28q0-7.59-4.35-12.28t-12.21-4.69q-7.86,0-12.21,4.69T1183.3,376.77Z"/><path class="cls-2" d="M1249.26,343.24h19.88v9.11h.27a17.17,17.17,0,0,1,2.76-3.87,20.27,20.27,0,0,1,4.28-3.45,24.39,24.39,0,0,1,5.66-2.48,23.72,23.72,0,0,1,6.9-1q7.86,0,12.7,2.42a18.46,18.46,0,0,1,7.52,6.69,27.06,27.06,0,0,1,3.65,10.07,76,76,0,0,1,1,12.56v37h-20.7V377.46q0-2.9-.21-6a19,19,0,0,0-1.24-5.73,8.91,8.91,0,0,0-9.32-5.93,12.74,12.74,0,0,0-6.48,1.45,9.85,9.85,0,0,0-3.8,3.86,15.77,15.77,0,0,0-1.72,5.45,46.42,46.42,0,0,0-.41,6.35v33.4h-20.71Z"/><path class="cls-2" d="M1374.16,359.8h-18.22v22.35a40.78,40.78,0,0,0,.28,5,9.94,9.94,0,0,0,1.24,3.93,6.25,6.25,0,0,0,3,2.56,13.17,13.17,0,0,0,5.32.9,35.86,35.86,0,0,0,4.34-.35,7.37,7.37,0,0,0,4.08-1.59v17.25a31.51,31.51,0,0,1-7.18,1.66,65.26,65.26,0,0,1-7.31.41,40.19,40.19,0,0,1-9.67-1.1,22,22,0,0,1-7.72-3.52,16.43,16.43,0,0,1-5.18-6.28,21.46,21.46,0,0,1-1.86-9.38V359.8H1322V343.24h13.25V323.37h20.7v19.87h18.22Z"/><path class="cls-2" d="M1428.94,312.6h66.38v19.87h-44.85v18.22h42.37v19.87h-42.37v19.88h47.33v19.87h-68.86Z"/><path class="cls-2" d="M1512.43,343.24h19.87v9.11h.28a16.56,16.56,0,0,1,2.76-3.87,20,20,0,0,1,4.28-3.45,24.2,24.2,0,0,1,5.66-2.48,23.67,23.67,0,0,1,6.9-1q7.86,0,12.69,2.42a18.34,18.34,0,0,1,7.52,6.69,26.89,26.89,0,0,1,3.66,10.07,77.08,77.08,0,0,1,1,12.56v37h-20.7V377.46q0-2.9-.21-6a19,19,0,0,0-1.24-5.73,8.93,8.93,0,0,0-9.32-5.93,12.69,12.69,0,0,0-6.48,1.45,9.79,9.79,0,0,0-3.8,3.86,15.56,15.56,0,0,0-1.72,5.45,46.39,46.39,0,0,0-.42,6.35v33.4h-20.7Z"/><path class="cls-2" d="M1662,410.31h-19v-8.83h-.27a23.39,23.39,0,0,1-3.25,3.65,24.52,24.52,0,0,1-4.69,3.38,28.77,28.77,0,0,1-5.93,2.49,23.54,23.54,0,0,1-6.7,1,34.55,34.55,0,0,1-13.52-2.55,30,30,0,0,1-10.42-7.18,31.8,31.8,0,0,1-6.69-11,39.73,39.73,0,0,1-2.35-13.93,42.16,42.16,0,0,1,2.14-13.46,37,37,0,0,1,6.07-11.39,29.69,29.69,0,0,1,9.59-7.93,27.2,27.2,0,0,1,12.84-3,35.63,35.63,0,0,1,12.07,2,19.34,19.34,0,0,1,9.18,6.84h.27V306H1662Zm-19-33.54q0-7.59-4.35-12.28t-12.21-4.69q-7.87,0-12.21,4.69t-4.35,12.28q0,7.59,4.35,12.28t12.21,4.7q7.86,0,12.21-4.7T1643,376.77Z"/><path class="cls-3" d="M2254.93,2023.45S2904.67,460.19,1712.32,566c-510.69,45.32-415.35,320.27-640.9,577.54-146.2,166.75-427.38,30.34-532.76,176s18.46,561.21,61.9,703.85Z"/><path class="cls-4" d="M474.08,2015.88s-43.81-174.77-153-228.7-225.78,19.9-196.18,97.55c25.52,67,130.47-15.37,212.13,17s94.53,114.14,94.53,114.14Z"/><path class="cls-5" d="M146,1838.17s117.22-66.8,204.18-5,114.49,182.75,114.49,182.75"/><line class="cls-5" x1="164.89" y1="1806.93" x2="192.16" y2="1818.82"/><line class="cls-5" x1="204.27" y1="1781.45" x2="258.59" y2="1806.93"/><line class="cls-5" x1="285.88" y1="1781.45" x2="314.14" y2="1814.83"/><line class="cls-5" x1="339.45" y1="1803.82" x2="352.15" y2="1834.56"/><line class="cls-5" x1="178.52" y1="1880.71" x2="220.39" y2="1811.44"/><line class="cls-5" x1="252.48" y1="1870.78" x2="290.88" y2="1809.11"/><line class="cls-5" x1="317.71" y1="1861.33" x2="375.43" y2="1854.15"/><line class="cls-5" x1="384.91" y1="1896.3" x2="418" y2="1907.17"/><path class="cls-6" d="M511.66,2016.39s30.91-585.82-248.9-510.33S481,1897.29,480.61,2016.39Z"/><path class="cls-7" d="M500.35,2016.39S490.58,1710.32,291.12,1559"/><line class="cls-7" x1="378.6" y1="1647.73" x2="373.62" y2="1542.18"/><line class="cls-7" x1="222.12" y1="1603.99" x2="356.93" y2="1621.57"/><line class="cls-7" x1="274.55" y1="1694.07" x2="417.09" y2="1710.68"/><line class="cls-7" x1="345.82" y1="1783.34" x2="455.91" y2="1798.9"/><line class="cls-7" x1="466.48" y1="1699.93" x2="441.24" y2="1761.24"/><line class="cls-7" x1="425.01" y1="1600.43" x2="403.5" y2="1686.74"/><line class="cls-7" x1="490.03" y1="1802.28" x2="469.93" y2="1842.36"/><line class="cls-7" x1="403.5" y1="1866.09" x2="482.39" y2="1890.96"/><path class="cls-4" d="M2316.58,2016.87s32-127.54,111.68-166.91,164.78,14.53,143.18,71.2c-18.63,48.86-95.22-11.22-154.82,12.41s-69,83.3-69,83.3Z"/><path class="cls-8" d="M2556,1887.18s-85.55-48.76-149-3.68-83.55,133.37-83.55,133.37"/><line class="cls-8" x1="2542.23" y1="1864.38" x2="2522.33" y2="1873.05"/><line class="cls-8" x1="2513.49" y1="1845.78" x2="2473.84" y2="1864.38"/><line class="cls-8" x1="2453.93" y1="1845.78" x2="2433.3" y2="1870.15"/><line class="cls-8" x1="2414.83" y1="1862.11" x2="2405.56" y2="1884.55"/><line class="cls-8" x1="2532.28" y1="1918.22" x2="2501.73" y2="1867.67"/><line class="cls-8" x1="2478.3" y1="1910.98" x2="2450.28" y2="1865.97"/><line class="cls-8" x1="2430.7" y1="1904.08" x2="2388.57" y2="1898.84"/><line class="cls-8" x1="2381.66" y1="1929.6" x2="2357.51" y2="1937.53"/><path class="cls-6" d="M2289.16,2017.25s-22.57-427.54,181.64-372.44-159.29,285.51-159,372.44Z"/><path class="cls-9" d="M2297.41,2017.25s7.13-223.38,152.69-333.83"/><line class="cls-9" x1="2386.26" y1="1748.19" x2="2389.9" y2="1671.17"/><line class="cls-9" x1="2500.46" y1="1716.28" x2="2402.08" y2="1729.1"/><line class="cls-9" x1="2462.2" y1="1782.02" x2="2358.17" y2="1794.14"/><line class="cls-9" x1="2410.19" y1="1847.16" x2="2329.84" y2="1858.52"/><line class="cls-9" x1="2322.13" y1="1786.29" x2="2340.55" y2="1831.03"/><line class="cls-9" x1="2352.39" y1="1713.67" x2="2368.09" y2="1776.67"/><line class="cls-9" x1="2304.94" y1="1860.99" x2="2319.61" y2="1890.23"/><line class="cls-9" x1="2368.09" y1="1907.55" x2="2310.52" y2="1925.71"/><path class="cls-10" d="M326.94,603.88V599l28.23-15.28v7.47l-18.86,10.26,18.86,10.25v7.47Z"/><path class="cls-10" d="M877,1009.76v-7.47L895.86,992,877,981.78v-7.47l28.23,15.28v4.89Z"/><rect class="cls-10" x="365.64" y="595.67" width="112.27" height="11.53"/><rect class="cls-10" x="326.94" y="640.24" width="112.27" height="11.53"/><rect class="cls-10" x="350.85" y="671.29" width="112.27" height="11.53"/><rect class="cls-10" x="350.85" y="756.75" width="112.27" height="11.53"/><rect class="cls-10" x="350.85" y="783.19" width="112.27" height="11.53"/><rect class="cls-10" x="389.43" y="700.86" width="338.58" height="11.53"/><rect class="cls-10" x="389.43" y="811.27" width="452.31" height="11.53"/><rect class="cls-10" x="389.43" y="899.7" width="452.31" height="11.53"/><rect class="cls-10" x="431.97" y="986.27" width="433.34" height="11.53"/><rect class="cls-10" x="389.43" y="929.75" width="96.88" height="11.53"/><rect class="cls-10" x="389.43" y="958.33" width="96.88" height="11.53"/><rect class="cls-10" x="389.43" y="839.5" width="452.31" height="11.53"/><rect class="cls-10" x="389.43" y="867.73" width="244.72" height="11.53"/><rect class="cls-10" x="389.43" y="727.45" width="103.82" height="11.53"/><rect class="cls-11" x="876.8" y="719.3" width="1088.03" height="1499.31" rx="63.26" transform="translate(-48.14 2889.77) rotate(-90)"/><path class="cls-3" d="M2037.86,988v962a6.63,6.63,0,0,1-.39,2.26,7.91,7.91,0,0,1-7.68,5.81H734.2a8.09,8.09,0,0,1-8.14-8.07V988a8.11,8.11,0,0,1,8.14-8.14H2029.79A8.09,8.09,0,0,1,2037.86,988Z"/><rect class="cls-1" x="772.18" y="1025.96" width="1219.55" height="885.97"/><path class="cls-10" d="M2104.36,1576.05h0a28,28,0,0,1-27.92-27.92V1389.78a28,28,0,0,1,27.92-27.92h0a28,28,0,0,1,27.92,27.92v158.35A28,28,0,0,1,2104.36,1576.05Z"/><rect class="cls-10" x="772.18" y="1025.96" width="1219.55" height="83.5"/><line class="cls-12" x1="1914.64" y1="1091.73" x2="1962.67" y2="1043.69"/><line class="cls-12" x1="1962.67" y1="1091.73" x2="1914.64" y2="1043.69"/><rect class="cls-3" x="772.18" y="1109.46" width="289.09" height="802.47"/><rect class="cls-1" x="801.02" y="1154.46" width="231.41" height="18.64"/><rect class="cls-1" x="801.02" y="1203.73" width="231.41" height="18.64"/><rect class="cls-1" x="801.02" y="1253" width="231.41" height="18.64"/><rect class="cls-1" x="801.02" y="1302.27" width="231.41" height="18.64"/><rect class="cls-1" x="801.02" y="1351.54" width="231.41" height="18.64"/><rect class="cls-1" x="801.02" y="1400.81" width="231.41" height="18.64"/><rect class="cls-1" x="801.02" y="1450.08" width="231.41" height="18.64"/><rect class="cls-1" x="801.02" y="1499.35" width="231.41" height="18.64"/><rect class="cls-1" x="801.02" y="1548.62" width="231.41" height="18.64"/><rect class="cls-1" x="801.02" y="1597.89" width="231.41" height="18.64"/><rect class="cls-1" x="801.02" y="1647.16" width="231.41" height="18.64"/><rect class="cls-1" x="801.02" y="1696.43" width="231.41" height="18.64"/><rect class="cls-13" x="1093.42" y="1607.21" width="371.02" height="285.22"/><rect class="cls-14" x="1186.3" y="1130.78" width="590.69" height="47.36"/><rect class="cls-15" x="1682.56" y="1130.78" width="94.43" height="47.36"/><rect class="cls-15" x="1867.42" y="1130.78" width="94.43" height="47.36"/><path class="cls-1" d="M1713.45,1164.09a15.63,15.63,0,0,0,19.87-4l25.24,14.11,2.45-4.38-25.24-14.1a15.66,15.66,0,1,0-22.32,8.36Zm13.63-24.4a12.25,12.25,0,1,1-16.67,4.72A12.28,12.28,0,0,1,1727.08,1139.69Z"/><rect class="cls-13" x="1093.42" y="1213.05" width="868.43" height="373.9"/><rect class="cls-3" x="1493.93" y="1817.44" width="467.92" height="74.99"/><polygon class="cls-1" points="1568.49 1854.93 1520.47 1827.2 1520.47 1882.66 1568.49 1854.93"/><line class="cls-16" x1="1589.9" y1="1854.93" x2="1931.25" y2="1854.93"/><rect class="cls-1" x="1589.9" y="1842.32" width="6.31" height="25.23"/><rect class="cls-3" x="1493.93" y="1712.32" width="467.92" height="74.99"/><polygon class="cls-1" points="1568.49 1749.82 1520.47 1722.09 1520.47 1777.55 1568.49 1749.82"/><line class="cls-16" x1="1589.9" y1="1749.82" x2="1931.25" y2="1749.82"/><rect class="cls-1" x="1589.9" y="1737.21" width="6.31" height="25.22"/><rect class="cls-3" x="1493.93" y="1607.21" width="467.92" height="74.99"/><polygon class="cls-1" points="1568.49 1644.7 1520.47 1616.97 1520.47 1672.43 1568.49 1644.7"/><line class="cls-16" x1="1589.9" y1="1644.7" x2="1931.25" y2="1644.7"/><rect class="cls-1" x="1589.9" y="1632.09" width="6.31" height="25.22"/><path class="cls-17" d="M1596.83,561.79h-756a16.2,16.2,0,0,0-16.2,16.2V949.33H1613V578A16.2,16.2,0,0,0,1596.83,561.79Z"/><rect class="cls-1" x="833.46" y="606.46" width="770.76" height="333.4"/><rect class="cls-3" x="858.89" y="636.34" width="119.23" height="119.23"/><rect class="cls-18" x="858.89" y="788.11" width="119.23" height="119.23"/><rect class="cls-10" x="1005.09" y="636.34" width="119.23" height="119.23"/><rect class="cls-17" x="1005.09" y="788.11" width="119.23" height="119.23"/><rect class="cls-11" x="1151.28" y="636.34" width="119.23" height="119.23"/><rect class="cls-19" x="1151.28" y="788.11" width="119.23" height="119.23"/><rect class="cls-20" x="1297.48" y="636.34" width="119.23" height="119.23"/><rect class="cls-6" x="1297.48" y="788.11" width="119.23" height="119.23"/><rect class="cls-21" x="1443.68" y="636.34" width="119.23" height="119.23"/><path class="cls-22" d="M1555.76,793a15.76,15.76,0,0,0-22.58.29L1449,881.89a5.67,5.67,0,0,0-.35,7.38l-7.07,10.46,7.45,7.45,10.47-7.07a5.65,5.65,0,0,0,7.37-.35l88.6-84.17A15.76,15.76,0,0,0,1555.76,793Z"/><path class="cls-23" d="M1532.89,842.64l-26.76-26.75a10,10,0,0,1,0-14.09h0a10,10,0,0,1,14.08,0L1547,828.56a10,10,0,0,1,0,14.08h0A10,10,0,0,1,1532.89,842.64Z"/><path class="cls-1" d="M2188.32,805.38l-199.08,311.95a24,24,0,0,1-30,9l-35.93,39.84L1885,1143.07l18.44-50.37a24,24,0,0,1-6.08-30.76l182.82-321.78Z"/><path class="cls-20" d="M2268.57,679.61,2233.86,734l-45.54,71.36-108.19-65.22,41.79-73.56,31.88-56.15a67,67,0,1,1,114.77,69.16Z"/><path class="cls-20" d="M2261.16,799.87a42.34,42.34,0,0,1-58.08,14.41l-14.76-8.9-108.19-65.22-14.76-8.9A42.29,42.29,0,0,1,2109,658.82l12.9,7.78L2233.86,734l12.9,7.77A42.3,42.3,0,0,1,2261.16,799.87Z"/><path class="cls-24" d="M1907,1067.46a12.92,12.92,0,0,0,3.27,16.44l6.38,5-18.06,49.34,22.54,13.6,35.15-39,7.39,3.25a13.11,13.11,0,0,0,5.29,1.11,12.71,12.71,0,0,0,10.82-5.93l49.34-77.31-77.29-45.44Z"/><path class="cls-1" d="M2360.59,1376.1a17.5,17.5,0,0,0-24.27,6.35l-8.33,14.67-3.37-2a11,11,0,1,0-11.41,18.92l3.86,2.33-47.77,84.07a6.29,6.29,0,0,0,1.59,8l-4.81,13.16,10,6,9.39-10.41a6.26,6.26,0,0,0,7.84-2.36l52-81.5,3.85,2.32a11.06,11.06,0,1,0,11.42-18.94l-3.37-2,9.06-14.21A17.52,17.52,0,0,0,2360.59,1376.1Z"/><path class="cls-25" d="M438.48,1944.45h402.1a0,0,0,0,1,0,0V1999a14,14,0,0,1-14,14H452.47a14,14,0,0,1-14-14v-54.52A0,0,0,0,1,438.48,1944.45Z" transform="translate(1279.06 3957.41) rotate(180)"/><path class="cls-25" d="M728.82,1570.33h0a32.49,32.49,0,0,1-40.57-22.44L566.71,1110.36a24.09,24.09,0,0,1,16.34-29.54h0a24.08,24.08,0,0,1,29.83,15.79L750.5,1529.35A32.48,32.48,0,0,1,728.82,1570.33Z"/><rect class="cls-19" x="471.55" y="1722.16" width="335.98" height="222.27"/><polygon class="cls-17" points="471.55 1722.17 807.51 1722.17 776.05 1674.23 503.01 1674.23 471.55 1722.17"/><path class="cls-17" d="M679.66,1550.28A41.4,41.4,0,1,0,759,1526.65l-46.08-144.9a5.26,5.26,0,0,0-6.59-3.42l-63.6,20a5.25,5.25,0,0,0-3.49,6.42Z"/><rect class="cls-17" x="601.76" y="1615.27" width="75.54" height="44.33" transform="translate(1279.06 3274.86) rotate(180)"/><rect class="cls-25" x="555.1" y="1648.78" width="168.86" height="25.45" transform="translate(1279.06 3323.01) rotate(180)"/><polygon class="cls-25" points="718.08 1722.16 807.52 1877.08 807.52 1780.3 773.95 1722.16 718.08 1722.16"/><polygon class="cls-25" points="604.34 1722.16 732.67 1944.44 788.52 1944.44 660.19 1722.16 604.34 1722.16"/><polygon class="cls-25" points="490.55 1722.16 618.91 1944.44 674.75 1944.44 546.42 1722.16 490.55 1722.16"/><polygon class="cls-25" points="471.55 1791.03 471.55 1887.78 504.27 1944.44 560.12 1944.44 471.55 1791.03"/><path class="cls-19" d="M569.72,1589.41c9.48,46.8,125.58,76.94,176.5-8.79,46.63-78.51-30.5-105.3-52.51-71-27.3,42.5-36.81,34.1-82.24,32.05C584.19,1540.4,564,1560.88,569.72,1589.41Z"/><path class="cls-2" d="M736.84,1547.49a48.09,48.09,0,0,1-1,6c0,.06,0,.12,0,.19a48.38,48.38,0,0,1-4.47,11.86,43.25,43.25,0,0,1-4,6,41.34,41.34,0,0,1-5.79,6,43.88,43.88,0,0,1-9.38,6c-12.61,5.95-26.93,5.35-35.14,0a15.38,15.38,0,0,1-5.19-5.38,7,7,0,0,1-.35-.66,16.58,16.58,0,0,1-1.85-6,14.11,14.11,0,0,1,.56-6,14.52,14.52,0,0,1,3.78-6,17.66,17.66,0,0,1,7.83-4.34c2.52-.69,4.78-1.23,6.89-1.7,7.08-1.57,12-2.49,15.67-6a19,19,0,0,0,4.18-6,45.14,45.14,0,0,0,2.21-6c.18-.63.37-1.29.56-2a12.17,12.17,0,0,1,1.89-4c4.47-6.39,14.22-7,19.79,0a17.07,17.07,0,0,1,3,6,24.23,24.23,0,0,1,1,6A33.9,33.9,0,0,1,736.84,1547.49Z"/><path class="cls-19" d="M721.52,1577.6a43.88,43.88,0,0,1-9.38,6H677a15.38,15.38,0,0,1-5.19-5.38,7,7,0,0,1-.35-.66Z"/><path class="cls-19" d="M731.3,1565.55a43.25,43.25,0,0,1-4,6h-57.7a14.11,14.11,0,0,1,.56-6Z"/><path class="cls-19" d="M735.8,1553.5c0,.06,0,.12,0,.19a47.43,47.43,0,0,1-1.76,5.85H674a17.66,17.66,0,0,1,7.83-4.34c2.52-.69,4.78-1.23,6.89-1.7Z"/><path class="cls-19" d="M736.84,1547.49h-32.5a19,19,0,0,0,4.18-6H737A33.9,33.9,0,0,1,736.84,1547.49Z"/><path class="cls-19" d="M736,1535.44H710.73c.18-.63.37-1.29.56-2a12.17,12.17,0,0,1,1.89-4H733A17.07,17.07,0,0,1,736,1535.44Z"/><circle class="cls-17" cx="590.19" cy="1105.57" r="41.15" transform="translate(-396.21 332.5) rotate(-23.82)"/><path class="cls-26" d="M598.91,1100.74a10,10,0,1,1-13.55-3.89A10,10,0,0,1,598.91,1100.74Z"/><path class="cls-19" d="M570.9,1105.88h0a19.83,19.83,0,0,0,22.31,16.85l379.92-53.07A19.83,19.83,0,0,0,990,1047.35h0a19.84,19.84,0,0,0-22.31-16.84l-379.93,53.06A19.82,19.82,0,0,0,570.9,1105.88Z"/><path class="cls-17" d="M974.5,982.53h40.21a12.72,12.72,0,0,1,12.72,12.72v90.51a27.84,27.84,0,0,1-27.84,27.84h-10a27.84,27.84,0,0,1-27.84-27.84V995.25a12.72,12.72,0,0,1,12.72-12.72Z" transform="translate(74.33 2161.97) rotate(-96.94)"/><path class="cls-25" d="M1043.54,1014.82a31.88,31.88,0,0,0-42.51,15c0,.06,0,.12-.07.18l-38.28,91.61a26.93,26.93,0,0,0,48.6,23.22l47.29-87.52A31.89,31.89,0,0,0,1043.54,1014.82Z"/><path class="cls-25" d="M1002.54,1026.94a31.88,31.88,0,0,1,43.85-10.5l.16.12,81.93,56.07a26.93,26.93,0,0,1-28.17,45.91L1013,1070.8A31.89,31.89,0,0,1,1002.54,1026.94Z"/><path class="cls-21" d="M1016.72,1035.86a15.81,15.81,0,0,0,3.78,19.63,16.05,16.05,0,0,0,2.67,1.81,15.84,15.84,0,0,0,17.68-26.08,16.34,16.34,0,0,0-2.68-1.81,16,16,0,0,0-3-1.24A15.84,15.84,0,0,0,1016.72,1035.86Z"/><path class="cls-18" d="M1035.18,1028.17l-14.68,27.32a16.05,16.05,0,0,0,2.67,1.81,15.85,15.85,0,0,0,3,1.23l14.69-27.31a16.34,16.34,0,0,0-2.68-1.81A16,16,0,0,0,1035.18,1028.17Z"/><path class="cls-19" d="M1141.53,1095.63a26.63,26.63,0,1,0-53.18-2.79,26.15,26.15,0,0,0,.79,7.48H1089l15.74,91a5.07,5.07,0,0,0,10.13.53l25.19-88.82H1140A26.3,26.3,0,0,0,1141.53,1095.63Z"/><path class="cls-21" d="M1106.08,1088.39a10.84,10.84,0,0,0,2,13.56,10.67,10.67,0,0,0,1.78,1.32,11.07,11.07,0,0,0,2,.94,10.86,10.86,0,0,0,10.87-18.28,11.41,11.41,0,0,0-1.78-1.32,10.72,10.72,0,0,0-2-.93A10.84,10.84,0,0,0,1106.08,1088.39Z"/><path class="cls-18" d="M1119,1083.68,1108.08,1102a10.67,10.67,0,0,0,1.78,1.32,11.07,11.07,0,0,0,2,.94l10.87-18.28a11.41,11.41,0,0,0-1.78-1.32A10.72,10.72,0,0,0,1119,1083.68Z"/><rect class="cls-10" x="830.27" y="1054.31" width="868.43" height="373.9" transform="matrix(0.95, -0.31, 0.31, 0.95, -324.76, 457.71)"/><rect class="cls-1" x="869.74" y="1175.46" width="243.78" height="311.27" transform="matrix(0.95, -0.31, 0.31, 0.95, -366.54, 376.89)"/><ellipse class="cls-10" cx="984.24" cy="1308.7" rx="50.73" ry="65" transform="translate(-359.91 373.45) rotate(-18.22)"/><path class="cls-10" d="M1143.81,1444.85,936.75,1513c-21.35-69.77,6.16-140.46,62.41-159S1119.53,1376,1143.81,1444.85Z"/><rect class="cls-1" x="1087.52" y="1104.44" width="192.27" height="16.11" transform="translate(-288.55 425.98) rotate(-18.22)"/><rect class="cls-1" x="1570.11" y="970.39" width="41.4" height="16.11" transform="translate(-226.2 546.58) rotate(-18.22)"/><rect class="cls-1" x="1518.93" y="987.24" width="41.4" height="16.11" transform="translate(-234.04 531.42) rotate(-18.22)"/><rect class="cls-1" x="1467.76" y="1004.09" width="41.4" height="16.11" transform="translate(-241.87 516.26) rotate(-18.22)"/><rect class="cls-1" x="1105.61" y="1150.22" width="306.19" height="16.11" transform="translate(-299.1 451.74) rotate(-18.22)"/><rect class="cls-1" x="1096.7" y="1128.2" width="243.68" height="16.11" transform="translate(-294.23 438.08) rotate(-18.22)"/><rect class="cls-1" x="1125.76" y="1233.56" width="44.12" height="13.91" transform="translate(-330.38 421.19) rotate(-18.22)"/><rect class="cls-1" x="1170.29" y="1197.47" width="174.3" height="13.91" transform="translate(-313.59 453.66) rotate(-18.22)"/><rect class="cls-1" x="1343.01" y="1144.44" width="150.96" height="13.91" transform="translate(-288.93 501.37) rotate(-18.22)"/><rect class="cls-1" x="1492.14" y="1094.38" width="156.79" height="13.91" transform="translate(-265.65 546.4) rotate(-18.22)"/><rect class="cls-1" x="1132.88" y="1251.37" width="91.53" height="13.91" transform="translate(-334.4 431.72) rotate(-18.22)"/><rect class="cls-1" x="1224.75" y="1209.26" width="163.54" height="13.91" transform="matrix(0.95, -0.31, 0.31, 0.95, -314.82, 469.6)"/><rect class="cls-1" x="1384.02" y="1138.28" width="276.21" height="13.91" transform="translate(-281.81 533.47) rotate(-18.22)"/><rect class="cls-1" x="1139.96" y="1268.95" width="140.38" height="13.91" transform="translate(-338.32 442.46) rotate(-18.22)"/><rect class="cls-1" x="1277.38" y="1214.1" width="198.73" height="13.91" transform="translate(-312.81 491.8) rotate(-18.22)"/><rect class="cls-1" x="1473.56" y="1150.47" width="192.89" height="13.91" transform="matrix(0.95, -0.31, 0.31, 0.95, -283.22, 549.05)"/><rect class="cls-1" x="1147.47" y="1289.23" width="171.99" height="13.91" transform="translate(-343.49 450.76) rotate(-18.22)"/><rect class="cls-1" x="1318.82" y="1232.81" width="171.99" height="13.91" transform="translate(-317.25 501.52) rotate(-18.22)"/><rect class="cls-1" x="1489.21" y="1174.56" width="185.04" height="13.91" transform="translate(-290.16 553.93) rotate(-18.22)"/><rect class="cls-1" x="1156.28" y="1317.64" width="151.57" height="13.91" transform="translate(-352.45 451.75) rotate(-18.22)"/><rect class="cls-1" x="1304.59" y="1257.89" width="217.93" height="13.91" transform="translate(-324.66 505.51) rotate(-18.22)"/><rect class="cls-1" x="1519.32" y="1196.29" width="162.68" height="13.91" transform="translate(-296.01 560.94) rotate(-18.22)"/><rect class="cls-1" x="1166.42" y="1354.27" width="78.64" height="13.91" transform="translate(-365.22 445.36) rotate(-18.22)"/><rect class="cls-1" x="1247.42" y="1323.15" width="105.68" height="13.91" transform="translate(-350.75 473.36) rotate(-18.22)"/><rect class="cls-1" x="1353.91" y="1277.82" width="168.04" height="13.91" transform="translate(-329.67 514.14) rotate(-18.22)"/><rect class="cls-1" x="1521.14" y="1222.76" width="168.04" height="13.91" transform="translate(-304.06 563.67) rotate(-18.22)"/><rect class="cls-1" x="1172.26" y="1364.15" width="176.73" height="13.91" transform="translate(-365.56 463.02) rotate(-18.22)"/><rect class="cls-1" x="1348.29" y="1312.12" width="140.75" height="13.91" transform="translate(-341.36 509.83) rotate(-18.22)"/><rect class="cls-1" x="1490.9" y="1269.13" width="116.69" height="13.91" transform="translate(-321.37 548.51) rotate(-18.22)"/><rect class="cls-1" x="1609.43" y="1235.15" width="85.99" height="13.91" transform="translate(-305.57 579.08) rotate(-18.22)"/><rect class="cls-1" x="1181.8" y="1397.05" width="127.63" height="13.91" transform="translate(-376.6 459.97) rotate(-18.22)"/><path class="cls-19" d="M959.92,1139.47a26.62,26.62,0,1,1,52.46-9.13,26,26,0,0,1,.11,7.52l.12,0-4.76,92.21a5.07,5.07,0,0,1-10,1.73l-35.63-85.17.12,0A26.09,26.09,0,0,1,959.92,1139.47Z"/><path class="cls-21" d="M979.3,1126.17a10.84,10.84,0,0,0-3,13.37A10.84,10.84,0,0,0,979,1143a10.86,10.86,0,0,0,16.72-13.13,10.7,10.7,0,0,0-1.19-1.87,11.13,11.13,0,0,0-1.54-1.6A10.85,10.85,0,0,0,979.3,1126.17Z"/><path class="cls-18" d="M993,1126.41l-16.72,13.13A10.84,10.84,0,0,0,979,1143l16.72-13.13a10.7,10.7,0,0,0-1.19-1.87A11.13,11.13,0,0,0,993,1126.41Z"/><path class="cls-25" d="M1467.84,1582.7a26.16,26.16,0,0,0-27.44-24.82l-.16,0-81.07,8.12a22.1,22.1,0,1,0,2.21,44.14l81.63,0A26.16,26.16,0,0,0,1467.84,1582.7Z"/><path class="cls-19" d="M1340.72,1577.44a21.85,21.85,0,1,1,39.39,18.93,21.21,21.21,0,0,1-3.51,5.07l.08,0-47.15,59.3a4.16,4.16,0,1,1-7.5-3.6l16.84-73.87.08,0A21.74,21.74,0,0,1,1340.72,1577.44Z"/><path class="cls-21" d="M1369.09,1586.19a8.89,8.89,0,0,1-6.77,9,9,9,0,0,1-3.62.13,8.91,8.91,0,0,1-.63-17.44,9.52,9.52,0,0,1,1.8-.25,10,10,0,0,1,1.82.12A8.9,8.9,0,0,1,1369.09,1586.19Z"/><path class="cls-18" d="M1361.69,1577.72l.63,17.44a9,9,0,0,1-3.62.13l-.63-17.44a9.52,9.52,0,0,1,1.8-.25A10,10,0,0,1,1361.69,1577.72Z"/><rect class="cls-10" x="1136.25" y="1521.06" width="285.37" height="371.02" transform="translate(3408.46 1591.82) rotate(123.76)"/><polygon class="cls-1" points="1349.85 1748.85 1278.63 1604.35 1189.1 1738.27 1349.85 1748.85"/><rect class="cls-3" x="1018.44" y="1810.97" width="371.02" height="15.53" transform="translate(1213.87 -362.36) rotate(33.76)"/><rect class="cls-27" x="1034.37" y="1758.47" width="182.12" height="15.53" transform="translate(1171.45 -327.58) rotate(33.76)"/><path class="cls-1" d="M1207.82,1830.66l-19.14-12.79a7.79,7.79,0,0,1-2.14-10.77h0a7.79,7.79,0,0,1,10.78-2.14l19.13,12.79a7.78,7.78,0,0,1,2.14,10.77h0A7.78,7.78,0,0,1,1207.82,1830.66Z"/><path class="cls-25" d="M2010.55,1956.63h307a11.49,11.49,0,0,1,11.49,11.49v44.74a0,0,0,0,1,0,0h-330a0,0,0,0,1,0,0v-44.74A11.49,11.49,0,0,1,2010.55,1956.63Z"/><path class="cls-25" d="M2134.1,1635.06h0a26.64,26.64,0,0,0-11.72-36.19L1789,1432.45a19.77,19.77,0,0,0-26.35,8.54h0a19.76,19.76,0,0,0,8.05,26.5l327,178.62A26.65,26.65,0,0,0,2134.1,1635.06Z"/><rect class="cls-19" x="2026.18" y="1774.22" width="275.71" height="182.41"/><polygon class="cls-17" points="2301.9 1774.22 2026.2 1774.22 2052.01 1734.89 2276.08 1734.89 2301.9 1774.22"/><path class="cls-17" d="M2125.65,1592.32a34,34,0,0,1,14.94,46.13,34,34,0,0,1-46.4,14.09l-109.51-59.81a4.32,4.32,0,0,1-1.72-5.85l26.09-48.1a4.3,4.3,0,0,1,5.72-1.8Z"/><rect class="cls-17" x="2133.05" y="1686.5" width="61.99" height="36.38"/><rect class="cls-25" x="2094.76" y="1714" width="138.57" height="20.89"/><polygon class="cls-25" points="2099.59 1774.22 2026.19 1901.35 2026.19 1821.93 2053.74 1774.22 2099.59 1774.22"/><polygon class="cls-25" points="2192.92 1774.22 2087.61 1956.63 2041.78 1956.63 2147.1 1774.22 2192.92 1774.22"/><polygon class="cls-25" points="2286.31 1774.22 2180.97 1956.63 2135.14 1956.63 2240.45 1774.22 2286.31 1774.22"/><polygon class="cls-25" points="2301.9 1830.74 2301.9 1910.13 2275.05 1956.63 2229.22 1956.63 2301.9 1830.74"/><path class="cls-19" d="M2221.33,1665.28c-7.77,38.41-103,63.14-144.84-7.21-38.27-64.43,25-86.41,43.1-58.3,22.4,34.88,30.2,28,67.49,26.3C2209.47,1625.06,2226.07,1641.87,2221.33,1665.28Z"/><path class="cls-2" d="M2084.19,1630.88a40.55,40.55,0,0,0,.85,4.93s0,.1,0,.16a39.42,39.42,0,0,0,1.45,4.8,38.2,38.2,0,0,0,2.22,4.93,34.92,34.92,0,0,0,3.28,5,33.18,33.18,0,0,0,4.75,4.93,35.54,35.54,0,0,0,7.69,5c10.35,4.88,22.1,4.39,28.84,0a12.62,12.62,0,0,0,4.26-4.41,4.63,4.63,0,0,0,.28-.54,13.75,13.75,0,0,0,1.53-4.93,11.68,11.68,0,0,0-3.57-9.89,14.42,14.42,0,0,0-6.43-3.57c-2.06-.56-3.92-1-5.65-1.39-5.81-1.29-9.81-2-12.86-4.93a15.67,15.67,0,0,1-3.43-5,36,36,0,0,1-1.81-4.93c-.15-.52-.31-1.06-.46-1.63a10.15,10.15,0,0,0-1.55-3.3c-3.67-5.24-11.67-5.71-16.24,0a14.12,14.12,0,0,0-2.51,4.93,19.52,19.52,0,0,0-.82,4.93A27.26,27.26,0,0,0,2084.19,1630.88Z"/><path class="cls-19" d="M2096.77,1655.59a35.54,35.54,0,0,0,7.69,5h28.84a12.62,12.62,0,0,0,4.26-4.41,4.63,4.63,0,0,0,.28-.54Z"/><path class="cls-19" d="M2088.74,1645.7a34.92,34.92,0,0,0,3.28,5h47.35a11.83,11.83,0,0,0-.47-5Z"/><path class="cls-19" d="M2085,1635.81s0,.1,0,.16a39.42,39.42,0,0,0,1.45,4.8h49.28a14.42,14.42,0,0,0-6.43-3.57c-2.06-.56-3.92-1-5.65-1.39Z"/><path class="cls-19" d="M2084.19,1630.88h26.67a15.67,15.67,0,0,1-3.43-5H2084A27.26,27.26,0,0,0,2084.19,1630.88Z"/><path class="cls-19" d="M2084.86,1621h20.76c-.15-.52-.31-1.06-.46-1.63a10.15,10.15,0,0,0-1.55-3.3h-16.24A14.12,14.12,0,0,0,2084.86,1621Z"/><circle class="cls-17" cx="1781.42" cy="1450.62" r="33.77" transform="translate(-113.15 151.25) rotate(-4.71)"/><path class="cls-28" d="M1776.17,1456.88a8.18,8.18,0,1,0-1-11.52A8.16,8.16,0,0,0,1776.17,1456.88Z"/><path class="cls-19" d="M1797.33,1446.47h0a16.26,16.26,0,0,1-9.34,21L1494.05,1580.1a16.27,16.27,0,0,1-21-9.34h0a16.27,16.27,0,0,1,9.34-21l294-112.68A16.26,16.26,0,0,1,1797.33,1446.47Z"/><path class="cls-17" d="M1466,1519.34h8.19a22.84,22.84,0,0,1,22.84,22.84v74.28a10.44,10.44,0,0,1-10.44,10.44h-33a10.44,10.44,0,0,1-10.44-10.44v-74.28A22.84,22.84,0,0,1,1466,1519.34Z" transform="translate(561.79 3525.25) rotate(-111.99)"/><path class="cls-25" d="M1443.09,1557.83a26.16,26.16,0,0,1,24.69,27.56s0,.1,0,.16l-8.5,81a22.1,22.1,0,1,1-44.13-2.42l.4-81.63A26.17,26.17,0,0,1,1443.09,1557.83Z"/><path class="cls-21" d="M1454.12,1583.54a13,13,0,0,1-10.45,12.65,14.32,14.32,0,0,1-2.64.25,13.34,13.34,0,0,1-2.64-.29,13,13,0,0,1,.18-25.45,12.81,12.81,0,0,1,2.65-.25,13.41,13.41,0,0,1,2.63.29A13,13,0,0,1,1454.12,1583.54Z"/><path class="cls-18" d="M1443.85,1570.74l-.18,25.45a14.32,14.32,0,0,1-2.64.25,13.34,13.34,0,0,1-2.64-.29l.18-25.45a12.81,12.81,0,0,1,2.65-.25A13.41,13.41,0,0,1,1443.85,1570.74Z"/><path class="cls-19" d="M1454.23,1680.5a21.85,21.85,0,0,0-34.18-27.23,21.34,21.34,0,0,0-3,5.38l-.08-.06-32.87,68.26a4.16,4.16,0,1,0,6.51,5.19l59.18-47.31-.08-.06A21.62,21.62,0,0,0,1454.23,1680.5Z"/><path class="cls-21" d="M1445.51,1663.3a8.92,8.92,0,0,1-4.69,11.7,9.34,9.34,0,0,1-1.73.54,8.91,8.91,0,0,1-6.87-16,8.42,8.42,0,0,1,1.59-.88,8.53,8.53,0,0,1,1.74-.54A8.9,8.9,0,0,1,1445.51,1663.3Z"/><path class="cls-18" d="M1435.55,1658.08l6.87,16a8.87,8.87,0,0,1-1.6.89,9.34,9.34,0,0,1-1.73.54l-6.87-16a8.42,8.42,0,0,1,1.59-.88A8.53,8.53,0,0,1,1435.55,1658.08Z"/><path class="cls-27" d="M642.57,1599c0,29,42.9,80.37,40.92,137.56s-12.32,96.4,15.78,97.88,153.1,0,153.1,0h55.47s10.6-55.6-25.64-59.67-75.72,1.2-82.47-21.07c-7.39-24.41-2.58-68.79-1.47-96.15s11.46-83.21-24-104.65-77.14-15-103.18-3C650.34,1559.5,642.57,1573.55,642.57,1599Z"/><path class="cls-10" d="M842.76,2013.18h0a4,4,0,0,1-4-4v-4.44a4,4,0,0,1,4-4h0a4,4,0,0,1,4,4v4.44A4,4,0,0,1,842.76,2013.18Z"/><polygon class="cls-20" points="799.86 1983.04 842.76 2000.79 799.86 1993.4 799.86 1983.04"/><rect class="cls-20" x="962.65" y="1727.59" width="10.9" height="286.91"/><polygon class="cls-29" points="971.71 1986.03 1007 1986.43 999.82 1933.4 958.58 1947.65 971.71 1986.03"/><polygon class="cls-2" points="970.51 2013.17 987.17 2013.1 988.18 2002.34 997.31 2013.05 1036.6 2012.86 1007 1986.43 971.71 1986.03 970.51 2013.17"/><line class="cls-30" x1="997.13" y1="1993.27" x2="1012.84" y2="1993.14"/><line class="cls-30" x1="1000.96" y1="1998.66" x2="1016.67" y2="1998.54"/><path class="cls-31" d="M926.19,1739.09A35.9,35.9,0,0,0,904.53,1785l47,169,57.85-9-35.18-174.18h0a35.86,35.86,0,0,0-47.95-31.69Z"/><path class="cls-18" d="M891.79,1717.89h0a22.27,22.27,0,0,1-30.54-7.31l-48-78.22a22.28,22.28,0,0,1,7.31-30.54h0a22.27,22.27,0,0,1,30.54,7.31l48,78.22A22.27,22.27,0,0,1,891.79,1717.89Z"/><path class="cls-32" d="M744.88,1745.49s-6.47,7.36-9,13.35,28.15,2.69,28.15,2.69l-3.35-28.8Z"/><path class="cls-31" d="M974.7,1774.41h0a37.55,37.55,0,0,1-37.44,37.44H793.42A37.55,37.55,0,0,1,756,1774.41h0A37.55,37.55,0,0,1,793.42,1737H937.26A37.55,37.55,0,0,1,974.7,1774.41Z"/><path class="cls-2" d="M826.52,1539.56s9.5-19.34-3-18.78S826.52,1539.56,826.52,1539.56Z"/><path class="cls-33" d="M949.33,1792.82h0a37.55,37.55,0,0,1-40.81,33.73l-143.19-13.61a37.55,37.55,0,0,1-33.73-40.82h0a37.56,37.56,0,0,1,40.82-33.73L915.6,1752A37.54,37.54,0,0,1,949.33,1792.82Z"/><path class="cls-18" d="M776.66,1589.47l-38.86,18.3s8.64,99.32,9.54,110.26-2.46,27.46-2.46,27.46H838s-1.11-53.59,5.14-68.55c4.23-10.13,7.14-16.3,4.69-27.91s-10.72-29-7.82-49.12l-23.89-9.61Z"/><path class="cls-29" d="M816.12,1545.14v45.17a12.86,12.86,0,0,1-.11,1.44c-.46,3.69-2.85,13.16-15.13,13-11.21-.14-19-8.37-22.39-12.7a26.43,26.43,0,0,1-1.83-2.61l5.65-44.33Z"/><polygon class="cls-29" points="840.41 1986.03 875.7 1986.43 883.19 1962.5 844.64 1959.57 840.41 1986.03"/><polygon class="cls-34" points="816.11 1590.31 796.02 1564.66 816.11 1560.79 816.11 1590.31"/><path class="cls-29" d="M817,1572.53c-8,2.61-19.09-.57-26.93-8.81s-25.47-39.09-2-53.45,37.47,9.41,38.08,13.09c0,0,.23,13,.37,22.12,0,2.33.09,4.4.11,6,0,.26,0,.49,0,.71C826.85,1559.31,825,1570,817,1572.53Z"/><path class="cls-18" d="M682.47,1719.71h0a22.26,22.26,0,0,1-5.3-31l53-74.92a22.26,22.26,0,0,1,30.95-5.3h0a22.27,22.27,0,0,1,5.3,31l-53,74.92A22.26,22.26,0,0,1,682.47,1719.71Z"/><polygon class="cls-2" points="839.21 2013.17 855.86 2013.1 856.88 2002.34 866 2013.05 905.3 2012.86 875.7 1986.43 840.41 1986.03 839.21 2013.17"/><path class="cls-2" d="M828,1519.24c.34,5.06-2.52,12.15-17.74,11.59s-17.88,6.85-16.35,13c0,0-3.21-3.44-2.37-7.73,0,0-5.45,6.25-3.21,12.65,0,0-3.9-6.14-6.28-1.62s.79,8.09-2.34,18.32c0,0,1.54-10.14-3.79-15.53s-10.85-56.8,28.33-44.22C804.26,1505.7,826.58,1498.36,828,1519.24Z"/><path class="cls-33" d="M920.56,1754.24A35.88,35.88,0,0,0,879,1783.35l-44.43,180.24,55.41,10.7,56.51-168.74h0a35.84,35.84,0,0,0-25.9-51.31Z"/><line class="cls-30" x1="865.83" y1="1993.27" x2="881.54" y2="1993.14"/><line class="cls-30" x1="869.65" y1="1998.66" x2="885.36" y2="1998.54"/><path class="cls-29" d="M786.32,1547.94c1.39,4.22,1.36,6.93-2,8a7.62,7.62,0,0,1-9.29-4.92c-1.39-4.22.17-8.53,3.49-9.62S784.94,1543.71,786.32,1547.94Z"/><path class="cls-35" d="M777.92,1545.67s5.32-.25,5.78,4.25a5.43,5.43,0,0,0-4.4-1.13"/><path class="cls-2" d="M806,1541.84c0,1.71.88,3.11,2,3.12s2-1.38,2-3.1-.88-3.12-2-3.12S806,1540.12,806,1541.84Z"/><path class="cls-2" d="M820.65,1540.59c0,1.72.88,3.12,2,3.12s2-1.38,2-3.1-.88-3.11-2-3.12S820.66,1538.87,820.65,1540.59Z"/><path class="cls-1" d="M811.4,1561.78a3.88,3.88,0,0,0,4.94-2.4l-7.34-2.55A3.9,3.9,0,0,0,811.4,1561.78Z"/><path class="cls-36" d="M802.08,1538.36s3.47-4.26,7.48-2.69"/><path class="cls-36" d="M821,1535s2.51-.46,5.16,2.27"/><path class="cls-36" d="M815.46,1540.81s.15,8.51,5.13,9.58a10.58,10.58,0,0,1-3.59,2"/><path class="cls-37" d="M808.69,1551.2c-.42,1.64-3.22,2.33-6.25,1.56s-5.15-2.73-4.73-4.37,3.22-2.33,6.25-1.55S809.1,1549.57,808.69,1551.2Z"/><path class="cls-37" d="M826.72,1551.43c-1.82.07-3.28-.5-3.64-1.61-.48-1.44,1-3.25,3.53-4.34C826.66,1547.81,826.7,1549.88,826.72,1551.43Z"/><path class="cls-29" d="M859.23,1704.86c-5.33-12.27-.82-26.17,10-30.87L968,1645.9a72.62,72.62,0,0,0,9.22-5.72c6.2-4.73,24.53-15.58,26.08-12.93s-9.51,12.64-8,13.22,11.38-4.85,15.38-7.5,11.67-9.7,14.31-8.74,2.27,5.08,2.27,5.08,2.6-3,4.19-1.07-1.3,7.73-1.3,7.73,1.27-1.85,2.48.78-6,9.69-6,9.69a1.81,1.81,0,0,1,2.51,1.32c.64,2.12-9.88,10.33-19.05,13.64-8.18,2.95-28.4,7.8-32.65,8.81l-88.88,48.42C877.79,1723.33,864.56,1717.14,859.23,1704.86Z"/><line class="cls-38" x1="745.52" y1="1684.41" x2="758.7" y2="1656.83"/><path class="cls-39" d="M785.33,1557.37a3.27,3.27,0,1,1-3.25-3.29A3.27,3.27,0,0,1,785.33,1557.37Z"/><path class="cls-29" d="M672.41,1698.72c-.54,13.37,8.68,24.7,20.48,25.18l102.27-9.47c3.48.43,22.49-1.44,27.46-4.81a11.6,11.6,0,0,1,11.76-.25c4.82,2.51,9,4.23,10.56,2.72,2-2-9.9-7.13-9.58-8.07s6.54,2.37,9.56,3.91c3.36,1.71,7.17,2,7.81.77,1.59-3-5.33-7.14-5.33-7.14s9.54,5.24,10.64,2.56c.64-1.55-3.76-4.9-7.38-6.82-2.46-1.31-11.6-4.69-11.17-5.91.28-.78,8.79,3.21,10.56,3.76,3.4,1.07,8.6,1,8.49-.4-.16-2.21-19.26-11.68-30.68-9.27-11,2.32-28.2,3.45-32.52,4l-100.49-14.25C683,1674.8,673,1685.35,672.41,1698.72Z"/><path class="cls-38" d="M842.81,1677.8s7-14.72,5.86-22.37-7.37-28.3-8.19-34.64"/><path class="cls-2" d="M786.81,1490c2.83,10.26-.93,20.26-8.42,22.33s-15.84-4.58-18.68-14.84.94-20.26,8.42-22.33S784,1479.7,786.81,1490Z"/><rect class="cls-20" x="764.36" y="1837.1" width="11.83" height="156.3"/><rect class="cls-20" x="740.69" y="1983.04" width="59.17" height="10.35"/><rect class="cls-20" x="753.14" y="1834.85" width="34.27" height="10.11"/><path class="cls-20" d="M697.79,2013.18h0a4,4,0,0,0,4-4v-4.44a4,4,0,0,0-4-4h0a4,4,0,0,0-4,4v4.44A4,4,0,0,0,697.79,2013.18Z"/><polygon class="cls-20" points="740.69 1983.04 697.79 2000.79 740.69 1993.4 740.69 1983.04"/><rect class="cls-10" x="650.66" y="1727.59" width="10.9" height="286.91"/><path class="cls-27" d="M681.4,1772.53s137.75-17.42,165.79,7.73c24.68,22.12,5.18,54.13,5.18,54.13l-136.09.46Z"/><rect class="cls-10" x="780.15" y="1727.59" width="10.9" height="286.91"/><rect class="cls-20" x="1092.14" y="1727.59" width="10.9" height="286.91"/><path class="cls-11" d="M907.56,1689.52H1059.4a5.75,5.75,0,0,0,5.73-5.36l6.29-93.72a5.74,5.74,0,0,0-5.73-6.12H913.85a5.73,5.73,0,0,0-5.72,5.35l-6.29,93.73A5.73,5.73,0,0,0,907.56,1689.52Z"/><polygon class="cls-11" points="902.95 1687.18 907.19 1691.27 914.56 1679.94 903.97 1679.04 902.95 1687.18"/><polygon class="cls-11" points="1069.26 1585.56 1073.01 1589.05 1065.13 1594.49 1059.94 1588.96 1065.82 1585.56 1069.26 1585.56"/><path class="cls-20" d="M911,1692.71h151.84a5.73,5.73,0,0,0,5.72-5.36l6.29-93.72a5.73,5.73,0,0,0-5.72-6.13H917.26a5.76,5.76,0,0,0-5.73,5.36l-6.29,93.72A5.75,5.75,0,0,0,911,1692.71Z"/><polygon class="cls-20" points="972.65 1670.1 977.19 1714.22 1013.72 1714.22 1006.66 1645.65 974.89 1645.65 972.65 1670.1"/><polygon class="cls-11" points="981.94 1714.23 1018.48 1714.23 1011.42 1645.64 974.88 1645.64 981.94 1714.23"/><path class="cls-20" d="M949.54,1714.23h81a0,0,0,0,1,0,0v4.88a4,4,0,0,1-4,4H953.59a4,4,0,0,1-4-4v-4.88A0,0,0,0,1,949.54,1714.23Z" transform="translate(1980.07 3437.39) rotate(180)"/><path class="cls-11" d="M963.87,1714.23h81a0,0,0,0,1,0,0v4.88a4,4,0,0,1-4,4H967.92a4,4,0,0,1-4-4v-4.88A0,0,0,0,1,963.87,1714.23Z" transform="translate(2008.72 3437.39) rotate(180)"/><rect class="cls-20" x="733.86" y="1723.16" width="383.76" height="11.79"/><rect class="cls-10" x="635.69" y="1723.16" width="159.11" height="11.79"/><path class="cls-1" d="M822.57,1716.69H929.64a2.83,2.83,0,0,1,2.83,2.83v3.64a0,0,0,0,1,0,0H819.75a0,0,0,0,1,0,0v-3.64A2.83,2.83,0,0,1,822.57,1716.69Z"/><rect class="cls-17" x="355.59" y="2012.87" width="2052.75" height="43.11" rx="21.19"/><path class="cls-40" d="M1597.89,1593.52s-7.43-5.76-6.59-8.32,2.21-1,2.21-1-3.28-5-2-7,4,.54,4,.54-.78-3.76,1.56-4.93,10.17,4.54,14.15,6.57,13.63,6,15,5.29-9.89-8.76-8.75-11.37,19.25,5.47,25.47,9.19a67.76,67.76,0,0,0,9.13,4.31l-6.18,23.47c-4-.48-23.24-2.82-31.11-4.69-8.82-2.08-19.42-8.56-19-10.59A1.67,1.67,0,0,1,1597.89,1593.52Z"/><path class="cls-27" d="M1734.27,1642.27c10.74,2.34,21.69-5.7,24.33-17.87s-4-24-14.71-26.36l-93.84-16.51-7.82,30.85Z"/><rect class="cls-3" x="1771.62" y="1732.89" width="83.18" height="123.01"/><path class="cls-27" d="M1725.48,1639.48h0a23.57,23.57,0,0,0,32-8.84l42.39-74.74a23.56,23.56,0,0,0-8.84-32h0a23.57,23.57,0,0,0-32,8.84l-42.39,74.74A23.56,23.56,0,0,0,1725.48,1639.48Z"/><path class="cls-17" d="M1771.62,1665.78l-24.72,141.45a34,34,0,1,0,66,11.35l39.79-152.8Z"/><polygon class="cls-32" points="1883.88 1664.46 1805.38 1652.03 1811.6 1764.92 1821.2 1788.21 1825.08 1821.67 1892.95 1820.05 1883.88 1664.46"/><path class="cls-17" d="M1745.29,1823.37a34.39,34.39,0,0,1-.37-4.79,34,34,0,0,1,68,0l-2,160.58-57.3,0Z"/><path class="cls-32" d="M1825.46,1816.89a34,34,0,0,1,38.89-28.25c18.54,2.93,27.49,12.28,28.6,31.41,2.59,44.41,6.29,158.41,6.29,158.41l-59.45-.15-14.71-156.64A35.37,35.37,0,0,1,1825.46,1816.89Z"/><polygon class="cls-1" points="1807.57 1505.68 1771.62 1521.87 1771.62 1667.8 1884.07 1667.8 1893.01 1523.22 1844.33 1503.01 1807.57 1505.68"/><path class="cls-40" d="M1807.58,1482.88v22.8s1.36,4.93,13,5,23.8-7.64,23.8-7.64l-3.58-49.86Z"/><polygon class="cls-41" points="1807.57 1502.56 1831.25 1477.97 1807.57 1477.66 1807.57 1502.56"/><path class="cls-40" d="M1811.55,1431.3s-4.4,13.28-7.51,22.69l-2.58,7.78c-2,6.15-3.33,15.85,2.89,20.25s16.66,4.66,25.67-.34,34.47-32.65,18-51.42S1813.08,1428.28,1811.55,1431.3Z"/><path class="cls-2" d="M1846.27,1428.43s-21-19.6-29.14-14,.45,11.37.45,11.37-11.34-5.3-13.51,2.8,30.94,7,30.94,7-11.26,1.2-6.76,6.59,12.48,3,12.48,3,4.55,5.06-1.24,19.5,3.52,20,3.52,20,4.74-22.05,11-26.59S1861.32,1429.27,1846.27,1428.43Z"/><path class="cls-40" d="M1837,1467.63c-3.65,3-5.17,5.4-2.84,8.26a8.06,8.06,0,0,0,11.08.92c3.64-3,4.71-7.68,2.39-10.54S1840.61,1464.66,1837,1467.63Z"/><path class="cls-42" d="M1844.77,1469.89s-2.89-1.46-6.25,1.74a12.21,12.21,0,0,1,4.25,1.41"/><path class="cls-2" d="M1823.37,1454.5c-.47,1.43-1.6,2.34-2.52,2s-1.29-1.71-.82-3.14,1.6-2.33,2.53-2S1823.84,1453.07,1823.37,1454.5Z"/><path class="cls-43" d="M1817.78,1470.5s-4.08,4-10,.8"/><path class="cls-43" d="M1816.79,1453.29l-6.16,8.07a2.24,2.24,0,0,0,0,2.76l2,2.52"/><path class="cls-43" d="M1828.26,1451.24s-2.7-3.63-6.57-3.18"/><path class="cls-2" d="M1806.12,1448.79c-.47,1.43-.11,2.83.82,3.14s2-.61,2.52-2,.11-2.83-.81-3.14S1806.59,1447.36,1806.12,1448.79Z"/><path class="cls-43" d="M1806.88,1444a5.6,5.6,0,0,1,6,1.16"/><path class="cls-27" d="M1911.55,1650.76h0a23.57,23.57,0,0,0,16.88-28.63l-21.49-83.19a23.56,23.56,0,0,0-28.63-16.88h0a23.57,23.57,0,0,0-16.87,28.63l21.48,83.19A23.57,23.57,0,0,0,1911.55,1650.76Z"/><path class="cls-27" d="M1849.17,1505s-21.55,47.07-23.21,91.46,0,125,0,125h67V1523.22Z"/><path class="cls-41" d="M1818.44,1463.19c0,1.46,2.36,2.63,5.25,2.62s5.24-1.2,5.23-2.65-2.35-2.63-5.25-2.62S1818.44,1461.74,1818.44,1463.19Z"/><path class="cls-27" d="M1804.8,1506.93s-9.77,86.13-9.35,112.54-2.09,95.37-2.09,95.37h-32.44s-1.22-41,0-66.66,10.7-126.31,10.7-126.31Z"/><path class="cls-41" d="M1804,1454l-1.68,5.06c2.05,1,4,1,4.66-.07C1807.77,1457.77,1806.44,1455.54,1804,1454Z"/><polygon class="cls-40" points="1806.4 1993.11 1805.84 1979.16 1759.34 1979.13 1759.72 1993.11 1806.4 1993.11"/><polygon class="cls-41" points="1759.66 1988.9 1805.84 1979.16 1759.34 1979.13 1759.66 1988.9"/><polygon class="cls-40" points="1894.75 1993.11 1894.75 1978.46 1850.38 1978.46 1851.87 1993.11 1894.75 1993.11"/><polygon class="cls-41" points="1851.3 1987.47 1894.75 1978.46 1850.38 1978.46 1851.3 1987.47"/><line class="cls-44" x1="1766.89" y1="1567.64" x2="1760.92" y2="1625.33"/><path class="cls-40" d="M1858.09,1772.88l7.93-4.51a2.68,2.68,0,0,0,1.21-3.23l-3.81-10.85-4.12,16a1.85,1.85,0,0,1-2.08,1.36l-1.37-.21a1.86,1.86,0,0,1-1.55-2l3-28.84,8.9-14.49,31.59,7.48c-2.51,8.13-3,30-3,37.92a4.3,4.3,0,0,1-2.82,4l-16,5.85a9.41,9.41,0,0,1-7.63-.51l-10.14-5.36A1.47,1.47,0,0,1,1858.09,1772.88Z"/><path class="cls-27" d="M1884.3,1623.35c2.21-10.84,14.07-17.66,26.35-15.16s20.52,13.41,18.32,24.26l-28.3,103.44-39-9.15C1861.59,1726.73,1884.3,1623.35,1884.3,1623.35Z"/><path class="cls-45" d="M1817.78,1453c-1.23,2.69-.46,5.67,1.71,6.66s4.91-.4,6.14-3.09.45-5.68-1.72-6.66S1819,1450.33,1817.78,1453Z"/><path class="cls-45" d="M1804.9,1448.8c-1.15,2.54-.53,5.31,1.38,6.18s4.41-.48,5.56-3,.54-5.3-1.38-6.17S1806.05,1446.26,1804.9,1448.8Z"/><line class="cls-45" x1="1818.02" y1="1452.54" x2="1812.33" y2="1450.38"/><path class="cls-46" d="M1807.86,2012.54h-65.13l.07-2.91c0-.42,0-.84.08-1.26a16.9,16.9,0,0,1,16.86-15.25h46.67l1.15,15.25Z"/><path class="cls-1" d="M1807.86,2012.54h-65.13l.07-2.91c0-.42,0-.84.08-1.26h64.68Z"/><path class="cls-47" d="M1761.41,1997.93s-1.42-6.21-4.92-4.52,4.7,4.74,4.7,4.74l-4.88,3.37"/><path class="cls-47" d="M1761.41,1997.93s1.42-6.21,4.92-4.52-4.7,4.74-4.7,4.74l4.88,3.37"/><path class="cls-46" d="M1913.25,2012.54h-60l-.31-4.17-1-15.25h42.89a18.32,18.32,0,0,1,18.08,15.25,10,10,0,0,1,.27,1.91Z"/><path class="cls-1" d="M1913.25,2012.54h-60l-.31-4.17h59.94a10,10,0,0,1,.27,1.91Z"/><path class="cls-47" d="M1898.18,1997.93s-1.42-6.21-4.92-4.52,4.7,4.74,4.7,4.74l-4.88,3.37"/><path class="cls-47" d="M1898.18,1997.93s1.42-6.21,4.93-4.52-4.7,4.74-4.7,4.74l4.87,3.37"/><polyline class="cls-44" points="1861.65 1726.74 1882.92 1633.88 1868.62 1578.48"/><path class="cls-6" d="M1680.69,1440.12l48.65,489-91.12,9.07-48.64-489c.88,8.89,6.71,15.64,13,15s10.66-8.38,9.78-17.28c.88,8.9,6.7,15.64,13,15s10.67-8.39,9.79-17.28c.88,8.89,6.7,15.64,13,15s10.67-8.38,9.79-17.28c.88,8.9,6.7,15.64,13,15S1681.58,1449,1680.69,1440.12Z"/><path class="cls-48" d="M1680.69,1440.12c.85,8.52-3.56,16-9.85,16.59s-12.08-5.81-12.93-14.32c.85,8.51-3.56,16-9.85,16.59s-12.08-5.81-12.93-14.32c.85,8.51-3.56,16-9.85,16.58s-12.08-5.8-12.92-14.32c.84,8.52-3.57,16-9.86,16.59s-12.08-5.81-12.92-14.32a14.22,14.22,0,0,1-.09-1.58l2.87-10.49,23.77-86.73,7.06-25.79,12,23.89,40.39,80.35,4.88,9.72C1680.57,1439.07,1680.64,1439.59,1680.69,1440.12Z"/><path class="cls-6" d="M1635.2,1348.49a23.11,23.11,0,0,1-19.07,1.9l7.06-25.79Z"/><path class="cls-33" d="M1698,2011.38l-12.93,1.29a39.28,39.28,0,0,1-43-35.21l-.63-6.35,91.11-9.07.63,6.36A39.28,39.28,0,0,1,1698,2011.38Z"/><rect class="cls-11" x="1634.63" y="1914.04" width="99.74" height="53.8" rx="4.56" transform="translate(-183.85 176.27) rotate(-5.68)"/><line class="cls-49" x1="1642.2" y1="1931.27" x2="1702.96" y2="1925.23"/><line class="cls-49" x1="1653.68" y1="1945.88" x2="1728.27" y2="1938.46"/><line class="cls-49" x1="1648.22" y1="1962.16" x2="1710.74" y2="1955.95"/><line class="cls-50" x1="1613.34" y1="1465.17" x2="1652.93" y2="1863.19"/><line class="cls-50" x1="1636.36" y1="1457.01" x2="1679.9" y2="1894.67"/><line class="cls-50" x1="1661.81" y1="1464.09" x2="1667.33" y2="1519.58"/><line class="cls-50" x1="1668.22" y1="1528.56" x2="1699.04" y2="1838.33"/><path class="cls-3" d="M383.76,1151.76v111.7H524v-111.7Zm133.52,105h0L487,1184l-35.54,60.39L426.3,1213l-35.85,43.81v-98.33H517.28Z"/><path class="cls-3" d="M453.86,1188.11a6.56,6.56,0,1,0-6.55-6.55A6.56,6.56,0,0,0,453.86,1188.11Z"/><path class="cls-1" d="M1919.67,755.56h-123a13.27,13.27,0,0,0-13.27,13.27v70.82a13.27,13.27,0,0,0,13.27,13.27h49.45v16h-32.54a1.15,1.15,0,0,0-1.16,1.15v4.09a1.15,1.15,0,0,0,1.16,1.15h89.19a1.15,1.15,0,0,0,1.16-1.15v-4.09a1.15,1.15,0,0,0-1.16-1.15h-32.54v-16h49.45a13.27,13.27,0,0,0,13.27-13.27V768.83A13.27,13.27,0,0,0,1919.67,755.56Z"/><path class="cls-1" d="M2239.17,1142.48a42.87,42.87,0,0,0,53.83,13.65l45.7,64.7,11.21-7.92-45.69-64.69a42.9,42.9,0,1,0-65-5.74Zm62.55-44.18a33.57,33.57,0,1,1-46.79-8.06A33.66,33.66,0,0,1,2301.72,1098.3Z"/><path class="cls-1" d="M1758.75,681.25a29.18,29.18,0,0,0-8.79-4.17,6.75,6.75,0,0,1-13.39-.68,29.27,29.27,0,0,0-9.16,3.25,6.75,6.75,0,0,1-10,9,29,29,0,0,0-4.16,8.78,6.75,6.75,0,0,1-.69,13.4,29,29,0,0,0,3.25,9.16,6.75,6.75,0,0,1,9,10,29,29,0,0,0,8.78,4.16,6.75,6.75,0,0,1,13.4.68,28.86,28.86,0,0,0,9.16-3.25,6.75,6.75,0,0,1,10-9,29.34,29.34,0,0,0,4.16-8.78,6.75,6.75,0,0,1,.69-13.39,29,29,0,0,0-3.25-9.16,6.75,6.75,0,0,1-9-10ZM1752.44,696a14.34,14.34,0,1,1-20.27-1A14.34,14.34,0,0,1,1752.44,696Z"/><path class="cls-1" d="M1729,770.94a15.87,15.87,0,1,1-7.17-21.28A15.87,15.87,0,0,1,1729,770.94Zm17.73.49a32.23,32.23,0,0,0,.71-10.74,7.46,7.46,0,0,1-4.75-14.05,32.18,32.18,0,0,0-7.06-8.1,7.47,7.47,0,0,1-13.3-6.59,32.19,32.19,0,0,0-10.73-.71,7.47,7.47,0,0,1-14.06,4.74,32.46,32.46,0,0,0-8.11,7.07,7.47,7.47,0,0,1-6.59,13.3,31.92,31.92,0,0,0-.7,10.73,7.46,7.46,0,0,1,4.75,14,32.18,32.18,0,0,0,7.06,8.1,7.47,7.47,0,0,1,13.3,6.59,32.19,32.19,0,0,0,10.73.71,7.47,7.47,0,0,1,14.06-4.74,32,32,0,0,0,8.1-7.06,7.47,7.47,0,0,1,6.59-13.3Z"/></svg>