<svg id="Layer_1" data-name="Layer 1" xmlns="http://www.w3.org/2000/svg" viewBox="0 0 97.89 97.89"><defs><style>.cls-1{fill:#333;}.cls-2{fill:#fff;}</style></defs><circle class="cls-1" cx="48.94" cy="48.94" r="48.94"/><path class="cls-2" d="M48.94,23.68c8.23,0,9.21,0,12.46.18a17.22,17.22,0,0,1,5.72,1.06A10.27,10.27,0,0,1,73,30.77,17.22,17.22,0,0,1,74,36.49c.15,3.25.18,4.23.18,12.45s0,9.21-.18,12.46A17.22,17.22,0,0,1,73,67.12,10.27,10.27,0,0,1,67.12,73,17.22,17.22,0,0,1,61.4,74c-3.25.15-4.23.18-12.46.18s-9.2,0-12.45-.18A17.22,17.22,0,0,1,30.77,73a10.27,10.27,0,0,1-5.85-5.85,17.22,17.22,0,0,1-1.06-5.72c-.15-3.25-.18-4.23-.18-12.46s0-9.2.18-12.45a17.22,17.22,0,0,1,1.06-5.72,10.27,10.27,0,0,1,5.85-5.85,17.22,17.22,0,0,1,5.72-1.06c3.25-.15,4.23-.18,12.45-.18m0-5.55c-8.36,0-9.41,0-12.7.18a22.39,22.39,0,0,0-7.48,1.44,15.7,15.7,0,0,0-9,9,22.39,22.39,0,0,0-1.44,7.48c-.15,3.29-.18,4.34-.18,12.7s0,9.42.18,12.71a22.39,22.39,0,0,0,1.44,7.48,15.7,15.7,0,0,0,9,9,22.39,22.39,0,0,0,7.48,1.44c3.29.15,4.34.18,12.7.18s9.42,0,12.71-.18a22.39,22.39,0,0,0,7.48-1.44,15.7,15.7,0,0,0,9-9,22.39,22.39,0,0,0,1.44-7.48c.15-3.29.18-4.34.18-12.71s0-9.41-.18-12.7a22.39,22.39,0,0,0-1.44-7.48,15.7,15.7,0,0,0-9-9,22.39,22.39,0,0,0-7.48-1.44c-3.29-.15-4.34-.18-12.71-.18Z"/><path class="cls-2" d="M48.94,33.12A15.83,15.83,0,1,0,64.77,48.94,15.82,15.82,0,0,0,48.94,33.12Zm0,26.1A10.28,10.28,0,1,1,59.22,48.94,10.27,10.27,0,0,1,48.94,59.22Z"/><circle class="cls-2" cx="65.39" cy="32.49" r="3.7"/></svg>