<svg id="Layer_1" data-name="Layer 1" xmlns="http://www.w3.org/2000/svg" viewBox="0 0 98.05 97.96"><defs><style>.cls-1{fill:#333;}.cls-2{fill:#fdfdfd;}</style></defs><circle class="cls-1" cx="49.1" cy="48.94" r="48.94"/><path class="cls-2" d="M52.89,42.27c.8-.91,1.46-1.82,2.29-2.6a12.59,12.59,0,0,1,9.05-3.57,20.9,20.9,0,0,1,5.68.69c4.25,1.23,6.72,4.15,7.9,8.3a35.12,35.12,0,0,1,1,9.52c0,6.76,0,13.52,0,20.28,0,.63-.18.8-.8.79q-5.24,0-10.45,0c-.62,0-.75-.19-.75-.77q0-9.65,0-19.3a17.64,17.64,0,0,0-.56-4.79,5.39,5.39,0,0,0-5.93-4.2c-4.13.22-6.28,2.26-6.8,6.47a23.28,23.28,0,0,0-.19,3c0,6.26,0,12.52,0,18.77,0,.63-.16.81-.79.81-3.51,0-7,0-10.53,0-.56,0-.72-.14-.72-.71q0-18.58,0-37.17c0-.61.2-.75.78-.75q5,0,10,0c.61,0,.77.19.76.77C52.87,39.3,52.89,40.79,52.89,42.27Z"/><path class="cls-2" d="M33.8,56.42c0,6.13,0,12.26,0,18.39,0,.68-.17.89-.87.88-3.48,0-7,0-10.45,0-.56,0-.73-.13-.72-.71q0-18.61,0-37.22c0-.52.12-.7.67-.7q5.3,0,10.59,0c.68,0,.78.26.77.84Q33.79,47.16,33.8,56.42Z"/><path class="cls-2" d="M34.76,24.76a7,7,0,1,1-6.94-6.92A7,7,0,0,1,34.76,24.76Z"/></svg>