<svg id="Layer_1" data-name="Layer 1" xmlns="http://www.w3.org/2000/svg" xmlns:xlink="http://www.w3.org/1999/xlink" viewBox="0 0 675.82 369.75"><defs><style>.cls-1{fill:#fff;}.cls-2{fill:#414a56;}.cls-3{fill:#313a52;}.cls-4{fill:#57606f;}.cls-5{fill:#3598db;}.cls-6{fill:#afb9d2;}.cls-7{filter:url(#filter);}.cls-8{fill:#333;}.cls-9{fill:#e64c42;}.cls-10{filter:url(#filter-2);}.cls-11{fill:#ecf0f1;}.cls-12{fill:#d7deed;}.cls-13{fill:#232b3f;}.cls-14{fill:#bec3c7;}.cls-15{filter:url(#filter-3);}.cls-16{filter:url(#filter-4);}.cls-17{fill:#3c3b3d;}.cls-18{fill:#323133;}.cls-19{filter:url(#filter-5);}.cls-20{fill:#95a5a5;}.cls-21{fill:#d8f2f1;}.cls-22{fill:#b2dbd8;}.cls-23{fill:#a0cecb;}.cls-24{filter:url(#filter-6);}.cls-25{fill:#40b3e2;}.cls-26{fill:#ffd8a8;}.cls-27{fill:#2a7fb8;}.cls-28{filter:url(#filter-7);}.cls-29{fill:#c1392b;}.cls-30{filter:url(#filter-8);}</style><filter id="filter"><feOffset input="SourceAlpha"/><feGaussianBlur stdDeviation="2" result="blur"/><feFlood flood-color="#fff"/><feComposite operator="in" in2="blur"/><feComposite in="SourceGraphic"/></filter><filter id="filter-2"><feOffset input="SourceAlpha"/><feGaussianBlur stdDeviation="2" result="blur-2"/><feFlood flood-color="#fff"/><feComposite operator="in" in2="blur-2"/><feComposite in="SourceGraphic"/></filter><filter id="filter-3"><feOffset input="SourceAlpha"/><feGaussianBlur stdDeviation="2" result="blur-3"/><feFlood flood-color="#fff"/><feComposite operator="in" in2="blur-3"/><feComposite in="SourceGraphic"/></filter><filter id="filter-4"><feOffset input="SourceAlpha"/><feGaussianBlur stdDeviation="2" result="blur-4"/><feFlood flood-color="#fff"/><feComposite operator="in" in2="blur-4"/><feComposite in="SourceGraphic"/></filter><filter id="filter-5"><feOffset input="SourceAlpha"/><feGaussianBlur stdDeviation="2" result="blur-5"/><feFlood flood-color="#fff"/><feComposite operator="in" in2="blur-5"/><feComposite in="SourceGraphic"/></filter><filter id="filter-6"><feOffset input="SourceAlpha"/><feGaussianBlur stdDeviation="2" result="blur-6"/><feFlood flood-color="#fff"/><feComposite operator="in" in2="blur-6"/><feComposite in="SourceGraphic"/></filter><filter id="filter-7"><feOffset input="SourceAlpha"/><feGaussianBlur stdDeviation="2" result="blur-7"/><feFlood flood-color="#fff"/><feComposite operator="in" in2="blur-7"/><feComposite in="SourceGraphic"/></filter><filter id="filter-8"><feOffset input="SourceAlpha"/><feGaussianBlur stdDeviation="2" result="blur-8"/><feFlood flood-color="#fff"/><feComposite operator="in" in2="blur-8"/><feComposite in="SourceGraphic"/></filter></defs><rect class="cls-1" width="153.19" height="141.69" rx="25"/><path class="cls-2" d="M106.84,96.25a1.68,1.68,0,0,1-1.65-1.65V75.49a1.66,1.66,0,0,1,3.31,0V94.6A1.89,1.89,0,0,1,106.84,96.25Z"/><path class="cls-2" d="M46.35,96.25a1.69,1.69,0,0,1-1.66-1.65V43.66A1.69,1.69,0,0,1,46.35,42H71.82a1.66,1.66,0,1,1,0,3.31H47.88V94.73A1.64,1.64,0,0,1,46.35,96.25Z"/><path class="cls-2" d="M87.1,88.36H76.53c-11,0-21.9-.13-22-.13A1.58,1.58,0,0,1,53,86.57V51.68A1.69,1.69,0,0,1,54.63,50H72a1.66,1.66,0,0,1,0,3.32H56V85.05c14.9.12,35.4.12,41,0V75.49a1.66,1.66,0,0,1,3.31,0V86.57a1.56,1.56,0,0,1-.51,1.15,1.89,1.89,0,0,1-1.66.51H91.69C90.29,88.23,88.76,88.36,87.1,88.36Z"/><path class="cls-3" d="M113.21,49.39V54.1h-4.84a14.13,14.13,0,0,1-2,5l3.44,3.43-3.31,3.32L103,62.38a13.14,13.14,0,0,1-5,2v4.84H93.34V64.41a14,14,0,0,1-5-2l-3.44,3.44L81.63,62.5l3.43-3.43a13.42,13.42,0,0,1-2-5H78.19V49.39H83a14.22,14.22,0,0,1,2-5L81.63,41l3.31-3.31,3.44,3.44a13.15,13.15,0,0,1,5-2V34.23h4.72v4.84a14.08,14.08,0,0,1,5,2l3.44-3.44L109.77,41l-3.44,3.44a13.13,13.13,0,0,1,2,5Zm-10.57,2.29a7,7,0,1,0-7,7A7.07,7.07,0,0,0,102.64,51.68Z"/><polygon class="cls-4" points="113.21 94.72 113.21 107.46 39.98 107.46 39.98 94.72 46.35 94.72 65.45 94.72 65.45 99.44 86.08 99.44 86.08 94.72 106.84 94.72 113.21 94.72"/><polygon class="cls-5" points="81.37 77.79 81.37 78.93 77.55 78.93 77.55 73.58 78.82 73.58 78.82 77.79 81.37 77.79"/><rect class="cls-6" x="68.64" y="62.89" width="4.84" height="4.84"/><polygon class="cls-5" points="75.26 75.75 74.11 78.04 73.35 78.04 72.2 75.75 72.2 78.93 71.06 78.93 71.06 73.58 72.33 73.58 73.73 76.39 75.13 73.58 76.53 73.58 76.53 78.93 75.26 78.93 75.26 75.75"/><polygon class="cls-5" points="68.76 74.6 68.76 78.93 67.49 78.93 67.49 74.6 65.83 74.6 65.83 73.58 70.42 73.58 70.42 74.6 68.76 74.6"/><rect class="cls-6" x="60.61" y="62.89" width="4.84" height="4.84"/><polygon class="cls-5" points="64.05 75.62 64.05 73.58 65.2 73.58 65.2 78.93 64.05 78.93 64.05 76.77 61.89 76.77 61.89 78.93 60.61 78.93 60.61 73.58 61.89 73.58 61.89 75.62 64.05 75.62"/><g class="cls-7"><path class="cls-8" d="M55.3,166.61v-12.8H58V159h3.59v-5.14h2.7v12.8h-2.7v-5.07H58v5.07Z"/><path class="cls-8" d="M69.65,166.61V156.37H66v-2.56H76v2.56H72.34v10.24Z"/><path class="cls-8" d="M77.49,166.61v-12.8h3.65l1,6.5h.27l1-6.5h3.5v12.8H84.58V161.2l.19-5h-.3l-1,6.37H80.9l-1-6.37h-.3l.19,5v5.41Z"/><path class="cls-8" d="M90.08,166.61v-12.8h2.71v10.24h5.28v2.56Z"/></g><rect class="cls-1" x="173.4" width="153.19" height="141.69" rx="25"/><path class="cls-9" d="M252.86,78.68c.64,0,1-.26,1-.64a.48.48,0,0,0-.12-.38c-.13-.13-.26-.25-.39-.25s-.38-.13-.63-.26-.51-.13-.77-.25a9.23,9.23,0,0,1-1-.39,2.53,2.53,0,0,1-.76-.51.69.69,0,0,1-.38-.63,1.86,1.86,0,0,1-.13-.89,2.5,2.5,0,0,1,.26-1.15,2.22,2.22,0,0,1,.63-.89,2.58,2.58,0,0,1,1-.51,3.48,3.48,0,0,1,1.15-.13,2.14,2.14,0,0,1,.89.13,1.89,1.89,0,0,1,.76.25c.26.13.51.13.77.26s.38.25.64.38l-.9,1.66a.41.41,0,0,0-.25-.13c-.13-.13-.38-.13-.51-.26s-.51-.12-.77-.25a1.57,1.57,0,0,0-.76-.13c-.38,0-.64,0-.76.13a.65.65,0,0,0-.26.51.46.46,0,0,0,.13.38c.13.13.25.13.38.26s.38.12.51.25a1.89,1.89,0,0,1,.76.25l1.15.39a1.92,1.92,0,0,1,.89.51,1.51,1.51,0,0,1,.51.76,2.46,2.46,0,0,1,.13,1,3.92,3.92,0,0,1-.25,1.27,1.18,1.18,0,0,1-.77.77,1.46,1.46,0,0,1-1,.38,3.45,3.45,0,0,1-1.15.13,2.14,2.14,0,0,1-.89-.13,1.83,1.83,0,0,1-.89-.26c-.25-.12-.63-.25-.89-.38l-.76-.38.89-1.66a1.66,1.66,0,0,0,.38.26,2.76,2.76,0,0,0,.64.38,1.8,1.8,0,0,0,.89.26C252.23,78.55,252.61,78.68,252.86,78.68Z"/><rect class="cls-6" x="242.04" y="58.05" width="4.84" height="4.84"/><path class="cls-9" d="M245.48,78.68c.64,0,1-.26,1-.64a.46.46,0,0,0-.13-.38c-.13-.13-.25-.25-.38-.25s-.38-.13-.64-.26-.51-.13-.76-.25a7.9,7.9,0,0,1-1-.39,2.45,2.45,0,0,1-.77-.51.69.69,0,0,1-.38-.63,2,2,0,0,1-.12-.89v-.64c0-.26.12-.38.12-.51a2.24,2.24,0,0,1,.64-.89,2.51,2.51,0,0,1,1-.51,3.42,3.42,0,0,1,1.14-.13,2.17,2.17,0,0,1,.9.13c.25.13.5.13.76.25s.51.13.76.26.39.25.64.38l-.89,1.66a.45.45,0,0,0-.26-.13c-.12-.13-.38-.13-.51-.26s-.5-.12-.76-.25a1.57,1.57,0,0,0-.76-.13c-.39,0-.64,0-.77.13a.56.56,0,0,0-.13.38.45.45,0,0,0,.13.38c.13.13.26.13.38.26s.39.13.51.25a1.81,1.81,0,0,1,.77.26l1.14.38a2,2,0,0,1,.9.51,1.56,1.56,0,0,1,.5.76,2.46,2.46,0,0,1,.13,1,4,4,0,0,1-.25,1.28,1.15,1.15,0,0,1-.77.76,1.45,1.45,0,0,1-1,.38,3.42,3.42,0,0,1-1.14.13,2.1,2.1,0,0,1-.89-.13,1.87,1.87,0,0,1-.89-.25c-.26-.13-.64-.26-.9-.39l-.76-.38.26-.51.63-1.27a1.49,1.49,0,0,0,.38.25,3,3,0,0,0,.64.39,1.91,1.91,0,0,0,.89.25A2.52,2.52,0,0,0,245.48,78.68Z"/><rect class="cls-6" x="234.02" y="58.05" width="4.84" height="4.84"/><path class="cls-9" d="M238.09,71.8a3.76,3.76,0,0,1,2,.51,3.37,3.37,0,0,1,1.27,1.4l-1.52,1a1.88,1.88,0,0,0-.39-.51l-.38-.38c-.13-.13-.38-.13-.51-.26h-.51a1.8,1.8,0,0,0-.89.26,1.58,1.58,0,0,0-.64.64l-.38.76a2.12,2.12,0,0,0-.13.89,2.76,2.76,0,0,0,.13,1c.13.26.26.64.38.89a1.3,1.3,0,0,0,.64.51,1.8,1.8,0,0,0,.89.26.76.76,0,0,0,.51-.13,1,1,0,0,0,.51-.26l.38-.38a1,1,0,0,0,.26-.51l1.65.89v.13a2.45,2.45,0,0,1-.51.77A2.32,2.32,0,0,1,240,80a6.74,6.74,0,0,1-1,.38,2.7,2.7,0,0,1-1,.13,3.59,3.59,0,0,1-1.66-.38,5.33,5.33,0,0,1-1.28-1,5.39,5.39,0,0,1-.89-1.4c0-.64-.12-1.15-.12-1.66a6.19,6.19,0,0,1,.25-1.52,5.08,5.08,0,0,1,.76-1.4,4.88,4.88,0,0,1,1.28-1A8.41,8.41,0,0,1,238.09,71.8Z"/><path class="cls-2" d="M280.25,96.25a1.69,1.69,0,0,1-1.66-1.65V62.76a1.66,1.66,0,1,1,3.31,0v32A1.88,1.88,0,0,1,280.25,96.25Z"/><path class="cls-2" d="M219.75,96.25a1.68,1.68,0,0,1-1.65-1.65V43.66A1.68,1.68,0,0,1,219.75,42h41a1.66,1.66,0,1,1,0,3.31H221.28V94.73A1.64,1.64,0,0,1,219.75,96.25Z"/><path class="cls-2" d="M260.51,88.36H249.94c-11,0-21.91-.13-22-.13a1.57,1.57,0,0,1-1.52-1.66V51.68A1.69,1.69,0,0,1,228,50h17.32a1.66,1.66,0,0,1,0,3.32H229.43V85.05c14.9.12,35.41.12,41,0V75.49a1.66,1.66,0,0,1,3.31,0V86.57a1.56,1.56,0,0,1-.51,1.15,1.87,1.87,0,0,1-1.65.51h-6.5C263.69,88.23,262.16,88.36,260.51,88.36Z"/><path class="cls-3" d="M286.61,49.39V54.1h-4.83a14.32,14.32,0,0,1-2,5l3.44,3.43-3.32,3.32-3.43-3.44a13.19,13.19,0,0,1-5,2v4.84h-4.71V64.41a14,14,0,0,1-5-2l-3.44,3.44L255,62.5l3.44-3.43a13.27,13.27,0,0,1-2-5h-4.84V49.39h4.84a14.06,14.06,0,0,1,2-5L255,41l3.31-3.31,3.44,3.44a13.13,13.13,0,0,1,5-2V34.23h4.71v4.84a14.13,14.13,0,0,1,5,2l3.43-3.44L283.18,41l-3.44,3.44a13.3,13.3,0,0,1,2,5ZM276,51.68a7,7,0,1,0-7,7A7.07,7.07,0,0,0,276,51.68Z"/><polygon class="cls-4" points="286.61 94.72 286.61 107.46 213.39 107.46 213.39 94.72 219.75 94.72 238.86 94.72 238.86 99.44 259.49 99.44 259.49 94.72 280.25 94.72 286.61 94.72"/><g class="cls-10"><path class="cls-8" d="M239,166.91a4.23,4.23,0,0,1-3.64-1.69,8.34,8.34,0,0,1-1.25-5,8.19,8.19,0,0,1,1.28-5,4.39,4.39,0,0,1,3.74-1.69,4.85,4.85,0,0,1,2.41.57,4.12,4.12,0,0,1,1.6,1.68,6.33,6.33,0,0,1,.66,2.67h-2.48a3.79,3.79,0,0,0-.76-1.84,1.81,1.81,0,0,0-1.43-.6,1.86,1.86,0,0,0-1.74,1,6.71,6.71,0,0,0-.58,3.19,7.18,7.18,0,0,0,.54,3.19,1.86,1.86,0,0,0,3,.47,3.48,3.48,0,0,0,.74-1.71h2.48a6,6,0,0,1-.67,2.57,3.9,3.9,0,0,1-1.57,1.62A4.56,4.56,0,0,1,239,166.91Z"/><path class="cls-8" d="M248.06,163.11a1.87,1.87,0,0,0,.72,1,2.39,2.39,0,0,0,1.35.34,2.06,2.06,0,0,0,1.37-.41A1.38,1.38,0,0,0,252,163a1.17,1.17,0,0,0-.34-.84,1.59,1.59,0,0,0-1-.43l-1.58-.22a4.33,4.33,0,0,1-2.6-1.3,3.77,3.77,0,0,1-.91-2.61,4,4,0,0,1,.56-2.15,3.93,3.93,0,0,1,1.59-1.39,5.38,5.38,0,0,1,2.43-.5,5.74,5.74,0,0,1,2.44.48,3.86,3.86,0,0,1,1.61,1.4,4.8,4.8,0,0,1,.67,2.24h-2.54a2.29,2.29,0,0,0-.76-1.26,2.63,2.63,0,0,0-2.85,0,1.4,1.4,0,0,0-.51,1.14,1.15,1.15,0,0,0,.35.84,1.63,1.63,0,0,0,1,.44l1.58.22a4.45,4.45,0,0,1,2.63,1.3,3.71,3.71,0,0,1,.91,2.59,4,4,0,0,1-.55,2.15,3.74,3.74,0,0,1-1.57,1.39,5.46,5.46,0,0,1-2.41.49,6.08,6.08,0,0,1-2.4-.44,3.69,3.69,0,0,1-2.27-3.36Z"/><path class="cls-8" d="M259.26,163.11a1.87,1.87,0,0,0,.72,1,2.37,2.37,0,0,0,1.35.34,2.06,2.06,0,0,0,1.37-.41,1.38,1.38,0,0,0,.48-1.12,1.17,1.17,0,0,0-.34-.84,1.59,1.59,0,0,0-1-.43l-1.58-.22a4.33,4.33,0,0,1-2.6-1.3,3.77,3.77,0,0,1-.91-2.61,4,4,0,0,1,.56-2.15,3.86,3.86,0,0,1,1.59-1.39,5.38,5.38,0,0,1,2.43-.5,5.74,5.74,0,0,1,2.44.48,3.86,3.86,0,0,1,1.61,1.4,4.8,4.8,0,0,1,.67,2.24h-2.54a2.29,2.29,0,0,0-.76-1.26,2.63,2.63,0,0,0-2.85,0,1.4,1.4,0,0,0-.51,1.14,1.15,1.15,0,0,0,.35.84,1.63,1.63,0,0,0,1,.44l1.58.22a4.45,4.45,0,0,1,2.63,1.3,3.71,3.71,0,0,1,.91,2.59,4,4,0,0,1-.55,2.15,3.74,3.74,0,0,1-1.57,1.39,5.46,5.46,0,0,1-2.41.49,6.08,6.08,0,0,1-2.4-.44,3.69,3.69,0,0,1-2.27-3.36Z"/></g><rect class="cls-1" x="346.81" width="153.19" height="141.69" rx="25"/><rect class="cls-11" x="386.6" y="46.84" width="73.61" height="60.81"/><rect class="cls-3" x="396.2" y="61.18" width="28.8" height="9.6"/><rect class="cls-12" x="396.2" y="70.78" width="28.8" height="19.2"/><rect class="cls-4" x="386.6" y="34.04" width="73.61" height="12.8"/><path class="cls-9" d="M449.07,81l-1.15,2.31a1.61,1.61,0,0,0-.39-.26,8.59,8.59,0,0,0-1.79-.77c-1-.25-2.56-.25-2.56.9s1.92,1.15,4,1.92a2.85,2.85,0,0,1,1.92,1.66,3.74,3.74,0,0,1-.13,3.08,3.9,3.9,0,0,1-2.43,1.79,7.29,7.29,0,0,1-4.35-.26,19.46,19.46,0,0,1-2.44-1l1.16-2.43.51.25a10.54,10.54,0,0,0,2.05.9,4.7,4.7,0,0,0,1.41.13c1,0,1.4-.26,1.4-.9a.65.65,0,0,0-.25-.51c-.9-.9-3.72-.9-5-2.31a2.44,2.44,0,0,1-.77-2c0-2.44,1.92-3.84,4.35-3.84a10.61,10.61,0,0,1,3.46.76A3.84,3.84,0,0,1,449.07,81Z"/><path class="cls-9" d="M438.57,79.74c0,5.38.13,6.66-.12,8.45s-1,2.69-2.05,3.07a6.39,6.39,0,0,1-2.44.39,4.35,4.35,0,0,1-2.56-.77L432,88.7a2.14,2.14,0,0,0,.77.39,3.65,3.65,0,0,0,2.31,0,1.86,1.86,0,0,0,.77-1.79c.12-1.16,0-2,0-7.68h2.68Z"/><rect class="cls-13" x="407.34" y="64.38" width="3.2" height="3.2"/><rect class="cls-13" x="400.94" y="64.38" width="3.2" height="3.2"/><path class="cls-2" d="M453.81,42H425a1.67,1.67,0,0,1,0-3.33h28.81a1.7,1.7,0,0,1,1.66,1.67A1.79,1.79,0,0,1,453.81,42Z"/><path class="cls-2" d="M396.2,42H393a1.67,1.67,0,0,1,0-3.33h3.2a1.7,1.7,0,0,1,1.67,1.67A1.79,1.79,0,0,1,396.2,42Z"/><path class="cls-2" d="M410.54,42h-3.2a1.67,1.67,0,1,1,0-3.33h3.2a1.67,1.67,0,0,1,0,3.33Z"/><path class="cls-1" d="M404.65,84.74l-3.2-3.21a1.62,1.62,0,0,1,0-2.3l3.2-3.2a1.62,1.62,0,0,1,2.3,0,1.6,1.6,0,0,1,0,2.3l-2.17,2,2.05,2.05a1.63,1.63,0,0,1,0,2.31A1.48,1.48,0,0,1,404.65,84.74Z"/><path class="cls-1" d="M414.25,84.74a1.63,1.63,0,0,1,0-2.31l2.05-2.05-2.05-2a1.63,1.63,0,1,1,2.31-2.3l3.2,3.2a1.62,1.62,0,0,1,0,2.3l-3.2,3.21A1.63,1.63,0,0,1,414.25,84.74Z"/><path class="cls-14" d="M442.54,62.85h-9.6a1.67,1.67,0,0,1,0-3.33h9.6a1.67,1.67,0,1,1,0,3.33Z"/><path class="cls-14" d="M450.61,69.25H432.94a1.67,1.67,0,0,1,0-3.33h17.67a1.7,1.7,0,0,1,1.66,1.66A1.91,1.91,0,0,1,450.61,69.25Z"/><g class="cls-15"><path class="cls-8" d="M372.68,166.91a5,5,0,0,1-2.36-.52,3.67,3.67,0,0,1-1.55-1.52,4.81,4.81,0,0,1-.53-2.36V161h2.64v1.44a2.05,2.05,0,0,0,.47,1.46,1.69,1.69,0,0,0,1.33.52,1.77,1.77,0,0,0,1.38-.52,2.06,2.06,0,0,0,.48-1.46v-6h-5.41v-2.59h8.11v8.7a4.71,4.71,0,0,1-.55,2.36,3.77,3.77,0,0,1-1.57,1.52A5.23,5.23,0,0,1,372.68,166.91Z"/><path class="cls-8" d="M386,160.39v1.93l-2.35.35a1.57,1.57,0,0,0-.79.36.94.94,0,0,0-.28.7.89.89,0,0,0,.3.71,1.24,1.24,0,0,0,.85.27,2.3,2.3,0,0,0,1.06-.25,1.9,1.9,0,0,0,.75-.68,1.7,1.7,0,0,0,.28-.95v-2.46a1.69,1.69,0,0,0-.42-1.24,1.76,1.76,0,0,0-1.29-.42,2.54,2.54,0,0,0-1,.19,1.84,1.84,0,0,0-.73.55,1.79,1.79,0,0,0-.36.87H379.5a4,4,0,0,1,.69-2.06,3.78,3.78,0,0,1,1.59-1.33,5.47,5.47,0,0,1,2.33-.46,4.61,4.61,0,0,1,3.13,1,3.45,3.45,0,0,1,1.09,2.75v6.43H385.8v-1h-.59a2,2,0,0,1-.82.89,2.85,2.85,0,0,1-1.42.31,3.35,3.35,0,0,1-1.58-.36,2.57,2.57,0,0,1-1.07-1,3.06,3.06,0,0,1,.42-3.57,4.16,4.16,0,0,1,2.31-1.07Z"/><path class="cls-8" d="M390.52,156.77h2.63l2.19,7.92h.29l2.21-7.92h2.44l-2.78,9.84h-4.19Z"/><path class="cls-8" d="M408.38,160.39v1.93l-2.35.35a1.57,1.57,0,0,0-.79.36.94.94,0,0,0-.28.7.89.89,0,0,0,.3.71,1.22,1.22,0,0,0,.85.27,2.3,2.3,0,0,0,1.06-.25,1.9,1.9,0,0,0,.75-.68,1.7,1.7,0,0,0,.28-.95v-2.46a1.69,1.69,0,0,0-.42-1.24,1.76,1.76,0,0,0-1.29-.42,2.54,2.54,0,0,0-1,.19,1.84,1.84,0,0,0-.73.55,1.79,1.79,0,0,0-.36.87H401.9a4,4,0,0,1,.69-2.06,3.78,3.78,0,0,1,1.59-1.33,5.47,5.47,0,0,1,2.33-.46,4.61,4.61,0,0,1,3.13,1,3.45,3.45,0,0,1,1.09,2.75v6.43H408.2v-1h-.59a2,2,0,0,1-.82.89,2.85,2.85,0,0,1-1.42.31,3.35,3.35,0,0,1-1.58-.36,2.57,2.57,0,0,1-1.07-1,3.06,3.06,0,0,1,.42-3.57,4.16,4.16,0,0,1,2.31-1.07Z"/><path class="cls-8" d="M415.87,163.11a1.87,1.87,0,0,0,.72,1,2.36,2.36,0,0,0,1.34.34,2,2,0,0,0,1.37-.41,1.36,1.36,0,0,0,.49-1.12,1.18,1.18,0,0,0-.35-.84,1.59,1.59,0,0,0-1-.43l-1.59-.22a4.33,4.33,0,0,1-2.6-1.3,3.76,3.76,0,0,1-.9-2.61,3.89,3.89,0,0,1,.56-2.15,3.83,3.83,0,0,1,1.58-1.39,5.41,5.41,0,0,1,2.43-.5,5.71,5.71,0,0,1,2.44.48,3.8,3.8,0,0,1,1.61,1.4,4.69,4.69,0,0,1,.67,2.24h-2.54a2.37,2.37,0,0,0-3.61-1.28,1.42,1.42,0,0,0-.5,1.14,1.14,1.14,0,0,0,.34.84,1.66,1.66,0,0,0,.95.44l1.59.22a4.45,4.45,0,0,1,2.62,1.3,3.71,3.71,0,0,1,.91,2.59,4,4,0,0,1-.55,2.15,3.74,3.74,0,0,1-1.57,1.39,5.41,5.41,0,0,1-2.4.49,6.08,6.08,0,0,1-2.4-.44,3.75,3.75,0,0,1-1.62-1.3,4,4,0,0,1-.66-2.06Z"/><path class="cls-8" d="M429.28,166.91a4.75,4.75,0,0,1-2.49-.63,4.29,4.29,0,0,1-1.63-1.79,6.15,6.15,0,0,1-.57-2.74,6.29,6.29,0,0,1,.58-2.81,4.16,4.16,0,0,1,1.66-1.83,4.81,4.81,0,0,1,2.53-.64,4.74,4.74,0,0,1,2.28.52,3.94,3.94,0,0,1,1.52,1.51,4.84,4.84,0,0,1,.61,2.32h-2.33a2.91,2.91,0,0,0-.75-1.51,1.85,1.85,0,0,0-1.37-.54,2,2,0,0,0-1.64.78,3.53,3.53,0,0,0-.6,2.18,3.4,3.4,0,0,0,.59,2.12,1.89,1.89,0,0,0,1.59.76,1.79,1.79,0,0,0,1.23-.45,2.63,2.63,0,0,0,.75-1.26h2.34a4.32,4.32,0,0,1-.66,2.13,3.84,3.84,0,0,1-1.51,1.4A4.58,4.58,0,0,1,429.28,166.91Z"/><path class="cls-8" d="M435.87,156.77h4.21v.9h.6a2,2,0,0,1,.81-.88,2.5,2.5,0,0,1,1.23-.31,2,2,0,0,1,1.76.89,4.77,4.77,0,0,1,.59,2.62v1.58h-2.64v-1.25c0-.89-.33-1.34-1-1.34a1,1,0,0,0-.95.57,4,4,0,0,0-.3,1.75v3H443v2.3H436v-2.3h1.65v-5.24h-1.82Z"/><path class="cls-8" d="M447.79,156.77h5.49v7.54h2.86v2.3h-8.35v-2.3h2.89v-5.24h-2.89Zm4.06-1.17a1.7,1.7,0,0,1-1.21-.4,1.46,1.46,0,0,1-.42-1.12,1.52,1.52,0,0,1,.42-1.15,2,2,0,0,1,2.42,0,1.52,1.52,0,0,1,.42,1.15,1.46,1.46,0,0,1-.42,1.12A1.68,1.68,0,0,1,451.85,155.6Z"/><path class="cls-8" d="M458.3,169.81v-13h2.59v.91h.59a2.07,2.07,0,0,1,.88-.85,2.75,2.75,0,0,1,1.3-.32,3.41,3.41,0,0,1,2.09.64,4.11,4.11,0,0,1,1.36,1.79,8,8,0,0,1,0,5.51,4.05,4.05,0,0,1-1.36,1.79,3.47,3.47,0,0,1-2.09.63,2.75,2.75,0,0,1-1.3-.32,2.25,2.25,0,0,1-.88-.85h-.59v4.11Zm4.61-5.25a1.89,1.89,0,0,0,1.61-.76,3.54,3.54,0,0,0,.56-2.12,3.48,3.48,0,0,0-.56-2.11,2.12,2.12,0,0,0-3.24,0,4.27,4.27,0,0,0,0,4.23A1.92,1.92,0,0,0,462.91,164.56Z"/><path class="cls-8" d="M473.76,154.23v2.54H478v2.3h-4.28v4.12a1.93,1.93,0,0,0,.24,1.06.84.84,0,0,0,.75.36,1,1,0,0,0,.83-.43,4.12,4.12,0,0,0,.51-1.41h2.27a4.85,4.85,0,0,1-1,3.08,3.33,3.33,0,0,1-2.64,1.06,3.4,3.4,0,0,1-2.6-1,3.86,3.86,0,0,1-.92-2.75v-4.13h-1.85v-2.3h1.85v-2.54Z"/></g><rect class="cls-1" x="520.21" width="153.19" height="141.69" rx="25"/><path class="cls-2" d="M627.21,96.38a1.69,1.69,0,0,1-1.66-1.66V75.52a1.67,1.67,0,1,1,3.33,0v19.2A1.9,1.9,0,0,1,627.21,96.38Z"/><path class="cls-2" d="M566.41,96.38a1.69,1.69,0,0,1-1.67-1.66V43.52a1.7,1.7,0,0,1,1.67-1.67H592a1.67,1.67,0,0,1,0,3.33H567.94V94.85A1.65,1.65,0,0,1,566.41,96.38Z"/><path class="cls-2" d="M607.37,88.45H596.74c-11,0-22-.13-22.14-.13a1.59,1.59,0,0,1-1.54-1.66V51.58a1.69,1.69,0,0,1,1.67-1.66h17.41a1.66,1.66,0,0,1,0,3.32h-16V85.12c15,.13,35.58.13,41.21,0v-9.6a1.67,1.67,0,1,1,3.33,0V86.66a1.59,1.59,0,0,1-.51,1.15,1.89,1.89,0,0,1-1.66.51H612C610.57,88.32,609,88.45,607.37,88.45Z"/><path class="cls-9" d="M590.34,83.58a6,6,0,0,1-4.48-1.92,6.51,6.51,0,0,1-1.92-4.48v-6.4a6.34,6.34,0,0,1,6.4-6.4,6,6,0,0,1,4.48,1.92,6.49,6.49,0,0,1,1.92,4.48,1.69,1.69,0,0,1-1.66,1.67,1.59,1.59,0,0,1-1.54-1.67,3.69,3.69,0,0,0-.89-2.3,3.1,3.1,0,0,0-2.31-.9,3.17,3.17,0,0,0-3.2,3.2v6.4a3.7,3.7,0,0,0,.9,2.31,3.08,3.08,0,0,0,2.3.89,3.17,3.17,0,0,0,3.2-3.2,1.67,1.67,0,0,1,3.33,0A6.52,6.52,0,0,1,590.34,83.58Z"/><polygon class="cls-2" points="633.61 94.85 633.61 107.65 560.01 107.65 560.01 94.85 566.41 94.85 585.61 94.85 585.61 99.58 606.35 99.58 606.35 94.85 627.21 94.85 633.61 94.85"/><path class="cls-3" d="M633.61,49.28V54h-4.86a14.36,14.36,0,0,1-2,5l3.46,3.46-3.33,3.33-3.46-3.46a13.15,13.15,0,0,1-5,2v4.87h-4.74V64.38a14.06,14.06,0,0,1-5-2l-3.46,3.46-3.33-3.33L605.32,59a13.41,13.41,0,0,1-2.05-5h-4.86V49.28h4.86a14.41,14.41,0,0,1,2.05-5l-3.46-3.45,3.33-3.33L608.65,41a13.15,13.15,0,0,1,5-2.05V34h4.74v4.87a14.06,14.06,0,0,1,5,2.05l3.46-3.46,3.33,3.33-3.46,3.45a13.45,13.45,0,0,1,2,5ZM623,51.58a7,7,0,1,0-7,7A7.1,7.1,0,0,0,623,51.58Z"/><rect class="cls-6" x="588.81" y="57.98" width="4.86" height="4.86"/><rect class="cls-6" x="580.74" y="57.98" width="4.86" height="4.86"/><path class="cls-9" d="M600.71,77.18a1.7,1.7,0,0,1-1.66-1.66V70.65a1.67,1.67,0,0,1,3.33,0v4.87A1.7,1.7,0,0,1,600.71,77.18Z"/><path class="cls-9" d="M603.14,74.75h-4.86a1.67,1.67,0,0,1,0-3.33h4.86a1.67,1.67,0,1,1,0,3.33Z"/><path class="cls-9" d="M609.55,77.18a1.7,1.7,0,0,1-1.67-1.66V70.65a1.67,1.67,0,0,1,3.33,0v4.87A1.7,1.7,0,0,1,609.55,77.18Z"/><path class="cls-9" d="M612,74.75h-4.87a1.67,1.67,0,0,1,0-3.33H612a1.67,1.67,0,0,1,0,3.33Z"/><g class="cls-16"><path class="cls-8" d="M586.05,166.91a4.25,4.25,0,0,1-3.65-1.7,8.4,8.4,0,0,1-1.25-5,8.26,8.26,0,0,1,1.28-5,4.4,4.4,0,0,1,3.74-1.7,4.75,4.75,0,0,1,2.41.58,4,4,0,0,1,1.6,1.68,6.4,6.4,0,0,1,.67,2.67h-2.48a3.84,3.84,0,0,0-.76-1.84,1.82,1.82,0,0,0-1.44-.61,1.88,1.88,0,0,0-1.74,1,6.88,6.88,0,0,0-.58,3.2,7.21,7.21,0,0,0,.54,3.19,1.77,1.77,0,0,0,1.66,1,1.72,1.72,0,0,0,1.33-.57,3.4,3.4,0,0,0,.74-1.7h2.49a6.2,6.2,0,0,1-.68,2.57,4,4,0,0,1-1.56,1.62A4.71,4.71,0,0,1,586.05,166.91Z"/><path class="cls-8" d="M595.87,165.92v-3.76h-3.76v-2.31h3.76v-3.76h2.3v3.76h3.76v2.31h-3.76v3.76Z"/><path class="cls-8" d="M607.07,165.92v-3.76h-3.76v-2.31h3.76v-3.76h2.3v3.76h3.76v2.31h-3.76v3.76Z"/></g><rect class="cls-1" y="193.13" width="153.19" height="141.69" rx="25"/><path class="cls-17" d="M82.93,300.58a1.69,1.69,0,0,1-1.66-1.66V287.65h-9.6v11.27a1.67,1.67,0,0,1-3.33,0v-12.8A1.7,1.7,0,0,1,70,284.45H82.8a1.7,1.7,0,0,1,1.67,1.67v12.8A1.45,1.45,0,0,1,82.93,300.58Z"/><path class="cls-18" d="M87.8,300.58H65.39a1.66,1.66,0,0,1,0-3.32H87.8a1.69,1.69,0,0,1,1.66,1.66A1.78,1.78,0,0,1,87.8,300.58Z"/><polygon class="cls-4" points="113.4 281.77 113.4 288.17 82.93 288.17 70.13 288.17 39.79 288.17 39.79 281.77 113.4 281.77"/><rect class="cls-11" x="39.79" y="227.36" width="73.61" height="54.4"/><rect class="cls-12" x="46.32" y="249.76" width="28.8" height="22.4"/><rect class="cls-3" x="46.32" y="240.16" width="28.8" height="9.6"/><polygon class="cls-5" points="104.95 265.89 107.89 265.89 107.89 267.3 104.95 267.3 104.95 268.96 108.53 268.96 108.53 270.5 103.16 270.5 103.16 262.82 108.41 262.82 108.41 264.36 104.95 264.36 104.95 265.89"/><path class="cls-5" d="M100.34,266.66a1.91,1.91,0,0,0-.13-.9l-.38-.76a1.27,1.27,0,0,0-.64-.52,2,2,0,0,0-.9-.12H97.14V269h1.15a1.88,1.88,0,0,0,.9-.13,1.31,1.31,0,0,0,.64-.51,3.94,3.94,0,0,0,.38-.77C100.21,267.3,100.34,266.92,100.34,266.66Zm1.79,0a4.79,4.79,0,0,1-.25,1.54,1.9,1.9,0,0,1-.77,1.15,3.1,3.1,0,0,1-1.15.77,6.35,6.35,0,0,1-1.54.25H95.61v-7.68h2.81a6.5,6.5,0,0,1,1.67.26,4.31,4.31,0,0,1,1.15.77,9.15,9.15,0,0,1,.77,1.15C102,265.64,102.13,266.15,102.13,266.66Z"/><path class="cls-5" d="M92.4,267.43a1.61,1.61,0,0,0,.13-.77,2.17,2.17,0,0,0-.13-.9L92,265a1.27,1.27,0,0,0-.64-.52,1.73,1.73,0,0,0-.77-.12,1.38,1.38,0,0,0-.77.25,2.55,2.55,0,0,0-.64.51c-.12.26-.25.52-.38.77a1.88,1.88,0,0,0-.13.9,2.12,2.12,0,0,0,.13.89l.38.77a1.32,1.32,0,0,0,.64.52,2,2,0,0,0,.77.25,1.44,1.44,0,0,0,.77-.25,2.25,2.25,0,0,0,.64-.52C92.28,267.94,92.4,267.81,92.4,267.43Zm1.93-.77a4.6,4.6,0,0,1-.26,1.41,2.7,2.7,0,0,1-.77,1.28,7.53,7.53,0,0,1-1.15.9,2.81,2.81,0,0,1-1.54.38,3.46,3.46,0,0,1-1.53-.38,7.59,7.59,0,0,1-1.16-.9,6,6,0,0,1-.64-.9c0-.12-.12-.25-.12-.38a5.38,5.38,0,0,1-.26-1.41,4.6,4.6,0,0,1,.26-1.41c0-.13.12-.25.12-.38a2.38,2.38,0,0,1,.64-.9,6.92,6.92,0,0,1,1.16-.89,2.93,2.93,0,0,1,1.53-.26,3.5,3.5,0,0,1,1.54.38,7.53,7.53,0,0,1,1.15.9,4.41,4.41,0,0,1,.77,1.28A1.9,1.9,0,0,1,94.33,266.66Z"/><path class="cls-5" d="M83.7,262.82a3,3,0,0,1,1.79.51,3.32,3.32,0,0,1,1.15,1.15l-1.4.9c-.13-.26-.13-.38-.26-.51l-.38-.39c-.13-.12-.26-.12-.52-.12H83.7a1.36,1.36,0,0,0-.77.25,1.05,1.05,0,0,0-.51.51l-.38.77a1.61,1.61,0,0,0-.13.77,2.17,2.17,0,0,0,.13.9l.38.77a1.31,1.31,0,0,0,.64.51,1.61,1.61,0,0,0,.77.13h.38c.13,0,.26-.13.39-.13s.25-.13.38-.39.26-.25.26-.51l1.4.9a2.57,2.57,0,0,1-.51.77,2.71,2.71,0,0,1-.77.51c-.25.13-.64.25-.89.38a2.17,2.17,0,0,1-.9.13,2.66,2.66,0,0,1-1.41-.38,8,8,0,0,1-1.15-.9,4.41,4.41,0,0,1-.77-1.28,4.1,4.1,0,0,1,0-2.82A2.75,2.75,0,0,1,81,264a2.79,2.79,0,0,1,1.15-.89A2.76,2.76,0,0,1,83.7,262.82Z"/><rect class="cls-13" x="57.59" y="243.36" width="3.2" height="3.2"/><rect class="cls-13" x="50.93" y="243.36" width="3.2" height="3.2"/><path class="cls-9" d="M55.92,262.56a1.53,1.53,0,0,1-1.15-.51l-3.2-3.2a1.62,1.62,0,0,1,0-2.3l3.2-3.2a1.63,1.63,0,0,1,2.3,2.3l-2,2,2,2.05a1.62,1.62,0,0,1,0,2.3A1.23,1.23,0,0,1,55.92,262.56Z"/><path class="cls-9" d="M66.16,267.94a1.57,1.57,0,0,1-1.15-.51,1.63,1.63,0,0,1,0-2.31l2-2L65,261a1.63,1.63,0,1,1,2.3-2.31l3.21,3.2a1.63,1.63,0,0,1,0,2.31l-3.21,3.2A1.63,1.63,0,0,1,66.16,267.94Z"/><path class="cls-17" d="M59.12,267.3a.76.76,0,0,1-.51-.13,1.56,1.56,0,0,1-1-2.05l3.2-9.6a1.62,1.62,0,0,1,3.07,1l-3.2,9.6A1.51,1.51,0,0,1,59.12,267.3Z"/><path class="cls-6" d="M103.8,249.76H82.93a1.66,1.66,0,0,1,0-3.32H103.8a1.69,1.69,0,0,1,1.66,1.66A1.89,1.89,0,0,1,103.8,249.76Z"/><path class="cls-6" d="M103.8,241.7H89.33a1.67,1.67,0,0,1,0-3.33H103.8a1.7,1.7,0,0,1,1.66,1.66A1.78,1.78,0,0,1,103.8,241.7Z"/><g class="cls-19"><path class="cls-8" d="M44.45,359.73v-12.8h4.87a5,5,0,0,1,2.29.5,3.62,3.62,0,0,1,1.53,1.39,4.06,4.06,0,0,1,.54,2.13,3.8,3.8,0,0,1-.54,2.05,3.6,3.6,0,0,1-1.53,1.35,5.29,5.29,0,0,1-2.29.47H47.16v4.91Zm2.71-7.33h2.17a1.8,1.8,0,0,0,1.21-.37A1.35,1.35,0,0,0,51,351a1.37,1.37,0,0,0-.44-1.09,1.76,1.76,0,0,0-1.21-.38H47.16Z"/><path class="cls-8" d="M54.9,349.89h2.66l2.22,7h1.41l-.55,2h-2.8Zm9.84,0-3,10.85a3.54,3.54,0,0,1-1.13,1.86,3.43,3.43,0,0,1-4.15-.14,3.54,3.54,0,0,1-1-2.28H57.8a1.69,1.69,0,0,0,.35.65.68.68,0,0,0,.53.21.63.63,0,0,0,.5-.22,1.81,1.81,0,0,0,.33-.71l2.8-10.22Z"/><path class="cls-8" d="M71,347.35v2.54h4.29v2.3H71v4.12a1.91,1.91,0,0,0,.24,1.06.84.84,0,0,0,.75.36,1,1,0,0,0,.83-.43,4.12,4.12,0,0,0,.51-1.41h2.28a5,5,0,0,1-1,3.08A3.34,3.34,0,0,1,71.88,360a3.42,3.42,0,0,1-2.61-1,3.85,3.85,0,0,1-.91-2.75v-4.13H66.5v-2.3h1.86v-2.54Z"/><path class="cls-8" d="M78,359.73V346.16h2.59v4.63h.59a2.23,2.23,0,0,1,.91-.89,2.74,2.74,0,0,1,1.32-.31,2.89,2.89,0,0,1,1.66.46,3,3,0,0,1,1.06,1.34,5.48,5.48,0,0,1,.37,2.1v6.24h-2.6v-5.62a2.58,2.58,0,0,0-.41-1.57,1.68,1.68,0,0,0-2.47,0,2.45,2.45,0,0,0-.43,1.57v5.62Z"/><path class="cls-8" d="M93.4,360a4.79,4.79,0,0,1-2.5-.63,4.16,4.16,0,0,1-1.63-1.81,7,7,0,0,1,0-5.56,4.16,4.16,0,0,1,1.63-1.81,5.28,5.28,0,0,1,5,0A4.14,4.14,0,0,1,97.52,352a7,7,0,0,1,0,5.56,4.14,4.14,0,0,1-1.62,1.81A4.76,4.76,0,0,1,93.4,360Zm0-2.3A1.91,1.91,0,0,0,95,357a3.51,3.51,0,0,0,.57-2.14,3.56,3.56,0,0,0-.57-2.16,2.11,2.11,0,0,0-3.26,0,3.49,3.49,0,0,0-.58,2.16,3.45,3.45,0,0,0,.58,2.14A1.91,1.91,0,0,0,93.4,357.73Z"/><path class="cls-8" d="M100.42,359.73v-9.84H103v.9h.59a2.23,2.23,0,0,1,.91-.89,2.74,2.74,0,0,1,1.32-.31,2.89,2.89,0,0,1,1.66.46,3,3,0,0,1,1.06,1.34,5.48,5.48,0,0,1,.37,2.1v6.24h-2.6v-5.62a2.51,2.51,0,0,0-.41-1.57,1.68,1.68,0,0,0-2.47,0,2.45,2.45,0,0,0-.43,1.57v5.62Z"/></g><rect class="cls-1" x="173.4" y="193.13" width="153.19" height="141.69" rx="25"/><path class="cls-17" d="M256.34,300.71a1.7,1.7,0,0,1-1.67-1.66V287.78h-9.6v11.27a1.67,1.67,0,0,1-3.33,0v-12.8a1.7,1.7,0,0,1,1.67-1.67h12.8a1.7,1.7,0,0,1,1.66,1.67v12.8A1.51,1.51,0,0,1,256.34,300.71Z"/><path class="cls-18" d="M261.2,300.71H238.8a1.67,1.67,0,1,1,0-3.33h22.4a1.7,1.7,0,0,1,1.67,1.67A1.91,1.91,0,0,1,261.2,300.71Z"/><rect class="cls-11" x="213.2" y="227.23" width="73.61" height="54.4"/><polygon class="cls-4" points="286.8 281.64 286.8 288.04 256.34 288.04 243.53 288.04 213.2 288.04 213.2 281.64 286.8 281.64"/><rect class="cls-6" x="254.8" y="268.84" width="3.2" height="3.2"/><rect class="cls-6" x="248.4" y="268.84" width="3.2" height="3.2"/><rect class="cls-6" x="242" y="268.84" width="3.2" height="3.2"/><path class="cls-20" d="M269.14,276.9h-3.2a1.67,1.67,0,1,1,0-3.33h1.66v-1.66a2.31,2.31,0,0,1,.51-1.28l.13-.13-.13-.13a1.49,1.49,0,0,1-.51-1.28v-2h-1.66a1.66,1.66,0,1,1,0-3.32h3.2a1.69,1.69,0,0,1,1.66,1.66v3.07l1,.9a1.49,1.49,0,0,1,.51,1.28,2.31,2.31,0,0,1-.51,1.28l-1,.9v2.56A1.68,1.68,0,0,1,269.14,276.9Z"/><path class="cls-20" d="M233.93,276.9h-3.2a1.7,1.7,0,0,1-1.66-1.66v-2.56l-1-.9a1.47,1.47,0,0,1-.52-1.28,2.25,2.25,0,0,1,.52-1.28l1-.9v-2.81a1.7,1.7,0,0,1,1.66-1.67h3.2a1.67,1.67,0,1,1,0,3.33h-1.66v2.05a2.31,2.31,0,0,1-.51,1.28l-.13.13.13.13a1.49,1.49,0,0,1,.51,1.28v1.66h1.66a1.7,1.7,0,0,1,1.67,1.67A1.59,1.59,0,0,1,233.93,276.9Z"/><polygon class="cls-21" points="264.14 243.24 249.94 260.9 249.94 260.9 255.18 243.24 264.14 243.24"/><polygon class="cls-22" points="256.98 235.68 255.18 243.24 249.94 235.68 256.98 235.68"/><polygon class="cls-23" points="255.18 243.24 256.98 235.68 256.98 235.68 264.14 243.24 255.18 243.24 255.18 243.24 255.18 243.24"/><polygon class="cls-22" points="255.18 243.24 249.94 260.9 246.35 243.24 255.18 243.24"/><polygon class="cls-23" points="255.18 243.24 255.18 243.24 246.35 243.24 246.35 243.24 249.94 235.68 255.18 243.24"/><polygon class="cls-21" points="249.94 260.9 249.94 260.9 249.94 260.9 235.73 243.24 235.73 243.24 246.35 243.24 249.94 260.9"/><polygon class="cls-22" points="249.94 235.68 246.35 243.24 242.9 235.68 249.94 235.68"/><polygon class="cls-23" points="246.35 243.24 246.35 243.24 235.73 243.24 235.73 243.24 235.73 243.24 242.9 235.68 242.9 235.68 246.35 243.24"/><g class="cls-24"><path class="cls-8" d="M238.18,360a3.48,3.48,0,0,1-3.11-1.71,9.27,9.27,0,0,1-1.09-4.95,8.26,8.26,0,0,1,1.28-5,4.47,4.47,0,0,1,3.8-1.69,4.8,4.8,0,0,1,2.37.55,4.05,4.05,0,0,1,1.59,1.59,5.64,5.64,0,0,1,.66,2.51h-2.51a3.1,3.1,0,0,0-.75-1.63,1.82,1.82,0,0,0-1.36-.54,1.93,1.93,0,0,0-1.8,1,6.69,6.69,0,0,0-.59,3.19,7.16,7.16,0,0,0,.59,3.34,2,2,0,0,0,1.84,1.06,1.81,1.81,0,0,0,1-.3,2.14,2.14,0,0,0,.7-.84,2.79,2.79,0,0,0,.26-1.21h-2.35V353h4.7v6.74h-2.35v-1h-.59a1.77,1.77,0,0,1-.84.95A3,3,0,0,1,238.18,360Z"/><path class="cls-8" d="M246.38,349.89h5.49v7.54h2.87v2.3h-8.36v-2.3h2.9v-5.24h-2.9Zm4.07-1.17a1.68,1.68,0,0,1-1.21-.4,1.46,1.46,0,0,1-.42-1.12,1.52,1.52,0,0,1,.42-1.15,2,2,0,0,1,2.42,0,1.52,1.52,0,0,1,.42,1.15,1.46,1.46,0,0,1-.42,1.12A1.7,1.7,0,0,1,250.45,348.72Z"/><path class="cls-8" d="M261.15,347.35v2.54h4.29v2.3h-4.29v4.12a1.91,1.91,0,0,0,.24,1.06.84.84,0,0,0,.75.36,1,1,0,0,0,.84-.43,4.12,4.12,0,0,0,.51-1.41h2.27a4.85,4.85,0,0,1-1,3.08,3.34,3.34,0,0,1-2.64,1.06,3.43,3.43,0,0,1-2.61-1,3.85,3.85,0,0,1-.91-2.75v-4.13H256.7v-2.3h1.86v-2.54Z"/></g><rect class="cls-1" x="346.81" y="193.13" width="153.19" height="141.69" rx="25"/><path class="cls-17" d="M446.65,301.8H444a1.67,1.67,0,1,1,0-3.33h2.68a1.7,1.7,0,0,1,1.67,1.67A1.79,1.79,0,0,1,446.65,301.8Z"/><path class="cls-17" d="M436.67,301.8H434a1.67,1.67,0,0,1,0-3.33h2.69a1.69,1.69,0,0,1,1.66,1.67A1.78,1.78,0,0,1,436.67,301.8Z"/><path class="cls-17" d="M444,301.8h-7.3a1.69,1.69,0,0,1-1.66-1.66V293a1.69,1.69,0,0,1,1.66-1.67H444a1.7,1.7,0,0,1,1.66,1.67v7.29A1.91,1.91,0,0,1,444,301.8Zm-5.76-3.2h4.09v-4.1h-4.09Z"/><path class="cls-25" d="M406.72,301.8H387.51v-6.4a12.81,12.81,0,1,1,25.61,0v6.4Z"/><rect class="cls-12" x="419.52" y="260.2" width="41.6" height="25.6"/><rect class="cls-12" x="427.2" y="235.87" width="23.04" height="17.92"/><rect class="cls-3" x="427.2" y="228.19" width="23.04" height="7.68"/><path class="cls-9" d="M440.25,269.67a4.87,4.87,0,1,1-4.86,4.86A4.87,4.87,0,0,1,440.25,269.67Z"/><polygon class="cls-4" points="461.12 285.8 461.12 294.5 443.97 294.5 436.67 294.5 419.52 294.5 419.52 285.8 461.12 285.8"/><path class="cls-26" d="M400.32,269.8a6.4,6.4,0,1,1-6.41,6.4A6.4,6.4,0,0,1,400.32,269.8Z"/><rect class="cls-13" x="436.16" y="230.75" width="2.56" height="2.56"/><rect class="cls-13" x="430.78" y="230.75" width="2.56" height="2.56"/><rect class="cls-6" x="408.89" y="235.23" width="2.56" height="2.56"/><rect class="cls-6" x="402.49" y="235.23" width="2.56" height="2.56"/><rect class="cls-6" x="396.09" y="235.23" width="2.56" height="2.56"/><path class="cls-17" d="M434.88,248.93a1.56,1.56,0,0,1-1.15-.51l-2.56-2.56a1.63,1.63,0,0,1,0-2.31l2.56-2.56a1.63,1.63,0,0,1,2.3,2.31l-1.41,1.41,1.41,1.4a1.63,1.63,0,0,1,0,2.31A1.57,1.57,0,0,1,434.88,248.93Z"/><path class="cls-17" d="M442.56,248.93a1.56,1.56,0,0,1-1.15-.51,1.63,1.63,0,0,1,0-2.31l1.4-1.4-1.4-1.41a1.63,1.63,0,0,1,2.3-2.31l2.56,2.56a1.63,1.63,0,0,1,0,2.31l-2.56,2.56A1.57,1.57,0,0,1,442.56,248.93Z"/><path class="cls-6" d="M439,250.21a1.54,1.54,0,0,1-1.53-1.41l-.64-7.68a1.54,1.54,0,1,1,3.07-.25l.64,7.68a1.49,1.49,0,0,1-1.41,1.66Z"/><path class="cls-17" d="M395.45,245.73h-4.86a1.7,1.7,0,0,1-1.67-1.66v-5.64l-2.17-.89a1.76,1.76,0,0,1-1-1.28,1.43,1.43,0,0,1,.51-1.41l2.69-2.18v-4.6a1.7,1.7,0,0,1,1.67-1.67h4.86a1.67,1.67,0,0,1,0,3.33h-3.2v3.71a2.31,2.31,0,0,1-.51,1.28l-1.15,1,.76.25a1.56,1.56,0,0,1,1,1.54v5.12h3.2a1.7,1.7,0,0,1,1.66,1.66C397.24,245.22,396.35,245.73,395.45,245.73Z"/><path class="cls-17" d="M416.32,245.73h-4.87a1.67,1.67,0,0,1,0-3.33h3.2v-5.12a1.65,1.65,0,0,1,1-1.53l.76-.26-1.15-1a1.5,1.5,0,0,1-.51-1.28v-3.72h-3.2a1.66,1.66,0,1,1,0-3.32h4.86a1.69,1.69,0,0,1,1.67,1.66v5L420.8,235a1.52,1.52,0,0,1,.51,1.41,2,2,0,0,1-1,1.28l-2.17.89v5.63A1.9,1.9,0,0,1,416.32,245.73Z"/><path class="cls-27" d="M393.91,293.73a1.7,1.7,0,0,0-1.66,1.67v6.4h3.33v-6.4A1.79,1.79,0,0,0,393.91,293.73Z"/><path class="cls-27" d="M406.72,293.73a1.7,1.7,0,0,0-1.67,1.67v6.4h3.33v-6.4A1.79,1.79,0,0,0,406.72,293.73Z"/><g class="cls-28"><path class="cls-8" d="M410.27,356.24a1.8,1.8,0,0,0,.72,1,2.36,2.36,0,0,0,1.34.35,2.09,2.09,0,0,0,1.37-.41,1.38,1.38,0,0,0,.49-1.13,1.16,1.16,0,0,0-.35-.83,1.56,1.56,0,0,0-1-.43l-1.59-.22a4.39,4.39,0,0,1-2.6-1.3,3.76,3.76,0,0,1-.9-2.61,4,4,0,0,1,.56-2.15,3.76,3.76,0,0,1,1.58-1.39,5.44,5.44,0,0,1,2.43-.51,5.71,5.71,0,0,1,2.44.49,3.74,3.74,0,0,1,1.61,1.4,4.69,4.69,0,0,1,.67,2.24h-2.54a2.06,2.06,0,0,0-2.18-1.69,2.19,2.19,0,0,0-1.43.41,1.42,1.42,0,0,0-.5,1.14,1.14,1.14,0,0,0,.34.84,1.72,1.72,0,0,0,1,.44l1.59.22a4.39,4.39,0,0,1,2.62,1.3,3.69,3.69,0,0,1,.91,2.59,4,4,0,0,1-.55,2.14,3.69,3.69,0,0,1-1.57,1.4,5.41,5.41,0,0,1-2.4.49,5.91,5.91,0,0,1-2.4-.45,3.72,3.72,0,0,1-1.62-1.29,4,4,0,0,1-.66-2.07Z"/><path class="cls-8" d="M423.41,360.05a4.44,4.44,0,0,1-3.77-1.7,10.5,10.5,0,0,1,0-10,5,5,0,0,1,7.52,0,10.35,10.35,0,0,1,0,10A4.4,4.4,0,0,1,423.41,360.05Zm0-2.48a1.87,1.87,0,0,0,1.75-1,9.06,9.06,0,0,0,0-6.38,1.88,1.88,0,0,0-1.75-1,1.91,1.91,0,0,0-1.77,1,9.21,9.21,0,0,0,0,6.38A1.9,1.9,0,0,0,423.41,357.57Zm-.6,4.72v-2.7H424v.64l3.87.72v2.3Z"/><path class="cls-8" d="M431.29,359.75V347H434v10.24h5.28v2.56Z"/></g><rect class="cls-1" x="520.21" y="193.13" width="153.19" height="141.69" rx="25"/><rect class="cls-11" x="560.01" y="239.97" width="73.61" height="60.81"/><rect class="cls-4" x="560.01" y="227.17" width="73.61" height="12.8"/><path class="cls-2" d="M627.21,235.11h-28.8a1.67,1.67,0,1,1,0-3.33h28.8a1.7,1.7,0,0,1,1.67,1.66A1.79,1.79,0,0,1,627.21,235.11Z"/><path class="cls-2" d="M569.61,235.11h-3.2a1.67,1.67,0,1,1,0-3.33h3.2a1.7,1.7,0,0,1,1.66,1.66A1.79,1.79,0,0,1,569.61,235.11Z"/><path class="cls-2" d="M583.94,235.11h-3.2a1.67,1.67,0,0,1,0-3.33h3.2a1.67,1.67,0,1,1,0,3.33Z"/><path class="cls-9" d="M613.77,288.61a1.41,1.41,0,0,1-1.28-.76l-1.15-2.31-7.94-2.69a1.41,1.41,0,0,1,.9-2.68l8.45,2.81a1.15,1.15,0,0,1,.76.77l1.41,2.82a1.38,1.38,0,0,1-.64,1.92C614.28,288.61,614,288.61,613.77,288.61Z"/><path class="cls-17" d="M598.28,260.32a1.41,1.41,0,0,1-1.28-.76,1.45,1.45,0,0,1,.51-1.92c4.23-2.31,3.59-5.51,3.59-5.51a1.38,1.38,0,0,1,2.69-.64c0,.26,1,5.25-5,8.58A.65.65,0,0,1,598.28,260.32Z"/><path class="cls-17" d="M595,260.32a1.4,1.4,0,0,0,1.28-.76,1.44,1.44,0,0,0-.51-1.92c-4.22-2.31-3.58-5.51-3.58-5.51a1.38,1.38,0,0,0-2.69-.64c0,.26-1,5.25,5,8.58C594.44,260.2,594.7,260.32,595,260.32Z"/><path class="cls-9" d="M588.3,264.55a.78.78,0,0,1-.52-.13l-6.52-2.56L579,263a1.43,1.43,0,1,1-1.28-2.56l2.82-1.41a1.26,1.26,0,0,1,1.15,0l7,2.82a1.37,1.37,0,0,1,.77,1.79A1,1,0,0,1,588.3,264.55Z"/><path class="cls-9" d="M606.73,264.55a1.4,1.4,0,0,1-1.28-.9,1.32,1.32,0,0,1,.77-1.79l7-2.82a1.88,1.88,0,0,1,1.15,0l2.82,1.41A1.43,1.43,0,1,1,616,263l-2.31-1.15-6.53,2.56C607.11,264.55,606.86,264.55,606.73,264.55Z"/><path class="cls-9" d="M577,274.4a1.42,1.42,0,0,1-1-.38,1.54,1.54,0,0,1,0-2l2.81-2.81a1.45,1.45,0,0,1,1-.39h7a1.41,1.41,0,0,1,0,2.82h-6.53L577.93,274A1,1,0,0,1,577,274.4Z"/><path class="cls-9" d="M618,274.4a1.44,1.44,0,0,1-1-.38l-2.43-2.43H608a1.41,1.41,0,0,1,0-2.82h7a1.43,1.43,0,0,1,1,.39l2.82,2.81a1.56,1.56,0,0,1,0,2A1,1,0,0,1,618,274.4Z"/><path class="cls-9" d="M579.85,288.61a1.2,1.2,0,0,1-.64-.12,1.45,1.45,0,0,1-.64-1.92l1.41-2.82a1.5,1.5,0,0,1,.76-.77l8.45-2.81a1.41,1.41,0,0,1,.9,2.68l-7.94,2.69L581,287.85A1.12,1.12,0,0,1,579.85,288.61Z"/><path class="cls-12" d="M596.87,257.51a5.63,5.63,0,1,1-5.63,5.63A5.6,5.6,0,0,1,596.87,257.51Z"/><path class="cls-9" d="M607.75,268.52v6.27a10.79,10.79,0,0,1-4.22,8.58l-.51-.77L596.74,267a4.74,4.74,0,1,0,0-9.47,10.79,10.79,0,0,1,7.68,3.2A10.42,10.42,0,0,1,607.75,268.52Z"/><path class="cls-9" d="M596.87,267l-4.73,17.15-.77.13a11.25,11.25,0,0,1-5.51-9.47v-6.27a11,11,0,0,1,11-11,4.74,4.74,0,0,0,0,9.47Z"/><path class="cls-29" d="M603.14,282.6l.52.77a11.47,11.47,0,0,1-6.79,2.3,11.65,11.65,0,0,1-5.5-1.41l.77-.13L596.87,267Z"/><g class="cls-30"><path class="cls-8" d="M529.83,360.05a4.24,4.24,0,0,1-3.65-1.7,8.38,8.38,0,0,1-1.24-5,8.19,8.19,0,0,1,1.28-5,4.4,4.4,0,0,1,3.74-1.7,4.86,4.86,0,0,1,2.41.58,4,4,0,0,1,1.6,1.68,6.33,6.33,0,0,1,.66,2.67h-2.48a3.79,3.79,0,0,0-.76-1.84,1.83,1.83,0,0,0-1.43-.61,1.87,1.87,0,0,0-1.74,1,6.68,6.68,0,0,0-.58,3.19,7.18,7.18,0,0,0,.54,3.19,1.85,1.85,0,0,0,3,.46,3.44,3.44,0,0,0,.74-1.7h2.48a6,6,0,0,1-.67,2.57,4,4,0,0,1-1.57,1.62A4.66,4.66,0,0,1,529.83,360.05Z"/><path class="cls-8" d="M535.91,349.91h2.66l2.22,7h1.41l-.54,2h-2.8Zm9.84,0-3,10.85a3.61,3.61,0,0,1-1.14,1.86,3,3,0,0,1-1.94.63,3.1,3.1,0,0,1-2.21-.77,3.49,3.49,0,0,1-1-2.29h2.27a2,2,0,0,0,.35.66.68.68,0,0,0,.53.21.67.67,0,0,0,.5-.22,1.62,1.62,0,0,0,.33-.71l2.8-10.22Z"/><path class="cls-8" d="M553.06,360a2.6,2.6,0,0,1-1.29-.32,2,2,0,0,1-.88-.84h-.59v.91h-2.6V346.18h2.6v4.64h.59a2,2,0,0,1,.88-.86,2.82,2.82,0,0,1,1.29-.31,3.47,3.47,0,0,1,2.09.63,4.07,4.07,0,0,1,1.36,1.8,8,8,0,0,1,0,5.51,4,4,0,0,1-1.36,1.79A3.54,3.54,0,0,1,553.06,360Zm-.75-2.3a1.88,1.88,0,0,0,1.61-.76,3.47,3.47,0,0,0,.57-2.12,3.42,3.42,0,0,0-.57-2.11,2.1,2.1,0,0,0-3.23,0,3.5,3.5,0,0,0-.57,2.13,3.44,3.44,0,0,0,.57,2.11A1.91,1.91,0,0,0,552.31,357.7Z"/><path class="cls-8" d="M560.79,353.81h5.46l-.83.95a3.78,3.78,0,0,0-.52-2.2,1.72,1.72,0,0,0-1.52-.73,1.83,1.83,0,0,0-1.59.77,3.64,3.64,0,0,0-.55,2.17,4,4,0,0,0,.54,2.28,1.86,1.86,0,0,0,1.65.78,2.18,2.18,0,0,0,1.13-.29,2.44,2.44,0,0,0,.84-.85h2.51a5.43,5.43,0,0,1-1,1.83,4.14,4.14,0,0,1-1.54,1.14,5,5,0,0,1-2,.39,4.79,4.79,0,0,1-2.47-.62,4.08,4.08,0,0,1-1.59-1.81,6.68,6.68,0,0,1-.55-2.85,6.12,6.12,0,0,1,.57-2.74,4.21,4.21,0,0,1,1.61-1.8,4.62,4.62,0,0,1,2.44-.63,4.28,4.28,0,0,1,2.31.61,4,4,0,0,1,1.48,1.76,6.71,6.71,0,0,1,.52,2.79c0,.16,0,.31,0,.47a3.12,3.12,0,0,1,0,.44h-6.83Z"/><path class="cls-8" d="M570.07,349.91h4.21v.89h.61a2,2,0,0,1,.81-.87,2.33,2.33,0,0,1,1.22-.31,2,2,0,0,1,1.76.89,4.76,4.76,0,0,1,.59,2.61v1.59h-2.64v-1.25q0-1.35-1-1.35a1,1,0,0,0-.94.58,3.8,3.8,0,0,0-.31,1.75v3h2.79v2.31h-6.93v-2.31h1.65v-5.23h-1.83Z"/><path class="cls-8" d="M583.67,356.24a1.8,1.8,0,0,0,.72,1,2.37,2.37,0,0,0,1.35.35,2.11,2.11,0,0,0,1.37-.41,1.4,1.4,0,0,0,.48-1.13,1.15,1.15,0,0,0-.34-.83,1.59,1.59,0,0,0-1-.43l-1.58-.22a4.39,4.39,0,0,1-2.6-1.3,3.72,3.72,0,0,1-.91-2.61,4,4,0,0,1,.56-2.15,3.79,3.79,0,0,1,1.59-1.39,5.38,5.38,0,0,1,2.43-.51,5.74,5.74,0,0,1,2.44.49,3.79,3.79,0,0,1,1.61,1.4,4.92,4.92,0,0,1,.67,2.24H588a2.08,2.08,0,0,0-2.18-1.69,2.16,2.16,0,0,0-1.43.41,1.4,1.4,0,0,0-.51,1.14,1.15,1.15,0,0,0,.35.84,1.69,1.69,0,0,0,1,.44l1.58.22a4.42,4.42,0,0,1,2.63,1.3,3.69,3.69,0,0,1,.91,2.59,4,4,0,0,1-.55,2.14,3.76,3.76,0,0,1-1.57,1.4,5.46,5.46,0,0,1-2.41.49,5.91,5.91,0,0,1-2.4-.45,3.85,3.85,0,0,1-1.62-1.29,3.94,3.94,0,0,1-.65-2.07Z"/><path class="cls-8" d="M594.39,353.81h5.46l-.83.95a3.78,3.78,0,0,0-.52-2.2,1.72,1.72,0,0,0-1.52-.73,1.83,1.83,0,0,0-1.59.77,3.64,3.64,0,0,0-.55,2.17,4,4,0,0,0,.54,2.28,1.86,1.86,0,0,0,1.65.78,2.21,2.21,0,0,0,1.13-.29,2.44,2.44,0,0,0,.84-.85h2.51a5.43,5.43,0,0,1-1,1.83,4.06,4.06,0,0,1-1.54,1.14,5.05,5.05,0,0,1-2,.39,4.79,4.79,0,0,1-2.47-.62,4.08,4.08,0,0,1-1.59-1.81,6.68,6.68,0,0,1-.55-2.85,6.12,6.12,0,0,1,.57-2.74,4.21,4.21,0,0,1,1.61-1.8,4.62,4.62,0,0,1,2.44-.63,4.28,4.28,0,0,1,2.31.61,4,4,0,0,1,1.48,1.76,6.71,6.71,0,0,1,.52,2.79c0,.16,0,.31,0,.47a3.12,3.12,0,0,1,0,.44h-6.83Z"/><path class="cls-8" d="M608.28,360.05a4.75,4.75,0,0,1-2.49-.63,4.2,4.2,0,0,1-1.62-1.79,6.06,6.06,0,0,1-.58-2.75,6.28,6.28,0,0,1,.59-2.8,4.29,4.29,0,0,1,1.65-1.84,4.93,4.93,0,0,1,2.53-.64,4.71,4.71,0,0,1,2.28.53,3.83,3.83,0,0,1,1.53,1.51,5.06,5.06,0,0,1,.61,2.31h-2.34a3,3,0,0,0-.74-1.51,1.89,1.89,0,0,0-1.37-.53,2,2,0,0,0-1.64.78,3.51,3.51,0,0,0-.6,2.18,3.42,3.42,0,0,0,.58,2.12,1.92,1.92,0,0,0,1.59.76,1.82,1.82,0,0,0,1.24-.45,2.61,2.61,0,0,0,.75-1.27h2.33a4.42,4.42,0,0,1-.65,2.14,4,4,0,0,1-1.51,1.39A4.53,4.53,0,0,1,608.28,360.05Z"/><path class="cls-8" d="M623.38,349.91v9.84h-2.59v-.9h-.59a2.2,2.2,0,0,1-.9.89,2.68,2.68,0,0,1-1.32.31,2.74,2.74,0,0,1-2.72-1.8,5.3,5.3,0,0,1-.37-2.1v-6.24h2.59v5.61a2.52,2.52,0,0,0,.42,1.59,1.46,1.46,0,0,0,1.23.53,1.5,1.5,0,0,0,1.24-.53,2.52,2.52,0,0,0,.42-1.59v-5.61Z"/><path class="cls-8" d="M626.07,349.91h4.21v.89h.61a2,2,0,0,1,.81-.87,2.33,2.33,0,0,1,1.22-.31,2,2,0,0,1,1.76.89,4.76,4.76,0,0,1,.59,2.61v1.59h-2.64v-1.25q0-1.35-1-1.35a1,1,0,0,0-.94.58,3.8,3.8,0,0,0-.31,1.75v3h2.79v2.31h-6.93v-2.31h1.65v-5.23h-1.83Z"/><path class="cls-8" d="M638,349.91h5.49v7.53h2.86v2.31H638v-2.31h2.9v-5.23H638Zm4.07-1.17a1.67,1.67,0,0,1-1.21-.4,1.48,1.48,0,0,1-.43-1.12,1.51,1.51,0,0,1,.43-1.15,2,2,0,0,1,2.41,0,1.47,1.47,0,0,1,.43,1.15,1.45,1.45,0,0,1-.43,1.12A1.66,1.66,0,0,1,642.06,348.74Z"/><path class="cls-8" d="M652.76,347.36v2.55h4.29v2.3h-4.29v4.11a2,2,0,0,0,.24,1.07.84.84,0,0,0,.75.36,1,1,0,0,0,.83-.44,3.76,3.76,0,0,0,.52-1.4h2.27a4.91,4.91,0,0,1-1,3.08,3.34,3.34,0,0,1-2.64,1.06,3.4,3.4,0,0,1-2.61-1,3.83,3.83,0,0,1-.91-2.74v-4.13h-1.86v-2.3h1.86v-2.55Z"/><path class="cls-8" d="M659.11,349.91h2.66l2.22,7h1.41l-.54,2h-2.8Zm9.84,0-3,10.85a3.61,3.61,0,0,1-1.14,1.86,3,3,0,0,1-1.94.63,3.1,3.1,0,0,1-2.21-.77,3.49,3.49,0,0,1-1-2.29H662a2,2,0,0,0,.35.66.68.68,0,0,0,.53.21.67.67,0,0,0,.5-.22,1.74,1.74,0,0,0,.33-.71l2.8-10.22Z"/></g></svg>