<svg id="Layer_1" data-name="Layer 1" xmlns="http://www.w3.org/2000/svg" viewBox="0 0 98.05 97.96"><defs><style>.cls-1{fill:#fff;}.cls-2{fill:#333;}</style></defs><circle class="cls-1" cx="49.1" cy="48.94" r="48.94"/><path class="cls-2" d="M39.21,77.13c23.91,0,37-19.8,37-37,0-.56,0-1.12,0-1.68a26.41,26.41,0,0,0,6.49-6.72,26,26,0,0,1-7.47,2,13,13,0,0,0,5.72-7.19,26.17,26.17,0,0,1-8.25,3.16,13,13,0,0,0-22.49,8.89,12.56,12.56,0,0,0,.34,3A36.91,36.91,0,0,1,23.7,28a13,13,0,0,0,4,17.35,12.86,12.86,0,0,1-5.88-1.62.81.81,0,0,0,0,.16A13,13,0,0,0,32.26,56.66a12.91,12.91,0,0,1-3.43.46,13.11,13.11,0,0,1-2.44-.23,13,13,0,0,0,12.14,9,26.06,26.06,0,0,1-16.14,5.57,26.47,26.47,0,0,1-3.1-.18,36.83,36.83,0,0,0,19.92,5.83"/></svg>